<svg width="925" height="346" viewBox="0 0 925 346" version="1.1" xmlns="http://www.w3.org/2000/svg" xmlns:xlink="http://www.w3.org/1999/xlink">
<title>Group 2</title>
<desc>Created using Figma</desc>
<g id="Canvas" transform="translate(-7515 -5139)">
<g id="Group 2">
<g id="Group Copy 4">
<g id="Group 3 Copy 6">
<g id="Group 2">
<g id="Rectangle 3">
<use xlink:href="#path0_fill" transform="matrix(-0.241922 -0.970296 0.970296 -0.241922 7907.34 5399.75)" fill="#FFFFFF"/>
</g>
<g id="Rectangle 3 Copy">
<use xlink:href="#path0_fill" transform="matrix(0.970296 -0.241922 0.241922 0.970296 7916.82 5379.87)" fill="#FFFFFF"/>
</g>
</g>
</g>
</g>
<g id="Group Copy 6">
<g id="Group 3 Copy 6">
<g id="Group 2">
<g id="Rectangle 3">
<use xlink:href="#path0_fill" transform="matrix(0.241922 -0.970296 -0.970296 -0.241922 8046.66 5401.75)" fill="#FFFFFF"/>
</g>
<g id="Rectangle 3 Copy">
<use xlink:href="#path0_fill" transform="matrix(-0.970296 -0.241922 -0.241922 0.970296 8037.18 5381.87)" fill="#FFFFFF"/>
</g>
</g>
</g>
</g>
<g id="Group Copy 5">
<g id="Group 3 Copy 6">
<g id="Group 2">
<g id="Rectangle 3">
<use xlink:href="#path0_fill" transform="matrix(0.707107 -0.707107 0.707107 0.707107 7964.54 5350.5)" fill="#FFFFFF"/>
</g>
<g id="Rectangle 3 Copy">
<use xlink:href="#path0_fill" transform="matrix(0.707107 0.707107 -0.707107 0.707107 7986.46 5348.38)" fill="#FFFFFF"/>
</g>
</g>
</g>
</g>
<g id="Line 3 Copy 2">
<use xlink:href="#path1_stroke" transform="matrix(-1 0 0 1 7923 5230)" fill="#FFFFFF"/>
</g>
<g id="Line 3 Copy 3">
<use xlink:href="#path2_stroke" transform="translate(8033 5230)" fill="#FFFFFF"/>
</g>
<g id="Line 4">
<use xlink:href="#path3_stroke" transform="translate(7976 5263)" fill="#FFFFFF"/>
</g>
<g id="Group">
<g id="Page 1">
<use xlink:href="#path4_stroke" transform="translate(7913 5363)" fill="#FFFFFF"/>
</g>
<g id="Page 1">
<g id="Fill 1">
<use xlink:href="#path5_fill" transform="translate(7941 5407.61)" fill="#FFFFFF"/>
</g>
<g id="Group 8">
<g id="Group 4">
<mask id="mask0_outline" mask-type="alpha">
<g id="Clip 3">
<use xlink:href="#path6_fill" transform="translate(7965.76 5414.27)" fill="#FFFFFF"/>
</g>
</mask>
<g id="Fill 2" mask="url(#mask0_outline)">
<use xlink:href="#path7_fill" transform="translate(7965.76 5414.27)" fill="#FFFFFF"/>
</g>
</g>
<mask id="mask1_outline" mask-type="alpha">
<g id="Clip 6">
<use xlink:href="#path8_fill" transform="translate(7941 5407.51)" fill="#FFFFFF"/>
</g>
</mask>
<g id="Fill 5" mask="url(#mask1_outline)">
<use xlink:href="#path9_fill" transform="translate(7986.28 5407.51)" fill="#FFFFFF"/>
</g>
<g id="Fill 7" mask="url(#mask1_outline)">
<use xlink:href="#path10_fill" transform="translate(7993.48 5414.27)" fill="#FFFFFF"/>
</g>
</g>
</g>
</g>
<g id="icon-google">
<g id="icon-google">
<g id="Group Copy 2">
<g id="Page 1">
<use xlink:href="#path4_stroke" transform="translate(7517 5141)" fill="#FFFFFF"/>
</g>
</g>
<g id="Page 1">
<g id="Fill 1">
<use xlink:href="#path11_fill" transform="translate(7549.54 5169.83)" fill="#1B1919"/>
</g>
<g id="Stroke 3">
<use xlink:href="#path12_stroke" transform="translate(7549.54 5169.83)" fill="#FEFEFE"/>
</g>
<g id="Fill 5">
<use xlink:href="#path13_fill" transform="translate(7549.5 5169.83)" fill="#1B1919"/>
</g>
<g id="Stroke 7">
<use xlink:href="#path14_stroke" transform="translate(7549.5 5169.83)" fill="#FEFEFE"/>
</g>
<g id="Fill 9">
<use xlink:href="#path15_fill" transform="translate(7578.65 5198.96)" fill="#1B1919"/>
</g>
<g id="Stroke 11">
<use xlink:href="#path16_stroke" transform="translate(7578.65 5198.96)" fill="#FEFEFE"/>
</g>
<g id="Fill 13">
<use xlink:href="#path17_fill" transform="translate(7556.15 5175.66)" fill="#FEFEFE"/>
</g>
<g id="Fill 15">
<use xlink:href="#path18_fill" transform="translate(7581.64 5161.5)" fill="#1B1919"/>
</g>
<g id="Stroke 17">
<use xlink:href="#path19_stroke" transform="translate(7581.64 5161.5)" fill="#FEFEFE"/>
</g>
<g id="Fill 19">
<use xlink:href="#path20_fill" transform="translate(7591.92 5171.07)" fill="#1B1919"/>
</g>
<g id="Stroke 21">
<use xlink:href="#path21_stroke" transform="translate(7591.92 5171.07)" fill="#FEFEFE"/>
</g>
</g>
</g>
</g>
<g id="icon-goverment">
<g id="icon-goverment">
<g id="Group Copy 3">
<g id="Page 1">
<use xlink:href="#path4_stroke" transform="translate(7913 5141)" fill="#FFFFFF"/>
</g>
</g>
<g id="Rectangle 2">
<mask id="mask2_outline_ins">
<use xlink:href="#path22_fill" fill="white" transform="translate(7954 5193)"/>
</mask>
<g mask="url(#mask2_outline_ins)">
<use xlink:href="#path23_stroke_2x" transform="translate(7954 5193)" fill="#FFFFFF"/>
</g>
</g>
<g id="Rectangle 4">
<use xlink:href="#path24_fill" transform="translate(7975 5165)" fill="#FFFFFF"/>
</g>
<g id="Rectangle 4 Copy">
<use xlink:href="#path25_fill" transform="translate(7953 5205)" fill="#FFFFFF"/>
</g>
<g id="Rectangle 4 Copy 2">
<use xlink:href="#path25_fill" transform="translate(7962 5205)" fill="#FFFFFF"/>
</g>
<g id="Rectangle 4 Copy 3">
<use xlink:href="#path25_fill" transform="translate(7971 5205)" fill="#FFFFFF"/>
</g>
<g id="Rectangle 4 Copy 4">
<use xlink:href="#path25_fill" transform="translate(7980 5205)" fill="#FFFFFF"/>
</g>
<g id="Rectangle 4 Copy 5">
<use xlink:href="#path25_fill" transform="translate(7989 5205)" fill="#FFFFFF"/>
</g>
<g id="Rectangle 4 Copy 6">
<use xlink:href="#path25_fill" transform="translate(7998 5205)" fill="#FFFFFF"/>
</g>
<g id="Rectangle 2 Copy">
<mask id="mask3_outline_ins">
<use xlink:href="#path26_fill" fill="white" transform="translate(7944 5202)"/>
</mask>
<g mask="url(#mask3_outline_ins)">
<use xlink:href="#path27_stroke_2x" transform="translate(7944 5202)" fill="#FFFFFF"/>
</g>
</g>
<g id="Rectangle 2 Copy 2">
<mask id="mask4_outline_ins">
<use xlink:href="#path28_fill" fill="white" transform="translate(7975 5161)"/>
</mask>
<g mask="url(#mask4_outline_ins)">
<use xlink:href="#path29_stroke_2x" transform="translate(7975 5161)" fill="#FFFFFF"/>
</g>
</g>
<g id="Path 2">
<use xlink:href="#path30_stroke" transform="translate(7960 5177)" fill="#FFFFFF"/>
</g>
</g>
</g>
<g id="icon-bank">
<g id="icon-bank">
<g id="icon-goverment copy">
<g id="Group 5">
<g id="Rectangle 2">
<mask id="mask5_outline_ins">
<use xlink:href="#path22_fill" fill="white" transform="translate(8351 5188)"/>
</mask>
<g mask="url(#mask5_outline_ins)">
<use xlink:href="#path23_stroke_2x" transform="translate(8351 5188)" fill="#FFFFFF"/>
</g>
</g>
<g id="Rectangle 2 Copy 6">
<mask id="mask6_outline_ins">
<use xlink:href="#path31_fill" fill="white" transform="translate(8345 5212)"/>
</mask>
<g mask="url(#mask6_outline_ins)">
<use xlink:href="#path32_stroke_2x" transform="translate(8345 5212)" fill="#FFFFFF"/>
</g>
</g>
<g id="Rectangle 4 Copy 2">
<use xlink:href="#path24_fill" transform="translate(8359 5200)" fill="#FFFFFF"/>
</g>
<g id="Rectangle 4 Copy 3">
<use xlink:href="#path24_fill" transform="translate(8368 5200)" fill="#FFFFFF"/>
</g>
<g id="Rectangle 4 Copy 4">
<use xlink:href="#path24_fill" transform="translate(8377 5200)" fill="#FFFFFF"/>
</g>
<g id="Rectangle 4 Copy 5">
<use xlink:href="#path24_fill" transform="translate(8386 5200)" fill="#FFFFFF"/>
</g>
<g id="Rectangle 2 Copy">
<mask id="mask7_outline_ins">
<use xlink:href="#path33_fill" fill="white" transform="translate(8351 5197)"/>
</mask>
<g mask="url(#mask7_outline_ins)">
<use xlink:href="#path34_stroke_2x" transform="translate(8351 5197)" fill="#FFFFFF"/>
</g>
</g>
<g id="Triangle">
<use xlink:href="#path35_stroke" transform="translate(8346 5165)" fill="#FFFFFF"/>
</g>
</g>
<g id="Group Copy 3">
<g id="Page 1">
<use xlink:href="#path4_stroke" transform="translate(8310 5141)" fill="#FFFFFF"/>
</g>
</g>
</g>
</g>
</g>
</g>
</g>
<defs>
<path id="path0_fill" fill-rule="evenodd" d="M 0 1.5C 0 0.671573 0.671573 0 1.5 0C 2.32843 0 3 0.671573 3 1.5L 3 15.5C 3 16.3284 2.32843 17 1.5 17C 0.671573 17 0 16.3284 0 15.5L 0 1.5Z"/>
<path id="path1_stroke" d="M -0.747622 163.7L -2.04803 164.447L -0.552787 167.048L 0.747622 166.3L -0.747622 163.7ZM 287.748 1.30041L 289.048 0.552787L 287.553 -2.04803L 286.252 -1.30041L 287.748 1.30041ZM 0.747622 166.3L 287.748 1.30041L 286.252 -1.30041L -0.747622 163.7L 0.747622 166.3Z"/>
<path id="path2_stroke" d="M -0.747115 164.699L -2.04781 165.446L -0.553585 168.048L 0.747115 167.301L -0.747115 164.699ZM 289.747 1.3007L 291.048 0.553585L 289.554 -2.04781L 288.253 -1.3007L 289.747 1.3007ZM 0.747115 167.301L 289.747 1.3007L 288.253 -1.3007L -0.747115 164.699L 0.747115 167.301Z"/>
<path id="path3_stroke" d="M 2.5 0.5L 2.5 -1L -0.5 -1L -0.5 0.5L 2.5 0.5ZM -0.5 99L -0.5 100.5L 2.5 100.5L 2.5 99L -0.5 99ZM -0.5 0.5L -0.5 99L 2.5 99L 2.5 0.5L -0.5 0.5Z"/>
<path id="path4_stroke" d="M 123.553 76.6308L 122.253 75.8819L 122.253 75.882L 123.553 76.6308ZM 123.553 43.3692L 122.253 44.118L 122.253 44.1181L 123.553 43.3692ZM 108.149 16.6308L 109.449 15.882L 109.449 15.8819L 108.149 16.6308ZM 19.8512 16.6308L 21.1509 17.3796L 21.1509 17.3796L 19.8512 16.6308ZM 4.44694 43.3692L 5.74665 44.1181L 5.74669 44.118L 4.44694 43.3692ZM 4.44694 76.6308L 5.74669 75.882L 5.74665 75.8819L 4.44694 76.6308ZM 19.8512 103.369L 21.1509 102.62L 21.1509 102.62L 19.8512 103.369ZM 108.149 103.369L 109.449 104.118L 109.449 104.118L 108.149 103.369ZM 124.853 77.3796C 131.049 66.625 131.049 53.375 124.853 42.6204L 122.253 44.1181C 127.916 53.9457 127.916 66.0543 122.253 75.8819L 124.853 77.3796ZM 124.853 42.6204C 122.452 38.4526 119.801 33.8519 117.151 29.2512C 114.5 24.6505 111.85 20.0498 109.449 15.882L 106.849 17.3796C 109.25 21.5474 111.901 26.1481 114.551 30.7488C 117.202 35.3495 119.852 39.9502 122.253 44.118L 124.853 42.6204ZM 109.449 15.8819C 103.252 5.12701 91.8 -1.5 79.4044 -1.5L 79.4044 1.5C 90.7251 1.5 101.187 7.5523 106.849 17.3796L 109.449 15.8819ZM 79.4044 -1.5L 48.5956 -1.5L 48.5956 1.5L 79.4044 1.5L 79.4044 -1.5ZM 48.5956 -1.5C 36.2 -1.5 24.7475 5.12698 18.5514 15.882L 21.1509 17.3796C 26.8125 7.55233 37.2749 1.5 48.5956 1.5L 48.5956 -1.5ZM 18.5514 15.882C 13.749 24.2176 7.94918 34.2848 3.14718 42.6205L 5.74669 44.118C 10.5487 35.7824 16.3485 25.7152 21.1509 17.3796L 18.5514 15.882ZM 3.14722 42.6204C -3.04908 53.375 -3.04908 66.625 3.14722 77.3796L 5.74665 75.8819C 0.0844507 66.0543 0.0844507 53.9457 5.74665 44.1181L 3.14722 42.6204ZM 3.14718 77.3795C 7.94918 85.7152 13.749 95.7824 18.5514 104.118L 21.1509 102.62C 16.3485 94.2848 10.5487 84.2176 5.74669 75.882L 3.14718 77.3795ZM 18.5514 104.118C 24.7475 114.873 36.2 121.5 48.5956 121.5L 48.5956 118.5C 37.2749 118.5 26.8125 112.448 21.1509 102.62L 18.5514 104.118ZM 48.5956 121.5L 79.4044 121.5L 79.4044 118.5L 48.5956 118.5L 48.5956 121.5ZM 79.4044 121.5C 91.8 121.5 103.252 114.873 109.449 104.118L 106.849 102.62C 101.187 112.448 90.7251 118.5 79.4044 118.5L 79.4044 121.5ZM 109.449 104.118C 111.85 99.9502 114.5 95.3495 117.151 90.7488C 119.801 86.1481 122.452 81.5474 124.853 77.3796L 122.253 75.882C 119.852 80.0498 117.202 84.6505 114.551 89.2512C 111.901 93.8519 109.25 98.4526 106.849 102.62L 109.449 104.118Z"/>
<path id="path5_fill" fill-rule="evenodd" d="M 8.06631 0L 0 23.9314L 5.64425 23.9314L 6.84823 20.1148L 16.049 20.1148L 17.2525 23.9314L 22.8967 23.9314L 14.8304 0L 8.06631 0ZM 11.4488 5.58691L 14.5103 15.2667L 8.38672 15.2667L 11.4488 5.58691Z"/>
<path id="path6_fill" fill-rule="evenodd" d="M 0 0L 18.1523 0L 18.1523 24.4173L 0 24.4173L 0 0Z"/>
<path id="path7_fill" fill-rule="evenodd" d="M 9.07621 4.5708C 11.6297 4.5708 13.3458 6.3435 13.3458 8.98172C 13.3458 11.6194 11.6297 13.3921 9.07621 13.3921C 6.52273 13.3921 4.80664 11.6194 4.80664 8.98172C 4.80664 6.3435 6.52273 4.5708 9.07621 4.5708ZM 10.1082 17.9637C 14.619 17.9637 18.1523 14.0185 18.1523 8.98184C 18.1523 3.94514 14.619 0 10.1082 0C 7.97013 0 6.2903 0.691302 5.11653 2.05511L 4.80685 2.41422L 4.80685 0.485587L 0 0.485587L 0 24.4175L 4.80685 24.4175L 4.80685 15.549L 5.11653 15.9081C 6.2908 17.2719 7.97013 17.9637 10.1082 17.9637Z"/>
<path id="path8_fill" fill-rule="evenodd" d="M 0 31.1792L 70.6364 31.1792L 70.6364 0L 0 0L 0 31.1792Z"/>
<path id="path9_fill" fill-rule="evenodd" d="M 0 24.0315L 4.80685 24.0315L 4.80685 0L 0 0L 0 24.0315Z"/>
<path id="path10_fill" fill-rule="evenodd" d="M 9.07621 13.3921C 6.52273 13.3921 4.80664 11.6194 4.80664 8.98121C 4.80664 6.3435 6.52273 4.5708 9.07621 4.5708C 11.6297 4.5708 13.3458 6.3435 13.3458 8.98121C 13.3458 11.6194 11.6297 13.3921 9.07621 13.3921ZM 18.1523 17.4776L 18.1523 0.485587L 13.346 0.485587L 13.346 2.41422L 13.0363 2.05511C 11.8625 0.691302 10.1832 0 8.04465 0C 3.53389 0 0 3.94514 0 8.98133C 0 14.018 3.53389 17.9637 8.04465 17.9637C 10.1827 17.9637 11.8625 17.2719 13.0363 15.9081L 13.346 15.549L 13.346 17.4776L 18.1523 17.4776Z"/>
<path id="path11_fill" fill-rule="evenodd" d="M 53.455 59.228L 5.772 59.228C 2.598 59.228 0 56.63 0 53.456L 0 5.773C 0 2.598 2.598 0 5.772 0L 53.455 0C 56.63 0 59.227 2.598 59.227 5.773L 59.227 53.456C 59.227 56.63 56.63 59.228 53.455 59.228Z"/>
<path id="path12_stroke" d="M 53.455 57.728L 5.772 57.728L 5.772 60.728L 53.455 60.728L 53.455 57.728ZM 5.772 57.728C 3.42643 57.728 1.5 55.8016 1.5 53.456L -1.5 53.456C -1.5 57.4584 1.76957 60.728 5.772 60.728L 5.772 57.728ZM 1.5 53.456L 1.5 5.773L -1.5 5.773L -1.5 53.456L 1.5 53.456ZM 1.5 5.773C 1.5 3.42626 3.4266 1.5 5.772 1.5L 5.772 -1.5C 1.7694 -1.5 -1.5 1.76974 -1.5 5.773L 1.5 5.773ZM 5.772 1.5L 53.455 1.5L 53.455 -1.5L 5.772 -1.5L 5.772 1.5ZM 53.455 1.5C 55.8012 1.5 57.727 3.42609 57.727 5.773L 60.727 5.773C 60.727 1.76991 57.4588 -1.5 53.455 -1.5L 53.455 1.5ZM 57.727 5.773L 57.727 53.456L 60.727 53.456L 60.727 5.773L 57.727 5.773ZM 57.727 53.456C 57.727 55.8017 55.8014 57.728 53.455 57.728L 53.455 60.728C 57.4586 60.728 60.727 57.4583 60.727 53.456L 57.727 53.456Z"/>
<path id="path13_fill" fill-rule="evenodd" d="M 0 53.287L 0 52.294L 52.293 0L 53.285 0C 56.036 0 58.269 2.233 58.269 4.983L 58.269 5.976L 5.976 58.268L 4.982 58.268C 2.231 58.268 0 56.036 0 53.287Z"/>
<path id="path14_stroke" d="M 0 52.294L -1.06067 51.2333L -1.5 51.6727L -1.5 52.294L 0 52.294ZM 52.293 0L 52.293 -1.5L 51.6717 -1.5L 51.2323 -1.06065L 52.293 0ZM 58.269 5.976L 59.3297 7.03667L 59.769 6.59733L 59.769 5.976L 58.269 5.976ZM 5.976 58.268L 5.976 59.768L 6.59731 59.768L 7.03665 59.3287L 5.976 58.268ZM 1.5 53.287L 1.5 52.294L -1.5 52.294L -1.5 53.287L 1.5 53.287ZM 1.06067 53.3546L 53.3537 1.06065L 51.2323 -1.06065L -1.06067 51.2333L 1.06067 53.3546ZM 52.293 1.5L 53.285 1.5L 53.285 -1.5L 52.293 -1.5L 52.293 1.5ZM 53.285 1.5C 55.2078 1.5 56.769 3.06162 56.769 4.983L 59.769 4.983C 59.769 1.40438 56.8642 -1.5 53.285 -1.5L 53.285 1.5ZM 56.769 4.983L 56.769 5.976L 59.769 5.976L 59.769 4.983L 56.769 4.983ZM 57.2084 4.91533L 4.91535 57.2073L 7.03665 59.3287L 59.3297 7.03667L 57.2084 4.91533ZM 5.976 56.768L 4.982 56.768L 4.982 59.768L 5.976 59.768L 5.976 56.768ZM 4.982 56.768C 3.05943 56.768 1.5 55.2076 1.5 53.287L -1.5 53.287C -1.5 56.8644 1.40257 59.768 4.982 59.768L 4.982 56.768Z"/>
<path id="path15_fill" fill-rule="evenodd" d="M 23.139 29.134L 0 5.975L 5.976 0L 29.115 23.159L 29.115 24.153C 29.115 26.902 26.882 29.134 24.131 29.134L 23.139 29.134Z"/>
<path id="path16_stroke" d="M 23.139 29.134L 22.0779 30.1942L 22.5173 30.634L 23.139 30.634L 23.139 29.134ZM 0 5.975L -1.06057 4.91425L -2.12095 5.97445L -1.06112 7.0352L 0 5.975ZM 5.976 0L 7.03712 -1.0602L 5.97655 -2.12169L 4.91543 -1.06075L 5.976 0ZM 29.115 23.159L 30.615 23.159L 30.615 22.5381L 30.1761 22.0988L 29.115 23.159ZM 24.2001 28.0738L 1.06112 4.9148L -1.06112 7.0352L 22.0779 30.1942L 24.2001 28.0738ZM 1.06057 7.03575L 7.03657 1.06075L 4.91543 -1.06075L -1.06057 4.91425L 1.06057 7.03575ZM 4.91488 1.0602L 28.0539 24.2192L 30.1761 22.0988L 7.03712 -1.0602L 4.91488 1.0602ZM 27.615 23.159L 27.615 24.153L 30.615 24.153L 30.615 23.159L 27.615 23.159ZM 27.615 24.153C 27.615 26.0728 26.0544 27.634 24.131 27.634L 24.131 30.634C 27.7096 30.634 30.615 27.7312 30.615 24.153L 27.615 24.153ZM 24.131 27.634L 23.139 27.634L 23.139 30.634L 24.131 30.634L 24.131 27.634Z"/>
<path id="path17_fill" fill-rule="evenodd" d="M 15.693 6.748L 12.63 6.748L 7.888 6.748L 7.888 9.454L 12.506 9.454C 11.854 11.379 10.034 12.766 7.888 12.766C 5.195 12.766 3.011 10.582 3.011 7.889C 3.011 5.195 5.195 3.012 7.888 3.012C 9.107 3.012 10.221 3.46 11.077 4.2L 13.234 2.09C 11.829 0.793 9.951 0 7.888 0C 3.531 0 0 3.532 0 7.889C 0 12.246 3.531 15.777 7.888 15.777C 11.709 15.777 14.894 13.061 15.621 9.454C 15.722 8.948 15.777 8.425 15.777 7.889C 15.777 7.501 15.748 7.121 15.693 6.748Z"/>
<path id="path18_fill" fill-rule="evenodd" d="M 15.685 49.858L 15.66 49.858C 15.139 49.858 14.868 49.464 14.809 49.039C 13.542 39.85 11.131 36.398 9.069 32.978C 5.643 27.301 0 21.017 0 14.778C 0 6.92 6.43 0 15.648 0L 15.696 0C 24.914 0 31.345 6.92 31.345 14.778C 31.345 21.017 25.702 27.301 22.275 32.978C 20.212 36.398 17.802 39.85 16.536 49.039C 16.476 49.464 16.205 49.858 15.685 49.858Z"/>
<path id="path19_stroke" d="M 14.809 49.039L 13.3231 49.2439L 13.3232 49.2453L 14.809 49.039ZM 9.069 32.978L 10.3536 32.2035L 10.3533 32.203L 9.069 32.978ZM 22.275 32.978L 20.9908 32.2028L 20.9906 32.2032L 22.275 32.978ZM 16.536 49.039L 18.0213 49.2487L 18.022 49.2437L 16.536 49.039ZM 15.685 48.358L 15.66 48.358L 15.66 51.358L 15.685 51.358L 15.685 48.358ZM 15.66 48.358C 15.7228 48.358 15.8144 48.3708 15.9168 48.4156C 16.0187 48.4602 16.1014 48.5234 16.1624 48.5893C 16.2759 48.712 16.2924 48.8155 16.2948 48.8327L 13.3232 49.2453C 13.3846 49.6875 13.5661 50.2005 13.9601 50.6264C 14.3838 51.0845 14.9808 51.358 15.66 51.358L 15.66 48.358ZM 16.2949 48.8341C 15.6468 44.1334 14.6979 40.8446 13.6212 38.267C 12.5498 35.7021 11.3613 33.8749 10.3536 32.2035L 7.78442 33.7525C 8.83871 35.5011 9.88668 37.1099 10.853 39.4233C 11.8141 41.7239 12.7042 44.7556 13.3231 49.2439L 16.2949 48.8341ZM 10.3533 32.203C 9.47133 30.7416 8.4511 29.2482 7.44661 27.7726C 6.43269 26.2831 5.42975 24.8044 4.53549 23.3162C 2.72799 20.3081 1.5 17.472 1.5 14.778L -1.5 14.778C -1.5 18.323 0.093512 21.7484 1.96401 24.8613C 2.90875 26.4336 3.95894 27.9803 4.96665 29.4607C 5.98378 30.9549 6.95367 32.3759 7.78474 33.753L 10.3533 32.203ZM 1.5 14.778C 1.5 7.77287 7.23377 1.5 15.648 1.5L 15.648 -1.5C 5.62623 -1.5 -1.5 6.06713 -1.5 14.778L 1.5 14.778ZM 15.648 1.5L 15.696 1.5L 15.696 -1.5L 15.648 -1.5L 15.648 1.5ZM 15.696 1.5C 24.1104 1.5 29.845 7.773 29.845 14.778L 32.845 14.778C 32.845 6.067 25.7176 -1.5 15.696 -1.5L 15.696 1.5ZM 29.845 14.778C 29.845 17.472 28.617 20.3081 26.8094 23.3161C 25.9151 24.8044 24.9121 26.283 23.898 27.7725C 22.8934 29.2481 21.873 30.7415 20.9908 32.2028L 23.5592 33.7532C 24.3905 32.376 25.3606 30.955 26.3779 29.4608C 27.3857 27.9804 28.436 26.4336 29.3808 24.8614C 31.2515 21.7484 32.845 18.323 32.845 14.778L 29.845 14.778ZM 20.9906 32.2032C 19.9822 33.8749 18.7937 35.702 17.7225 38.2671C 16.646 40.8447 15.6977 44.1336 15.05 48.8343L 18.022 49.2437C 18.6403 44.7554 19.53 41.7238 20.4908 39.4232C 21.4568 37.11 22.5048 35.5011 23.5594 33.7528L 20.9906 32.2032ZM 15.0507 48.8293C 15.053 48.8135 15.0691 48.7112 15.1818 48.5893C 15.2425 48.5238 15.3251 48.4605 15.427 48.4159C 15.5295 48.3709 15.6216 48.358 15.685 48.358L 15.685 51.358C 16.3647 51.358 16.9611 51.0838 17.3842 50.6264C 17.7774 50.2013 17.959 49.6895 18.0213 49.2487L 15.0507 48.8293Z"/>
<path id="path20_fill" fill-rule="evenodd" d="M 1.578 1.57875C 3.683 -0.52625 7.104 -0.52625 9.21 1.57875C 11.313 3.68275 11.313 7.10475 9.21 9.20775C 7.104 11.3138 3.683 11.3138 1.578 9.20775C -0.526 7.10475 -0.526 3.68275 1.578 1.57875Z"/>
<path id="path21_stroke" d="M 9.21 1.57875L 10.2709 0.518342L 10.2704 0.517838L 9.21 1.57875ZM 1.578 9.20775L 2.63891 8.14734L 2.63841 8.14684L 1.578 9.20775ZM 2.63866 2.63941C 4.15773 1.12034 6.62918 1.11997 8.14959 2.63966L 10.2704 0.517838C 7.57882 -2.17247 3.20827 -2.17284 0.51734 0.51809L 2.63866 2.63941ZM 8.14909 2.63916C 9.66678 4.15757 9.66641 6.63002 8.14934 8.14709L 10.2707 10.2684C 12.9596 7.57948 12.9592 3.20793 10.2709 0.518342L 8.14909 2.63916ZM 8.14934 8.14709C 6.62899 9.66744 4.15793 9.66708 2.63891 8.14734L 0.517088 10.2682C 3.20807 12.9604 7.57901 12.9601 10.2707 10.2684L 8.14934 8.14709ZM 2.63841 8.14684C 1.12067 6.62982 1.12031 4.15776 2.63866 2.63941L 0.51734 0.51809C -2.17231 3.20774 -2.17267 7.57968 0.517592 10.2687L 2.63841 8.14684Z"/>
<path id="path22_fill" fill-rule="evenodd" d="M 0 0L 46 0L 46 12L 0 12L 0 0Z"/>
<path id="path23_stroke_2x" d="M 0 0L 0 -3L -3 -3L -3 0L 0 0ZM 46 0L 49 0L 49 -3L 46 -3L 46 0ZM 46 12L 46 15L 49 15L 49 12L 46 12ZM 0 12L -3 12L -3 15L 0 15L 0 12ZM 0 3L 46 3L 46 -3L 0 -3L 0 3ZM 43 0L 43 12L 49 12L 49 0L 43 0ZM 46 9L 0 9L 0 15L 46 15L 46 9ZM 3 12L 3 0L -3 0L -3 12L 3 12Z"/>
<path id="path24_fill" fill-rule="evenodd" d="M 0 0L 3 0L 3 12L 0 12L 0 0Z"/>
<path id="path25_fill" fill-rule="evenodd" d="M 0 0L 3 0L 3 18L 0 18L 0 0Z"/>
<path id="path26_fill" fill-rule="evenodd" d="M 0 0L 66 0L 66 24L 0 24L 0 0Z"/>
<path id="path27_stroke_2x" d="M 0 0L 0 -3L -3 -3L -3 0L 0 0ZM 66 0L 69 0L 69 -3L 66 -3L 66 0ZM 66 24L 66 27L 69 27L 69 24L 66 24ZM 0 24L -3 24L -3 27L 0 27L 0 24ZM 0 3L 66 3L 66 -3L 0 -3L 0 3ZM 63 0L 63 24L 69 24L 69 0L 63 0ZM 66 21L 0 21L 0 27L 66 27L 66 21ZM 3 24L 3 0L -3 0L -3 24L 3 24Z"/>
<path id="path28_fill" fill-rule="evenodd" d="M 0 0L 13 0L 13 9L 0 9L 0 0Z"/>
<path id="path29_stroke_2x" d="M 0 0L 0 -3L -3 -3L -3 0L 0 0ZM 13 0L 16 0L 16 -3L 13 -3L 13 0ZM 13 9L 13 12L 16 12L 16 9L 13 9ZM 0 9L -3 9L -3 12L 0 12L 0 9ZM 0 3L 13 3L 13 -3L 0 -3L 0 3ZM 10 0L 10 9L 16 9L 16 0L 10 0ZM 13 6L 0 6L 0 12L 13 12L 13 6ZM 3 9L 3 0L -3 0L -3 9L 3 9Z"/>
<path id="path30_stroke" d="M 0 17.5186C 1.5 17.5186 1.5 17.5192 1.5 17.5198C 1.5 17.5199 1.5 17.5204 1.5 17.5206C 1.5 17.5211 1.5 17.5212 1.5 17.5211C 1.5 17.521 1.5 17.5197 1.50002 17.5175C 1.50005 17.513 1.50014 17.5045 1.50034 17.492C 1.50073 17.467 1.50158 17.4262 1.50339 17.3707C 1.50701 17.2597 1.51447 17.0902 1.52984 16.8704C 1.5606 16.4304 1.62281 15.7923 1.74835 15.0228C 2.00061 13.4765 2.5023 11.4382 3.49068 9.41864C 4.47653 7.40421 5.9302 5.44011 8.07829 3.97702C 10.2154 2.52141 13.1294 1.5 17.147 1.5L 17.147 -1.5C 12.5911 -1.5 9.07496 -0.331594 6.38947 1.49753C 3.71497 3.31916 1.95358 5.73471 0.796064 8.09991C -0.358932 10.46 -0.928921 12.8014 -1.21251 14.5398C -1.35489 15.4126 -1.42664 16.1431 -1.46286 16.6612C -1.48098 16.9205 -1.49026 17.1273 -1.49502 17.2729C -1.49739 17.3457 -1.49864 17.4033 -1.49929 17.4446C -1.49962 17.4653 -1.49979 17.4818 -1.49989 17.4942C -1.49994 17.5004 -1.49997 17.5055 -1.49998 17.5096C -1.49999 17.5116 -1.49999 17.5134 -1.5 17.5149C -1.5 17.5156 -1.5 17.5165 -1.5 17.5169C -1.5 17.5178 -1.5 17.5186 0 17.5186ZM 17.147 1.5C 21.1646 1.5 24.0786 2.52141 26.2157 3.97702C 28.3637 5.44011 29.8174 7.40421 30.8033 9.41864C 31.7916 11.4382 32.2933 13.4765 32.5456 15.0228C 32.6711 15.7923 32.7333 16.4304 32.7641 16.8704C 32.7795 17.0902 32.7869 17.2597 32.7906 17.3707C 32.7924 17.4262 32.7932 17.467 32.7936 17.492C 32.7938 17.5045 32.7939 17.513 32.7939 17.5175C 32.7939 17.5197 32.7939 17.521 32.7939 17.5211C 32.7939 17.5212 32.7939 17.5211 32.7939 17.5206C 32.7939 17.5204 32.7939 17.5199 32.7939 17.5198C 32.7939 17.5192 32.7939 17.5186 34.2939 17.5186C 35.7939 17.5186 35.7939 17.5178 35.7939 17.5169C 35.7939 17.5165 35.7939 17.5156 35.7939 17.5149C 35.7939 17.5134 35.7939 17.5116 35.7939 17.5096C 35.7939 17.5055 35.7939 17.5004 35.7938 17.4942C 35.7937 17.4818 35.7936 17.4653 35.7932 17.4446C 35.7926 17.4033 35.7913 17.3457 35.789 17.2729C 35.7842 17.1273 35.7749 16.9205 35.7568 16.6612C 35.7206 16.1431 35.6488 15.4126 35.5065 14.5398C 35.2229 12.8014 34.6529 10.46 33.4979 8.09991C 32.3404 5.73471 30.579 3.31916 27.9045 1.49753C 25.219 -0.331594 21.7029 -1.5 17.147 -1.5L 17.147 1.5Z"/>
<path id="path31_fill" fill-rule="evenodd" d="M 0 0L 58 0L 58 12L 0 12L 0 0Z"/>
<path id="path32_stroke_2x" d="M 0 0L 0 -3L -3 -3L -3 0L 0 0ZM 58 0L 61 0L 61 -3L 58 -3L 58 0ZM 58 12L 58 15L 61 15L 61 12L 58 12ZM 0 12L -3 12L -3 15L 0 15L 0 12ZM 0 3L 58 3L 58 -3L 0 -3L 0 3ZM 55 0L 55 12L 61 12L 61 0L 55 0ZM 58 9L 0 9L 0 15L 58 15L 58 9ZM 3 12L 3 0L -3 0L -3 12L 3 12Z"/>
<path id="path33_fill" fill-rule="evenodd" d="M 0 0L 46 0L 46 18L 0 18L 0 0Z"/>
<path id="path34_stroke_2x" d="M 0 0L 0 -3L -3 -3L -3 0L 0 0ZM 46 0L 49 0L 49 -3L 46 -3L 46 0ZM 46 18L 46 21L 49 21L 49 18L 46 18ZM 0 18L -3 18L -3 21L 0 21L 0 18ZM 0 3L 46 3L 46 -3L 0 -3L 0 3ZM 43 0L 43 18L 49 18L 49 0L 43 0ZM 46 15L 0 15L 0 21L 46 21L 46 15ZM 3 18L 3 0L -3 0L -3 18L 3 18Z"/>
<path id="path35_stroke" d="M 28 0L 28.9762 -1.13888C 28.4145 -1.62037 27.5855 -1.62037 27.0238 -1.13888L 28 0ZM 56 24L 56 25.5C 56.6277 25.5 57.189 25.1091 57.4068 24.5204C 57.6246 23.9317 57.4528 23.2696 56.9762 22.8611L 56 24ZM 0 24L -0.976187 22.8611C -1.45278 23.2696 -1.62461 23.9317 -1.40683 24.5204C -1.18904 25.1091 -0.627714 25.5 2.16757e-16 25.5L 0 24ZM 27.0238 1.13888L 55.0238 25.1389L 56.9762 22.8611L 28.9762 -1.13888L 27.0238 1.13888ZM 56 22.5L 0 22.5L 0 25.5L 56 25.5L 56 22.5ZM 0.976187 25.1389L 28.9762 1.13888L 27.0238 -1.13888L -0.976187 22.8611L 0.976187 25.1389Z"/>
</defs>
</svg>
