<svg width="60" height="60" viewBox="0 0 60 60" version="1.1" xmlns="http://www.w3.org/2000/svg" xmlns:xlink="http://www.w3.org/1999/xlink">
<title>icon-process</title>
<desc>Created using Figma</desc>
<g id="Canvas" transform="translate(-7692 -9838)">
<g id="icon-process">
<g id="Page 1">
<g id="Group 5">
<g id="Path">
<use xlink:href="#path0_stroke" transform="translate(7714.68 9861.71)" fill="#1C1A1A"/>
</g>
<g id="Path">
<mask id="mask0_outline_ins">
<use xlink:href="#path1_fill" fill="white" transform="translate(7696 9842.07)"/>
</mask>
<g mask="url(#mask0_outline_ins)">
<use xlink:href="#path2_stroke_2x" transform="translate(7696 9842.07)" fill="#1C1A1A"/>
</g>
</g>
</g>
</g>
</g>
</g>
<defs>
<path id="path0_stroke" d="M 7.42095 -1.5C 2.52026 -1.5 -1.5 2.43626 -1.5 7.32105L 1.5 7.32105C 1.5 4.13149 4.13847 1.5 7.42095 1.5L 7.42095 -1.5ZM -1.5 7.32105C -1.5 12.2058 2.52026 16.1421 7.42095 16.1421L 7.42095 13.1421C 4.13847 13.1421 1.5 10.5106 1.5 7.32105L -1.5 7.32105ZM 7.42095 16.1421C 12.3216 16.1421 16.3419 12.2058 16.3419 7.32105L 13.3419 7.32105C 13.3419 10.5106 10.7034 13.1421 7.42095 13.1421L 7.42095 16.1421ZM 16.3419 7.32105C 16.3419 2.43626 12.3216 -1.5 7.42095 -1.5L 7.42095 1.5C 10.7034 1.5 13.3419 4.13149 13.3419 7.32105L 16.3419 7.32105Z"/>
<path id="path1_fill" fill-rule="evenodd" d="M 23.3958 53.9332C 21.1112 53.9332 19.2522 52.0992 19.2522 49.8454L 19.2522 45.4855C 17.0778 44.7032 15.0689 43.5571 13.2811 42.0795L 9.3811 44.3009C 7.40168 45.4275 4.86326 44.7559 3.72131 42.8051L 1.01458 38.1794C 0.460367 37.2337 0.313946 36.1321 0.599946 35.0777C 0.88663 34.0234 1.57221 33.1418 2.53079 32.5957L 6.426 30.377C 6.22484 29.2498 6.12289 28.1023 6.12289 26.9662C 6.12289 26.2352 6.16531 25.4941 6.2481 24.7631L 2.07031 22.383C 0.0922616 21.2564 -0.587844 18.7515 0.554104 16.8001L 3.26084 12.1743C 4.40347 10.2235 6.94258 9.55125 8.92063 10.6778L 12.3786 12.6482C 14.3758 10.7838 16.6871 9.37035 19.2522 8.44695L 19.2522 4.08712C 19.2522 1.8333 21.1112 0 23.3958 0L 28.8093 0C 31.0938 0 32.9522 1.8333 32.9522 4.08712L 32.9522 8.44695C 35.3154 9.29745 37.4714 10.5678 39.3618 12.2249L 42.8547 10.2357C 44.8321 9.10845 47.3712 9.78075 48.5138 11.7322L 51.2206 16.3573C 51.7741 17.3029 51.9212 18.4046 51.6345 19.4589C 51.3478 20.5133 50.6629 21.3948 49.7044 21.9409L 45.8728 24.1231C 46.0117 25.0634 46.0822 26.0192 46.0822 26.9662C 46.0822 28.1367 45.9734 29.3186 45.7606 30.4803L 49.5586 32.6437C 51.5374 33.7709 52.2175 36.2752 51.0762 38.2273L 48.3688 42.8524C 47.8153 43.798 46.9217 44.4744 45.8529 44.7572C 44.7835 45.0394 43.6676 44.8942 42.709 44.3489L 38.8432 42.147C 37.0773 43.5915 35.0958 44.714 32.9522 45.4862L 32.9522 49.8454C 32.9522 52.0992 31.0938 53.9332 28.8093 53.9332L 23.3958 53.9332Z"/>
<path id="path2_stroke_2x" d="M 19.2522 45.4855L 22.2522 45.4855L 22.2522 43.3766L 20.2678 42.6627L 19.2522 45.4855ZM 13.2811 42.0795L 15.1923 39.767L 13.5959 38.4477L 11.7963 39.4727L 13.2811 42.0795ZM 9.3811 44.3009L 10.865 46.9082L 10.8659 46.9077L 9.3811 44.3009ZM 3.72131 42.8051L 1.13202 44.3202L 1.1323 44.3207L 3.72131 42.8051ZM 1.01458 38.1794L 3.60387 36.6642L 3.60285 36.6625L 1.01458 38.1794ZM 0.599946 35.0777L -2.29495 34.2906L -2.29542 34.2923L 0.599946 35.0777ZM 2.53079 32.5957L 1.04596 29.989L 1.04583 29.989L 2.53079 32.5957ZM 6.426 30.377L 7.91083 32.9838L 9.75148 31.9354L 9.37934 29.85L 6.426 30.377ZM 6.2481 24.7631L 9.22905 25.1006L 9.45162 23.1354L 7.73311 22.1564L 6.2481 24.7631ZM 2.07031 22.383L 3.55532 19.7763L 3.55501 19.7761L 2.07031 22.383ZM 0.554104 16.8001L 3.14335 18.3153L 3.1434 18.3152L 0.554104 16.8001ZM 3.26084 12.1743L 0.672219 10.658L 0.671545 10.6592L 3.26084 12.1743ZM 8.92063 10.6778L 10.4058 8.07125L 10.4053 8.07097L 8.92063 10.6778ZM 12.3786 12.6482L 10.8934 15.2547L 12.8118 16.3478L 14.4258 14.8412L 12.3786 12.6482ZM 19.2522 8.44695L 20.2683 11.2696L 22.2522 10.5555L 22.2522 8.44695L 19.2522 8.44695ZM 32.9522 8.44695L 29.9522 8.44695L 29.9522 10.5557L 31.9363 11.2697L 32.9522 8.44695ZM 39.3618 12.2249L 37.3843 14.4809L 38.9905 15.8888L 40.8465 14.8318L 39.3618 12.2249ZM 42.8547 10.2357L 44.3394 12.8426L 44.3405 12.8419L 42.8547 10.2357ZM 48.5138 11.7322L 51.103 10.2169L 51.1027 10.2163L 48.5138 11.7322ZM 51.2206 16.3573L 48.6314 17.8725L 48.6315 17.8727L 51.2206 16.3573ZM 49.7044 21.9409L 51.1891 24.5477L 51.1893 24.5476L 49.7044 21.9409ZM 45.8728 24.1231L 44.3881 21.5163L 42.6052 22.5318L 42.905 24.5615L 45.8728 24.1231ZM 45.7606 30.4803L 42.8097 29.9398L 42.4261 32.0335L 44.2758 33.0871L 45.7606 30.4803ZM 49.5586 32.6437L 51.0436 30.037L 51.0435 30.0369L 49.5586 32.6437ZM 51.0762 38.2273L 53.6652 39.7428L 53.6661 39.7414L 51.0762 38.2273ZM 48.3688 42.8524L 45.7798 41.3368L 45.7797 41.3369L 48.3688 42.8524ZM 45.8529 44.7572L 46.6183 47.658L 46.6204 47.6574L 45.8529 44.7572ZM 42.709 44.3489L 41.2242 46.9557L 41.2254 46.9563L 42.709 44.3489ZM 38.8432 42.147L 40.328 39.5402L 38.5381 38.5207L 36.9438 39.8249L 38.8432 42.147ZM 32.9522 45.4862L 31.9354 42.6638L 29.9522 43.3782L 29.9522 45.4862L 32.9522 45.4862ZM 23.3958 50.9332C 22.7296 50.9332 22.2522 50.4041 22.2522 49.8454L 16.2522 49.8454C 16.2522 53.7943 19.4928 56.9332 23.3958 56.9332L 23.3958 50.9332ZM 22.2522 49.8454L 22.2522 45.4855L 16.2522 45.4855L 16.2522 49.8454L 22.2522 49.8454ZM 20.2678 42.6627C 18.4206 41.9981 16.7145 41.0251 15.1923 39.767L 11.37 44.392C 13.4234 46.089 15.7349 47.4083 18.2366 48.3084L 20.2678 42.6627ZM 11.7963 39.4727L 7.89629 41.6941L 10.8659 46.9077L 14.7659 44.6863L 11.7963 39.4727ZM 7.89718 41.6936C 7.3286 42.0172 6.61275 41.8062 6.31033 41.2895L 1.1323 44.3207C 3.11377 47.7056 7.47477 48.8378 10.865 46.9082L 7.89718 41.6936ZM 6.31061 41.29L 3.60387 36.6642L -1.57472 39.6945L 1.13202 44.3202L 6.31061 41.29ZM 3.60285 36.6625C 3.45578 36.4115 3.42032 36.1396 3.49532 35.8631L -2.29542 34.2923C -2.79243 36.1246 -2.53504 38.0558 -1.5737 39.6962L 3.60285 36.6625ZM 3.49484 35.8649C 3.57007 35.5882 3.74333 35.3576 4.01575 35.2024L 1.04583 29.989C -0.598907 30.926 -1.7968 32.4585 -2.29495 34.2906L 3.49484 35.8649ZM 4.01562 35.2025L 7.91083 32.9838L 4.94117 27.7702L 1.04596 29.989L 4.01562 35.2025ZM 9.37934 29.85C 9.20899 28.8954 9.12289 27.9242 9.12289 26.9662L 3.12289 26.9662C 3.12289 28.2803 3.24069 29.6042 3.47265 30.9041L 9.37934 29.85ZM 9.12289 26.9662C 9.12289 26.35 9.15873 25.7215 9.22905 25.1006L 3.26716 24.4255C 3.1719 25.2666 3.12289 26.1205 3.12289 26.9662L 9.12289 26.9662ZM 7.73311 22.1564L 3.55532 19.7763L 0.585312 24.9897L 4.7631 27.3697L 7.73311 22.1564ZM 3.55501 19.7761C 3.01204 19.4669 2.85479 18.8084 3.14335 18.3153L -2.03514 15.2849C -4.03048 18.6946 -2.82752 23.0459 0.585615 24.9898L 3.55501 19.7761ZM 3.1434 18.3152L 5.85014 13.6894L 0.671545 10.6592L -2.03519 15.285L 3.1434 18.3152ZM 5.84946 13.6906C 6.15334 13.1718 6.87054 12.9627 7.43593 13.2847L 10.4053 8.07097C 7.01462 6.13984 2.6536 7.27533 0.672219 10.658L 5.84946 13.6906ZM 7.43544 13.2844L 10.8934 15.2547L 13.8638 10.0416L 10.4058 8.07125L 7.43544 13.2844ZM 14.4258 14.8412C 16.1268 13.2533 18.0876 12.0547 20.2683 11.2696L 18.2361 5.62427C 15.2866 6.68605 12.6249 8.3143 10.3315 10.4551L 14.4258 14.8412ZM 22.2522 8.44695L 22.2522 4.08712L 16.2522 4.08712L 16.2522 8.44695L 22.2522 8.44695ZM 22.2522 4.08712C 22.2522 3.529 22.729 3 23.3958 3L 23.3958 -3C 19.4935 -3 16.2522 0.137602 16.2522 4.08712L 22.2522 4.08712ZM 23.3958 3L 28.8093 3L 28.8093 -3L 23.3958 -3L 23.3958 3ZM 28.8093 3C 29.4754 3 29.9522 3.52836 29.9522 4.08712L 35.9522 4.08712C 35.9522 0.138243 32.7122 -3 28.8093 -3L 28.8093 3ZM 29.9522 4.08712L 29.9522 8.44695L 35.9522 8.44695L 35.9522 4.08712L 29.9522 4.08712ZM 31.9363 11.2697C 33.9464 11.9931 35.7762 13.0713 37.3843 14.4809L 41.3394 9.96895C 39.1666 8.06435 36.6844 6.60176 33.968 5.62418L 31.9363 11.2697ZM 40.8465 14.8318L 44.3394 12.8426L 41.3701 7.62881L 37.8772 9.61804L 40.8465 14.8318ZM 44.3405 12.8419C 44.9042 12.5206 45.6208 12.7285 45.925 13.248L 51.1027 10.2163C 49.1216 6.83295 44.76 5.69633 41.369 7.62945L 44.3405 12.8419ZM 45.9246 13.2474L 48.6314 17.8725L 53.8098 14.842L 51.103 10.2169L 45.9246 13.2474ZM 48.6315 17.8727C 48.7795 18.1256 48.8142 18.3976 48.7396 18.6718L 54.5294 20.246C 55.0283 18.4115 54.7687 16.4803 53.8097 14.8418L 48.6315 17.8727ZM 48.7396 18.6718C 48.6641 18.9495 48.4909 19.1795 48.2194 19.3342L 51.1893 24.5476C 52.835 23.6101 54.0316 22.077 54.5294 20.246L 48.7396 18.6718ZM 48.2196 19.334L 44.3881 21.5163L 47.3575 26.73L 51.1891 24.5477L 48.2196 19.334ZM 42.905 24.5615C 43.0226 25.3575 43.0822 26.1668 43.0822 26.9662L 49.0822 26.9662C 49.0822 25.8717 49.0008 24.7694 48.8406 23.6848L 42.905 24.5615ZM 43.0822 26.9662C 43.0822 27.9522 42.9904 28.9532 42.8097 29.9398L 48.7115 31.0208C 48.9563 29.684 49.0822 28.3212 49.0822 26.9662L 43.0822 26.9662ZM 44.2758 33.0871L 48.0738 35.2505L 51.0435 30.0369L 47.2454 27.8735L 44.2758 33.0871ZM 48.0737 35.2504C 48.6179 35.5604 48.7751 36.2192 48.4863 36.7132L 53.6661 39.7414C 55.6598 36.3311 54.4568 31.9814 51.0436 30.037L 48.0737 35.2504ZM 48.4872 36.7117L 45.7798 41.3368L 50.9578 44.3679L 53.6652 39.7428L 48.4872 36.7117ZM 45.7797 41.3369C 45.6309 41.5912 45.3961 41.7749 45.0855 41.8571L 46.6204 47.6574C 48.4473 47.1739 49.9997 46.0049 50.9579 44.3678L 45.7797 41.3369ZM 45.0876 41.8565C 44.7754 41.9389 44.4671 41.8975 44.1926 41.7414L 41.2254 46.9563C 42.8681 47.891 44.7916 48.1399 46.6183 47.658L 45.0876 41.8565ZM 44.1938 41.742L 40.328 39.5402L 37.3584 44.7538L 41.2242 46.9557L 44.1938 41.742ZM 36.9438 39.8249C 35.4417 41.0535 33.7588 42.0069 31.9354 42.6638L 33.9689 48.3087C 36.4328 47.4211 38.7128 46.1295 40.7426 44.4691L 36.9438 39.8249ZM 29.9522 45.4862L 29.9522 49.8454L 35.9522 49.8454L 35.9522 45.4862L 29.9522 45.4862ZM 29.9522 49.8454C 29.9522 50.4048 29.4748 50.9332 28.8093 50.9332L 28.8093 56.9332C 32.7129 56.9332 35.9522 53.7936 35.9522 49.8454L 29.9522 49.8454ZM 28.8093 50.9332L 23.3958 50.9332L 23.3958 56.9332L 28.8093 56.9332L 28.8093 50.9332Z"/>
</defs>
</svg>
