<svg width="100" height="100" viewBox="0 0 100 100" version="1.1" xmlns="http://www.w3.org/2000/svg" xmlns:xlink="http://www.w3.org/1999/xlink">
<title>icon-cross-platform</title>
<desc>Created using Figma</desc>
<g id="Canvas" transform="translate(-8187 -8461)">
<g id="icon-cross-platform">
<g id="Page 1">
<mask id="mask0_outline_ins">
<use xlink:href="#path0_fill" fill="white" transform="translate(8187 8465)"/>
</mask>
<g mask="url(#mask0_outline_ins)">
<use xlink:href="#path1_stroke_2x" transform="translate(8187 8465)" fill="#FFFFFF"/>
</g>
</g>
<g id="Rectangle 16">
<mask id="mask1_outline_ins">
<use xlink:href="#path2_fill" fill="white" transform="translate(8220 8484)"/>
</mask>
<g mask="url(#mask1_outline_ins)">
<use xlink:href="#path3_stroke_2x" transform="translate(8220 8484)" fill="#FFFFFF"/>
</g>
</g>
<g id="Rectangle">
<use xlink:href="#path4_fill" transform="translate(8222 8525)" fill="#FFFFFF"/>
</g>
<g id="Rectangle Copy">
<use xlink:href="#path4_fill" transform="translate(8222 8492)" fill="#FFFFFF"/>
</g>
<g id="Oval">
<use xlink:href="#path5_fill" transform="translate(8235 8530)" fill="#FFFFFF"/>
</g>
</g>
</g>
<defs>
<path id="path0_fill" fill-rule="evenodd" d="M 96.5258 59.3437C 101.158 51.3741 101.158 41.5551 96.5258 33.5856C 92.774 27.1304 88.2431 19.3343 84.4913 12.879C 79.8591 4.9095 71.2988 0 62.0347 0L 37.9653 0C 28.7012 0 20.1406 4.9095 15.5087 12.879C 11.7569 19.3343 7.22572 27.1304 3.47417 33.5856C -1.15806 41.5551 -1.15806 51.3741 3.47417 59.3437C 7.22572 65.7989 11.7569 73.595 15.5087 80.0503C 20.1406 88.0198 28.7012 92.9293 37.9653 92.9293L 62.0347 92.9293C 71.2988 92.9293 79.8591 88.0198 84.4913 80.0503C 88.2431 73.595 92.774 65.7989 96.5258 59.3437Z"/>
<path id="path1_stroke_2x" d="M 96.5258 59.3437L 93.9321 57.8361L 93.9321 57.8362L 96.5258 59.3437ZM 96.5258 33.5856L 93.9321 35.0931L 93.9321 35.0932L 96.5258 33.5856ZM 84.4913 12.879L 87.085 11.3715L 87.085 11.3715L 84.4913 12.879ZM 15.5087 12.879L 18.1024 14.3865L 18.1025 14.3865L 15.5087 12.879ZM 3.47417 33.5856L 6.06786 35.0932L 6.06795 35.093L 3.47417 33.5856ZM 3.47417 59.3437L 6.06795 57.8363L 6.06786 57.8361L 3.47417 59.3437ZM 15.5087 80.0503L 18.1025 78.5428L 18.1024 78.5427L 15.5087 80.0503ZM 84.4913 80.0503L 87.085 81.5578L 87.085 81.5578L 84.4913 80.0503ZM 99.1195 60.8512C 104.293 51.9497 104.293 40.9796 99.1195 32.078L 93.9321 35.0932C 98.0226 42.1307 98.0226 50.7986 93.9321 57.8361L 99.1195 60.8512ZM 99.1196 32.0781C 97.2436 28.8505 95.173 25.2877 93.1023 21.7249C 91.0316 18.162 88.961 14.5992 87.085 11.3715L 81.8976 14.3865C 83.7735 17.6141 85.8441 21.1769 87.9148 24.7398C 89.9855 28.3026 92.0562 31.8655 93.9321 35.0931L 99.1196 32.0781ZM 87.085 11.3715C 81.9124 2.47231 72.3609 -3 62.0347 -3L 62.0347 3C 70.2368 3 77.8057 7.34668 81.8976 14.3866L 87.085 11.3715ZM 62.0347 -3L 37.9653 -3L 37.9653 3L 62.0347 3L 62.0347 -3ZM 37.9653 -3C 27.6391 -3 18.0873 2.47227 12.915 11.3715L 18.1025 14.3865C 22.194 7.34672 29.7632 3 37.9653 3L 37.9653 -3ZM 12.915 11.3715C 9.16312 17.8268 4.63197 25.6229 0.880387 32.0782L 6.06795 35.093C 9.81947 28.6378 14.3506 20.8418 18.1024 14.3865L 12.915 11.3715ZM 0.880474 32.078C -4.29349 40.9796 -4.29349 51.9497 0.880474 60.8512L 6.06786 57.8361C 1.97738 50.7986 1.97738 42.1307 6.06786 35.0932L 0.880474 32.078ZM 0.880387 60.8511C 4.63197 67.3064 9.16312 75.1025 12.915 81.5578L 18.1024 78.5427C 14.3506 72.0875 9.81947 64.2915 6.06795 57.8363L 0.880387 60.8511ZM 12.915 81.5577C 18.0873 90.457 27.6391 95.9293 37.9653 95.9293L 37.9653 89.9293C 29.7632 89.9293 22.194 85.5826 18.1025 78.5428L 12.915 81.5577ZM 37.9653 95.9293L 62.0347 95.9293L 62.0347 89.9293L 37.9653 89.9293L 37.9653 95.9293ZM 62.0347 95.9293C 72.3609 95.9293 81.9124 90.457 87.085 81.5578L 81.8976 78.5427C 77.8057 85.5826 70.2368 89.9293 62.0347 89.9293L 62.0347 95.9293ZM 87.085 81.5578C 88.961 78.3301 91.0316 74.7673 93.1023 71.2044C 95.173 67.6416 97.2436 64.0788 99.1196 60.8512L 93.9321 57.8362C 92.0562 61.0638 89.9855 64.6267 87.9148 68.1895C 85.8441 71.7524 83.7735 75.3152 81.8976 78.5427L 87.085 81.5578Z"/>
<path id="path2_fill" fill-rule="evenodd" d="M 0 6.4C 0 4.15979 0 3.03969 0.435974 2.18404C 0.819467 1.43139 1.43139 0.819467 2.18404 0.435974C 3.03969 0 4.15979 0 6.4 0L 28.6 0C 30.8402 0 31.9603 0 32.816 0.435974C 33.5686 0.819467 34.1805 1.43139 34.564 2.18404C 35 3.03969 35 4.15979 35 6.4L 35 49.6C 35 51.8402 35 52.9603 34.564 53.816C 34.1805 54.5686 33.5686 55.1805 32.816 55.564C 31.9603 56 30.8402 56 28.6 56L 6.4 56C 4.15979 56 3.03969 56 2.18404 55.564C 1.43139 55.1805 0.819467 54.5686 0.435974 53.816C 0 52.9603 0 51.8402 0 49.6L 0 6.4Z"/>
<path id="path3_stroke_2x" d="M 2.18404 55.564L 3.54601 52.891L 2.18404 55.564ZM 0.435974 53.816L 3.10899 52.454L 0.435974 53.816ZM 34.564 53.816L 37.237 55.1779L 34.564 53.816ZM 32.816 55.564L 34.1779 58.237L 32.816 55.564ZM 32.816 0.435974L 31.454 3.10899L 32.816 0.435974ZM 34.564 2.18404L 37.237 0.822066L 34.564 2.18404ZM 2.18404 0.435974L 0.822066 -2.23705L 2.18404 0.435974ZM 0.435974 2.18404L -2.23705 0.822066L 0.435974 2.18404ZM 6.4 3L 28.6 3L 28.6 -3L 6.4 -3L 6.4 3ZM 32 6.4L 32 49.6L 38 49.6L 38 6.4L 32 6.4ZM 28.6 53L 6.4 53L 6.4 59L 28.6 59L 28.6 53ZM 3 49.6L 3 6.4L -3 6.4L -3 49.6L 3 49.6ZM 6.4 53C 5.23039 53 4.53361 52.9977 4.0171 52.9555C 3.53562 52.9161 3.48043 52.8576 3.54601 52.891L 0.822066 58.237C 1.74329 58.7064 2.67598 58.8659 3.52851 58.9355C 4.34602 59.0023 5.3294 59 6.4 59L 6.4 53ZM -3 49.6C -3 50.6706 -3.00233 51.654 -2.93554 52.4715C -2.86589 53.324 -2.70643 54.2567 -2.23705 55.1779L 3.10899 52.454C 3.14241 52.5196 3.08387 52.4644 3.04453 51.9829C 3.00233 51.4664 3 50.7696 3 49.6L -3 49.6ZM 3.54601 52.891C 3.35785 52.7951 3.20487 52.6422 3.10899 52.454L -2.23705 55.1779C -1.56593 56.4951 -0.495068 57.5659 0.822066 58.237L 3.54601 52.891ZM 32 49.6C 32 50.7696 31.9977 51.4664 31.9555 51.9829C 31.9161 52.4644 31.8576 52.5196 31.891 52.454L 37.237 55.1779C 37.7064 54.2567 37.8659 53.324 37.9355 52.4715C 38.0023 51.654 38 50.6706 38 49.6L 32 49.6ZM 28.6 59C 29.6706 59 30.654 59.0023 31.4715 58.9355C 32.324 58.8659 33.2567 58.7064 34.1779 58.237L 31.454 52.891C 31.5196 52.8576 31.4644 52.9161 30.9829 52.9555C 30.4664 52.9977 29.7696 53 28.6 53L 28.6 59ZM 31.891 52.454C 31.7951 52.6422 31.6422 52.7951 31.454 52.891L 34.1779 58.237C 35.4951 57.5659 36.5659 56.4951 37.237 55.1779L 31.891 52.454ZM 28.6 3C 29.7696 3 30.4664 3.00233 30.9829 3.04453C 31.4644 3.08387 31.5196 3.14241 31.454 3.10899L 34.1779 -2.23705C 33.2567 -2.70643 32.324 -2.86589 31.4715 -2.93554C 30.654 -3.00233 29.6706 -3 28.6 -3L 28.6 3ZM 38 6.4C 38 5.3294 38.0023 4.34602 37.9355 3.52851C 37.8659 2.67598 37.7064 1.74329 37.237 0.822066L 31.891 3.54601C 31.8576 3.48043 31.9161 3.53562 31.9555 4.0171C 31.9977 4.53361 32 5.23039 32 6.4L 38 6.4ZM 31.454 3.10899C 31.6422 3.20487 31.7951 3.35785 31.891 3.54601L 37.237 0.822066C 36.5659 -0.495068 35.4951 -1.56593 34.1779 -2.23705L 31.454 3.10899ZM 6.4 -3C 5.3294 -3 4.34602 -3.00233 3.52851 -2.93554C 2.67598 -2.86589 1.74329 -2.70643 0.822066 -2.23705L 3.54601 3.10899C 3.48043 3.14241 3.53562 3.08387 4.0171 3.04453C 4.53361 3.00233 5.23039 3 6.4 3L 6.4 -3ZM 3 6.4C 3 5.23039 3.00233 4.53361 3.04453 4.0171C 3.08387 3.53562 3.14241 3.48043 3.10899 3.54601L -2.23705 0.822066C -2.70643 1.74329 -2.86589 2.67598 -2.93554 3.52851C -3.00233 4.34602 -3 5.3294 -3 6.4L 3 6.4ZM 0.822066 -2.23705C -0.495068 -1.56593 -1.56593 -0.495068 -2.23705 0.822066L 3.10899 3.54601C 3.20487 3.35785 3.35785 3.20487 3.54601 3.10899L 0.822066 -2.23705Z"/>
<path id="path4_fill" fill-rule="evenodd" d="M 0 1.5C 0 0.671573 0.671573 0 1.5 0L 31.5 0C 32.3284 0 33 0.671573 33 1.5C 33 2.32843 32.3284 3 31.5 3L 1.5 3C 0.671573 3 0 2.32843 0 1.5Z"/>
<path id="path5_fill" fill-rule="evenodd" d="M 2 4C 3.10457 4 4 3.10457 4 2C 4 0.89543 3.10457 0 2 0C 0.89543 0 0 0.89543 0 2C 0 3.10457 0.89543 4 2 4Z"/>
</defs>
</svg>
