<svg width="100" height="100" viewBox="0 0 100 100" version="1.1" xmlns="http://www.w3.org/2000/svg" xmlns:xlink="http://www.w3.org/1999/xlink">
<title>icon-Independence</title>
<desc>Created using Figma</desc>
<g id="Canvas" transform="translate(-7396 -8461)">
<g id="icon-Independence">
<g id="Page 1">
<mask id="mask0_outline_ins">
<use xlink:href="#path0_fill" fill="white" transform="translate(7396 8465)"/>
</mask>
<g mask="url(#mask0_outline_ins)">
<use xlink:href="#path1_stroke_2x" transform="translate(7396 8465)" fill="#FFFFFF"/>
</g>
</g>
<g id="Page 1 Copy">
<mask id="mask1_outline_ins">
<use xlink:href="#path2_fill" fill="white" transform="translate(7413 8504)"/>
</mask>
<g mask="url(#mask1_outline_ins)">
<use xlink:href="#path3_stroke_2x" transform="translate(7413 8504)" fill="#FFFFFF"/>
</g>
</g>
<g id="Page 1 Copy 2">
<mask id="mask2_outline_ins">
<use xlink:href="#path2_fill" fill="white" transform="translate(7439 8480)"/>
</mask>
<g mask="url(#mask2_outline_ins)">
<use xlink:href="#path3_stroke_2x" transform="translate(7439 8480)" fill="#FFFFFF"/>
</g>
</g>
<g id="Page 1 Copy 3">
<mask id="mask3_outline_ins">
<use xlink:href="#path2_fill" fill="white" transform="translate(7446 8516)"/>
</mask>
<g mask="url(#mask3_outline_ins)">
<use xlink:href="#path3_stroke_2x" transform="translate(7446 8516)" fill="#FFFFFF"/>
</g>
</g>
</g>
</g>
<defs>
<path id="path0_fill" fill-rule="evenodd" d="M 96.5258 59.3437C 101.158 51.3741 101.158 41.5551 96.5258 33.5856C 92.774 27.1304 88.2431 19.3343 84.4913 12.879C 79.8591 4.9095 71.2988 0 62.0347 0L 37.9653 0C 28.7012 0 20.1406 4.9095 15.5087 12.879C 11.7569 19.3343 7.22572 27.1304 3.47417 33.5856C -1.15806 41.5551 -1.15806 51.3741 3.47417 59.3437C 7.22572 65.7989 11.7569 73.595 15.5087 80.0503C 20.1406 88.0198 28.7012 92.9293 37.9653 92.9293L 62.0347 92.9293C 71.2988 92.9293 79.8591 88.0198 84.4913 80.0503C 88.2431 73.595 92.774 65.7989 96.5258 59.3437Z"/>
<path id="path1_stroke_2x" d="M 96.5258 59.3437L 93.9321 57.8361L 93.9321 57.8362L 96.5258 59.3437ZM 96.5258 33.5856L 93.9321 35.0931L 93.9321 35.0932L 96.5258 33.5856ZM 84.4913 12.879L 87.085 11.3715L 87.085 11.3715L 84.4913 12.879ZM 15.5087 12.879L 18.1024 14.3865L 18.1025 14.3865L 15.5087 12.879ZM 3.47417 33.5856L 6.06786 35.0932L 6.06795 35.093L 3.47417 33.5856ZM 3.47417 59.3437L 6.06795 57.8363L 6.06786 57.8361L 3.47417 59.3437ZM 15.5087 80.0503L 18.1025 78.5428L 18.1024 78.5427L 15.5087 80.0503ZM 84.4913 80.0503L 87.085 81.5578L 87.085 81.5578L 84.4913 80.0503ZM 99.1195 60.8512C 104.293 51.9497 104.293 40.9796 99.1195 32.078L 93.9321 35.0932C 98.0226 42.1307 98.0226 50.7986 93.9321 57.8361L 99.1195 60.8512ZM 99.1196 32.0781C 97.2436 28.8505 95.173 25.2877 93.1023 21.7249C 91.0316 18.162 88.961 14.5992 87.085 11.3715L 81.8976 14.3865C 83.7735 17.6141 85.8441 21.1769 87.9148 24.7398C 89.9855 28.3026 92.0562 31.8655 93.9321 35.0931L 99.1196 32.0781ZM 87.085 11.3715C 81.9124 2.47231 72.3609 -3 62.0347 -3L 62.0347 3C 70.2368 3 77.8057 7.34668 81.8976 14.3866L 87.085 11.3715ZM 62.0347 -3L 37.9653 -3L 37.9653 3L 62.0347 3L 62.0347 -3ZM 37.9653 -3C 27.6391 -3 18.0873 2.47227 12.915 11.3715L 18.1025 14.3865C 22.194 7.34672 29.7632 3 37.9653 3L 37.9653 -3ZM 12.915 11.3715C 9.16312 17.8268 4.63197 25.6229 0.880387 32.0782L 6.06795 35.093C 9.81947 28.6378 14.3506 20.8418 18.1024 14.3865L 12.915 11.3715ZM 0.880474 32.078C -4.29349 40.9796 -4.29349 51.9497 0.880474 60.8512L 6.06786 57.8361C 1.97738 50.7986 1.97738 42.1307 6.06786 35.0932L 0.880474 32.078ZM 0.880387 60.8511C 4.63197 67.3064 9.16312 75.1025 12.915 81.5578L 18.1024 78.5427C 14.3506 72.0875 9.81947 64.2915 6.06795 57.8363L 0.880387 60.8511ZM 12.915 81.5577C 18.0873 90.457 27.6391 95.9293 37.9653 95.9293L 37.9653 89.9293C 29.7632 89.9293 22.194 85.5826 18.1025 78.5428L 12.915 81.5577ZM 37.9653 95.9293L 62.0347 95.9293L 62.0347 89.9293L 37.9653 89.9293L 37.9653 95.9293ZM 62.0347 95.9293C 72.3609 95.9293 81.9124 90.457 87.085 81.5578L 81.8976 78.5427C 77.8057 85.5826 70.2368 89.9293 62.0347 89.9293L 62.0347 95.9293ZM 87.085 81.5578C 88.961 78.3301 91.0316 74.7673 93.1023 71.2044C 95.173 67.6416 97.2436 64.0788 99.1196 60.8512L 93.9321 57.8362C 92.0562 61.0638 89.9855 64.6267 87.9148 68.1895C 85.8441 71.7524 83.7735 75.3152 81.8976 78.5427L 87.085 81.5578Z"/>
<path id="path2_fill" fill-rule="evenodd" d="M 25.0967 15.4294C 26.3011 13.3573 26.3011 10.8043 25.0967 8.73226C 24.1212 7.0539 22.9432 5.02691 21.9677 3.34855C 20.7634 1.27647 18.5377 0 16.129 0L 9.87098 0C 7.4623 0 5.23656 1.27647 4.03227 3.34855C 3.05678 5.02691 1.87869 7.0539 0.903284 8.73226C -0.301095 10.8043 -0.301095 13.3573 0.903284 15.4294C 1.87869 17.1077 3.05678 19.1347 4.03227 20.8131C 5.23656 22.8851 7.4623 24.1616 9.87098 24.1616L 16.129 24.1616C 18.5377 24.1616 20.7634 22.8851 21.9677 20.8131C 22.9432 19.1347 24.1212 17.1077 25.0967 15.4294Z"/>
<path id="path3_stroke_2x" d="M 25.0967 15.4294L 22.503 13.9218L 22.503 13.9219L 25.0967 15.4294ZM 25.0967 8.73226L 22.503 10.2398L 22.503 10.2398L 25.0967 8.73226ZM 21.9677 3.34855L 24.5615 1.84104L 24.5614 1.84099L 21.9677 3.34855ZM 4.03227 3.34855L 6.62599 4.85606L 6.626 4.85604L 4.03227 3.34855ZM 0.903284 8.73226L 3.49698 10.2398L 3.49707 10.2397L 0.903284 8.73226ZM 0.903284 15.4294L 3.49707 13.9219L 3.49698 13.9218L 0.903284 15.4294ZM 4.03227 20.8131L 6.626 19.3056L 6.62599 19.3056L 4.03227 20.8131ZM 21.9677 20.8131L 24.5614 22.3206L 24.5615 22.3206L 21.9677 20.8131ZM 27.6904 16.9369C 29.4365 13.9328 29.4365 10.2288 27.6904 7.2247L 22.503 10.2398C 23.1657 11.3799 23.1657 12.7818 22.503 13.9218L 27.6904 16.9369ZM 27.6904 7.22475C 27.2027 6.3856 26.6644 5.45929 26.126 4.53295C 25.5876 3.60662 25.0492 2.68025 24.5615 1.84104L 19.374 4.85606C 19.8617 5.69521 20.4001 6.62152 20.9385 7.54786C 21.4768 8.47419 22.0152 9.40056 22.503 10.2398L 27.6904 7.22475ZM 24.5614 1.84099C 22.8167 -1.16072 19.5998 -3 16.129 -3L 16.129 3C 17.4756 3 18.71 3.71365 19.374 4.85611L 24.5614 1.84099ZM 16.129 -3L 9.87098 -3L 9.87098 3L 16.129 3L 16.129 -3ZM 9.87098 -3C 6.40027 -3 3.18319 -1.16076 1.43853 1.84106L 6.626 4.85604C 7.28994 3.7137 8.52433 3 9.87098 3L 9.87098 -3ZM 1.43854 1.84104C 0.463051 3.51941 -0.715066 5.54644 -1.6905 7.22484L 3.49707 10.2397C 4.47244 8.56136 5.65051 6.53441 6.62599 4.85606L 1.43854 1.84104ZM -1.69041 7.2247C -3.43653 10.2288 -3.43653 13.9328 -1.69041 16.9369L 3.49698 13.9218C 2.83434 12.7818 2.83434 11.3799 3.49698 10.2398L -1.69041 7.2247ZM -1.6905 16.9368C -0.715066 18.6152 0.463051 20.6422 1.43854 22.3206L 6.62599 19.3056C 5.65051 17.6272 4.47244 15.6003 3.49707 13.9219L -1.6905 16.9368ZM 1.43853 22.3206C 3.18319 25.3224 6.40027 27.1616 9.87098 27.1616L 9.87098 21.1616C 8.52433 21.1616 7.28994 20.4479 6.626 19.3056L 1.43853 22.3206ZM 9.87098 27.1616L 16.129 27.1616L 16.129 21.1616L 9.87098 21.1616L 9.87098 27.1616ZM 16.129 27.1616C 19.5998 27.1616 22.8167 25.3223 24.5614 22.3206L 19.374 19.3055C 18.71 20.448 17.4756 21.1616 16.129 21.1616L 16.129 27.1616ZM 24.5615 22.3206C 25.0492 21.4814 25.5876 20.555 26.126 19.6287C 26.6644 18.7023 27.2027 17.776 27.6904 16.9369L 22.503 13.9219C 22.0152 14.7611 21.4768 15.6874 20.9385 16.6138C 20.4001 17.5401 19.8617 18.4664 19.374 19.3056L 24.5615 22.3206Z"/>
</defs>
</svg>
