<svg width="100" height="100" viewBox="0 0 100 100" version="1.1" xmlns="http://www.w3.org/2000/svg" xmlns:xlink="http://www.w3.org/1999/xlink">
<title>icon-speed</title>
<desc>Created using Figma</desc>
<g id="Canvas" transform="translate(-8211 -7234)">
<g id="icon-speed">
<g id="Group 5">
<g id="Group Copy 6">
<g id="Page 1">
<mask id="mask0_outline_ins">
<use xlink:href="#path0_fill" fill="white" transform="translate(8211 7238)"/>
</mask>
<g mask="url(#mask0_outline_ins)">
<use xlink:href="#path1_stroke_2x" transform="translate(8211 7238)" fill="#1E1D1D"/>
</g>
</g>
</g>
</g>
<g id="Page 1">
<mask id="mask1_outline" mask-type="alpha">
<g id="Clip 2">
<use xlink:href="#path2_fill" transform="translate(8247 7255)" fill="#FFFFFF"/>
</g>
</mask>
<g id="Fill 1" mask="url(#mask1_outline)">
<use xlink:href="#path3_fill" transform="translate(8247 7255)" fill="#1C1A1A"/>
</g>
</g>
</g>
</g>
<defs>
<path id="path0_fill" fill-rule="evenodd" d="M 96.5258 59.3437C 101.158 51.3741 101.158 41.5551 96.5258 33.5856C 92.774 27.1304 88.2431 19.3343 84.4913 12.879C 79.8591 4.9095 71.2988 0 62.0347 0L 37.9653 0C 28.7012 0 20.1406 4.9095 15.5087 12.879C 11.7569 19.3343 7.22572 27.1304 3.47417 33.5856C -1.15806 41.5551 -1.15806 51.3741 3.47417 59.3437C 7.22572 65.7989 11.7569 73.595 15.5087 80.0503C 20.1406 88.0198 28.7012 92.9293 37.9653 92.9293L 62.0347 92.9293C 71.2988 92.9293 79.8591 88.0198 84.4913 80.0503C 88.2431 73.595 92.774 65.7989 96.5258 59.3437Z"/>
<path id="path1_stroke_2x" d="M 96.5258 59.3437L 93.9321 57.8361L 93.9321 57.8362L 96.5258 59.3437ZM 96.5258 33.5856L 93.9321 35.0931L 93.9321 35.0932L 96.5258 33.5856ZM 84.4913 12.879L 87.085 11.3715L 87.085 11.3715L 84.4913 12.879ZM 15.5087 12.879L 18.1024 14.3865L 18.1025 14.3865L 15.5087 12.879ZM 3.47417 33.5856L 6.06786 35.0932L 6.06795 35.093L 3.47417 33.5856ZM 3.47417 59.3437L 6.06795 57.8363L 6.06786 57.8361L 3.47417 59.3437ZM 15.5087 80.0503L 18.1025 78.5428L 18.1024 78.5427L 15.5087 80.0503ZM 84.4913 80.0503L 87.085 81.5578L 87.085 81.5578L 84.4913 80.0503ZM 99.1195 60.8512C 104.293 51.9497 104.293 40.9796 99.1195 32.078L 93.9321 35.0932C 98.0226 42.1307 98.0226 50.7986 93.9321 57.8361L 99.1195 60.8512ZM 99.1196 32.0781C 97.2436 28.8505 95.173 25.2877 93.1023 21.7249C 91.0316 18.162 88.961 14.5992 87.085 11.3715L 81.8976 14.3865C 83.7735 17.6141 85.8441 21.1769 87.9148 24.7398C 89.9855 28.3026 92.0562 31.8655 93.9321 35.0931L 99.1196 32.0781ZM 87.085 11.3715C 81.9124 2.47231 72.3609 -3 62.0347 -3L 62.0347 3C 70.2368 3 77.8057 7.34668 81.8976 14.3866L 87.085 11.3715ZM 62.0347 -3L 37.9653 -3L 37.9653 3L 62.0347 3L 62.0347 -3ZM 37.9653 -3C 27.6391 -3 18.0873 2.47227 12.915 11.3715L 18.1025 14.3865C 22.194 7.34672 29.7632 3 37.9653 3L 37.9653 -3ZM 12.915 11.3715C 9.16312 17.8268 4.63197 25.6229 0.880387 32.0782L 6.06795 35.093C 9.81947 28.6378 14.3506 20.8418 18.1024 14.3865L 12.915 11.3715ZM 0.880474 32.078C -4.29349 40.9796 -4.29349 51.9497 0.880474 60.8512L 6.06786 57.8361C 1.97738 50.7986 1.97738 42.1307 6.06786 35.0932L 0.880474 32.078ZM 0.880387 60.8511C 4.63197 67.3064 9.16312 75.1025 12.915 81.5578L 18.1024 78.5427C 14.3506 72.0875 9.81947 64.2915 6.06795 57.8363L 0.880387 60.8511ZM 12.915 81.5577C 18.0873 90.457 27.6391 95.9293 37.9653 95.9293L 37.9653 89.9293C 29.7632 89.9293 22.194 85.5826 18.1025 78.5428L 12.915 81.5577ZM 37.9653 95.9293L 62.0347 95.9293L 62.0347 89.9293L 37.9653 89.9293L 37.9653 95.9293ZM 62.0347 95.9293C 72.3609 95.9293 81.9124 90.457 87.085 81.5578L 81.8976 78.5427C 77.8057 85.5826 70.2368 89.9293 62.0347 89.9293L 62.0347 95.9293ZM 87.085 81.5578C 88.961 78.3301 91.0316 74.7673 93.1023 71.2044C 95.173 67.6416 97.2436 64.0788 99.1196 60.8512L 93.9321 57.8362C 92.0562 61.0638 89.9855 64.6267 87.9148 68.1895C 85.8441 71.7524 83.7735 75.3152 81.8976 78.5427L 87.085 81.5578Z"/>
<path id="path2_fill" fill-rule="evenodd" d="M 0 0L 35 0L 35 59L 0 59L 0 0Z"/>
<path id="path3_fill" fill-rule="evenodd" d="M 12.7884 3.1543C 10.9307 3.1543 9.32466 4.3421 8.79091 6.10818L 3.24618 23.6577C 3.09137 24.1679 3.19054 24.7269 3.52273 25.1715C 3.85572 25.6152 4.36609 25.8707 4.92483 25.8707L 7.9927 25.8707C 9.57944 25.8707 11.0759 26.6364 11.9983 27.9203C 12.919 29.2026 13.1601 30.8574 12.6457 32.3463L 5.75046 52.9683L 31.8011 24.3793C 31.8841 24.2624 31.8212 24.0534 31.7696 23.95C 31.718 23.8451 31.589 23.6713 31.3165 23.6713L 20.868 23.6713C 19.4837 23.6713 18.1993 22.9889 17.4309 21.8451C 16.6617 20.7038 16.5174 19.2629 17.0463 17.991L 22.3467 5.28161C 22.5475 4.79784 22.4951 4.27242 22.2024 3.8367C 21.9106 3.40339 21.4405 3.1543 20.9156 3.1543L 12.7884 3.1543ZM 2.90407 56.0918C 2.87021 56.123 2.83877 56.1583 2.81055 56.1951L 2.90407 56.0918ZM 4.39534 57.0176L 4.39453 57.0248C 4.39453 57.0224 4.39534 57.02 4.39534 57.0176ZM 3.55755 59C 3.1907 59 2.81498 58.9143 2.46748 58.7293C 1.48382 58.2103 1.02747 57.0729 1.38304 56.0237L 9.63765 31.337C 9.82954 30.7851 9.74488 30.2124 9.41431 29.7511C 9.08213 29.289 8.56369 29.0246 7.99285 29.0246L 4.92499 29.0246C 3.35357 29.0246 1.91437 28.3054 0.975067 27.0519C 0.038986 25.8 -0.239984 24.2254 0.211528 22.7316L 5.75626 5.18211C 6.68992 2.09207 9.51832 0 12.7886 0L 20.9158 0C 22.4969 0 23.9643 0.778518 24.8423 2.08566C 25.7203 3.3896 25.884 5.03474 25.2801 6.48685L 19.9805 19.1962C 19.8023 19.6231 19.9829 19.9668 20.0692 20.0941C 20.1547 20.2215 20.4046 20.5162 20.8682 20.5162L 31.3167 20.5162C 32.7276 20.5162 33.9911 21.2971 34.6151 22.553C 35.2408 23.8097 35.0957 25.2826 34.2378 26.3967L 5.2475 58.2103C 4.86452 58.7141 4.22676 59 3.55755 59Z"/>
</defs>
</svg>
