<svg width="100" height="100" viewBox="0 0 100 100" version="1.1" xmlns="http://www.w3.org/2000/svg" xmlns:xlink="http://www.w3.org/1999/xlink">
<title>icon-secure-data</title>
<desc>Created using Figma</desc>
<g id="Canvas" transform="translate(-7421 -7234)">
<g id="icon-secure-data">
<g id="Group 5">
<g id="Group Copy 6">
<g id="Page 1">
<mask id="mask0_outline_ins">
<use xlink:href="#path0_fill" fill="white" transform="translate(7421 7238)"/>
</mask>
<g mask="url(#mask0_outline_ins)">
<use xlink:href="#path1_stroke_2x" transform="translate(7421 7238)" fill="#1E1D1D"/>
</g>
</g>
</g>
</g>
<g id="Rectangle">
<mask id="mask1_outline_ins">
<use xlink:href="#path2_fill" fill="white" transform="translate(7459 7249)"/>
</mask>
<g mask="url(#mask1_outline_ins)">
<use xlink:href="#path3_stroke_2x" transform="translate(7459 7249)" fill="#1C1A1A"/>
</g>
</g>
<g id="Page 1">
<use xlink:href="#path4_fill" transform="translate(7446 7267)" fill="#FFFFFF"/>
<mask id="mask2_outline_ins">
<use xlink:href="#path4_fill" fill="white" transform="translate(7446 7267)"/>
</mask>
<g mask="url(#mask2_outline_ins)">
<use xlink:href="#path5_stroke_2x" transform="translate(7446 7267)" fill="#1E1D1D"/>
</g>
</g>
<g id="Combined Shape">
<use xlink:href="#path6_stroke" transform="translate(7465 7280)" fill="#1C1A1A"/>
</g>
<g id="Oval 6">
<use xlink:href="#path7_fill" transform="translate(7482 7274)" fill="#FFFFFF"/>
<use xlink:href="#path8_stroke" transform="translate(7482 7274)" fill="#1C1A1A"/>
</g>
<g id="Fill 15">
<use xlink:href="#path9_fill" transform="translate(7489 7275)" fill="#1C1A1A"/>
</g>
</g>
</g>
<defs>
<path id="path0_fill" fill-rule="evenodd" d="M 96.5258 59.3437C 101.158 51.3741 101.158 41.5551 96.5258 33.5856C 92.774 27.1304 88.2431 19.3343 84.4913 12.879C 79.8591 4.9095 71.2988 0 62.0347 0L 37.9653 0C 28.7012 0 20.1406 4.9095 15.5087 12.879C 11.7569 19.3343 7.22572 27.1304 3.47417 33.5856C -1.15806 41.5551 -1.15806 51.3741 3.47417 59.3437C 7.22572 65.7989 11.7569 73.595 15.5087 80.0503C 20.1406 88.0198 28.7012 92.9293 37.9653 92.9293L 62.0347 92.9293C 71.2988 92.9293 79.8591 88.0198 84.4913 80.0503C 88.2431 73.595 92.774 65.7989 96.5258 59.3437Z"/>
<path id="path1_stroke_2x" d="M 96.5258 59.3437L 93.9321 57.8361L 93.9321 57.8362L 96.5258 59.3437ZM 96.5258 33.5856L 93.9321 35.0931L 93.9321 35.0932L 96.5258 33.5856ZM 84.4913 12.879L 87.085 11.3715L 87.085 11.3715L 84.4913 12.879ZM 15.5087 12.879L 18.1024 14.3865L 18.1025 14.3865L 15.5087 12.879ZM 3.47417 33.5856L 6.06786 35.0932L 6.06795 35.093L 3.47417 33.5856ZM 3.47417 59.3437L 6.06795 57.8363L 6.06786 57.8361L 3.47417 59.3437ZM 15.5087 80.0503L 18.1025 78.5428L 18.1024 78.5427L 15.5087 80.0503ZM 84.4913 80.0503L 87.085 81.5578L 87.085 81.5578L 84.4913 80.0503ZM 99.1195 60.8512C 104.293 51.9497 104.293 40.9796 99.1195 32.078L 93.9321 35.0932C 98.0226 42.1307 98.0226 50.7986 93.9321 57.8361L 99.1195 60.8512ZM 99.1196 32.0781C 97.2436 28.8505 95.173 25.2877 93.1023 21.7249C 91.0316 18.162 88.961 14.5992 87.085 11.3715L 81.8976 14.3865C 83.7735 17.6141 85.8441 21.1769 87.9148 24.7398C 89.9855 28.3026 92.0562 31.8655 93.9321 35.0931L 99.1196 32.0781ZM 87.085 11.3715C 81.9124 2.47231 72.3609 -3 62.0347 -3L 62.0347 3C 70.2368 3 77.8057 7.34668 81.8976 14.3866L 87.085 11.3715ZM 62.0347 -3L 37.9653 -3L 37.9653 3L 62.0347 3L 62.0347 -3ZM 37.9653 -3C 27.6391 -3 18.0873 2.47227 12.915 11.3715L 18.1025 14.3865C 22.194 7.34672 29.7632 3 37.9653 3L 37.9653 -3ZM 12.915 11.3715C 9.16312 17.8268 4.63197 25.6229 0.880387 32.0782L 6.06795 35.093C 9.81947 28.6378 14.3506 20.8418 18.1024 14.3865L 12.915 11.3715ZM 0.880474 32.078C -4.29349 40.9796 -4.29349 51.9497 0.880474 60.8512L 6.06786 57.8361C 1.97738 50.7986 1.97738 42.1307 6.06786 35.0932L 0.880474 32.078ZM 0.880387 60.8511C 4.63197 67.3064 9.16312 75.1025 12.915 81.5578L 18.1024 78.5427C 14.3506 72.0875 9.81947 64.2915 6.06795 57.8363L 0.880387 60.8511ZM 12.915 81.5577C 18.0873 90.457 27.6391 95.9293 37.9653 95.9293L 37.9653 89.9293C 29.7632 89.9293 22.194 85.5826 18.1025 78.5428L 12.915 81.5577ZM 37.9653 95.9293L 62.0347 95.9293L 62.0347 89.9293L 37.9653 89.9293L 37.9653 95.9293ZM 62.0347 95.9293C 72.3609 95.9293 81.9124 90.457 87.085 81.5578L 81.8976 78.5427C 77.8057 85.5826 70.2368 89.9293 62.0347 89.9293L 62.0347 95.9293ZM 87.085 81.5578C 88.961 78.3301 91.0316 74.7673 93.1023 71.2044C 95.173 67.6416 97.2436 64.0788 99.1196 60.8512L 93.9321 57.8362C 92.0562 61.0638 89.9855 64.6267 87.9148 68.1895C 85.8441 71.7524 83.7735 75.3152 81.8976 78.5427L 87.085 81.5578Z"/>
<path id="path2_fill" fill-rule="evenodd" d="M 0 12.5C 0 5.59644 5.59644 0 12.5 0C 19.4036 0 25 5.59644 25 12.5L 25 18.5C 25 25.4036 19.4036 31 12.5 31C 5.59644 31 0 25.4036 0 18.5L 0 12.5Z"/>
<path id="path3_stroke_2x" d="M 22 12.5L 22 18.5L 28 18.5L 28 12.5L 22 12.5ZM 3 18.5L 3 12.5L -3 12.5L -3 18.5L 3 18.5ZM 12.5 28C 7.25329 28 3 23.7467 3 18.5L -3 18.5C -3 27.0604 3.93959 34 12.5 34L 12.5 28ZM 22 18.5C 22 23.7467 17.7467 28 12.5 28L 12.5 34C 21.0604 34 28 27.0604 28 18.5L 22 18.5ZM 12.5 3C 17.7467 3 22 7.25329 22 12.5L 28 12.5C 28 3.93959 21.0604 -3 12.5 -3L 12.5 3ZM 12.5 -3C 3.93959 -3 -3 3.93959 -3 12.5L 3 12.5C 3 7.25329 7.25329 3 12.5 3L 12.5 -3Z"/>
<path id="path4_fill" fill-rule="evenodd" d="M 48.4627 29.9923C 50.7884 25.9645 50.7884 21.002 48.4627 16.9742C 46.579 13.7117 44.3042 9.77155 42.4205 6.50908C 40.0948 2.48126 35.797 0 31.1458 0L 19.0612 0C 14.41 0 10.112 2.48126 7.78646 6.50908C 5.90276 9.77155 3.62782 13.7117 1.74428 16.9742C -0.581425 21.002 -0.581425 25.9645 1.74428 29.9923C 3.62782 33.2548 5.90276 37.195 7.78646 40.4575C 10.112 44.4853 14.41 46.9665 19.0612 46.9665L 31.1458 46.9665C 35.797 46.9665 40.0948 44.4853 42.4205 40.4575C 44.3042 37.195 46.579 33.2548 48.4627 29.9923Z"/>
<path id="path5_stroke_2x" d="M 48.4627 29.9923L 45.8647 28.4922L 45.8647 28.4923L 48.4627 29.9923ZM 48.4627 16.9742L 45.8647 18.4743L 45.8647 18.4743L 48.4627 16.9742ZM 42.4205 6.50908L 45.0186 5.00902L 45.0185 5.00896L 42.4205 6.50908ZM 7.78646 6.50908L 10.3845 8.00914L 10.3845 8.00912L 7.78646 6.50908ZM 1.74428 16.9742L 4.34228 18.4743L 4.34237 18.4742L 1.74428 16.9742ZM 1.74428 29.9923L 4.34237 28.4924L 4.34228 28.4922L 1.74428 29.9923ZM 7.78646 40.4575L 10.3845 38.9574L 10.3845 38.9574L 7.78646 40.4575ZM 42.4205 40.4575L 45.0185 41.9576L 45.0186 41.9575L 42.4205 40.4575ZM 51.0607 31.4925C 53.9224 26.5364 53.9224 20.4302 51.0607 15.4741L 45.8647 18.4743C 47.6544 21.5739 47.6544 25.3927 45.8647 28.4922L 51.0607 31.4925ZM 51.0607 15.4741C 50.1189 13.8429 49.0793 12.0423 48.0397 10.2416C 47.0001 8.44097 45.9604 6.64029 45.0186 5.00902L 39.8225 8.00914C 40.7643 9.64035 41.8039 11.441 42.8435 13.2416C 43.8832 15.0423 44.9228 16.843 45.8647 18.4743L 51.0607 15.4741ZM 45.0185 5.00896C 42.1569 0.0530035 36.8687 -3 31.1458 -3L 31.1458 3C 34.7253 3 38.0327 4.90953 39.8225 8.00919L 45.0185 5.00896ZM 31.1458 -3L 19.0612 -3L 19.0612 3L 31.1458 3L 31.1458 -3ZM 19.0612 -3C 13.3383 -3 8.0499 0.0529608 5.18841 5.00904L 10.3845 8.00912C 12.1741 4.90957 15.4817 3 19.0612 3L 19.0612 -3ZM 5.18842 5.00902C 3.30472 8.2715 1.02975 12.2117 -0.853819 15.4742L 4.34237 18.4742C 6.22588 15.2117 8.5008 11.2716 10.3845 8.00914L 5.18842 5.00902ZM -0.853733 15.4741C -3.71542 20.4302 -3.71542 26.5364 -0.853733 31.4925L 4.34228 28.4922C 2.55257 25.3927 2.55257 21.5739 4.34228 18.4743L -0.853733 15.4741ZM -0.853819 31.4923C 1.02975 34.7548 3.30472 38.695 5.18842 41.9575L 10.3845 38.9574C 8.5008 35.6949 6.22588 31.7548 4.34237 28.4924L -0.853819 31.4923ZM 5.18841 41.9575C 8.0499 46.9136 13.3383 49.9665 19.0612 49.9665L 19.0612 43.9665C 15.4817 43.9665 12.1741 42.057 10.3845 38.9574L 5.18841 41.9575ZM 19.0612 49.9665L 31.1458 49.9665L 31.1458 43.9665L 19.0612 43.9665L 19.0612 49.9665ZM 31.1458 49.9665C 36.8687 49.9665 42.1569 46.9135 45.0185 41.9576L 39.8225 38.9574C 38.0327 42.057 34.7253 43.9665 31.1458 43.9665L 31.1458 49.9665ZM 45.0186 41.9575C 45.9604 40.3263 47.0001 38.5256 48.0397 36.7249C 49.0793 34.9243 50.1189 33.1236 51.0607 31.4924L 45.8647 28.4923C 44.9228 30.1236 43.8832 31.9242 42.8435 33.7249C 41.8039 35.5256 40.7643 37.3262 39.8225 38.9574L 45.0186 41.9575Z"/>
<path id="path6_stroke" d="M 9.75 12.1304L 8.99884 10.832L 8.25 11.2652L 8.25 12.1304L 9.75 12.1304ZM 3.25 12.1304L 4.75 12.1304L 4.75 11.2652L 4.00116 10.832L 3.25 12.1304ZM 10.5012 13.4287C 12.8884 12.0476 14.5 9.4629 14.5 6.5L 11.5 6.5C 11.5 8.34863 10.4974 9.96505 8.99884 10.832L 10.5012 13.4287ZM 14.5 6.5C 14.5 2.08173 10.9183 -1.5 6.5 -1.5L 6.5 1.5C 9.26142 1.5 11.5 3.73858 11.5 6.5L 14.5 6.5ZM 6.5 -1.5C 2.08173 -1.5 -1.5 2.08173 -1.5 6.5L 1.5 6.5C 1.5 3.73858 3.73858 1.5 6.5 1.5L 6.5 -1.5ZM -1.5 6.5C -1.5 9.4629 0.111631 12.0476 2.49884 13.4287L 4.00116 10.832C 2.50263 9.96505 1.5 8.34863 1.5 6.5L -1.5 6.5ZM 4.75 17.875L 4.75 12.1304L 1.75 12.1304L 1.75 17.875L 4.75 17.875ZM 6.5 19.625C 5.53351 19.625 4.75 18.8415 4.75 17.875L 1.75 17.875C 1.75 20.4983 3.87665 22.625 6.5 22.625L 6.5 19.625ZM 8.25 17.875C 8.25 18.8415 7.46649 19.625 6.5 19.625L 6.5 22.625C 9.12335 22.625 11.25 20.4983 11.25 17.875L 8.25 17.875ZM 8.25 12.1304L 8.25 17.875L 11.25 17.875L 11.25 12.1304L 8.25 12.1304Z"/>
<path id="path7_fill" fill-rule="evenodd" d="M 13.5 27C 20.9558 27 27 20.9558 27 13.5C 27 6.04416 20.9558 0 13.5 0C 6.04416 0 0 6.04416 0 13.5C 0 20.9558 6.04416 27 13.5 27Z"/>
<path id="path8_stroke" d="M 13.5 28.5C 21.7843 28.5 28.5 21.7843 28.5 13.5L 25.5 13.5C 25.5 20.1274 20.1274 25.5 13.5 25.5L 13.5 28.5ZM 28.5 13.5C 28.5 5.21573 21.7843 -1.5 13.5 -1.5L 13.5 1.5C 20.1274 1.5 25.5 6.87258 25.5 13.5L 28.5 13.5ZM 13.5 -1.5C 5.21573 -1.5 -1.5 5.21573 -1.5 13.5L 1.5 13.5C 1.5 6.87258 6.87258 1.5 13.5 1.5L 13.5 -1.5ZM -1.5 13.5C -1.5 21.7843 5.21573 28.5 13.5 28.5L 13.5 25.5C 6.87258 25.5 1.5 20.1274 1.5 13.5L -1.5 13.5Z"/>
<path id="path9_fill" fill-rule="evenodd" d="M 5.90418 17.6899C 5.01695 17.6899 4.15545 17.3695 3.4795 16.7762L 0.531691 14.1917C -0.116188 13.6233 -0.180898 12.6386 0.386678 11.9908C 0.954254 11.3429 1.93972 11.279 2.5876 11.8465L 5.53541 14.4318C 5.70537 14.5807 5.88936 14.5784 5.98682 14.5651C 6.08271 14.5519 6.26125 14.4996 6.38131 14.3086L 14.8646 0.732799C 15.3206 0.0030579 16.2835 -0.219139 17.0132 0.236949C 17.7438 0.693037 17.9652 1.65511 17.5091 2.38563L 9.02351 15.9654C 8.44579 16.883 7.50399 17.4958 6.43589 17.6517C 6.25891 17.6774 6.08115 17.6899 5.90418 17.6899Z"/>
</defs>
</svg>
