<svg width="60" height="60" viewBox="0 0 60 60" version="1.1" xmlns="http://www.w3.org/2000/svg" xmlns:xlink="http://www.w3.org/1999/xlink">
<title>icon-happy-planet</title>
<desc>Created using Figma</desc>
<g id="Canvas" transform="translate(-7989 -9838)">
<g id="icon-happy-planet">
<g id="Oval 9">
<use xlink:href="#path0_stroke" transform="translate(7994 9843)" fill="#1C1A1A"/>
</g>
<g id="Line">
<use xlink:href="#path1_stroke" transform="translate(7994 9867)" fill="#1C1A1A"/>
</g>
<g id="Line Copy">
<use xlink:href="#path2_stroke" transform="translate(8019.47 9843.8)" fill="#1C1A1A"/>
</g>
<g id="Path 19">
<use xlink:href="#path3_stroke" transform="translate(8001 9851)" fill="#1C1A1A"/>
</g>
<g id="Path 19 Copy 2">
<use xlink:href="#path4_stroke" transform="matrix(-1.83697e-16 1 -1 -1.83697e-16 8017.48 9843)" fill="#1C1A1A"/>
</g>
<g id="Path 19 Copy 3">
<use xlink:href="#path5_stroke" transform="matrix(1.83697e-16 1 1 -1.83697e-16 8022 9843)" fill="#1C1A1A"/>
</g>
<g id="Path 19 Copy">
<use xlink:href="#path3_stroke" transform="matrix(-1 -1.22465e-16 1.22465e-16 -1 8036.56 9887.11)" fill="#1C1A1A"/>
</g>
</g>
</g>
<defs>
<path id="path0_stroke" d="M 25.5 52.5C 40.4117 52.5 52.5 40.4117 52.5 25.5L 49.5 25.5C 49.5 38.7548 38.7548 49.5 25.5 49.5L 25.5 52.5ZM 52.5 25.5C 52.5 10.5883 40.4117 -1.5 25.5 -1.5L 25.5 1.5C 38.7548 1.5 49.5 12.2452 49.5 25.5L 52.5 25.5ZM 25.5 -1.5C 10.5883 -1.5 -1.5 10.5883 -1.5 25.5L 1.5 25.5C 1.5 12.2452 12.2452 1.5 25.5 1.5L 25.5 -1.5ZM -1.5 25.5C -1.5 40.4117 10.5883 52.5 25.5 52.5L 25.5 49.5C 12.2452 49.5 1.5 38.7548 1.5 25.5L -1.5 25.5Z"/>
<path id="path1_stroke" d="M 0.5 0L -1 0L -1 3L 0.5 3L 0.5 0ZM 50.5392 3L 52.0392 3L 52.0392 0L 50.5392 0L 50.5392 3ZM 0.5 3L 50.5392 3L 50.5392 0L 0.5 0L 0.5 3Z"/>
<path id="path2_stroke" d="M 1.5 3.19494e-16L 1.5 -1.5L -1.5 -1.5L -1.5 -3.19494e-16L 1.5 3.19494e-16ZM -1.5 50.0392L -1.5 51.5392L 1.5 51.5392L 1.5 50.0392L -1.5 50.0392ZM -1.5 -3.19494e-16L -1.5 50.0392L 1.5 50.0392L 1.5 3.19494e-16L -1.5 -3.19494e-16Z"/>
<path id="path3_stroke" d="M 0 0.51416C -0.607982 1.88542 -0.607647 1.88557 -0.60728 1.88573C -0.607116 1.88581 -0.606718 1.88598 -0.60639 1.88613C -0.605735 1.88642 -0.604956 1.88676 -0.604052 1.88716C -0.602245 1.88796 -0.599943 1.88897 -0.597148 1.8902C -0.591557 1.89265 -0.583996 1.89596 -0.574486 1.9001C -0.555469 1.90836 -0.528659 1.91994 -0.49425 1.93459C -0.425436 1.9639 -0.326201 2.00556 -0.198081 2.05778C 0.0581223 2.16222 0.430064 2.30902 0.90544 2.48398C 1.85577 2.83375 3.22195 3.29698 4.90527 3.7594C 8.26536 4.68246 12.9233 5.61182 18.0781 5.61182L 18.0781 2.61182C 13.269 2.61182 8.88796 1.74235 5.69996 0.866573C 4.10922 0.429583 2.8241 -0.00659914 1.94164 -0.33139C 1.50062 -0.493708 1.16079 -0.627975 0.934321 -0.720287C 0.821106 -0.766436 0.736281 -0.802076 0.681369 -0.825465C 0.653915 -0.837159 0.633945 -0.845788 0.621649 -0.851134C 0.615501 -0.853807 0.611272 -0.855659 0.608986 -0.856662C 0.607843 -0.857164 0.607186 -0.857454 0.607018 -0.857528C 0.606934 -0.857565 0.606972 -0.857549 0.607132 -0.857478C 0.607213 -0.857442 0.607425 -0.857348 0.607465 -0.85733C 0.607708 -0.857222 0.607982 -0.857101 0 0.51416ZM 18.0781 5.61182C 23.2611 5.61182 27.7926 4.54352 31.0224 3.48075C 32.6401 2.94847 33.9392 2.41494 34.8398 2.01129C 35.2904 1.80937 35.6419 1.63964 35.8845 1.51839C 36.0058 1.45776 36.0999 1.40922 36.1656 1.3748C 36.1984 1.35758 36.2242 1.3439 36.2427 1.334C 36.2519 1.32904 36.2593 1.32504 36.2649 1.322C 36.2677 1.32049 36.2701 1.31922 36.272 1.31819C 36.2729 1.31768 36.2737 1.31723 36.2744 1.31685C 36.2748 1.31665 36.2752 1.31641 36.2754 1.31631C 36.2758 1.31608 36.2762 1.31587 35.5562 0C 34.8361 -1.31587 34.8364 -1.31605 34.8367 -1.31622C 34.8368 -1.31625 34.8371 -1.3164 34.8372 -1.31647C 34.8374 -1.31661 34.8376 -1.31668 34.8376 -1.3167C 34.8377 -1.31672 34.8373 -1.3165 34.8364 -1.31604C 34.8347 -1.31512 34.8312 -1.31323 34.8259 -1.3104C 34.8154 -1.30475 34.7977 -1.29534 34.7731 -1.28244C 34.7238 -1.25663 34.6468 -1.21683 34.5431 -1.16503C 34.3358 -1.06142 34.0225 -0.909907 33.6129 -0.72635C 32.7933 -0.359033 31.5911 0.135389 30.0847 0.631062C 27.0665 1.6242 22.8591 2.61182 18.0781 2.61182L 18.0781 5.61182Z"/>
<path id="path4_stroke" d="M 0 4.61853e-14C -1.00688 1.11184 -1.00653 1.11216 -1.00613 1.11252C -1.00593 1.1127 -1.00548 1.11311 -1.00508 1.11347C -1.00429 1.11419 -1.0033 1.11508 -1.00212 1.11614C -0.999753 1.11828 -0.996615 1.1211 -0.992709 1.12461C -0.984897 1.13162 -0.974012 1.14136 -0.960095 1.15373C -0.932264 1.17849 -0.892302 1.2138 -0.840549 1.25897C -0.737051 1.3493 -0.586339 1.4791 -0.391117 1.64271C -0.000764193 1.96986 0.568099 2.43268 1.29382 2.9859C 2.74397 4.09136 4.82741 5.5631 7.37041 7.03563C 12.429 9.96483 19.4394 12.9751 26.9629 12.9751L 26.9629 9.9751C 20.1947 9.9751 13.7236 7.24782 8.87372 4.43947C 6.46245 3.04322 4.48487 1.64619 3.11255 0.600067C 2.42704 0.0774945 1.89431 -0.356175 1.53588 -0.65657C 1.35671 -0.80673 1.22123 -0.92347 1.13213 -1.00123C 1.08759 -1.04011 1.05466 -1.06923 1.03367 -1.0879C 1.02317 -1.09723 1.01566 -1.10395 1.01119 -1.10797C 1.00895 -1.10998 1.00747 -1.11132 1.00675 -1.11196C 1.00639 -1.11229 1.00622 -1.11244 1.00624 -1.11242C 1.00625 -1.11241 1.00641 -1.11226 1.00642 -1.11226C 1.00663 -1.11207 1.00688 -1.11184 0 4.61853e-14ZM 26.9629 12.9751C 34.5117 12.9751 40.8413 9.9474 45.2379 6.98099C 47.4428 5.49332 49.1843 4.00604 50.3778 2.88744C 50.9752 2.32754 51.4371 1.85832 51.7529 1.52525C 51.9109 1.35867 52.0325 1.22599 52.1164 1.13288C 52.1584 1.08632 52.1909 1.04963 52.2138 1.02353C 52.2253 1.01048 52.2344 1.00007 52.2411 0.992401C 52.2444 0.988564 52.2471 0.98541 52.2493 0.98295C 52.2503 0.98172 52.2512 0.980664 52.252 0.979782C 52.2524 0.979341 52.2528 0.978811 52.253 0.978591C 52.2534 0.978105 52.2538 0.977663 51.1162 2.0961e-13C 49.9786 -0.977663 49.9789 -0.978018 49.9792 -0.978329C 49.9792 -0.978374 49.9794 -0.978642 49.9795 -0.978734C 49.9797 -0.978918 49.9797 -0.97893 49.9795 -0.97877C 49.9793 -0.97845 49.9784 -0.977445 49.9769 -0.975767C 49.974 -0.972409 49.9687 -0.966357 49.9611 -0.957695C 49.9459 -0.940372 49.9213 -0.912621 49.8875 -0.875136C 49.82 -0.800157 49.7158 -0.686302 49.5762 -0.539112C 49.2969 -0.244632 48.8767 0.182639 48.3263 0.698533C 47.2241 1.73151 45.6069 3.11301 43.56 4.49411C 39.4528 7.26525 33.7058 9.9751 26.9629 9.9751L 26.9629 12.9751Z"/>
<path id="path5_stroke" d="M 0 9.59233e-14C -1.00688 1.11184 -1.00653 1.11216 -1.00613 1.11252C -1.00593 1.1127 -1.00548 1.11311 -1.00508 1.11347C -1.00429 1.11419 -1.0033 1.11508 -1.00212 1.11614C -0.999753 1.11828 -0.996615 1.1211 -0.992709 1.12461C -0.984897 1.13162 -0.974012 1.14136 -0.960095 1.15373C -0.932264 1.17849 -0.892302 1.2138 -0.840549 1.25897C -0.737051 1.3493 -0.586339 1.4791 -0.391117 1.64271C -0.000764193 1.96986 0.568099 2.43268 1.29382 2.9859C 2.74397 4.09136 4.82741 5.5631 7.37041 7.03563C 12.429 9.96483 19.4394 12.9751 26.9629 12.9751L 26.9629 9.9751C 20.1947 9.9751 13.7236 7.24782 8.87372 4.43947C 6.46245 3.04322 4.48487 1.64619 3.11255 0.600067C 2.42704 0.0774945 1.89431 -0.356175 1.53588 -0.65657C 1.35671 -0.80673 1.22123 -0.92347 1.13213 -1.00123C 1.08759 -1.04011 1.05466 -1.06923 1.03367 -1.0879C 1.02317 -1.09723 1.01566 -1.10395 1.01119 -1.10797C 1.00895 -1.10998 1.00747 -1.11132 1.00675 -1.11196C 1.00639 -1.11229 1.00622 -1.11244 1.00624 -1.11242C 1.00625 -1.11241 1.00641 -1.11226 1.00642 -1.11226C 1.00663 -1.11207 1.00688 -1.11184 0 9.59233e-14ZM 26.9629 12.9751C 34.5134 12.9751 40.798 9.94616 45.1508 6.97666C 47.3332 5.48775 49.052 3.9992 50.2284 2.87952C 50.8172 2.31908 51.272 1.84934 51.5829 1.5158C 51.7383 1.34898 51.858 1.21607 51.9406 1.12273C 51.9818 1.07606 52.0139 1.03926 52.0365 1.01305C 52.0478 0.99995 52.0568 0.98949 52.0634 0.981764C 52.0667 0.977901 52.0694 0.97472 52.0715 0.972234C 52.0725 0.970991 52.0734 0.969922 52.0742 0.969027C 52.0746 0.96858 52.075 0.96804 52.0752 0.967817C 52.0756 0.967321 52.076 0.966869 50.9292 5.96856e-13C 49.7824 -0.966869 49.7827 -0.967234 49.783 -0.967554C 49.783 -0.967603 49.7832 -0.967881 49.7833 -0.967979C 49.7835 -0.968176 49.7835 -0.968201 49.7834 -0.968054C 49.7831 -0.96776 49.7823 -0.966782 49.7809 -0.96513C 49.7781 -0.961825 49.773 -0.955826 49.7655 -0.947218C 49.7507 -0.930002 49.7266 -0.902361 49.6936 -0.864988C 49.6274 -0.790232 49.5253 -0.676609 49.3883 -0.529659C 49.1143 -0.235655 48.7016 0.191097 48.1601 0.706446C 47.0759 1.73835 45.4827 3.11857 43.4601 4.49843C 39.4026 7.26649 33.704 9.9751 26.9629 9.9751L 26.9629 12.9751Z"/>
</defs>
</svg>
