<svg width="100" height="100" viewBox="0 0 100 100" version="1.1" xmlns="http://www.w3.org/2000/svg" xmlns:xlink="http://www.w3.org/1999/xlink">
<title>icon-transparent</title>
<desc>Created using Figma</desc>
<g id="Canvas" transform="translate(-7816 -7234)">
<g id="icon-transparent">
<g id="Group 5">
<g id="Group Copy 6">
<g id="Page 1">
<mask id="mask0_outline_ins">
<use xlink:href="#path0_fill" fill="white" transform="translate(7816 7238)"/>
</mask>
<g mask="url(#mask0_outline_ins)">
<use xlink:href="#path1_stroke_2x" transform="translate(7816 7238)" fill="#1E1D1D"/>
</g>
</g>
</g>
</g>
<g id="Group">
<g id="Oval 6">
<use xlink:href="#path2_fill" transform="translate(7853.43 7270.8)" fill="#FFFFFF"/>
<use xlink:href="#path3_stroke" transform="translate(7853.43 7270.8)" fill="#1C1A1A"/>
</g>
<g id="Oval 6 Copy">
<use xlink:href="#path4_fill" transform="translate(7862.44 7279.82)" fill="#FFFFFF"/>
<use xlink:href="#path5_stroke" transform="translate(7862.44 7279.82)" fill="#1C1A1A"/>
</g>
<g id="Path 13">
<use xlink:href="#path6_stroke" transform="translate(7839 7269)" fill="#1C1A1A"/>
</g>
<g id="Path 13 Copy">
<use xlink:href="#path6_stroke" transform="matrix(-1 -1.22465e-16 1.22465e-16 -1 7893.31 7299.34)" fill="#1C1A1A"/>
</g>
</g>
</g>
</g>
<defs>
<path id="path0_fill" fill-rule="evenodd" d="M 96.5258 59.3437C 101.158 51.3741 101.158 41.5551 96.5258 33.5856C 92.774 27.1304 88.2431 19.3343 84.4913 12.879C 79.8591 4.9095 71.2988 0 62.0347 0L 37.9653 0C 28.7012 0 20.1406 4.9095 15.5087 12.879C 11.7569 19.3343 7.22572 27.1304 3.47417 33.5856C -1.15806 41.5551 -1.15806 51.3741 3.47417 59.3437C 7.22572 65.7989 11.7569 73.595 15.5087 80.0503C 20.1406 88.0198 28.7012 92.9293 37.9653 92.9293L 62.0347 92.9293C 71.2988 92.9293 79.8591 88.0198 84.4913 80.0503C 88.2431 73.595 92.774 65.7989 96.5258 59.3437Z"/>
<path id="path1_stroke_2x" d="M 96.5258 59.3437L 93.9321 57.8361L 93.9321 57.8362L 96.5258 59.3437ZM 96.5258 33.5856L 93.9321 35.0931L 93.9321 35.0932L 96.5258 33.5856ZM 84.4913 12.879L 87.085 11.3715L 87.085 11.3715L 84.4913 12.879ZM 15.5087 12.879L 18.1024 14.3865L 18.1025 14.3865L 15.5087 12.879ZM 3.47417 33.5856L 6.06786 35.0932L 6.06795 35.093L 3.47417 33.5856ZM 3.47417 59.3437L 6.06795 57.8363L 6.06786 57.8361L 3.47417 59.3437ZM 15.5087 80.0503L 18.1025 78.5428L 18.1024 78.5427L 15.5087 80.0503ZM 84.4913 80.0503L 87.085 81.5578L 87.085 81.5578L 84.4913 80.0503ZM 99.1195 60.8512C 104.293 51.9497 104.293 40.9796 99.1195 32.078L 93.9321 35.0932C 98.0226 42.1307 98.0226 50.7986 93.9321 57.8361L 99.1195 60.8512ZM 99.1196 32.0781C 97.2436 28.8505 95.173 25.2877 93.1023 21.7249C 91.0316 18.162 88.961 14.5992 87.085 11.3715L 81.8976 14.3865C 83.7735 17.6141 85.8441 21.1769 87.9148 24.7398C 89.9855 28.3026 92.0562 31.8655 93.9321 35.0931L 99.1196 32.0781ZM 87.085 11.3715C 81.9124 2.47231 72.3609 -3 62.0347 -3L 62.0347 3C 70.2368 3 77.8057 7.34668 81.8976 14.3866L 87.085 11.3715ZM 62.0347 -3L 37.9653 -3L 37.9653 3L 62.0347 3L 62.0347 -3ZM 37.9653 -3C 27.6391 -3 18.0873 2.47227 12.915 11.3715L 18.1025 14.3865C 22.194 7.34672 29.7632 3 37.9653 3L 37.9653 -3ZM 12.915 11.3715C 9.16312 17.8268 4.63197 25.6229 0.880387 32.0782L 6.06795 35.093C 9.81947 28.6378 14.3506 20.8418 18.1024 14.3865L 12.915 11.3715ZM 0.880474 32.078C -4.29349 40.9796 -4.29349 51.9497 0.880474 60.8512L 6.06786 57.8361C 1.97738 50.7986 1.97738 42.1307 6.06786 35.0932L 0.880474 32.078ZM 0.880387 60.8511C 4.63197 67.3064 9.16312 75.1025 12.915 81.5578L 18.1024 78.5427C 14.3506 72.0875 9.81947 64.2915 6.06795 57.8363L 0.880387 60.8511ZM 12.915 81.5577C 18.0873 90.457 27.6391 95.9293 37.9653 95.9293L 37.9653 89.9293C 29.7632 89.9293 22.194 85.5826 18.1025 78.5428L 12.915 81.5577ZM 37.9653 95.9293L 62.0347 95.9293L 62.0347 89.9293L 37.9653 89.9293L 37.9653 95.9293ZM 62.0347 95.9293C 72.3609 95.9293 81.9124 90.457 87.085 81.5578L 81.8976 78.5427C 77.8057 85.5826 70.2368 89.9293 62.0347 89.9293L 62.0347 95.9293ZM 87.085 81.5578C 88.961 78.3301 91.0316 74.7673 93.1023 71.2044C 95.173 67.6416 97.2436 64.0788 99.1196 60.8512L 93.9321 57.8362C 92.0562 61.0638 89.9855 64.6267 87.9148 68.1895C 85.8441 71.7524 83.7735 75.3152 81.8976 78.5427L 87.085 81.5578Z"/>
<path id="path2_fill" fill-rule="evenodd" d="M 13.0738 26.1475C 20.2942 26.1475 26.1475 20.2942 26.1475 13.0738C 26.1475 5.85333 20.2942 0 13.0738 0C 5.85333 0 0 5.85333 0 13.0738C 0 20.2942 5.85333 26.1475 13.0738 26.1475Z"/>
<path id="path3_stroke" d="M 13.0738 27.6475C 21.1226 27.6475 27.6475 21.1226 27.6475 13.0738L 24.6475 13.0738C 24.6475 19.4658 19.4658 24.6475 13.0738 24.6475L 13.0738 27.6475ZM 27.6475 13.0738C 27.6475 5.0249 21.1226 -1.5 13.0738 -1.5L 13.0738 1.5C 19.4658 1.5 24.6475 6.68175 24.6475 13.0738L 27.6475 13.0738ZM 13.0738 -1.5C 5.0249 -1.5 -1.5 5.0249 -1.5 13.0738L 1.5 13.0738C 1.5 6.68175 6.68175 1.5 13.0738 1.5L 13.0738 -1.5ZM -1.5 13.0738C -1.5 21.1226 5.0249 27.6475 13.0738 27.6475L 13.0738 24.6475C 6.68175 24.6475 1.5 19.4658 1.5 13.0738L -1.5 13.0738Z"/>
<path id="path4_fill" fill-rule="evenodd" d="M 4.05738 8.11475C 6.2982 8.11475 8.11475 6.2982 8.11475 4.05738C 8.11475 1.81655 6.2982 0 4.05738 0C 1.81655 0 0 1.81655 0 4.05738C 0 6.2982 1.81655 8.11475 4.05738 8.11475Z"/>
<path id="path5_stroke" d="M 4.05738 9.61475C 7.12663 9.61475 9.61475 7.12663 9.61475 4.05738L 6.61475 4.05738C 6.61475 5.46978 5.46978 6.61475 4.05738 6.61475L 4.05738 9.61475ZM 9.61475 4.05738C 9.61475 0.988122 7.12663 -1.5 4.05738 -1.5L 4.05738 1.5C 5.46978 1.5 6.61475 2.64498 6.61475 4.05738L 9.61475 4.05738ZM 4.05738 -1.5C 0.988122 -1.5 -1.5 0.988122 -1.5 4.05738L 1.5 4.05738C 1.5 2.64498 2.64498 1.5 4.05738 1.5L 4.05738 -1.5ZM -1.5 4.05738C -1.5 7.12663 0.988122 9.61475 4.05738 9.61475L 4.05738 6.61475C 2.64498 6.61475 1.5 5.46978 1.5 4.05738L -1.5 4.05738Z"/>
<path id="path6_stroke" d="M -1.17053 14.0773C -1.68858 14.7238 -1.58447 15.6678 -0.93801 16.1859C -0.291544 16.7039 0.65248 16.5998 1.17053 15.9533L -1.17053 14.0773ZM 53.1392 15.9533C 53.6572 16.5998 54.6012 16.7039 55.2477 16.1859C 55.8942 15.6678 55.9983 14.7238 55.4802 14.0773L 53.1392 15.9533ZM 0 15.0153C 1.17053 15.9533 1.17029 15.9536 1.1701 15.9539C 1.1701 15.9539 1.16996 15.9541 1.16995 15.9541C 1.16994 15.9541 1.17011 15.9539 1.17046 15.9534C 1.17117 15.9525 1.1726 15.9508 1.17475 15.9481C 1.17904 15.9428 1.18622 15.934 1.19625 15.9217C 1.2163 15.8972 1.24772 15.859 1.29025 15.8081C 1.37533 15.7062 1.50476 15.5533 1.67638 15.3568C 2.01973 14.9636 2.53125 14.3964 3.19349 13.7131C 4.5196 12.3449 6.44135 10.5203 8.81898 8.69827C 13.608 5.02828 20.0745 1.5 27.1548 1.5L 27.1548 -1.5C 19.1129 -1.5 12.002 2.47939 6.99419 6.31706C 4.47339 8.24883 2.44185 10.1781 1.03927 11.6252C 0.337165 12.3496 -0.209499 12.9555 -0.583258 13.3835C -0.770192 13.5975 -0.914035 13.7673 -1.01261 13.8853C -1.0619 13.9444 -1.09988 13.9905 -1.12629 14.0228C -1.13949 14.039 -1.1498 14.0516 -1.15719 14.0608C -1.16088 14.0653 -1.16384 14.069 -1.16607 14.0718C -1.16718 14.0731 -1.16811 14.0743 -1.16885 14.0752C -1.16922 14.0757 -1.16964 14.0762 -1.16983 14.0764C -1.1702 14.0769 -1.17053 14.0773 0 15.0153ZM 27.1548 1.5C 34.2352 1.5 40.7017 5.02828 45.4907 8.69827C 47.8683 10.5203 49.7901 12.3449 51.1162 13.7131C 51.7784 14.3964 52.29 14.9636 52.6333 15.3568C 52.8049 15.5533 52.9344 15.7062 53.0194 15.8081C 53.062 15.859 53.0934 15.8972 53.1134 15.9217C 53.1235 15.934 53.1306 15.9428 53.1349 15.9481C 53.1371 15.9508 53.1385 15.9525 53.1392 15.9534C 53.1396 15.9539 53.1397 15.9541 53.1397 15.9541C 53.1397 15.9541 53.1396 15.9539 53.1396 15.9539C 53.1394 15.9536 53.1392 15.9533 54.3097 15.0153C 55.4802 14.0773 55.4799 14.0769 55.4795 14.0764C 55.4793 14.0762 55.4789 14.0757 55.4785 14.0752C 55.4778 14.0743 55.4769 14.0731 55.4757 14.0718C 55.4735 14.069 55.4706 14.0653 55.4669 14.0608C 55.4595 14.0516 55.4492 14.039 55.436 14.0228C 55.4096 13.9905 55.3716 13.9444 55.3223 13.8853C 55.2237 13.7673 55.0799 13.5975 54.8929 13.3835C 54.5192 12.9555 53.9725 12.3496 53.2704 11.6252C 51.8678 10.1781 49.8363 8.24883 47.3155 6.31706C 42.3077 2.47939 35.1967 -1.5 27.1548 -1.5L 27.1548 1.5Z"/>
</defs>
</svg>
