<svg width="329" height="308" viewBox="0 0 329 308" version="1.1" xmlns="http://www.w3.org/2000/svg" xmlns:xlink="http://www.w3.org/1999/xlink">
<title>Group</title>
<desc>Created using Figma</desc>
<g id="Canvas" transform="translate(-6362 -2524)">
<g id="Group">
<g id="Page 1">
<use xlink:href="#path0_stroke" transform="translate(6463 2618)" fill="#FEFEFE"/>
</g>
<g id="Page 1 Copy">
<use xlink:href="#path1_stroke" transform="translate(6443 2600)" fill="#FEFEFE"/>
</g>
<g id="Page 1 Copy 2">
<use xlink:href="#path2_stroke" transform="translate(6422 2581)" fill="#FEFEFE"/>
</g>
<g id="Page 1 Copy 3">
<use xlink:href="#path3_stroke" transform="translate(6404 2563)" fill="#FEFEFE"/>
</g>
<g id="Page 1 Copy 4">
<use xlink:href="#path4_stroke" transform="translate(6384 2544)" fill="#FEFEFE"/>
</g>
<g id="Page 1 Copy 5">
<use xlink:href="#path5_stroke" transform="translate(6364 2526)" fill="#FEFEFE"/>
</g>
<g id="Page 1">
<g id="Fill 1">
<use xlink:href="#path6_fill" transform="translate(6491 2661.61)" fill="#FEFEFE"/>
</g>
<g id="Group 8">
<g id="Group 4">
<mask id="mask0_outline" mask-type="alpha">
<g id="Clip 3">
<use xlink:href="#path7_fill" transform="translate(6515.76 2668.27)" fill="#FFFFFF"/>
</g>
</mask>
<g id="Fill 2" mask="url(#mask0_outline)">
<use xlink:href="#path8_fill" transform="translate(6515.76 2668.27)" fill="#FEFEFE"/>
</g>
</g>
<mask id="mask1_outline" mask-type="alpha">
<g id="Clip 6">
<use xlink:href="#path9_fill" transform="translate(6491 2661.51)" fill="#FFFFFF"/>
</g>
</mask>
<g id="Fill 5" mask="url(#mask1_outline)">
<use xlink:href="#path10_fill" transform="translate(6536.28 2661.51)" fill="#FEFEFE"/>
</g>
<g id="Fill 7" mask="url(#mask1_outline)">
<use xlink:href="#path11_fill" transform="translate(6543.48 2668.27)" fill="#FEFEFE"/>
</g>
</g>
</g>
</g>
</g>
<defs>
<path id="path0_stroke" d="M 123.553 76.6308L 122.253 75.8819L 122.253 75.882L 123.553 76.6308ZM 123.553 43.3692L 122.253 44.118L 122.253 44.1181L 123.553 43.3692ZM 108.149 16.6308L 109.449 15.882L 109.449 15.8819L 108.149 16.6308ZM 19.8512 16.6308L 21.1509 17.3796L 21.1509 17.3796L 19.8512 16.6308ZM 4.44694 43.3692L 5.74665 44.1181L 5.74669 44.118L 4.44694 43.3692ZM 4.44694 76.6308L 5.74669 75.882L 5.74665 75.8819L 4.44694 76.6308ZM 19.8512 103.369L 21.1509 102.62L 21.1509 102.62L 19.8512 103.369ZM 108.149 103.369L 109.449 104.118L 109.449 104.118L 108.149 103.369ZM 124.853 77.3796C 131.049 66.625 131.049 53.375 124.853 42.6204L 122.253 44.1181C 127.916 53.9457 127.916 66.0543 122.253 75.8819L 124.853 77.3796ZM 124.853 42.6204C 122.452 38.4526 119.801 33.8519 117.151 29.2512C 114.5 24.6505 111.85 20.0498 109.449 15.882L 106.849 17.3796C 109.25 21.5474 111.901 26.1481 114.551 30.7488C 117.202 35.3495 119.852 39.9502 122.253 44.118L 124.853 42.6204ZM 109.449 15.8819C 103.252 5.12701 91.8 -1.5 79.4044 -1.5L 79.4044 1.5C 90.7251 1.5 101.187 7.5523 106.849 17.3796L 109.449 15.8819ZM 79.4044 -1.5L 48.5956 -1.5L 48.5956 1.5L 79.4044 1.5L 79.4044 -1.5ZM 48.5956 -1.5C 36.2 -1.5 24.7475 5.12698 18.5514 15.882L 21.1509 17.3796C 26.8125 7.55233 37.2749 1.5 48.5956 1.5L 48.5956 -1.5ZM 18.5514 15.882C 13.749 24.2176 7.94918 34.2848 3.14718 42.6205L 5.74669 44.118C 10.5487 35.7824 16.3485 25.7152 21.1509 17.3796L 18.5514 15.882ZM 3.14722 42.6204C -3.04908 53.375 -3.04908 66.625 3.14722 77.3796L 5.74665 75.8819C 0.0844507 66.0543 0.0844507 53.9457 5.74665 44.1181L 3.14722 42.6204ZM 3.14718 77.3795C 7.94918 85.7152 13.749 95.7824 18.5514 104.118L 21.1509 102.62C 16.3485 94.2848 10.5487 84.2176 5.74669 75.882L 3.14718 77.3795ZM 18.5514 104.118C 24.7475 114.873 36.2 121.5 48.5956 121.5L 48.5956 118.5C 37.2749 118.5 26.8125 112.448 21.1509 102.62L 18.5514 104.118ZM 48.5956 121.5L 79.4044 121.5L 79.4044 118.5L 48.5956 118.5L 48.5956 121.5ZM 79.4044 121.5C 91.8 121.5 103.252 114.873 109.449 104.118L 106.849 102.62C 101.187 112.448 90.7251 118.5 79.4044 118.5L 79.4044 121.5ZM 109.449 104.118C 111.85 99.9502 114.5 95.3495 117.151 90.7488C 119.801 86.1481 122.452 81.5474 124.853 77.3796L 122.253 75.882C 119.852 80.0498 117.202 84.6505 114.551 89.2512C 111.901 93.8519 109.25 98.4526 106.849 102.62L 109.449 104.118Z"/>
<path id="path1_stroke" d="M 161.198 100.259L 159.898 99.5113L 159.898 99.5113L 161.198 100.259ZM 161.198 56.7414L 159.898 57.4887L 159.898 57.4887L 161.198 56.7414ZM 141.1 21.7586L 142.401 21.0113L 142.401 21.0113L 141.1 21.7586ZM 25.8996 21.7586L 27.2002 22.5058L 27.2002 22.5058L 25.8996 21.7586ZM 5.80186 56.7414L 7.10248 57.4887L 7.10252 57.4886L 5.80186 56.7414ZM 5.80186 100.259L 7.10252 99.5114L 7.10248 99.5113L 5.80186 100.259ZM 25.8996 135.241L 27.2002 134.494L 27.2002 134.494L 25.8996 135.241ZM 141.1 135.241L 142.401 135.989L 142.401 135.989L 141.1 135.241ZM 162.499 101.006C 170.5 87.0789 170.5 69.9211 162.499 55.9942L 159.898 57.4887C 167.367 70.4902 167.367 86.5098 159.898 99.5113L 162.499 101.006ZM 162.499 55.9942C 159.366 50.5413 155.908 44.522 152.45 38.5028C 148.992 32.4835 145.534 26.4643 142.401 21.0113L 139.8 22.5058C 142.933 27.9587 146.391 33.978 149.849 39.9972C 153.307 46.0165 156.765 52.0357 159.898 57.4887L 162.499 55.9942ZM 142.401 21.0113C 134.399 7.08364 119.609 -1.5 103.598 -1.5L 103.598 1.5C 118.53 1.5 132.33 9.50513 139.8 22.5058L 142.401 21.0113ZM 103.598 -1.5L 63.4021 -1.5L 63.4021 1.5L 103.598 1.5L 103.598 -1.5ZM 63.4021 -1.5C 47.3914 -1.5 32.6005 7.08362 24.5989 21.0113L 27.2002 22.5058C 34.6692 9.50515 48.4704 1.5 63.4021 1.5L 63.4021 -1.5ZM 24.5989 21.0113C 18.3333 31.9172 10.7663 45.0884 4.50121 55.9942L 7.10252 57.4886C 13.3676 46.5828 20.9346 33.4116 27.2002 22.5058L 24.5989 21.0113ZM 4.50125 55.9942C -3.50042 69.9211 -3.50042 87.0789 4.50125 101.006L 7.10248 99.5113C -0.367492 86.5098 -0.367492 70.4902 7.10248 57.4887L 4.50125 55.9942ZM 4.50121 101.006C 10.7663 111.912 18.3333 125.083 24.5989 135.989L 27.2002 134.494C 20.9346 123.588 13.3676 110.417 7.10252 99.5114L 4.50121 101.006ZM 24.5989 135.989C 32.6005 149.916 47.3914 158.5 63.4021 158.5L 63.4021 155.5C 48.4704 155.5 34.6692 147.495 27.2002 134.494L 24.5989 135.989ZM 63.4021 158.5L 103.598 158.5L 103.598 155.5L 63.4021 155.5L 63.4021 158.5ZM 103.598 158.5C 119.609 158.5 134.399 149.916 142.401 135.989L 139.8 134.494C 132.33 147.495 118.53 155.5 103.598 155.5L 103.598 158.5ZM 142.401 135.989C 145.534 130.536 148.992 124.516 152.45 118.497C 155.908 112.478 159.366 106.459 162.499 101.006L 159.898 99.5113C 156.765 104.964 153.307 110.984 149.849 117.003C 146.391 123.022 142.933 129.041 139.8 134.494L 142.401 135.989Z"/>
<path id="path2_stroke" d="M 201.739 123.886L 200.443 123.132L 200.442 123.132L 201.739 123.886ZM 201.739 70.1136L 200.442 70.868L 200.443 70.868L 201.739 70.1136ZM 176.587 26.8864L 177.883 26.132L 177.883 26.132L 176.587 26.8864ZM 32.4132 26.8864L 33.7097 27.6408L 33.7097 27.6408L 32.4132 26.8864ZM 7.26101 70.1136L 8.55749 70.868L 8.55753 70.868L 7.26101 70.1136ZM 7.26101 123.886L 8.55753 123.132L 8.55749 123.132L 7.26101 123.886ZM 32.4132 167.114L 33.7097 166.359L 33.7097 166.359L 32.4132 167.114ZM 176.587 167.114L 177.883 167.868L 177.883 167.868L 176.587 167.114ZM 203.035 124.641C 212.988 107.537 212.988 86.4628 203.035 69.3592L 200.443 70.868C 209.852 87.039 209.852 106.961 200.443 123.132L 203.035 124.641ZM 203.035 69.3592C 199.115 62.6212 194.787 55.1834 190.459 47.7456C 186.132 40.3078 181.804 32.87 177.883 26.132L 175.29 27.6408C 179.211 34.3788 183.539 41.8166 187.866 49.2544C 192.194 56.6922 196.522 64.13 200.442 70.868L 203.035 69.3592ZM 177.883 26.132C 167.931 9.02975 149.545 -1.5 129.653 -1.5L 129.653 1.5C 148.484 1.5 165.88 11.4685 175.29 27.6408L 177.883 26.132ZM 129.653 -1.5L 79.3475 -1.5L 79.3475 1.5L 129.653 1.5L 129.653 -1.5ZM 79.3475 -1.5C 59.4552 -1.5 41.068 9.02973 31.1167 26.132L 33.7097 27.6408C 43.1198 11.4685 60.5156 1.5 79.3475 1.5L 79.3475 -1.5ZM 31.1167 26.132C 23.2753 39.608 13.8053 55.8832 5.9645 69.3593L 8.55753 70.868C 16.3983 57.392 25.8683 41.1168 33.7097 27.6408L 31.1167 26.132ZM 5.96454 69.3592C -3.98818 86.4628 -3.98818 107.537 5.96454 124.641L 8.55749 123.132C -0.852495 106.961 -0.852495 87.039 8.55749 70.868L 5.96454 69.3592ZM 5.9645 124.641C 13.8053 138.117 23.2753 154.392 31.1167 167.868L 33.7097 166.359C 25.8683 152.883 16.3983 136.608 8.55753 123.132L 5.9645 124.641ZM 31.1167 167.868C 41.068 184.97 59.4552 195.5 79.3475 195.5L 79.3475 192.5C 60.5156 192.5 43.1198 182.532 33.7097 166.359L 31.1167 167.868ZM 79.3475 195.5L 129.653 195.5L 129.653 192.5L 79.3475 192.5L 79.3475 195.5ZM 129.653 195.5C 149.545 195.5 167.931 184.97 177.883 167.868L 175.29 166.359C 165.88 182.532 148.484 192.5 129.653 192.5L 129.653 195.5ZM 177.883 167.868C 181.804 161.13 186.132 153.692 190.459 146.254C 194.787 138.817 199.115 131.379 203.035 124.641L 200.442 123.132C 196.522 129.87 192.194 137.308 187.866 144.746C 183.539 152.183 179.211 159.621 175.29 166.359L 177.883 167.868Z"/>
<path id="path3_stroke" d="M 237.454 147.514L 236.153 146.766L 236.153 146.766L 237.454 147.514ZM 237.454 83.4858L 236.153 84.2337L 236.153 84.2337L 237.454 83.4858ZM 207.849 32.0142L 209.149 31.2663L 209.149 31.2663L 207.849 32.0142ZM 38.1514 32.0142L 39.4517 32.7621L 39.4517 32.7621L 38.1514 32.0142ZM 8.54646 83.4858L 9.84669 84.2337L 9.84674 84.2336L 8.54646 83.4858ZM 8.54646 147.514L 9.84674 146.766L 9.84669 146.766L 8.54646 147.514ZM 38.1514 198.986L 39.4517 198.238L 39.4517 198.238L 38.1514 198.986ZM 207.849 198.986L 209.149 199.734L 209.149 199.734L 207.849 198.986ZM 238.754 148.262C 250.415 127.989 250.415 103.011 238.754 82.7379L 236.153 84.2337C 247.282 103.581 247.282 127.419 236.153 146.766L 238.754 148.262ZM 238.754 82.7379C 234.139 74.7148 229.045 65.8585 223.951 57.0021C 218.857 48.1458 213.764 39.2894 209.149 31.2663L 206.548 32.7621C 211.163 40.7852 216.257 49.6415 221.351 58.4979C 226.445 67.3542 231.538 76.2106 236.153 84.2337L 238.754 82.7379ZM 209.149 31.2663C 197.487 10.9923 175.934 -1.5 152.605 -1.5L 152.605 1.5C 174.856 1.5 195.42 13.4154 206.548 32.7621L 209.149 31.2663ZM 152.605 -1.5L 93.3946 -1.5L 93.3946 1.5L 152.605 1.5L 152.605 -1.5ZM 93.3946 -1.5C 70.0662 -1.5 48.5124 10.9923 36.8512 31.2663L 39.4517 32.7621C 50.5795 13.4154 71.1435 1.5 93.3946 1.5L 93.3946 -1.5ZM 36.8512 31.2663C 27.6216 47.3125 16.475 66.6918 7.24618 82.7379L 9.84674 84.2336C 19.0755 68.1875 30.2221 48.8083 39.4517 32.7621L 36.8512 31.2663ZM 7.24622 82.7379C -4.41541 103.011 -4.41541 127.989 7.24622 148.262L 9.84669 146.766C -1.28223 127.419 -1.28223 103.581 9.84669 84.2337L 7.24622 82.7379ZM 7.24618 148.262C 16.475 164.308 27.6216 183.688 36.8512 199.734L 39.4517 198.238C 30.2221 182.192 19.0755 162.812 9.84674 146.766L 7.24618 148.262ZM 36.8512 199.734C 48.5124 220.008 70.0662 232.5 93.3946 232.5L 93.3946 229.5C 71.1435 229.5 50.5795 217.585 39.4517 198.238L 36.8512 199.734ZM 93.3946 232.5L 152.605 232.5L 152.605 229.5L 93.3946 229.5L 93.3946 232.5ZM 152.605 232.5C 175.934 232.5 197.487 220.008 209.149 199.734L 206.548 198.238C 195.42 217.585 174.856 229.5 152.605 229.5L 152.605 232.5ZM 209.149 199.734C 213.764 191.711 218.857 182.854 223.951 173.998C 229.045 165.142 234.139 156.285 238.754 148.262L 236.153 146.766C 231.538 154.789 226.445 163.646 221.351 172.502C 216.257 181.358 211.163 190.215 206.548 198.238L 209.149 199.734Z"/>
<path id="path4_stroke" d="M 276.064 171.142L 274.764 170.393L 274.764 170.393L 276.064 171.142ZM 276.064 96.858L 274.764 97.607L 274.764 97.6071L 276.064 96.858ZM 241.645 37.142L 242.945 36.393L 242.945 36.3929L 241.645 37.142ZM 44.3549 37.142L 45.6545 37.8911L 45.6545 37.8911L 44.3549 37.142ZM 9.93612 96.858L 11.2357 97.6071L 11.2357 97.607L 9.93612 96.858ZM 9.93612 171.142L 11.2357 170.393L 11.2357 170.393L 9.93612 171.142ZM 44.3549 230.858L 45.6545 230.109L 45.6545 230.109L 44.3549 230.858ZM 241.645 230.858L 242.945 231.607L 242.945 231.607L 241.645 230.858ZM 277.363 171.891C 290.879 148.444 290.879 119.556 277.363 96.1089L 274.764 97.6071C 287.745 120.127 287.745 147.873 274.764 170.393L 277.363 171.891ZM 277.363 96.1089C 271.998 86.8008 266.076 76.5259 260.154 66.251C 254.232 55.9761 248.31 45.7011 242.945 36.393L 240.346 37.8911C 245.711 47.1992 251.633 57.4741 257.555 67.749C 263.477 78.0239 269.399 88.2989 274.764 97.607L 277.363 96.1089ZM 242.945 36.3929C 229.429 12.9456 204.452 -1.5 177.419 -1.5L 177.419 1.5C 203.378 1.5 227.365 15.3715 240.346 37.8911L 242.945 36.3929ZM 177.419 -1.5L 108.581 -1.5L 108.581 1.5L 177.419 1.5L 177.419 -1.5ZM 108.581 -1.5C 81.5482 -1.5 56.57 12.9456 43.0553 36.393L 45.6545 37.8911C 58.6344 15.3716 82.6224 1.5 108.581 1.5L 108.581 -1.5ZM 43.0553 36.393C 32.325 55.0093 19.366 77.4926 8.63652 96.109L 11.2357 97.607C 21.9651 78.9907 34.9242 56.5074 45.6545 37.8911L 43.0553 36.393ZM 8.63656 96.1089C -4.87885 119.556 -4.87885 148.444 8.63656 171.891L 11.2357 170.393C -1.74523 147.873 -1.74523 120.127 11.2357 97.6071L 8.63656 96.1089ZM 8.63652 171.891C 19.366 190.507 32.325 212.991 43.0553 231.607L 45.6545 230.109C 34.9242 211.493 21.9651 189.009 11.2357 170.393L 8.63652 171.891ZM 43.0553 231.607C 56.57 255.054 81.5482 269.5 108.581 269.5L 108.581 266.5C 82.6224 266.5 58.6344 252.628 45.6545 230.109L 43.0553 231.607ZM 108.581 269.5L 177.419 269.5L 177.419 266.5L 108.581 266.5L 108.581 269.5ZM 177.419 269.5C 204.452 269.5 229.429 255.054 242.945 231.607L 240.346 230.109C 227.365 252.628 203.378 266.5 177.419 266.5L 177.419 269.5ZM 242.945 231.607C 248.31 222.299 254.232 212.024 260.154 201.749C 266.076 191.474 271.998 181.199 277.363 171.891L 274.764 170.393C 269.399 179.701 263.477 189.976 257.555 200.251C 251.633 210.526 245.711 220.801 240.346 230.109L 242.945 231.607Z"/>
<path id="path5_stroke" d="M 313.709 194.131L 312.41 193.381L 312.41 193.381L 313.709 194.131ZM 313.709 109.869L 312.41 110.619L 312.41 110.619L 313.709 109.869ZM 274.597 42.1313L 275.896 41.3812L 275.896 41.3811L 274.597 42.1313ZM 50.4033 42.1313L 51.7023 42.8813L 51.7023 42.8813L 50.4033 42.1313ZM 11.291 109.869L 12.59 110.619L 12.5901 110.619L 11.291 109.869ZM 11.291 194.131L 12.5901 193.381L 12.59 193.381L 11.291 194.131ZM 50.4033 261.869L 51.7023 261.119L 51.7023 261.119L 50.4033 261.869ZM 274.597 261.869L 275.896 262.619L 275.896 262.619L 274.597 261.869ZM 315.008 194.881C 330.331 168.346 330.331 135.654 315.008 109.119L 312.41 110.619C 327.197 136.225 327.197 167.775 312.41 193.381L 315.008 194.881ZM 315.008 109.119C 308.911 98.5602 302.182 86.9051 295.452 75.25C 288.722 63.5948 281.992 51.9397 275.896 41.3812L 273.298 42.8813C 279.394 53.4398 286.124 65.0949 292.854 76.7501C 299.583 88.4052 306.313 100.06 312.41 110.619L 315.008 109.119ZM 275.896 41.3811C 260.573 14.8463 232.257 -1.5 201.613 -1.5L 201.613 1.5C 231.185 1.5 258.511 17.2746 273.298 42.8814L 275.896 41.3811ZM 201.613 -1.5L 123.387 -1.5L 123.387 1.5L 201.613 1.5L 201.613 -1.5ZM 123.387 -1.5C 92.743 -1.5 64.426 14.8463 49.1043 41.3812L 51.7023 42.8813C 66.488 17.2747 93.8146 1.5 123.387 1.5L 123.387 -1.5ZM 49.1043 41.3812C 36.9108 62.4982 22.1846 88.0017 9.99203 109.119L 12.5901 110.619C 24.7826 89.5018 39.5088 63.9983 51.7023 42.8813L 49.1043 41.3812ZM 9.99207 109.119C -5.33069 135.654 -5.33069 168.346 9.99207 194.881L 12.59 193.381C -2.19668 167.775 -2.19668 136.225 12.59 110.619L 9.99207 109.119ZM 9.99203 194.881C 22.1846 215.998 36.9108 241.502 49.1043 262.619L 51.7023 261.119C 39.5088 240.002 24.7826 214.498 12.5901 193.381L 9.99203 194.881ZM 49.1043 262.619C 64.426 289.154 92.743 305.5 123.387 305.5L 123.387 302.5C 93.8146 302.5 66.488 286.725 51.7023 261.119L 49.1043 262.619ZM 123.387 305.5L 201.613 305.5L 201.613 302.5L 123.387 302.5L 123.387 305.5ZM 201.613 305.5C 232.257 305.5 260.573 289.154 275.896 262.619L 273.298 261.119C 258.511 286.725 231.185 302.5 201.613 302.5L 201.613 305.5ZM 275.896 262.619C 281.992 252.06 288.722 240.405 295.452 228.75C 302.182 217.095 308.911 205.44 315.008 194.881L 312.41 193.381C 306.313 203.94 299.583 215.595 292.854 227.25C 286.124 238.905 279.394 250.56 273.298 261.119L 275.896 262.619Z"/>
<path id="path6_fill" fill-rule="evenodd" d="M 8.06631 0L 0 23.9314L 5.64425 23.9314L 6.84823 20.1148L 16.049 20.1148L 17.2525 23.9314L 22.8967 23.9314L 14.8304 0L 8.06631 0ZM 11.4488 5.58691L 14.5103 15.2667L 8.38672 15.2667L 11.4488 5.58691Z"/>
<path id="path7_fill" fill-rule="evenodd" d="M 0 0L 18.1523 0L 18.1523 24.4173L 0 24.4173L 0 0Z"/>
<path id="path8_fill" fill-rule="evenodd" d="M 9.07621 4.5708C 11.6297 4.5708 13.3458 6.3435 13.3458 8.98172C 13.3458 11.6194 11.6297 13.3921 9.07621 13.3921C 6.52273 13.3921 4.80664 11.6194 4.80664 8.98172C 4.80664 6.3435 6.52273 4.5708 9.07621 4.5708ZM 10.1082 17.9637C 14.619 17.9637 18.1523 14.0185 18.1523 8.98184C 18.1523 3.94514 14.619 0 10.1082 0C 7.97013 0 6.2903 0.691302 5.11653 2.05511L 4.80685 2.41422L 4.80685 0.485587L 0 0.485587L 0 24.4175L 4.80685 24.4175L 4.80685 15.549L 5.11653 15.9081C 6.2908 17.2719 7.97013 17.9637 10.1082 17.9637Z"/>
<path id="path9_fill" fill-rule="evenodd" d="M 0 31.1792L 70.6364 31.1792L 70.6364 0L 0 0L 0 31.1792Z"/>
<path id="path10_fill" fill-rule="evenodd" d="M 0 24.0315L 4.80685 24.0315L 4.80685 0L 0 0L 0 24.0315Z"/>
<path id="path11_fill" fill-rule="evenodd" d="M 9.07621 13.3921C 6.52273 13.3921 4.80664 11.6194 4.80664 8.98121C 4.80664 6.3435 6.52273 4.5708 9.07621 4.5708C 11.6297 4.5708 13.3458 6.3435 13.3458 8.98121C 13.3458 11.6194 11.6297 13.3921 9.07621 13.3921ZM 18.1523 17.4776L 18.1523 0.485587L 13.346 0.485587L 13.346 2.41422L 13.0363 2.05511C 11.8625 0.691302 10.1832 0 8.04465 0C 3.53389 0 0 3.94514 0 8.98133C 0 14.018 3.53389 17.9637 8.04465 17.9637C 10.1827 17.9637 11.8625 17.2719 13.0363 15.9081L 13.346 15.549L 13.346 17.4776L 18.1523 17.4776Z"/>
</defs>
</svg>
