<svg width="112" height="36" viewBox="0 0 112 36" version="1.1" xmlns="http://www.w3.org/2000/svg" xmlns:xlink="http://www.w3.org/1999/xlink">
<title>Page 1</title>
<desc>Created using Figma</desc>
<g id="Canvas" transform="translate(-5888 -107)">
<g id="Page 1">
<g id="Fill 1">
<use xlink:href="#path0_fill" transform="translate(5927.86 111.52)" fill="#FFFFFF"/>
</g>
<g id="Group 11">
<g id="Group 4">
<mask id="mask0_outline" mask-type="alpha">
<g id="Clip 3">
<use xlink:href="#path1_fill" transform="translate(5953.17 117.962)" fill="#FFFFFF"/>
</g>
</mask>
<g id="Fill 2" mask="url(#mask0_outline)">
<use xlink:href="#path2_fill" transform="translate(5953.17 117.962)" fill="#FFFFFF"/>
</g>
</g>
<mask id="mask1_outline" mask-type="alpha">
<g id="Clip 6">
<use xlink:href="#path3_fill" transform="translate(5888 107.507)" fill="#FFFFFF"/>
</g>
</mask>
<g id="Fill 5" mask="url(#mask1_outline)">
<use xlink:href="#path4_fill" transform="translate(5973.71 111.42)" fill="#FFFFFF"/>
</g>
<g id="Fill 7" mask="url(#mask1_outline)">
<use xlink:href="#path5_fill" transform="translate(5981.2 117.962)" fill="#FFFFFF"/>
</g>
<g id="Fill 8" mask="url(#mask1_outline)">
<use xlink:href="#path6_fill" transform="translate(5888 107.507)" fill="#FFFFFF"/>
</g>
<g id="Fill 9" mask="url(#mask1_outline)">
<use xlink:href="#path7_fill" transform="translate(5893.74 112.824)" fill="#FFFFFF"/>
</g>
<g id="Fill 10" mask="url(#mask1_outline)">
<use xlink:href="#path8_fill" transform="translate(5899.48 118.14)" fill="#FFFFFF"/>
</g>
</g>
</g>
</g>
<defs>
<path id="path0_fill" fill-rule="evenodd" d="M 14.675 15.2392L 11.8236 6.33803L 8.97168 15.2392L 14.675 15.2392ZM 16.3444 20.4343L 7.30291 20.4343L 6.08567 24.2442L 0 24.2442L 8.2768 0L 15.3705 0L 23.6468 24.2442L 17.5611 24.2442L 16.3444 20.4343Z"/>
<path id="path1_fill" fill-rule="evenodd" d="M 0 0L 18.7086 0L 18.7086 24.7293L 0 24.7293L 0 0Z"/>
<path id="path2_fill" fill-rule="evenodd" d="M 13.4926 9.1435C 13.4926 6.54592 11.7541 4.91831 9.35471 4.91831C 6.95485 4.91831 5.21631 6.54592 5.21631 9.1435C 5.21631 11.7411 6.95485 13.3692 9.35471 13.3692C 11.7541 13.3692 13.4926 11.7411 13.4926 9.1435ZM 18.7086 9.14349C 18.7086 14.3042 14.953 18.287 10.3977 18.287C 8.06756 18.287 6.36415 17.4904 5.21615 16.1746L 5.21615 24.7295L 0 24.7295L 0 0.485239L 5.21615 0.485239L 5.21615 2.11285C 6.36415 0.796564 8.06756 0 10.3977 0C 14.953 0 18.7086 3.98332 18.7086 9.14349Z"/>
<path id="path3_fill" fill-rule="evenodd" d="M 0 35.1837L 111.91 35.1837L 111.91 0L 0 0L 0 35.1837Z"/>
<path id="path4_fill" fill-rule="evenodd" d="M 0 24.3446L 5.21665 24.3446L 5.21665 0L 0 0L 0 24.3446Z"/>
<path id="path5_fill" fill-rule="evenodd" d="M 13.4926 9.1435C 13.4926 6.54592 11.7535 4.91831 9.35471 4.91831C 6.95485 4.91831 5.21631 6.54592 5.21631 9.1435C 5.21631 11.7411 6.95485 13.3692 9.35471 13.3692C 11.7535 13.3692 13.4926 11.7411 13.4926 9.1435ZM 18.7086 0.485239L 18.7086 17.8023L 13.4924 17.8023L 13.4924 16.1746C 12.3449 17.4904 10.641 18.287 8.31091 18.287C 3.75556 18.287 0 14.3042 0 9.14349C 0 3.98332 3.75556 0 8.31091 0C 10.641 0 12.3449 0.796564 13.4924 2.11285L 13.4924 0.485239L 18.7086 0.485239Z"/>
<path id="path6_fill" fill-rule="evenodd" d="M 13.3909 2.60316C 10.9157 2.60316 8.60952 3.92907 7.37243 6.06372L 3.5405 12.674C 2.3029 14.8087 2.3029 17.461 3.5405 19.5957L 7.37243 26.206C 8.60952 28.3406 10.9157 29.6665 13.3909 29.6665L 21.0543 29.6665C 23.5295 29.6665 25.8356 28.3406 27.0727 26.206L 30.9046 19.5957C 32.1423 17.461 32.1423 14.8087 30.9046 12.674L 27.0727 6.06372C 25.8356 3.92907 23.5295 2.60316 21.0543 2.60316L 13.3909 2.60316ZM 21.0543 32.2697L 13.391 32.2697C 9.98518 32.2697 6.81202 30.4448 5.10911 27.5075L 1.27718 20.8972C -0.425727 17.9599 -0.425727 14.3103 1.27718 11.3725L 5.10911 4.76265C 6.81202 1.82485 9.98518 0 13.391 0L 21.0543 0C 24.4607 0 27.6338 1.82485 29.3362 4.76265L 29.3525 4.79053L 33.1682 11.3725C 34.8706 14.3103 34.8706 17.9599 33.1682 20.8972L 29.3362 27.5075C 27.6338 30.4448 24.4607 32.2697 21.0543 32.2697Z"/>
<path id="path7_fill" fill-rule="evenodd" d="M 9.5194 2.60265C 7.75743 2.60265 6.11561 3.54676 5.23489 5.06636L 3.27285 8.45087C 2.39212 9.97048 2.39212 11.8587 3.27285 13.3783L 5.23489 16.7633C 6.11561 18.2829 7.75743 19.227 9.5194 19.227L 13.4435 19.227C 15.2054 19.227 16.8472 18.2829 17.7285 16.7633L 19.6905 13.3783C 20.5707 11.8587 20.5707 9.97048 19.6905 8.45087L 17.7285 5.06586C 16.8472 3.54676 15.2054 2.60265 13.4435 2.60265L 9.5194 2.60265ZM 13.4434 21.8297L 9.51936 21.8297C 6.82678 21.8297 4.31798 20.3872 2.97195 18.0649L 1.00991 14.6799C -0.336636 12.3576 -0.336636 9.47206 1.00991 7.1498L 2.97195 3.76479C 4.31798 1.44254 6.82678 0 9.51936 0L 13.4434 0C 16.1365 0 18.6448 1.44203 19.9914 3.76479L 21.9534 7.1493C 23.2999 9.47206 23.2999 12.3571 21.9534 14.6799L 19.9914 18.0644C 18.6448 20.3872 16.1365 21.8297 13.4434 21.8297Z"/>
<path id="path8_fill" fill-rule="evenodd" d="M 5.64778 2.60265C 4.59905 2.60265 3.62211 3.16445 3.09774 4.06901L 3.00509 4.22924C 2.48073 5.13329 2.48073 6.2569 3.00509 7.16197L 3.09774 7.32169C 3.62211 8.22524 4.59905 8.78755 5.64778 8.78755L 5.83258 8.78755L 5.83309 8.78755C 6.88182 8.78755 7.85876 8.22524 8.38313 7.32118L 8.47578 7.16146C 9.00014 6.2569 9.00014 5.13329 8.47578 4.22873L 8.3816 4.06648C 7.85876 3.16445 6.88182 2.60265 5.83309 2.60265L 5.64778 2.60265ZM 5.83316 11.3902L 5.83265 11.3902L 5.64785 11.3902C 3.66851 11.3902 1.82407 10.33 0.8344 8.62225L 0.742255 8.46355C -0.247418 6.75583 -0.247418 4.63437 0.742255 2.92716L 0.833891 2.76845C 1.82407 1.06023 3.66851 0 5.64785 0L 5.64836 0L 5.83265 0L 5.83316 0C 7.81251 0 9.65695 1.06023 10.6466 2.76744L 10.7372 2.92462C 11.7284 4.63437 11.7284 6.75583 10.7388 8.46304L 10.6481 8.61972C 9.65695 10.3295 7.812 11.3902 5.83316 11.3902Z"/>
</defs>
</svg>
