<svg width="37" height="43" viewBox="0 0 37 43" version="1.1" xmlns="http://www.w3.org/2000/svg" xmlns:xlink="http://www.w3.org/1999/xlink">
<g id="Canvas" fill="none">
<g id="Group 8 Copy">
<g id="Fill 8">
<path d="M 14.8114 39.5444C 8.18524 31.1618 1.27718 20.8972 1.27718 20.8972C -0.425727 17.9599 -0.425727 14.3103 1.27718 11.3725L 5.10911 4.76265C 6.81202 1.82485 9.98518 0 13.391 0L 21.0543 0C 24.4607 0 27.6338 1.82485 29.3362 4.76265L 33.1682 11.3725C 34.8706 14.3103 34.8706 17.9599 33.1682 20.8972C 33.1682 20.8972 26.0431 30.9445 20.1172 39.572C 19.2597 40.8205 15.7675 40.754 14.8114 39.5444Z" stroke-width="2" transform="translate(1 1.30908)" stroke="#3AC28B"/>
</g>
<g id="Fill 9">
<path d="M 9.65491 25.4099C 6.77324 22.1665 1.00991 15.6799 1.00991 15.6799C -0.336636 13.3576 -0.336636 9.47206 1.00991 7.1498L 2.97195 3.76479C 4.31798 1.44254 6.82678 0 9.51936 0L 13.4434 0C 16.1365 0 18.6448 1.44203 19.9914 3.76479L 21.9534 7.1493C 23.2999 9.47206 23.2999 13.3571 21.9534 15.6799C 21.9534 15.6799 16.2585 22.2415 13.4434 25.4099C 12.7679 26.1701 10.2638 26.0952 9.65491 25.4099Z" stroke-width="2" transform="translate(6.74121 6.62598)" stroke="#3AC28B"/>
</g>
<g id="Fill 10">
<path d="M 5.83316 11.3902L 5.83265 11.3902L 5.64785 11.3902L 5.64785 11.3902C 3.66851 11.3902 1.82407 10.33 0.8344 8.62225L 0.742255 8.46355C -0.247418 6.75583 -0.247418 4.63437 0.742255 2.92716L 0.833891 2.76845C 1.82407 1.06023 3.66851 0 5.64785 0L 5.64836 0L 5.83265 0L 5.83316 0C 7.81251 0 9.65695 1.06023 10.6466 2.76744L 10.7372 2.92462C 11.7284 4.63437 11.7284 6.75583 10.7388 8.46304L 10.6481 8.61972C 9.65695 10.3295 7.812 11.3902 5.83316 11.3902L 5.83316 11.3902Z" stroke-width="2" transform="translate(12.4824 11.9424)" stroke="#3AC28B"/>
</g>
</g>
</g>
</svg>

