<svg version="1.1" xmlns="http://www.w3.org/2000/svg" xmlns:xlink="http://www.w3.org/1999/xlink" x="0px" y="0px" viewBox="0 0 199 39" style="enable-background:new 0 0 199 39;" xml:space="preserve" width="199" height="39">
                                <path class="logo__icon" d="M13.5,27.6l2.5-2.5c1,0.5,2,0.8,3.4,0.8c1.3,0,2.4-0.3,3.3-0.8l2.4,2.4l2.6-2.6l-2.4-2.4c0.6-1,0.9-2.2,0.9-3.3
                                    c0-1.1-0.4-2.4-0.9-3.4l2.5-2.5l-2.6-2.6l-2.5,2.5c-0.9-0.5-2-0.7-3.3-0.7c-1.2,0-2.4,0.3-3.3,0.7l-2.4-2.3L11,13.5l2.3,2.3
                                    c-0.6,1.1-0.9,2.2-0.9,3.4c0,1.1,0.3,2.3,0.9,3.3l-2.5,2.5L13.5,27.6z M19.3,16.3c1.5,0,2.9,1.2,2.9,3c0,1.7-1.3,2.9-2.9,2.9
                                    c-1.6,0-2.9-1.2-2.9-2.9C16.5,17.5,17.7,16.3,19.3,16.3z M0,0v38.4h38.7V0H0z M34.4,34.2H4.3V4.3h30.1V34.2z"></path>
                                <path class="logo__text" d="M163.9,24.8l0-11h-3.6v1.4l0,0.3c-0.1-0.5-1.1-1.1-2.3-1.5c-0.8-0.2-1.6-0.4-2.4-0.4c-4.4,0-8,3.5-8,7.9
                                    c0,4.4,3.6,7.9,8,7.9c2.3,0,4.3-0.9,5.8-2.5c0.9,1.2,2.4,2.1,3.9,2.1v-3.3C164.6,25.7,163.9,25.3,163.9,24.8z M155.5,25.9
                                    c-2.5,0-4.4-2-4.4-4.4c0-2.4,2-4.4,4.4-4.4c2.5,0,4.4,2,4.4,4.4C159.9,24,157.9,25.9,155.5,25.9z M79.4,13.6c-4.6,0-8.2,3.5-8.2,8
                                    c0,4.4,3.5,8,8.2,8c4.6,0,8.2-3.5,8.2-8C87.7,17.1,84,13.6,79.4,13.6z M79.4,25.8c-2.7,0-4.3-2-4.3-4.3c0-2.3,1.7-4.3,4.3-4.3
                                    c2.5,0,4.3,2,4.3,4.3C83.7,23.8,82,25.8,79.4,25.8z M90.1,29.2H94V13.9h-3.9V29.2z M105.9,13.6c-3,0-4.7,2.1-4.7,2.1l-0.2-1.8h-3.6
                                    v15.3h3.8V18.9c0,0,1.4-1.8,3.9-1.8c1.8,0,3.1,1.1,3.1,3.1v9.1h3.8V20C112.1,16.2,109.7,13.6,105.9,13.6z M118.6,18.1
                                    c0-0.8,1-1.3,2-1.3c2.5,0,3.6,1.2,3.6,1.2l1.6-2.5c0,0-2.3-1.9-5.2-1.9c-3.2,0-5.9,1.7-5.9,4.8c0,5.2,8,4.1,8,6.5
                                    c0,1.1-1.5,1.3-2.7,1.3c-2.8,0-3.9-1.6-3.9-1.6l-1.7,2.8c0,0,2.7,2.2,5.6,2.2c4.3,0.1,6.5-2.2,6.5-5
                                    C126.5,19.4,118.6,20.1,118.6,18.1z M142.8,17.7c0,0,2.3-1.5,2.3-4.3c0-3.6-2.6-5.9-7.5-5.9H130v21.8h8.5c4.6,0,7.4-2.4,7.4-6.2
                                    C145.9,19.1,142.8,17.7,142.8,17.7z M133.8,11h3.8c2.3,0,3.6,1,3.6,2.6c0,1.9-1.3,2.9-3.6,2.9h-3.8V11z M138.1,25.6h-4.3v-5.8h4
                                    c3,0,4.1,1.1,4.1,2.9C141.9,24.5,140.6,25.6,138.1,25.6z M175.8,13.6c-3,0-4.7,2.1-4.7,2.1l-0.2-1.8h-3.6v15.3h3.8V18.9
                                    c0,0,1.4-1.8,3.9-1.8c1.8,0,3.1,1.1,3.1,3.1v9.1h3.8V20C182,16.2,179.5,13.6,175.8,13.6z M198.5,13.8H194l-5.7,7.3v-7.3h-3.9v15.5
                                    h3.9v-7.4l5.7,7.5h4.5l-6-7.9L198.5,13.8z M92,7.6c-1.3,0-2.4,1.1-2.4,2.4c0,1.3,1.1,2.4,2.4,2.4s2.4-1.1,2.4-2.4
                                    C94.4,8.7,93.3,7.6,92,7.6z M60.7,25.5c-3.9,0-7.1-3.2-7.1-7s3.2-7,7.1-7c2.3,0,4.4,1.1,5.8,3l3.3-2.4c-2.1-2.9-5.5-4.7-9.1-4.7
                                    c-6.2,0-11.2,5-11.2,11.1c0,6.1,5,11.1,11.2,11.1c3.7,0,7.1-1.8,9.2-4.8l-3.4-2.3C65.2,24.4,63,25.5,60.7,25.5z"></path>
                            </svg>