<svg width="132" height="124" viewBox="0 0 132 124" version="1.1" xmlns="http://www.w3.org/2000/svg" xmlns:xlink="http://www.w3.org/1999/xlink">
<title>Group 2</title>
<desc>Created using Figma</desc>
<g id="Canvas" transform="translate(-10672 -5746)">
<g id="Group 2">
<g id="Page 1">
<use xlink:href="#path0_stroke" transform="translate(10674 5748)" fill="#FFFFFF"/>
</g>
<g id="Group">
<g id="Rectangle 16">
<mask id="mask0_outline_ins">
<use xlink:href="#path1_fill" fill="white" transform="translate(10721 5780)"/>
</mask>
<g mask="url(#mask0_outline_ins)">
<use xlink:href="#path2_stroke_2x" transform="translate(10721 5780)" fill="#FFFFFF"/>
</g>
</g>
<g id="Rectangle">
<use xlink:href="#path3_fill" transform="translate(10723 5821)" fill="#FFFFFF"/>
</g>
<g id="Rectangle Copy">
<use xlink:href="#path3_fill" transform="translate(10723 5788)" fill="#FFFFFF"/>
</g>
<g id="Oval">
<use xlink:href="#path4_fill" transform="translate(10736 5826)" fill="#FFFFFF"/>
</g>
</g>
</g>
</g>
<defs>
<path id="path0_stroke" d="M 123.553 76.6308L 122.253 75.8819L 122.253 75.882L 123.553 76.6308ZM 123.553 43.3692L 122.253 44.118L 122.253 44.1181L 123.553 43.3692ZM 108.149 16.6308L 109.449 15.882L 109.449 15.8819L 108.149 16.6308ZM 19.8512 16.6308L 21.1509 17.3796L 21.1509 17.3796L 19.8512 16.6308ZM 4.44694 43.3692L 5.74665 44.1181L 5.74669 44.118L 4.44694 43.3692ZM 4.44694 76.6308L 5.74669 75.882L 5.74665 75.8819L 4.44694 76.6308ZM 19.8512 103.369L 21.1509 102.62L 21.1509 102.62L 19.8512 103.369ZM 108.149 103.369L 109.449 104.118L 109.449 104.118L 108.149 103.369ZM 124.853 77.3796C 131.049 66.625 131.049 53.375 124.853 42.6204L 122.253 44.1181C 127.916 53.9457 127.916 66.0543 122.253 75.8819L 124.853 77.3796ZM 124.853 42.6204C 122.452 38.4526 119.801 33.8519 117.151 29.2512C 114.5 24.6505 111.85 20.0498 109.449 15.882L 106.849 17.3796C 109.25 21.5474 111.901 26.1481 114.551 30.7488C 117.202 35.3495 119.852 39.9502 122.253 44.118L 124.853 42.6204ZM 109.449 15.8819C 103.252 5.12701 91.8 -1.5 79.4044 -1.5L 79.4044 1.5C 90.7251 1.5 101.187 7.5523 106.849 17.3796L 109.449 15.8819ZM 79.4044 -1.5L 48.5956 -1.5L 48.5956 1.5L 79.4044 1.5L 79.4044 -1.5ZM 48.5956 -1.5C 36.2 -1.5 24.7475 5.12698 18.5514 15.882L 21.1509 17.3796C 26.8125 7.55233 37.2749 1.5 48.5956 1.5L 48.5956 -1.5ZM 18.5514 15.882C 13.749 24.2176 7.94918 34.2848 3.14718 42.6205L 5.74669 44.118C 10.5487 35.7824 16.3485 25.7152 21.1509 17.3796L 18.5514 15.882ZM 3.14722 42.6204C -3.04908 53.375 -3.04908 66.625 3.14722 77.3796L 5.74665 75.8819C 0.0844507 66.0543 0.0844507 53.9457 5.74665 44.1181L 3.14722 42.6204ZM 3.14718 77.3795C 7.94918 85.7152 13.749 95.7824 18.5514 104.118L 21.1509 102.62C 16.3485 94.2848 10.5487 84.2176 5.74669 75.882L 3.14718 77.3795ZM 18.5514 104.118C 24.7475 114.873 36.2 121.5 48.5956 121.5L 48.5956 118.5C 37.2749 118.5 26.8125 112.448 21.1509 102.62L 18.5514 104.118ZM 48.5956 121.5L 79.4044 121.5L 79.4044 118.5L 48.5956 118.5L 48.5956 121.5ZM 79.4044 121.5C 91.8 121.5 103.252 114.873 109.449 104.118L 106.849 102.62C 101.187 112.448 90.7251 118.5 79.4044 118.5L 79.4044 121.5ZM 109.449 104.118C 111.85 99.9502 114.5 95.3495 117.151 90.7488C 119.801 86.1481 122.452 81.5474 124.853 77.3796L 122.253 75.882C 119.852 80.0498 117.202 84.6505 114.551 89.2512C 111.901 93.8519 109.25 98.4526 106.849 102.62L 109.449 104.118Z"/>
<path id="path1_fill" fill-rule="evenodd" d="M 0 6.4C 0 4.15979 0 3.03968 0.435974 2.18404C 0.819467 1.43139 1.43139 0.819467 2.18404 0.435974C 3.03968 0 4.15979 0 6.4 0L 28.6 0C 30.8402 0 31.9603 0 32.816 0.435974C 33.5686 0.819467 34.1805 1.43139 34.564 2.18404C 35 3.03968 35 4.15979 35 6.4L 35 49.6C 35 51.8402 35 52.9603 34.564 53.816C 34.1805 54.5686 33.5686 55.1805 32.816 55.564C 31.9603 56 30.8402 56 28.6 56L 6.4 56C 4.15979 56 3.03968 56 2.18404 55.564C 1.43139 55.1805 0.819467 54.5686 0.435974 53.816C 0 52.9603 0 51.8402 0 49.6L 0 6.4Z"/>
<path id="path2_stroke_2x" d="M 2.18404 55.564L 3.54601 52.891L 2.18404 55.564ZM 0.435974 53.816L 3.10899 52.454L 0.435974 53.816ZM 34.564 53.816L 37.237 55.1779L 34.564 53.816ZM 32.816 55.564L 34.1779 58.237L 32.816 55.564ZM 32.816 0.435974L 31.454 3.10899L 32.816 0.435974ZM 34.564 2.18404L 37.237 0.822066L 34.564 2.18404ZM 2.18404 0.435974L 0.822066 -2.23705L 2.18404 0.435974ZM 0.435974 2.18404L -2.23705 0.822066L 0.435974 2.18404ZM 6.4 3L 28.6 3L 28.6 -3L 6.4 -3L 6.4 3ZM 32 6.4L 32 49.6L 38 49.6L 38 6.4L 32 6.4ZM 28.6 53L 6.4 53L 6.4 59L 28.6 59L 28.6 53ZM 3 49.6L 3 6.4L -3 6.4L -3 49.6L 3 49.6ZM 6.4 53C 5.23039 53 4.53361 52.9977 4.0171 52.9555C 3.53562 52.9161 3.48043 52.8576 3.54601 52.891L 0.822066 58.237C 1.74329 58.7064 2.67598 58.8659 3.52851 58.9355C 4.34602 59.0023 5.3294 59 6.4 59L 6.4 53ZM -3 49.6C -3 50.6706 -3.00233 51.654 -2.93554 52.4715C -2.86589 53.324 -2.70643 54.2567 -2.23705 55.1779L 3.10899 52.454C 3.14241 52.5196 3.08387 52.4644 3.04453 51.9829C 3.00233 51.4664 3 50.7696 3 49.6L -3 49.6ZM 3.54601 52.891C 3.35785 52.7951 3.20487 52.6422 3.10899 52.454L -2.23705 55.1779C -1.56593 56.4951 -0.495068 57.5659 0.822066 58.237L 3.54601 52.891ZM 32 49.6C 32 50.7696 31.9977 51.4664 31.9555 51.9829C 31.9161 52.4644 31.8576 52.5196 31.891 52.454L 37.237 55.1779C 37.7064 54.2567 37.8659 53.324 37.9355 52.4715C 38.0023 51.654 38 50.6706 38 49.6L 32 49.6ZM 28.6 59C 29.6706 59 30.654 59.0023 31.4715 58.9355C 32.324 58.8659 33.2567 58.7064 34.1779 58.237L 31.454 52.891C 31.5196 52.8576 31.4644 52.9161 30.9829 52.9555C 30.4664 52.9977 29.7696 53 28.6 53L 28.6 59ZM 31.891 52.454C 31.7951 52.6422 31.6422 52.7951 31.454 52.891L 34.1779 58.237C 35.4951 57.5659 36.5659 56.4951 37.237 55.1779L 31.891 52.454ZM 28.6 3C 29.7696 3 30.4664 3.00233 30.9829 3.04453C 31.4644 3.08387 31.5196 3.14241 31.454 3.10899L 34.1779 -2.23705C 33.2567 -2.70643 32.324 -2.86589 31.4715 -2.93554C 30.654 -3.00233 29.6706 -3 28.6 -3L 28.6 3ZM 38 6.4C 38 5.3294 38.0023 4.34602 37.9355 3.52851C 37.8659 2.67598 37.7064 1.74329 37.237 0.822066L 31.891 3.54601C 31.8576 3.48043 31.9161 3.53562 31.9555 4.0171C 31.9977 4.53361 32 5.23039 32 6.4L 38 6.4ZM 31.454 3.10899C 31.6422 3.20487 31.7951 3.35785 31.891 3.54601L 37.237 0.822066C 36.5659 -0.495068 35.4951 -1.56593 34.1779 -2.23705L 31.454 3.10899ZM 6.4 -3C 5.3294 -3 4.34602 -3.00233 3.52851 -2.93554C 2.67598 -2.86589 1.74329 -2.70643 0.822066 -2.23705L 3.54601 3.10899C 3.48043 3.14241 3.53562 3.08387 4.0171 3.04453C 4.53361 3.00233 5.23039 3 6.4 3L 6.4 -3ZM 3 6.4C 3 5.23039 3.00233 4.53361 3.04453 4.0171C 3.08387 3.53562 3.14241 3.48043 3.10899 3.54601L -2.23705 0.822066C -2.70643 1.74329 -2.86589 2.67598 -2.93554 3.52851C -3.00233 4.34602 -3 5.3294 -3 6.4L 3 6.4ZM 0.822066 -2.23705C -0.495068 -1.56593 -1.56593 -0.495068 -2.23705 0.822066L 3.10899 3.54601C 3.20487 3.35785 3.35785 3.20487 3.54601 3.10899L 0.822066 -2.23705Z"/>
<path id="path3_fill" fill-rule="evenodd" d="M 0 1.5C 0 0.671573 0.671573 0 1.5 0L 31.5 0C 32.3284 0 33 0.671573 33 1.5L 33 1.5C 33 2.32843 32.3284 3 31.5 3L 1.5 3C 0.671573 3 0 2.32843 0 1.5L 0 1.5Z"/>
<path id="path4_fill" fill-rule="evenodd" d="M 2 4C 3.10457 4 4 3.10457 4 2C 4 0.89543 3.10457 0 2 0C 0.89543 0 0 0.89543 0 2C 0 3.10457 0.89543 4 2 4Z"/>
</defs>
</svg>
