<svg width="96" height="99" viewBox="0 0 96 99" version="1.1" xmlns="http://www.w3.org/2000/svg" xmlns:xlink="http://www.w3.org/1999/xlink">
<title>Group 2</title>
<desc>Created using Figma</desc>
<g id="Canvas" transform="translate(-10428 -5766)">
<g id="Group 2">
<g id="Group 5">
<g id="Rectangle 8">
<mask id="mask0_outline_ins">
<use xlink:href="#path0_fill" fill="white" transform="translate(10453 5766)"/>
</mask>
<g mask="url(#mask0_outline_ins)">
<use xlink:href="#path1_stroke_2x" transform="translate(10453 5766)" fill="#FFFFFF"/>
</g>
</g>
<g id="employee">
<g id="Shape">
<use xlink:href="#path2_fill" transform="translate(10454 5775)" fill="#FFFFFF"/>
</g>
</g>
</g>
<g id="Group 2">
<g id="Path 17">
<use xlink:href="#path3_fill" transform="translate(10430 5814)" fill="#1C1A1A"/>
<use xlink:href="#path4_stroke" transform="translate(10430 5814)" fill="#FFFFFF"/>
</g>
<g id="Path 18">
<use xlink:href="#path5_stroke" transform="translate(10457 5815)" fill="#FFFFFF"/>
</g>
<g id="Rectangle 19">
<use xlink:href="#path6_fill" transform="translate(10435 5853)" fill="#FFFFFF"/>
</g>
<g id="Rectangle 19 Copy">
<use xlink:href="#path6_fill" transform="translate(10435 5831)" fill="#FFFFFF"/>
</g>
<g id="Rectangle 19 Copy 3">
<use xlink:href="#path7_fill" transform="translate(10435 5837)" fill="#FFFFFF"/>
</g>
<g id="Rectangle 19 Copy 4">
<use xlink:href="#path8_fill" transform="translate(10435 5843)" fill="#FFFFFF"/>
</g>
<g id="Rectangle 19 Copy 2">
<use xlink:href="#path6_fill" transform="translate(10435 5820)" fill="#FFFFFF"/>
</g>
</g>
</g>
</g>
<defs>
<path id="path0_fill" fill-rule="evenodd" d="M 0 0L 71 0L 71 80L 0 80L 0 0Z"/>
<path id="path1_stroke_2x" d="M 0 0L 0 -3L -3 -3L -3 0L 0 0ZM 71 0L 74 0L 74 -3L 71 -3L 71 0ZM 71 80L 71 83L 74 83L 74 80L 71 80ZM 0 80L -3 80L -3 83L 0 83L 0 80ZM 0 3L 71 3L 71 -3L 0 -3L 0 3ZM 68 0L 68 80L 74 80L 74 0L 68 0ZM 71 77L 0 77L 0 83L 71 83L 71 77ZM 3 80L 3 0L -3 0L -3 80L 3 80Z"/>
<path id="path2_fill" fill-rule="evenodd" d="M 52.7725 52.3145L 61.96 55.8584C 66.3145 57.5376 69.1143 61.7993 68.9287 66.4624L 66.9141 68.0063C 66.9434 67.2788 66.334 65.5972 65.9199 64.4536L 65.916 64.4419L 65.9131 64.4346C 65.7871 64.0879 65.6807 63.7925 65.6152 63.5898L 60.2686 68.9365C 58.7656 70.4395 56.1309 68.916 58.1895 66.8574L 64.1357 60.9116C 63.29 59.9033 62.1895 59.0981 60.9033 58.6016L 52.2578 55.2676L 45.6758 65.1421C 44.9053 66.2964 43.6719 67.0366 42.292 67.1733C 42.1387 67.1885 41.9844 67.1963 41.832 67.1963C 40.9014 67.1963 40.002 66.9155 39.2393 66.395L 36.4092 68.9858L 32.5283 68.9858L 29.6982 66.3945C 28.9355 66.915 28.0361 67.1958 27.1055 67.1958C 26.9531 67.1958 26.7998 67.1885 26.6455 67.1729C 25.2656 67.0366 24.0322 66.2959 23.2627 65.1416L 16.6797 55.2671L 8.03516 58.6016C 6.74805 59.0977 5.64746 59.9028 4.80176 60.9111L 10.748 66.8569C 12.8066 68.9155 10.1719 70.4395 8.66895 68.9365L 3.32227 63.5898C 3.04199 64.4619 2.90918 65.3916 2.94727 66.3447L 0.00878906 66.4624C -0.177734 61.7993 2.62207 57.5376 6.97656 55.8579L 16.1641 52.314L 20.8584 47.6196C 21.1699 47.3081 21.5879 47.165 21.999 47.1934L 21.999 43.1885C 19.7803 40.8447 18.2041 37.8628 17.4951 34.4053C 17.085 34.4341 16.6689 34.4058 16.2598 34.3218C 14.1221 33.8843 12.5703 31.897 12.5703 29.5972L 12.5703 28.3911C 12.5703 26.4307 13.6934 24.728 15.3506 24.001C 14.8623 22.0547 14.1416 18.4473 14.1416 14.0898C 14.1416 6.38818 19.6787 5.04541 21.5508 4.81152C 22.8828 3.70068 27.3672 0.430664 34.3887 0.0507812C 41.8691 -0.353516 47.748 1.65527 51.3896 5.85986C 55.1787 10.2358 56.375 16.8003 54.8633 24.8657C 55.792 25.7427 56.3662 26.9995 56.3662 28.3726L 56.3662 29.5972C 56.3662 31.897 54.8145 33.8843 52.6768 34.3218C 52.4072 34.377 52.1348 34.4077 51.8369 34.4409L 51.8213 34.4429L 51.7803 34.4478L 51.7529 34.4507L 51.3506 34.499C 50.7324 37.8633 49.1562 40.8452 46.9375 43.1885L 46.9375 47.1934C 47.3477 47.165 47.7666 47.3081 48.0781 47.6196L 52.7725 52.3145ZM 17.2979 31.4717C 18.8047 31.3613 20.2002 32.4565 20.4775 33.9658C 21.7178 40.7173 27.6016 45.6177 34.4678 45.6177C 41.334 45.6177 47.2178 40.7173 48.458 33.9658C 48.7354 32.4565 50.1348 31.3608 51.6377 31.4712C 51.7852 31.4819 51.9355 31.4717 52.0859 31.4409C 52.8496 31.2847 53.4248 30.4922 53.4248 29.5972L 53.4248 28.3726C 53.4248 27.5107 52.8408 26.7451 52.0654 26.5908C 51.8164 26.5415 51.2598 26.5571 50.7197 26.6846C 49.4951 26.9727 48.2559 26.3364 47.7705 25.1719L 46.4844 22.083C 42.3115 22.939 28.9727 24.8877 22.3145 16.5986C 21.8066 15.9658 21.9072 15.0405 22.54 14.5317C 23.1738 14.0234 24.0986 14.1245 24.6074 14.7573C 31.1973 22.9614 46.8359 18.9937 46.9932 18.9531C 47.7021 18.7681 48.4414 19.1333 48.7227 19.8101L 50.3652 23.7544C 50.9619 23.6416 51.5664 23.6021 52.0957 23.6382C 53.25 16.8062 52.2451 11.3408 49.166 7.78516C 46.1416 4.29297 41.0859 2.63379 34.5469 2.98682C 27.3311 3.37695 23.2188 7.25391 23.1777 7.29297C 22.9043 7.55615 22.5391 7.70312 22.1592 7.70312C 21.6494 7.71094 17.082 7.95605 17.082 14.0898C 17.082 18.5435 17.9033 22.1826 18.3291 23.7676C 19.0635 23.9556 19.7451 24.3213 20.3096 24.8433C 21.0381 24.2358 21.6709 23.5112 22.1973 22.6821C 22.6318 21.9966 23.54 21.793 24.2256 22.2275C 24.9111 22.6621 25.1152 23.5703 24.6807 24.2563C 23.8164 25.6196 22.7266 26.771 21.4404 27.6787C 20.9102 28.0532 20.2188 28.1641 19.5928 27.9751C 19.165 27.8457 18.79 27.5835 18.5088 27.2163C 18.1201 26.7104 17.5078 26.4756 16.8691 26.5874C 16.0947 26.7236 15.5107 27.499 15.5107 28.3911L 15.5107 29.5972C 15.5107 30.4922 16.0859 31.2852 16.8496 31.4414C 17.001 31.4722 17.1514 31.4824 17.2979 31.4717ZM 28.2822 63.7656C 27.9268 64.1216 27.4365 64.2974 26.9355 64.2476C 26.4346 64.1978 25.9873 63.9292 25.708 63.5107L 19.0752 53.561L 21.9648 50.6719L 32.3174 59.7305L 28.2822 63.7656ZM 32.7686 63.4365L 32.6553 66.0454L 36.2803 66.0454L 36.166 63.4365L 34.4678 61.7378L 32.7686 63.4365ZM 34.4678 57.7056L 24.9385 49.3677L 24.9385 45.668C 27.6826 47.5005 30.9678 48.5586 34.4678 48.5586C 37.9678 48.5586 41.2529 47.5005 43.9971 45.668L 43.9971 49.3677L 34.4678 57.7056ZM 42.001 64.2476C 42.502 64.1978 42.9492 63.9292 43.2285 63.5107L 49.8613 53.561L 46.9717 50.6719L 36.6191 59.7305L 40.6543 63.7656C 41.0098 64.1211 41.5 64.2974 42.001 64.2476Z"/>
<path id="path3_fill" fill-rule="evenodd" d="M 0 0L 0 48.8124L 40.3094 48.8124L 40.3094 12.5641L 27.6115 0L 0 0Z"/>
<path id="path4_stroke" d="M 0 0L 0 -1.5C -0.828427 -1.5 -1.5 -0.828427 -1.5 3.33067e-16L 0 0ZM 0 48.8124L -1.5 48.8124C -1.5 49.6409 -0.828427 50.3124 3.33067e-16 50.3124L 0 48.8124ZM 40.3094 48.8124L 40.3094 50.3124C 41.1378 50.3124 41.8094 49.6409 41.8094 48.8124L 40.3094 48.8124ZM 40.3094 12.5641L 41.8094 12.5641C 41.8094 12.1635 41.6492 11.7796 41.3644 11.4978L 40.3094 12.5641ZM 27.6115 0L 28.6666 -1.06626C 28.3857 -1.34414 28.0066 -1.5 27.6115 -1.5L 27.6115 0ZM -1.5 0L -1.5 48.8124L 1.5 48.8124L 1.5 0L -1.5 0ZM 0 50.3124L 40.3094 50.3124L 40.3094 47.3124L 0 47.3124L 0 50.3124ZM 41.8094 48.8124L 41.8094 12.5641L 38.8094 12.5641L 38.8094 48.8124L 41.8094 48.8124ZM 41.3644 11.4978L 28.6666 -1.06626L 26.5565 1.06626L 39.2544 13.6304L 41.3644 11.4978ZM 27.6115 -1.5L 0 -1.5L 0 1.5L 27.6115 1.5L 27.6115 -1.5Z"/>
<path id="path5_stroke" d="M 0 12.2751L -1.5 12.2751L -1.5 13.7751L 0 13.7751L 0 12.2751ZM -1.5 0L -1.5 12.2751L 1.5 12.2751L 1.5 0L -1.5 0ZM 0 13.7751L 13.6539 13.7751L 13.6539 10.7751L 0 10.7751L 0 13.7751Z"/>
<path id="path6_fill" fill-rule="evenodd" d="M 0 1.5C 0 0.671573 0.671573 0 1.5 0L 17.5 0C 18.3284 0 19 0.671573 19 1.5L 19 1.5C 19 2.32843 18.3284 3 17.5 3L 1.5 3C 0.671573 3 0 2.32843 0 1.5L 0 1.5Z"/>
<path id="path7_fill" fill-rule="evenodd" d="M 0 1.5C 0 0.671573 0.671573 0 1.5 0L 29.5 0C 30.3284 0 31 0.671573 31 1.5L 31 1.5C 31 2.32843 30.3284 3 29.5 3L 1.5 3C 0.671573 3 0 2.32843 0 1.5L 0 1.5Z"/>
<path id="path8_fill" fill-rule="evenodd" d="M 0 1.5C 0 0.671573 0.671573 0 1.5 0L 20.5 0C 21.3284 0 22 0.671573 22 1.5L 22 1.5C 22 2.32843 21.3284 3 20.5 3L 1.5 3C 0.671573 3 0 2.32843 0 1.5L 0 1.5Z"/>
</defs>
</svg>
