<svg width="70" height="66" viewBox="0 0 70 66" version="1.1" xmlns="http://www.w3.org/2000/svg" xmlns:xlink="http://www.w3.org/1999/xlink">
<title>Group 2</title>
<desc>Created using Figma</desc>
<g id="Canvas" transform="translate(-11392 -5770)">
<g id="Group 2">
<g id="Group 15">
<g id="Group 8">
<g id="Rectangle 8">
<mask id="mask0_outline_ins">
<use xlink:href="#path0_fill" fill="white" transform="translate(11411 5803)"/>
</mask>
<g mask="url(#mask0_outline_ins)">
<use xlink:href="#path1_stroke_2x" transform="translate(11411 5803)" fill="#FFFFFF"/>
</g>
</g>
<g id="Rectangle 8 Copy">
<mask id="mask1_outline_ins">
<use xlink:href="#path0_fill" fill="white" transform="translate(11446 5803)"/>
</mask>
<g mask="url(#mask1_outline_ins)">
<use xlink:href="#path1_stroke_2x" transform="translate(11446 5803)" fill="#FFFFFF"/>
</g>
</g>
<g id="Rectangle 7">
<use xlink:href="#path2_fill" transform="translate(11406 5791)" fill="#1C1A1A"/>
<mask id="mask2_outline_ins">
<use xlink:href="#path2_fill" fill="white" transform="translate(11406 5791)"/>
</mask>
<g mask="url(#mask2_outline_ins)">
<use xlink:href="#path3_stroke_2x" transform="translate(11406 5791)" fill="#FFFFFF"/>
</g>
</g>
<g id="Path 4">
<use xlink:href="#path4_stroke" transform="translate(11412 5772)" fill="#FFFFFF"/>
</g>
<g id="Oval 3">
<use xlink:href="#path5_stroke" transform="translate(11414 5798)" fill="#FFFFFF"/>
</g>
<g id="Oval 3 Copy">
<use xlink:href="#path5_stroke" transform="translate(11446 5798)" fill="#FFFFFF"/>
</g>
</g>
</g>
<g id="Group Copy">
<g id="Rectangle 16">
<use xlink:href="#path6_fill" transform="translate(11392 5780)" fill="#1C1A1A"/>
<mask id="mask3_outline_ins">
<use xlink:href="#path6_fill" fill="white" transform="translate(11392 5780)"/>
</mask>
<g mask="url(#mask3_outline_ins)">
<use xlink:href="#path7_stroke_2x" transform="translate(11392 5780)" fill="#FFFFFF"/>
</g>
</g>
<g id="Rectangle">
<use xlink:href="#path8_fill" transform="translate(11394 5821)" fill="#FFFFFF"/>
</g>
<g id="Rectangle Copy">
<use xlink:href="#path8_fill" transform="translate(11394 5788)" fill="#FFFFFF"/>
</g>
<g id="Oval">
<use xlink:href="#path9_fill" transform="translate(11407 5826)" fill="#FFFFFF"/>
</g>
</g>
</g>
</g>
<defs>
<path id="path0_fill" fill-rule="evenodd" d="M 0 5.5C 0 2.46243 2.46243 0 5.5 0L 5.5 0C 8.53757 0 11 2.46243 11 5.5L 11 15.5C 11 18.5376 8.53757 21 5.5 21L 5.5 21C 2.46243 21 0 18.5376 0 15.5L 0 5.5Z"/>
<path id="path1_stroke_2x" d="M 8 5.5L 8 15.5L 14 15.5L 14 5.5L 8 5.5ZM 3 15.5L 3 5.5L -3 5.5L -3 15.5L 3 15.5ZM 5.5 18C 4.11929 18 3 16.8807 3 15.5L -3 15.5C -3 20.1944 0.80558 24 5.5 24L 5.5 18ZM 8 15.5C 8 16.8807 6.88071 18 5.5 18L 5.5 24C 10.1944 24 14 20.1944 14 15.5L 8 15.5ZM 5.5 3C 6.88071 3 8 4.11929 8 5.5L 14 5.5C 14 0.80558 10.1944 -3 5.5 -3L 5.5 3ZM 5.5 -3C 0.80558 -3 -3 0.80558 -3 5.5L 3 5.5C 3 4.11929 4.11929 3 5.5 3L 5.5 -3Z"/>
<path id="path2_fill" fill-rule="evenodd" d="M 0 6C 0 2.68629 2.68629 0 6 0L 50 0C 53.3137 0 56 2.68629 56 6L 56 17C 56 20.3137 53.3137 23 50 23L 6 23C 2.68629 23 0 20.3137 0 17L 0 6Z"/>
<path id="path3_stroke_2x" d="M 6 3L 50 3L 50 -3L 6 -3L 6 3ZM 53 6L 53 17L 59 17L 59 6L 53 6ZM 50 20L 6 20L 6 26L 50 26L 50 20ZM 3 17L 3 6L -3 6L -3 17L 3 17ZM 6 20C 4.34315 20 3 18.6569 3 17L -3 17C -3 21.9706 1.02944 26 6 26L 6 20ZM 53 17C 53 18.6569 51.6569 20 50 20L 50 26C 54.9706 26 59 21.9706 59 17L 53 17ZM 50 3C 51.6569 3 53 4.34315 53 6L 59 6C 59 1.02944 54.9706 -3 50 -3L 50 3ZM 6 -3C 1.02944 -3 -3 1.02944 -3 6L 3 6C 3 4.34315 4.34315 3 6 3L 6 -3Z"/>
<path id="path4_stroke" d="M 34.3963 4.50747e-13L 34.3963 -1.5L 34.3963 4.50747e-13ZM 1.06064 21.8815C 2.6917 20.2505 3.45106 17.9269 3.90931 15.6607C 4.36217 13.4212 4.58828 10.7997 4.8966 8.66563C 5.22463 6.39516 5.6532 4.56371 6.43244 3.31066C 6.80417 2.7129 7.23715 2.27981 7.75635 1.98833C 8.27517 1.69706 8.96407 1.5 9.91879 1.5L 9.91879 -1.5C 8.5357 -1.5 7.32454 -1.20968 6.28775 -0.627627C 5.25135 -0.0457887 4.47317 0.780383 3.88488 1.72639C 2.74406 3.56088 2.25707 5.95501 1.92743 8.23666C 1.57809 10.6547 1.40443 12.9119 0.968823 15.0661C 0.538599 17.1937 -0.0792208 18.7788 -1.06064 19.7602L 1.06064 21.8815ZM 9.91879 1.5C 19.2693 1.5 27.7775 1.5 34.3963 1.5L 34.3963 -1.5C 27.7775 -1.5 19.2693 -1.5 9.91879 -1.5L 9.91879 1.5ZM 34.3963 1.5C 36.2379 1.5 37.1847 2.01025 37.7785 2.68075C 38.4434 3.43153 38.8799 4.61653 39.198 6.38568C 39.5197 8.17483 39.6659 10.1614 39.9711 12.5543C 40.267 14.8737 40.6995 17.4154 41.5821 19.9715L 44.4179 18.9923C 43.6335 16.7208 43.2326 14.4134 42.947 12.1747C 42.6708 10.0097 42.4877 7.72921 42.1506 5.85478C 41.81 3.96037 41.2584 2.08525 40.0244 0.69181C 38.7193 -0.781917 36.8565 -1.5 34.3963 -1.5L 34.3963 1.5Z"/>
<path id="path5_stroke" d="M 4 9.5C 7.03757 9.5 9.5 7.03757 9.5 4L 6.5 4C 6.5 5.38071 5.38071 6.5 4 6.5L 4 9.5ZM 9.5 4C 9.5 0.962434 7.03757 -1.5 4 -1.5L 4 1.5C 5.38071 1.5 6.5 2.61929 6.5 4L 9.5 4ZM 4 -1.5C 0.962434 -1.5 -1.5 0.962434 -1.5 4L 1.5 4C 1.5 2.61929 2.61929 1.5 4 1.5L 4 -1.5ZM -1.5 4C -1.5 7.03757 0.962434 9.5 4 9.5L 4 6.5C 2.61929 6.5 1.5 5.38071 1.5 4L -1.5 4Z"/>
<path id="path6_fill" fill-rule="evenodd" d="M 0 6.4C 0 4.15979 0 3.03968 0.435974 2.18404C 0.819467 1.43139 1.43139 0.819467 2.18404 0.435974C 3.03968 0 4.15979 0 6.4 0L 28.6 0C 30.8402 0 31.9603 0 32.816 0.435974C 33.5686 0.819467 34.1805 1.43139 34.564 2.18404C 35 3.03968 35 4.15979 35 6.4L 35 49.6C 35 51.8402 35 52.9603 34.564 53.816C 34.1805 54.5686 33.5686 55.1805 32.816 55.564C 31.9603 56 30.8402 56 28.6 56L 6.4 56C 4.15979 56 3.03968 56 2.18404 55.564C 1.43139 55.1805 0.819467 54.5686 0.435974 53.816C 0 52.9603 0 51.8402 0 49.6L 0 6.4Z"/>
<path id="path7_stroke_2x" d="M 2.18404 55.564L 3.54601 52.891L 2.18404 55.564ZM 0.435974 53.816L 3.10899 52.454L 0.435974 53.816ZM 34.564 53.816L 37.237 55.1779L 34.564 53.816ZM 32.816 55.564L 34.1779 58.237L 32.816 55.564ZM 32.816 0.435974L 31.454 3.10899L 32.816 0.435974ZM 34.564 2.18404L 37.237 0.822066L 34.564 2.18404ZM 2.18404 0.435974L 0.822066 -2.23705L 2.18404 0.435974ZM 0.435974 2.18404L -2.23705 0.822066L 0.435974 2.18404ZM 6.4 3L 28.6 3L 28.6 -3L 6.4 -3L 6.4 3ZM 32 6.4L 32 49.6L 38 49.6L 38 6.4L 32 6.4ZM 28.6 53L 6.4 53L 6.4 59L 28.6 59L 28.6 53ZM 3 49.6L 3 6.4L -3 6.4L -3 49.6L 3 49.6ZM 6.4 53C 5.23039 53 4.53361 52.9977 4.0171 52.9555C 3.53562 52.9161 3.48043 52.8576 3.54601 52.891L 0.822066 58.237C 1.74329 58.7064 2.67598 58.8659 3.52851 58.9355C 4.34602 59.0023 5.3294 59 6.4 59L 6.4 53ZM -3 49.6C -3 50.6706 -3.00233 51.654 -2.93554 52.4715C -2.86589 53.324 -2.70643 54.2567 -2.23705 55.1779L 3.10899 52.454C 3.14241 52.5196 3.08387 52.4644 3.04453 51.9829C 3.00233 51.4664 3 50.7696 3 49.6L -3 49.6ZM 3.54601 52.891C 3.35785 52.7951 3.20487 52.6422 3.10899 52.454L -2.23705 55.1779C -1.56593 56.4951 -0.495068 57.5659 0.822066 58.237L 3.54601 52.891ZM 32 49.6C 32 50.7696 31.9977 51.4664 31.9555 51.9829C 31.9161 52.4644 31.8576 52.5196 31.891 52.454L 37.237 55.1779C 37.7064 54.2567 37.8659 53.324 37.9355 52.4715C 38.0023 51.654 38 50.6706 38 49.6L 32 49.6ZM 28.6 59C 29.6706 59 30.654 59.0023 31.4715 58.9355C 32.324 58.8659 33.2567 58.7064 34.1779 58.237L 31.454 52.891C 31.5196 52.8576 31.4644 52.9161 30.9829 52.9555C 30.4664 52.9977 29.7696 53 28.6 53L 28.6 59ZM 31.891 52.454C 31.7951 52.6422 31.6422 52.7951 31.454 52.891L 34.1779 58.237C 35.4951 57.5659 36.5659 56.4951 37.237 55.1779L 31.891 52.454ZM 28.6 3C 29.7696 3 30.4664 3.00233 30.9829 3.04453C 31.4644 3.08387 31.5196 3.14241 31.454 3.10899L 34.1779 -2.23705C 33.2567 -2.70643 32.324 -2.86589 31.4715 -2.93554C 30.654 -3.00233 29.6706 -3 28.6 -3L 28.6 3ZM 38 6.4C 38 5.3294 38.0023 4.34602 37.9355 3.52851C 37.8659 2.67598 37.7064 1.74329 37.237 0.822066L 31.891 3.54601C 31.8576 3.48043 31.9161 3.53562 31.9555 4.0171C 31.9977 4.53361 32 5.23039 32 6.4L 38 6.4ZM 31.454 3.10899C 31.6422 3.20487 31.7951 3.35785 31.891 3.54601L 37.237 0.822066C 36.5659 -0.495068 35.4951 -1.56593 34.1779 -2.23705L 31.454 3.10899ZM 6.4 -3C 5.3294 -3 4.34602 -3.00233 3.52851 -2.93554C 2.67598 -2.86589 1.74329 -2.70643 0.822066 -2.23705L 3.54601 3.10899C 3.48043 3.14241 3.53562 3.08387 4.0171 3.04453C 4.53361 3.00233 5.23039 3 6.4 3L 6.4 -3ZM 3 6.4C 3 5.23039 3.00233 4.53361 3.04453 4.0171C 3.08387 3.53562 3.14241 3.48043 3.10899 3.54601L -2.23705 0.822066C -2.70643 1.74329 -2.86589 2.67598 -2.93554 3.52851C -3.00233 4.34602 -3 5.3294 -3 6.4L 3 6.4ZM 0.822066 -2.23705C -0.495068 -1.56593 -1.56593 -0.495068 -2.23705 0.822066L 3.10899 3.54601C 3.20487 3.35785 3.35785 3.20487 3.54601 3.10899L 0.822066 -2.23705Z"/>
<path id="path8_fill" fill-rule="evenodd" d="M 0 1.5C 0 0.671573 0.671573 0 1.5 0L 31.5 0C 32.3284 0 33 0.671573 33 1.5L 33 1.5C 33 2.32843 32.3284 3 31.5 3L 1.5 3C 0.671573 3 0 2.32843 0 1.5L 0 1.5Z"/>
<path id="path9_fill" fill-rule="evenodd" d="M 2 4C 3.10457 4 4 3.10457 4 2C 4 0.89543 3.10457 0 2 0C 0.89543 0 0 0.89543 0 2C 0 3.10457 0.89543 4 2 4Z"/>
</defs>
</svg>
