<svg width="132" height="248" viewBox="0 0 132 248" version="1.1" xmlns="http://www.w3.org/2000/svg" xmlns:xlink="http://www.w3.org/1999/xlink">
<title>Group 2</title>
<desc>Created using Figma</desc>
<g id="Canvas" transform="translate(-10672 -5502)">
<g id="Group 2">
<g id="Page 1 Copy 5">
<use xlink:href="#path0_stroke" transform="translate(10674 5504)" fill="#FFFFFF"/>
</g>
<g id="Line 5">
<use xlink:href="#path1_stroke" transform="translate(10720 5650)" fill="#FFFFFF"/>
</g>
<g id="Line 5 Copy">
<use xlink:href="#path1_stroke" transform="translate(10748 5637)" fill="#FFFFFF"/>
</g>
<g id="Group 3 Copy 6">
<g id="Group 2">
<g id="Rectangle 3">
<use xlink:href="#path2_fill" transform="matrix(-0.707107 0.707107 -0.707107 -0.707107 10733.5 5647.5)" fill="#FFFFFF"/>
</g>
<g id="Rectangle 3 Copy">
<use xlink:href="#path2_fill" transform="matrix(-0.707107 -0.707107 0.707107 -0.707107 10711.5 5649.62)" fill="#FFFFFF"/>
</g>
</g>
</g>
<g id="Group 3 Copy 7">
<g id="Group 2">
<g id="Rectangle 3">
<use xlink:href="#path2_fill" transform="matrix(0.707107 -0.707107 0.707107 0.707107 10738.5 5732.5)" fill="#FFFFFF"/>
</g>
<g id="Rectangle 3 Copy">
<use xlink:href="#path2_fill" transform="matrix(0.707107 0.707107 -0.707107 0.707107 10760.5 5730.38)" fill="#FFFFFF"/>
</g>
</g>
</g>
<g id="Group 12">
<g id="Path 5">
<use xlink:href="#path3_stroke" transform="translate(10717 5533)" fill="#FFFFFF"/>
</g>
<g id="Path 6">
<use xlink:href="#path4_stroke" transform="translate(10718 5543)" fill="#FFFFFF"/>
</g>
<g id="Path 7">
<use xlink:href="#path5_stroke" transform="translate(10718 5558)" fill="#FFFFFF"/>
</g>
<g id="Path 8">
<use xlink:href="#path6_stroke" transform="translate(10721 5574)" fill="#FFFFFF"/>
</g>
<g id="Path 9">
<use xlink:href="#path7_stroke" transform="translate(10703.2 5587)" fill="#FFFFFF"/>
</g>
<g id="Path 9 Copy">
<use xlink:href="#path8_stroke" transform="matrix(-1 0 0 1 10773.5 5587)" fill="#FFFFFF"/>
</g>
<g id="Path 10">
<use xlink:href="#path9_stroke" transform="translate(10730 5533)" fill="#FFFFFF"/>
</g>
<g id="Path 10 Copy">
<use xlink:href="#path9_stroke" transform="matrix(-1 0 0 1 10748 5533)" fill="#FFFFFF"/>
</g>
<g id="Path 11">
<use xlink:href="#path10_stroke" transform="translate(10711 5558)" fill="#FFFFFF"/>
</g>
<g id="Path 11 Copy">
<use xlink:href="#path10_stroke" transform="matrix(-1 0 0 1 10766 5558)" fill="#FFFFFF"/>
</g>
</g>
</g>
</g>
<defs>
<path id="path0_stroke" d="M 123.553 76.6308L 122.253 75.8819L 122.253 75.882L 123.553 76.6308ZM 123.553 43.3692L 122.253 44.118L 122.253 44.1181L 123.553 43.3692ZM 108.149 16.6308L 109.449 15.882L 109.449 15.8819L 108.149 16.6308ZM 19.8512 16.6308L 21.1509 17.3796L 21.1509 17.3796L 19.8512 16.6308ZM 4.44694 43.3692L 5.74665 44.1181L 5.74669 44.118L 4.44694 43.3692ZM 4.44694 76.6308L 5.74669 75.882L 5.74665 75.8819L 4.44694 76.6308ZM 19.8512 103.369L 21.1509 102.62L 21.1509 102.62L 19.8512 103.369ZM 108.149 103.369L 109.449 104.118L 109.449 104.118L 108.149 103.369ZM 124.853 77.3796C 131.049 66.625 131.049 53.375 124.853 42.6204L 122.253 44.1181C 127.916 53.9457 127.916 66.0543 122.253 75.8819L 124.853 77.3796ZM 124.853 42.6204C 122.452 38.4526 119.801 33.8519 117.151 29.2512C 114.5 24.6505 111.85 20.0498 109.449 15.882L 106.849 17.3796C 109.25 21.5474 111.901 26.1481 114.551 30.7488C 117.202 35.3495 119.852 39.9502 122.253 44.118L 124.853 42.6204ZM 109.449 15.8819C 103.252 5.12701 91.8 -1.5 79.4044 -1.5L 79.4044 1.5C 90.7251 1.5 101.187 7.5523 106.849 17.3796L 109.449 15.8819ZM 79.4044 -1.5L 48.5956 -1.5L 48.5956 1.5L 79.4044 1.5L 79.4044 -1.5ZM 48.5956 -1.5C 36.2 -1.5 24.7475 5.12698 18.5514 15.882L 21.1509 17.3796C 26.8125 7.55233 37.2749 1.5 48.5956 1.5L 48.5956 -1.5ZM 18.5514 15.882C 13.749 24.2176 7.94918 34.2848 3.14718 42.6205L 5.74669 44.118C 10.5487 35.7824 16.3485 25.7152 21.1509 17.3796L 18.5514 15.882ZM 3.14722 42.6204C -3.04908 53.375 -3.04908 66.625 3.14722 77.3796L 5.74665 75.8819C 0.0844507 66.0543 0.0844507 53.9457 5.74665 44.1181L 3.14722 42.6204ZM 3.14718 77.3795C 7.94918 85.7152 13.749 95.7824 18.5514 104.118L 21.1509 102.62C 16.3485 94.2848 10.5487 84.2176 5.74669 75.882L 3.14718 77.3795ZM 18.5514 104.118C 24.7475 114.873 36.2 121.5 48.5956 121.5L 48.5956 118.5C 37.2749 118.5 26.8125 112.448 21.1509 102.62L 18.5514 104.118ZM 48.5956 121.5L 79.4044 121.5L 79.4044 118.5L 48.5956 118.5L 48.5956 121.5ZM 79.4044 121.5C 91.8 121.5 103.252 114.873 109.449 104.118L 106.849 102.62C 101.187 112.448 90.7251 118.5 79.4044 118.5L 79.4044 121.5ZM 109.449 104.118C 111.85 99.9502 114.5 95.3495 117.151 90.7488C 119.801 86.1481 122.452 81.5474 124.853 77.3796L 122.253 75.882C 119.852 80.0498 117.202 84.6505 114.551 89.2512C 111.901 93.8519 109.25 98.4526 106.849 102.62L 109.449 104.118Z"/>
<path id="path1_stroke" d="M 3 0.521157C 3 -0.30727 2.32843 -0.978843 1.5 -0.978843C 0.671573 -0.978843 0 -0.30727 0 0.521157L 3 0.521157ZM 0 97.5136C 0 98.3421 0.671573 99.0136 1.5 99.0136C 2.32843 99.0136 3 98.3421 3 97.5136L 0 97.5136ZM 0 2.8305C 0 3.65893 0.671573 4.3305 1.5 4.3305C 2.32843 4.3305 3 3.65893 3 2.8305L 0 2.8305ZM 3 14.3772C 3 13.5488 2.32843 12.8772 1.5 12.8772C 0.671573 12.8772 0 13.5488 0 14.3772L 3 14.3772ZM 0 18.9959C 0 19.8243 0.671573 20.4959 1.5 20.4959C 2.32843 20.4959 3 19.8243 3 18.9959L 0 18.9959ZM 3 30.5426C 3 29.7142 2.32843 29.0426 1.5 29.0426C 0.671573 29.0426 0 29.7142 0 30.5426L 3 30.5426ZM 0 35.1613C 0 35.9898 0.671573 36.6613 1.5 36.6613C 2.32843 36.6613 3 35.9898 3 35.1613L 0 35.1613ZM 3 46.7081C 3 45.8796 2.32843 45.2081 1.5 45.2081C 0.671573 45.2081 0 45.8796 0 46.7081L 3 46.7081ZM 0 51.3267C 0 52.1552 0.671573 52.8267 1.5 52.8267C 2.32843 52.8267 3 52.1552 3 51.3267L 0 51.3267ZM 3 62.8735C 3 62.045 2.32843 61.3735 1.5 61.3735C 0.671573 61.3735 0 62.045 0 62.8735L 3 62.8735ZM 0 67.4922C 0 68.3206 0.671573 68.9922 1.5 68.9922C 2.32843 68.9922 3 68.3206 3 67.4922L 0 67.4922ZM 3 79.0389C 3 78.2105 2.32843 77.5389 1.5 77.5389C 0.671573 77.5389 0 78.2105 0 79.0389L 3 79.0389ZM 0 83.6576C 0 84.486 0.671573 85.1576 1.5 85.1576C 2.32843 85.1576 3 84.486 3 83.6576L 0 83.6576ZM 3 95.2043C 3 94.3759 2.32843 93.7043 1.5 93.7043C 0.671573 93.7043 0 94.3759 0 95.2043L 3 95.2043ZM 2.22045e-16 0.521157L 2.22045e-16 2.8305L 3 2.8305L 3 0.521157L 2.22045e-16 0.521157ZM 2.22045e-16 14.3772L 2.22045e-16 18.9959L 3 18.9959L 3 14.3772L 2.22045e-16 14.3772ZM 2.22045e-16 30.5426L 2.22045e-16 35.1613L 3 35.1613L 3 30.5426L 2.22045e-16 30.5426ZM 0 46.7081L 0 51.3267L 3 51.3267L 3 46.7081L 0 46.7081ZM 0 62.8735L 0 67.4922L 3 67.4922L 3 62.8735L 0 62.8735ZM 0 79.0389L 0 83.6576L 3 83.6576L 3 79.0389L 0 79.0389ZM 0 95.2043L 0 97.5136L 3 97.5136L 3 95.2043L 0 95.2043Z"/>
<path id="path2_fill" fill-rule="evenodd" d="M 0 1.5C 0 0.671573 0.671573 0 1.5 0L 1.5 0C 2.32843 0 3 0.671573 3 1.5L 3 15.5C 3 16.3284 2.32843 17 1.5 17L 1.5 17C 0.671573 17 0 16.3284 0 15.5L 0 1.5Z"/>
<path id="path3_stroke" d="M 0 20.4034L -1.5 20.4034L 0 20.4034ZM 22.1296 55L 22.1296 53.5L 22.1296 55ZM 22 -1.5C 15.8036 -1.5 9.93799 0.39612 5.59655 4.12178C 1.22771 7.87096 -1.5 13.3935 -1.5 20.4034L 1.5 20.4034C 1.5 14.2357 3.87017 9.55653 7.55026 6.39841C 11.2578 3.21677 16.3921 1.5 22 1.5L 22 -1.5ZM -1.5 20.4034C -1.5 27.1338 -0.249011 36.026 3.26203 43.2957C 6.78957 50.5996 12.7448 56.5 22.1296 56.5L 22.1296 53.5C 14.3089 53.5 9.19935 48.691 5.96346 41.991C 2.71108 35.2568 1.5 26.8508 1.5 20.4034L -1.5 20.4034ZM 22.1296 56.5C 31.705 56.5 37.5361 48.6496 40.8984 40.6967C 44.2961 32.6601 45.5 23.8116 45.5 20.4034L 42.5 20.4034C 42.5 23.4241 41.3714 31.874 38.1352 39.5284C 34.8637 47.2665 29.7596 53.5 22.1296 53.5L 22.1296 56.5ZM 45.5 20.4034C 45.5 16.9741 44.578 11.5275 41.1443 6.89739C 37.6513 2.18741 31.6873 -1.5 22 -1.5L 22 1.5C 30.8178 1.5 35.8538 4.79988 38.7346 8.68441C 41.6746 12.6488 42.5 17.4039 42.5 20.4034L 45.5 20.4034Z"/>
<path id="path4_stroke" d="M 0 4C 0.539781 5.39951 0.539392 5.39966 0.539082 5.39978C 0.539084 5.39978 0.538852 5.39987 0.538855 5.39987C 0.538861 5.39987 0.53918 5.39974 0.539811 5.3995C 0.541074 5.39902 0.543587 5.39806 0.54734 5.39664C 0.554846 5.39379 0.567313 5.38908 0.584663 5.3826C 0.619364 5.36965 0.673596 5.34963 0.746749 5.32327C 0.893066 5.27054 1.11502 5.19246 1.40774 5.09485C 1.99329 4.8996 2.86143 4.62639 3.97334 4.32165C 6.19823 3.71189 9.3928 2.97765 13.2475 2.48804C 20.9673 1.50749 31.2664 1.51653 41.7188 5.40583L 42.765 2.59417C 31.7175 -1.51653 20.8956 -1.50749 12.8695 -0.488045C 8.85116 0.0223467 5.5165 0.788105 3.18039 1.42835C 2.0118 1.74861 1.09152 2.0379 0.458752 2.2489C 0.142323 2.35442 -0.102349 2.4404 -0.270368 2.50095C -0.354382 2.53123 -0.419246 2.55515 -0.464348 2.57199C -0.486899 2.5804 -0.504512 2.58705 -0.517109 2.59183C -0.523408 2.59422 -0.528453 2.59614 -0.532234 2.59759C -0.534125 2.59831 -0.5357 2.59892 -0.536959 2.5994C -0.537587 2.59964 -0.538294 2.59991 -0.538608 2.60004C -0.539234 2.60028 -0.539781 2.60049 0 4Z"/>
<path id="path5_stroke" d="M 0 1.27734C 0.0202547 2.77721 0.0204012 2.77721 0.0207039 2.7772C 0.0210132 2.7772 0.0214719 2.77719 0.0220895 2.77718C 0.0233245 2.77717 0.0251815 2.77714 0.0276554 2.77711C 0.0326033 2.77704 0.0400193 2.77694 0.0498646 2.77681C 0.0695551 2.77655 0.098963 2.77615 0.137778 2.77564C 0.215409 2.77461 0.330669 2.77308 0.48108 2.77112C 0.781902 2.7672 1.22332 2.76151 1.78552 2.75448C 2.90991 2.7404 4.51735 2.72091 6.44921 2.69925C 10.3131 2.65593 15.4739 2.60395 20.6631 2.5693C 25.8536 2.53465 31.0667 2.51737 35.0374 2.5433C 37.0244 2.55628 38.69 2.58003 39.8828 2.61735C 40.4816 2.63609 40.9446 2.65778 41.2635 2.68172C 41.4256 2.69389 41.5278 2.70502 41.5827 2.71299C 41.6113 2.71714 41.6046 2.71727 41.5762 2.71042C 41.5614 2.70686 41.5263 2.69798 41.4789 2.68153C 41.4391 2.66772 41.3432 2.63252 41.2287 2.56386L 42.7713 -0.00917339C 42.5492 -0.142287 42.3356 -0.192452 42.2789 -0.206124C 42.1829 -0.229236 42.0898 -0.244843 42.0136 -0.255905C 41.8587 -0.278376 41.6778 -0.295614 41.4882 -0.309855C 41.1037 -0.338722 40.5894 -0.362001 39.9766 -0.381178C 38.746 -0.419688 37.0508 -0.44361 35.057 -0.456633C 31.0659 -0.482701 25.8368 -0.46531 20.643 -0.430631C 15.4478 -0.395942 10.2821 -0.343914 6.41557 -0.300565C 4.48222 -0.278889 2.87346 -0.25938 1.74796 -0.24529C 1.18521 -0.238244 0.74326 -0.232553 0.44195 -0.228623C 0.291294 -0.226657 0.175797 -0.225132 0.0979367 -0.224098C 0.0590066 -0.223581 0.0294857 -0.223187 0.00968386 -0.222922C -0.000217045 -0.222789 -0.0076882 -0.222689 -0.0126909 -0.222621C -0.0151922 -0.222588 -0.0170764 -0.222562 -0.0183386 -0.222545C -0.0189698 -0.222537 -0.0194488 -0.22253 -0.0197649 -0.222526C -0.0200878 -0.222522 -0.0202547 -0.222519 0 1.27734Z"/>
<path id="path6_stroke" d="M 0 0C -0.298069 1.47009 -0.297743 1.47015 -0.297342 1.47023C -0.297108 1.47028 -0.296631 1.47038 -0.296163 1.47047C -0.295227 1.47066 -0.293991 1.47091 -0.292455 1.47122C -0.289383 1.47184 -0.285116 1.4727 -0.279663 1.47379C -0.268758 1.47597 -0.253113 1.47908 -0.23282 1.48307C -0.192233 1.49107 -0.133048 1.50261 -0.0559931 1.51732C 0.0981101 1.54675 0.323725 1.58889 0.615013 1.6408C 1.19752 1.7446 2.04306 1.88755 3.10489 2.04606C 5.22765 2.36295 8.21969 2.74279 11.7061 2.99606C 18.6525 3.50068 27.6734 3.512 35.7064 1.45303L 34.9616 -1.45303C 27.3887 0.488003 18.7426 0.499319 11.9235 0.0039424C 8.52714 -0.242785 5.61178 -0.61295 3.54783 -0.92106C 2.51631 -1.07505 1.69866 -1.21335 1.14133 -1.31267C 0.862701 -1.36233 0.649229 -1.40222 0.506725 -1.42943C 0.435477 -1.44304 0.381979 -1.45347 0.346958 -1.46037C 0.329448 -1.46382 0.316559 -1.46638 0.30838 -1.46802C 0.30429 -1.46884 0.301379 -1.46942 0.299657 -1.46977C 0.298796 -1.46994 0.298232 -1.47005 0.297967 -1.47011C 0.297834 -1.47013 0.29786 -1.47013 0.297793 -1.47014C 0.297894 -1.47012 0.298069 -1.47009 0 0Z"/>
<path id="path7_stroke" d="M 28.3439 0.0296816C 28.3603 -0.798583 27.7021 -1.48331 26.8739 -1.49971C 26.0456 -1.5161 25.3609 -0.857947 25.3445 -0.0296816L 28.3439 0.0296816ZM -1.5 30.4739C -1.5 31.3023 -0.828427 31.9739 0 31.9739C 0.828427 31.9739 1.5 31.3023 1.5 30.4739L -1.5 30.4739ZM 26.8442 0C 25.3445 -0.0296816 25.3445 -0.0300575 25.3445 -0.0304057C 25.3445 -0.0304851 25.3445 -0.0308071 25.3445 -0.0309666C 25.3445 -0.0312862 25.3445 -0.0314974 25.3445 -0.0316011C 25.3445 -0.0318083 25.3445 -0.0315852 25.3445 -0.030938C 25.3445 -0.0296434 25.3444 -0.0266541 25.3443 -0.0220197C 25.344 -0.0127488 25.3435 0.0030891 25.3427 0.0250962C 25.341 0.0691319 25.338 0.137727 25.3327 0.227708C 25.3221 0.407921 25.3027 0.672432 25.2674 0.996093C 25.1965 1.64794 25.0639 2.51735 24.8204 3.41188C 24.2953 5.3413 23.4282 6.77324 22.1993 7.17487L 23.1313 10.0264C 25.9372 9.1094 27.1595 6.24101 27.7151 4.19977C 28.012 3.10897 28.1677 2.07546 28.2498 1.32073C 28.2912 0.941106 28.3145 0.62641 28.3276 0.403238C 28.3341 0.291527 28.3381 0.202386 28.3405 0.139108C 28.3417 0.107458 28.3425 0.0822451 28.3431 0.0638792C 28.3433 0.0546951 28.3435 0.0472196 28.3436 0.0415039C 28.3437 0.038646 28.3438 0.0362276 28.3438 0.0342552C 28.3438 0.033269 28.3439 0.0323942 28.3439 0.0316317C 28.3439 0.0312507 28.3439 0.0307625 28.3439 0.0305722C 28.3439 0.030113 28.3439 0.0296816 26.8442 0ZM 22.1993 7.17487C 21.8065 7.30326 21.1786 7.4318 20.2554 7.6056C 19.3721 7.77191 18.2834 7.96891 17.0967 8.23228C 14.7209 8.75953 11.8661 9.56979 9.11527 11.0327C 6.3539 12.5013 3.67842 14.6379 1.70065 17.8149C -0.279152 20.9951 -1.5 25.1221 -1.5 30.4739L 1.5 30.4739C 1.5 25.5928 2.60796 22.034 4.24747 19.4003C 5.889 16.7635 8.12332 14.9581 10.5239 13.6814C 12.9351 12.3991 15.4944 11.6609 17.7466 11.161C 18.8739 10.9109 19.9027 10.7247 20.8105 10.5538C 21.6784 10.3904 22.5154 10.2277 23.1313 10.0264L 22.1993 7.17487Z"/>
<path id="path8_stroke" d="M 28.0173 -0.111738C 27.9556 -0.937863 27.2358 -1.55754 26.4097 -1.49583C 25.5836 -1.43412 24.9639 -0.714388 25.0256 0.111738L 28.0173 -0.111738ZM -1.49878 30.6064C -1.53222 31.4342 -0.88831 32.1323 -0.0605585 32.1658C 0.767193 32.1992 1.46533 31.5553 1.49878 30.7276L -1.49878 30.6064ZM 26.5214 0C 25.0256 0.111738 25.0256 0.11126 25.0255 0.110809C 25.0255 0.110694 25.0255 0.110268 25.0255 0.110036C 25.0255 0.109572 25.0254 0.109212 25.0254 0.108953C 25.0254 0.108437 25.0254 0.108329 25.0254 0.108624C 25.0254 0.109216 25.0256 0.111419 25.0258 0.115187C 25.0263 0.122727 25.0271 0.136512 25.0281 0.156175C 25.0302 0.195529 25.033 0.258251 25.0351 0.341415C 25.0395 0.508045 25.0413 0.754922 25.0303 1.05891C 25.008 1.67197 24.934 2.49147 24.7339 3.34256C 24.3201 5.10254 23.4724 6.61808 21.8486 7.1843L 22.8364 10.017C 25.9117 8.94462 27.1534 6.15984 27.6543 4.02915C 27.9116 2.93489 28.0013 1.91147 28.0283 1.16793C 28.0419 0.79363 28.0399 0.483795 28.0341 0.263288C 28.0312 0.152882 28.0274 0.0644287 28.0241 0.000998903C 28.0225 -0.0307292 28.021 -0.0562376 28.0198 -0.0751438C 28.0192 -0.0845983 28.0187 -0.0924062 28.0182 -0.0985198C 28.018 -0.101577 28.0178 -0.104211 28.0177 -0.106415C 28.0176 -0.107518 28.0175 -0.108513 28.0175 -0.1094C 28.0174 -0.109844 28.0174 -0.110429 28.0174 -0.11065C 28.0173 -0.111207 28.0173 -0.111738 26.5214 0ZM 21.8486 7.1843C 21.3436 7.36042 20.6413 7.53783 19.7123 7.76298C 18.8097 7.98174 17.7349 8.23623 16.5791 8.55658C 14.265 9.19798 11.5532 10.1219 8.9444 11.6543C 3.63186 14.7749 -1.08361 20.3314 -1.49878 30.6064L 1.49878 30.7276C 1.87023 21.5343 5.97653 16.8769 10.4639 14.2411C 12.755 12.8953 15.1877 12.0553 17.3804 11.4476C 18.478 11.1434 19.4972 10.902 20.419 10.6786C 21.3143 10.4616 22.1667 10.2505 22.8364 10.017L 21.8486 7.1843Z"/>
<path id="path9_stroke" d="M 5.23876 0C 3.85093 -0.569151 3.85068 -0.568547 3.85039 -0.567842C 3.85024 -0.567473 3.84991 -0.566666 3.84961 -0.565926C 3.84901 -0.564447 3.84824 -0.562564 3.84731 -0.560279C 3.84545 -0.555708 3.84294 -0.549527 3.83981 -0.541749C 3.83353 -0.526194 3.82474 -0.504247 3.81354 -0.476007C 3.79116 -0.419527 3.75918 -0.337866 3.71864 -0.231797C 3.63757 -0.0196707 3.52221 0.290143 3.38075 0.69144C 3.09786 1.49393 2.71035 2.66291 2.28378 4.14868C 1.431 7.11906 0.420128 11.3626 -0.221401 16.4804C -1.50344 26.7079 -1.31781 40.491 4.61763 54.5823L 7.38237 53.4177C 1.71133 39.9542 1.51635 26.7373 2.7553 16.8535C 3.37427 11.9157 4.34931 7.82572 5.1673 4.97653C 5.57613 3.55253 5.94523 2.4402 6.2101 1.68883C 6.34251 1.3132 6.44882 1.02795 6.52095 0.839236C 6.55701 0.744887 6.58451 0.674689 6.60246 0.629413C 6.61143 0.606776 6.61801 0.590371 6.62208 0.580294C 6.62411 0.575256 6.62551 0.5718 6.62627 0.569939C 6.62665 0.569008 6.62686 0.568476 6.62692 0.568345C 6.62694 0.568278 6.62686 0.568481 6.62688 0.568447C 6.62675 0.568749 6.62659 0.569151 5.23876 0Z"/>
<path id="path10_stroke" d="M 6.26388 0.0307345C 6.35522 -1.46648 6.35469 -1.46651 6.35413 -1.46655C 6.35391 -1.46656 6.35333 -1.4666 6.35289 -1.46662C 6.35202 -1.46667 6.35105 -1.46673 6.34998 -1.46679C 6.34785 -1.46692 6.34532 -1.46706 6.34242 -1.46722C 6.33661 -1.46755 6.32927 -1.46794 6.32045 -1.46837C 6.30282 -1.46925 6.27925 -1.47032 6.25012 -1.47142C 6.19192 -1.47362 6.11132 -1.47594 6.0115 -1.47706C 5.81228 -1.47929 5.53401 -1.47674 5.20239 -1.45842C 4.54766 -1.42224 3.64439 -1.3225 2.7171 -1.05564C 1.80101 -0.792011 0.756852 -0.335521 -0.074081 0.48325C -0.9454 1.34181 -1.5 2.52126 -1.5 4.01814L 1.5 4.01814C 1.5 3.33024 1.72838 2.91887 2.03154 2.62015C 2.37509 2.28164 2.89689 2.01437 3.54677 1.82735C 4.18546 1.64355 4.84816 1.56573 5.3679 1.53701C 5.62352 1.52289 5.83461 1.52115 5.97795 1.52275C 6.04941 1.52355 6.10339 1.52517 6.13694 1.52644C 6.15369 1.52707 6.16529 1.52762 6.17136 1.52792C 6.1744 1.52807 6.17604 1.52816 6.17625 1.52817C 6.17636 1.52818 6.17611 1.52816 6.17549 1.52813C 6.17518 1.52811 6.17478 1.52809 6.17429 1.52806C 6.17404 1.52804 6.1736 1.52802 6.17348 1.52801C 6.17302 1.52798 6.17253 1.52795 6.26388 0.0307345ZM -1.5 4.01814C -1.5 6.37176 -0.987058 8.72915 0.473134 10.3939C 2.01701 12.1542 4.34477 12.8399 7.25416 12.3397L 6.74584 9.38306C 4.59076 9.75356 3.41852 9.20245 2.72852 8.41575C 1.95482 7.53365 1.5 6.03409 1.5 4.01814L -1.5 4.01814Z"/>
</defs>
</svg>
