<svg width="132" height="124" viewBox="0 0 132 124" version="1.1" xmlns="http://www.w3.org/2000/svg" xmlns:xlink="http://www.w3.org/1999/xlink">
<title>Group 2</title>
<desc>Created using Figma</desc>
<g id="Canvas" transform="translate(-11163 -5746)">
<g id="Group 2">
<g id="Page 1 Copy 10">
<use xlink:href="#path0_stroke" transform="translate(11165 5748)" fill="#FFFFFF"/>
</g>
<g id="Group 9">
<g id="Group 2 Copy">
<g id="Path 17">
<use xlink:href="#path1_fill" transform="translate(11198 5768)" fill="#1C1A1A"/>
<use xlink:href="#path2_stroke" transform="translate(11198 5768)" fill="#FFFFFF"/>
</g>
<g id="Path 18">
<use xlink:href="#path3_stroke" transform="translate(11238 5769)" fill="#FFFFFF"/>
</g>
<g id="Rectangle 19">
<use xlink:href="#path4_fill" transform="translate(11205 5825)" fill="#FFFFFF"/>
</g>
<g id="Rectangle 19 Copy">
<use xlink:href="#path4_fill" transform="translate(11205 5793)" fill="#FFFFFF"/>
</g>
<g id="Rectangle 19 Copy 3">
<use xlink:href="#path5_fill" transform="translate(11205 5802)" fill="#FFFFFF"/>
</g>
<g id="Rectangle 19 Copy 4">
<use xlink:href="#path6_fill" transform="translate(11205 5811)" fill="#FFFFFF"/>
</g>
<g id="Rectangle 19 Copy 2">
<use xlink:href="#path4_fill" transform="translate(11205 5777)" fill="#FFFFFF"/>
</g>
</g>
<g id="Group 7">
<g id="Oval 6">
<use xlink:href="#path7_fill" transform="translate(11245 5826)" fill="#1C1A1A"/>
<use xlink:href="#path8_stroke" transform="translate(11245 5826)" fill="#FFFFFF"/>
</g>
<g id="Fill 15">
<use xlink:href="#path9_fill" transform="translate(11250 5825)" fill="#FFFFFF"/>
</g>
</g>
</g>
</g>
</g>
<defs>
<path id="path0_stroke" d="M 123.553 76.6308L 122.253 75.8819L 122.253 75.882L 123.553 76.6308ZM 123.553 43.3692L 122.253 44.118L 122.253 44.1181L 123.553 43.3692ZM 108.149 16.6308L 109.449 15.882L 109.449 15.8819L 108.149 16.6308ZM 19.8512 16.6308L 21.1509 17.3796L 21.1509 17.3796L 19.8512 16.6308ZM 4.44694 43.3692L 5.74665 44.1181L 5.74669 44.118L 4.44694 43.3692ZM 4.44694 76.6308L 5.74669 75.882L 5.74665 75.8819L 4.44694 76.6308ZM 19.8512 103.369L 21.1509 102.62L 21.1509 102.62L 19.8512 103.369ZM 108.149 103.369L 109.449 104.118L 109.449 104.118L 108.149 103.369ZM 124.853 77.3796C 131.049 66.625 131.049 53.375 124.853 42.6204L 122.253 44.1181C 127.916 53.9457 127.916 66.0543 122.253 75.8819L 124.853 77.3796ZM 124.853 42.6204C 122.452 38.4526 119.801 33.8519 117.151 29.2512C 114.5 24.6505 111.85 20.0498 109.449 15.882L 106.849 17.3796C 109.25 21.5474 111.901 26.1481 114.551 30.7488C 117.202 35.3495 119.852 39.9502 122.253 44.118L 124.853 42.6204ZM 109.449 15.8819C 103.252 5.12701 91.8 -1.5 79.4044 -1.5L 79.4044 1.5C 90.7251 1.5 101.187 7.5523 106.849 17.3796L 109.449 15.8819ZM 79.4044 -1.5L 48.5956 -1.5L 48.5956 1.5L 79.4044 1.5L 79.4044 -1.5ZM 48.5956 -1.5C 36.2 -1.5 24.7475 5.12698 18.5514 15.882L 21.1509 17.3796C 26.8125 7.55233 37.2749 1.5 48.5956 1.5L 48.5956 -1.5ZM 18.5514 15.882C 13.749 24.2176 7.94918 34.2848 3.14718 42.6205L 5.74669 44.118C 10.5487 35.7824 16.3485 25.7152 21.1509 17.3796L 18.5514 15.882ZM 3.14722 42.6204C -3.04908 53.375 -3.04908 66.625 3.14722 77.3796L 5.74665 75.8819C 0.0844507 66.0543 0.0844507 53.9457 5.74665 44.1181L 3.14722 42.6204ZM 3.14718 77.3795C 7.94918 85.7152 13.749 95.7824 18.5514 104.118L 21.1509 102.62C 16.3485 94.2848 10.5487 84.2176 5.74669 75.882L 3.14718 77.3795ZM 18.5514 104.118C 24.7475 114.873 36.2 121.5 48.5956 121.5L 48.5956 118.5C 37.2749 118.5 26.8125 112.448 21.1509 102.62L 18.5514 104.118ZM 48.5956 121.5L 79.4044 121.5L 79.4044 118.5L 48.5956 118.5L 48.5956 121.5ZM 79.4044 121.5C 91.8 121.5 103.252 114.873 109.449 104.118L 106.849 102.62C 101.187 112.448 90.7251 118.5 79.4044 118.5L 79.4044 121.5ZM 109.449 104.118C 111.85 99.9502 114.5 95.3495 117.151 90.7488C 119.801 86.1481 122.452 81.5474 124.853 77.3796L 122.253 75.882C 119.852 80.0498 117.202 84.6505 114.551 89.2512C 111.901 93.8519 109.25 98.4526 106.849 102.62L 109.449 104.118Z"/>
<path id="path1_fill" fill-rule="evenodd" d="M 0 0L 0 72L 59 72L 59 18.5325L 40.4144 0L 0 0Z"/>
<path id="path2_stroke" d="M 0 0L 0 -1.5C -0.828427 -1.5 -1.5 -0.828427 -1.5 3.33067e-16L 0 0ZM 0 72L -1.5 72C -1.5 72.8284 -0.828427 73.5 3.33067e-16 73.5L 0 72ZM 59 72L 59 73.5C 59.8284 73.5 60.5 72.8284 60.5 72L 59 72ZM 59 18.5325L 60.5 18.5325C 60.5 18.1339 60.3414 17.7517 60.0591 17.4703L 59 18.5325ZM 40.4144 0L 41.4735 -1.06218C 41.1924 -1.34255 40.8115 -1.5 40.4144 -1.5L 40.4144 0ZM -1.5 0L -1.5 72L 1.5 72L 1.5 0L -1.5 0ZM 0 73.5L 59 73.5L 59 70.5L 0 70.5L 0 73.5ZM 60.5 72L 60.5 18.5325L 57.5 18.5325L 57.5 72L 60.5 72ZM 60.0591 17.4703L 41.4735 -1.06218L 39.3553 1.06218L 57.9409 19.5947L 60.0591 17.4703ZM 40.4144 -1.5L 0 -1.5L 0 1.5L 40.4144 1.5L 40.4144 -1.5Z"/>
<path id="path3_stroke" d="M 0 18L -1.5 18L -1.5 19.5L 0 19.5L 0 18ZM -1.5 0L -1.5 18L 1.5 18L 1.5 0L -1.5 0ZM 0 19.5L 20 19.5L 20 16.5L 0 16.5L 0 19.5Z"/>
<path id="path4_fill" fill-rule="evenodd" d="M 0 1.5C 0 0.671573 0.671573 0 1.5 0L 26.5 0C 27.3284 0 28 0.671573 28 1.5L 28 2.5C 28 3.32843 27.3284 4 26.5 4L 1.5 4C 0.671573 4 0 3.32843 0 2.5L 0 1.5Z"/>
<path id="path5_fill" fill-rule="evenodd" d="M 0 1.5C 0 0.671573 0.671573 0 1.5 0L 43.5 0C 44.3284 0 45 0.671573 45 1.5L 45 2.5C 45 3.32843 44.3284 4 43.5 4L 1.5 4C 0.671573 4 0 3.32843 0 2.5L 0 1.5Z"/>
<path id="path6_fill" fill-rule="evenodd" d="M 0 1.5C 0 0.671573 0.671573 0 1.5 0L 30.5 0C 31.3284 0 32 0.671573 32 1.5L 32 2.5C 32 3.32843 31.3284 4 30.5 4L 1.5 4C 0.671573 4 0 3.32843 0 2.5L 0 1.5Z"/>
<path id="path7_fill" fill-rule="evenodd" d="M 11.1429 22.6452C 17.2969 22.6452 22.2857 17.5759 22.2857 11.3226C 22.2857 5.06929 17.2969 0 11.1429 0C 4.98883 0 0 5.06929 0 11.3226C 0 17.5759 4.98883 22.6452 11.1429 22.6452Z"/>
<path id="path8_stroke" d="M 11.1429 24.1452C 18.1479 24.1452 23.7857 18.3816 23.7857 11.3226L 20.7857 11.3226C 20.7857 16.7702 16.4459 21.1452 11.1429 21.1452L 11.1429 24.1452ZM 23.7857 11.3226C 23.7857 4.26358 18.1479 -1.5 11.1429 -1.5L 11.1429 1.5C 16.4459 1.5 20.7857 5.875 20.7857 11.3226L 23.7857 11.3226ZM 11.1429 -1.5C 4.13786 -1.5 -1.5 4.26358 -1.5 11.3226L 1.5 11.3226C 1.5 5.875 5.83979 1.5 11.1429 1.5L 11.1429 -1.5ZM -1.5 11.3226C -1.5 18.3816 4.13786 24.1452 11.1429 24.1452L 11.1429 21.1452C 5.83979 21.1452 1.5 16.7702 1.5 11.3226L -1.5 11.3226Z"/>
<path id="path9_fill" fill-rule="evenodd" d="M 5.46664 16.6432C 4.64516 16.6432 3.8475 16.3417 3.22165 15.7835L 0.492289 13.3519C -0.107578 12.8172 -0.167493 11.8908 0.358023 11.2812C 0.883538 10.6717 1.79597 10.6116 2.39584 11.1455L 5.1252 13.5778C 5.28256 13.7179 5.45292 13.7157 5.54315 13.7033C 5.63194 13.6908 5.79725 13.6417 5.90842 13.462L 13.763 0.689437C 14.1853 0.00287694 15.0768 -0.206172 15.7524 0.222928C 16.4288 0.652028 16.6338 1.55717 16.2115 2.24447L 8.3548 15.0206C 7.81991 15.884 6.9479 16.4605 5.95895 16.6072C 5.79508 16.6314 5.6305 16.6432 5.46664 16.6432"/>
</defs>
</svg>
