<svg xmlns="http://www.w3.org/2000/svg" viewBox="0 0 1334.69 620.3"><defs><style>.cls-1{fill:#fff;}</style></defs><title>apla</title><g id="Layer_2" data-name="Layer 2"><g id="Layer_1-2" data-name="Layer 1"><path class="cls-1" d="M262.1,20.16H173.39L0,490.6H86L125,377H310.49l39,113.58h86L262.1,20.16Zm-44.36,86.69L287,308.47H148.52l69.22-201.62Z"/><path class="cls-1" d="M559.15,142.47H482.53V620.3h76.61V469.76c22.18,18.15,51.75,28.9,87.37,28.9,90.73,0,158.6-71.24,158.6-182.13s-67.88-182.13-158.6-182.13c-35.62,0-65.19,10.75-87.37,28.9V142.47Zm0,86.7c18.14-19.49,45.7-31.59,75.27-31.59,53.76,0,92.74,39,92.74,119s-39,119-92.74,119c-29.57,0-57.12-12.1-75.27-31.59V229.17Z"/><polygon class="cls-1" points="879.04 490.6 955.66 490.6 955.66 0 879.04 0 879.04 490.6 879.04 490.6"/><path class="cls-1" d="M1162.65,498.66c40.32,0,71.91-9.41,95.43-28.9V490.6h76.61V265.46c0-97.45-45.7-131-147.85-131-47.72,0-98.12,12.1-128.36,30.24l7.39,64.52c34.27-19.49,75.27-31.59,117.61-31.59,53.76,0,74.6,12.77,74.6,53.09v16.8H1185.5c-100.14,0-155.92,45.7-155.92,118.28,0,75.27,59.81,112.9,133.07,112.9Zm10.75-63.17c-40.32,0-65.86-15.46-65.86-51.08,0-34.27,22.18-55.11,80.65-55.11h69.89v74.6c-18.82,21.51-49.06,31.59-84.68,31.59Z"/></g></g></svg>