<svg xmlns="http://www.w3.org/2000/svg" viewBox="0 0 940 880"><defs><style>.cls-1{fill:#1c1a1a;}</style></defs><title>mask-black</title><g id="Layer_2" data-name="Layer 2"><g id="Layer_1-2" data-name="Layer 1"><g id="Layer_2-2" data-name="Layer 2"><g id="Слой_1" data-name="Слой 1"><path class="cls-1" d="M0,0V880H940V0ZM905.5,561.4C870.4,622.2,828,695.7,792.8,756.5A242.82,242.82,0,0,1,582.6,877.9H357.3A242.7,242.7,0,0,1,147.1,756.5C112,695.7,69.6,622.2,34.5,561.4a242.48,242.48,0,0,1,0-242.7C69.6,257.9,112,184.4,147.2,123.6A242.82,242.82,0,0,1,357.4,2.2H582.7A242.7,242.7,0,0,1,792.9,123.6c35.1,60.8,77.5,134.3,112.7,195.1A242.72,242.72,0,0,1,905.5,561.4Z"/></g></g></g></g></svg>