<svg width="754" height="749" viewBox="0 0 754 749" version="1.1" xmlns="http://www.w3.org/2000/svg" xmlns:xlink="http://www.w3.org/1999/xlink">
<title>Group</title>
<desc>Created using Figma</desc>
<g id="Canvas" transform="translate(-1805 -65)">
<g id="Group">
<g id="Page 1">
<use xlink:href="#path0_stroke" transform="translate(2142 402)" fill="#FFFFFF"/>
</g>
<g id="Page 1 Copy">
<use xlink:href="#path1_stroke" transform="translate(2126 386)" fill="#FFFFFF"/>
</g>
<g id="Page 1 Copy 2">
<use xlink:href="#path2_stroke" transform="translate(2110 370)" fill="#FFFFFF"/>
</g>
<g id="Page 1 Copy 3">
<use xlink:href="#path3_stroke" transform="translate(2094 354)" fill="#FFFFFF"/>
</g>
<g id="Page 1 Copy 4">
<use xlink:href="#path4_stroke" transform="translate(2078 338)" fill="#FFFFFF"/>
</g>
<g id="Page 1 Copy 5">
<use xlink:href="#path5_stroke" transform="translate(2062 322)" fill="#FFFFFF"/>
</g>
<g id="Page 1 Copy 6">
<use xlink:href="#path6_stroke" transform="translate(2046 306)" fill="#FFFFFF"/>
</g>
<g id="Page 1 Copy 7">
<use xlink:href="#path7_stroke" transform="translate(2030 290)" fill="#FFFFFF"/>
</g>
<g id="Page 1 Copy 8">
<use xlink:href="#path8_stroke" transform="translate(2014 274)" fill="#FFFFFF"/>
</g>
<g id="Page 1 Copy 9">
<use xlink:href="#path9_stroke" transform="translate(1998 258)" fill="#FFFFFF"/>
</g>
<g id="Page 1 Copy 10">
<use xlink:href="#path10_stroke" transform="translate(1982 242)" fill="#FFFFFF"/>
</g>
<g id="Page 1 Copy 11">
<use xlink:href="#path11_stroke" transform="translate(1966 226)" fill="#FFFFFF"/>
</g>
<g id="Page 1 Copy 12">
<use xlink:href="#path12_stroke" transform="translate(1950 210)" fill="#FFFFFF"/>
</g>
<g id="Page 1 Copy 13">
<use xlink:href="#path13_stroke" transform="translate(1934 194)" fill="#FFFFFF"/>
</g>
<g id="Page 1 Copy 14">
<use xlink:href="#path14_stroke" transform="translate(1918 178)" fill="#FFFFFF"/>
</g>
<g id="Page 1 Copy 15">
<use xlink:href="#path15_stroke" transform="translate(1902 162)" fill="#FFFFFF"/>
</g>
<g id="Page 1 Copy 16">
<use xlink:href="#path16_stroke" transform="translate(1886 146)" fill="#FFFFFF"/>
</g>
<g id="Page 1 Copy 17">
<use xlink:href="#path17_stroke" transform="translate(1870 130)" fill="#FFFFFF"/>
</g>
<g id="Page 1 Copy 18">
<use xlink:href="#path18_stroke" transform="translate(1854 114)" fill="#FFFFFF"/>
</g>
<g id="Page 1 Copy 19">
<use xlink:href="#path19_stroke" transform="translate(1838 98)" fill="#FFFFFF"/>
</g>
<g id="Page 1 Copy 20">
<use xlink:href="#path20_stroke" transform="translate(1822 82)" fill="#FFFFFF"/>
</g>
<g id="Page 1 Copy 21">
<use xlink:href="#path21_stroke" transform="translate(1806 66)" fill="#FFFFFF"/>
</g>
<g id="Page 1">
<g id="Fill 1">
<use xlink:href="#path22_fill" transform="translate(2156 428.433)" fill="#FEFEFE"/>
</g>
<g id="Group 8">
<g id="Group 4">
<mask id="mask0_outline" mask-type="alpha">
<g id="Clip 3">
<use xlink:href="#path23_fill" transform="translate(2173.93 433.029)" fill="#FFFFFF"/>
</g>
</mask>
<g id="Fill 2" mask="url(#mask0_outline)">
<use xlink:href="#path24_fill" transform="translate(2173.93 433.029)" fill="#FEFEFE"/>
</g>
</g>
<mask id="mask1_outline" mask-type="alpha">
<g id="Clip 6">
<use xlink:href="#path25_fill" transform="translate(2156 428.362)" fill="#FFFFFF"/>
</g>
</mask>
<g id="Fill 5" mask="url(#mask1_outline)">
<use xlink:href="#path26_fill" transform="translate(2188.53 428.362)" fill="#FEFEFE"/>
</g>
<g id="Fill 7" mask="url(#mask1_outline)">
<use xlink:href="#path27_fill" transform="translate(2193.85 433.029)" fill="#FEFEFE"/>
</g>
</g>
</g>
</g>
</g>
<defs>
<path id="path0_stroke" d="M 77.2208 47.8939L 78.0873 48.3932L 78.0873 48.3931L 77.2208 47.8939ZM 77.2208 27.1048L 78.0873 26.6056L 78.0872 26.6054L 77.2208 27.1048ZM 67.5928 10.3939L 66.7263 10.8932L 66.7264 10.8933L 67.5928 10.3939ZM 12.4069 10.3939L 11.5404 9.89471L 11.5404 9.89478L 12.4069 10.3939ZM 2.78016 27.1048L 3.6466 27.604L 3.64667 27.6039L 2.78016 27.1048ZM 2.78016 47.8939L 3.64673 47.3949L 3.6466 47.3947L 2.78016 47.8939ZM 12.4069 64.6061L 11.5403 65.1051L 11.5404 65.1053L 12.4069 64.6061ZM 67.5928 64.6061L 66.7263 64.1068L 66.7263 64.1068L 67.5928 64.6061ZM 78.0873 48.3931C 81.9709 41.6513 81.9709 33.3474 78.0873 26.6056L 76.3543 27.6039C 79.8819 33.7278 79.8819 41.2709 76.3543 47.3948L 78.0873 48.3931ZM 78.0872 26.6054C 76.5862 24.0009 74.9298 21.1256 73.2733 18.2502C 71.6168 15.3748 69.9603 12.4994 68.4592 9.89462L 66.7264 10.8933C 68.2274 13.4978 69.8838 16.3731 71.5403 19.2485C 73.1968 22.1239 74.8533 24.9993 76.3544 27.6041L 78.0872 26.6054ZM 68.4593 9.89471C 64.5755 3.15396 57.3973 -1 49.6279 -1L 49.6279 1C 56.6807 1 63.1989 4.77082 66.7263 10.8932L 68.4593 9.89471ZM 49.6279 -1L 30.3718 -1L 30.3718 1L 49.6279 1L 49.6279 -1ZM 30.3718 -1C 22.6023 -1 15.4241 3.15396 11.5404 9.89471L 13.2734 10.8932C 16.8008 4.77082 23.319 1 30.3718 1L 30.3718 -1ZM 11.5404 9.89478C 10.0399 12.4994 8.38349 15.3748 6.72702 18.2502C 5.07056 21.1255 3.4141 24.0009 1.91365 26.6056L 3.64667 27.6039C 5.1471 24.9993 6.80356 22.1239 8.46002 19.2485C 10.1165 16.3732 11.773 13.4978 13.2734 10.8931L 11.5404 9.89478ZM 1.91372 26.6055C -1.97124 33.3474 -1.97124 41.6513 1.91372 48.3932L 3.6466 47.3947C 0.117798 41.2708 0.117798 33.7279 3.6466 27.604L 1.91372 26.6055ZM 1.9136 48.393C 3.41407 50.9984 5.07057 53.8738 6.72702 56.7492C 8.38349 59.6246 10.0399 62.4999 11.5403 65.1051L 13.2734 64.107C 11.773 61.5016 10.1165 58.6262 8.46002 55.7508C 6.80355 52.8754 5.14713 50.0001 3.64673 47.3949L 1.9136 48.393ZM 11.5404 65.1053C 15.4241 71.846 22.6023 76 30.3718 76L 30.3718 74C 23.319 74 16.8008 70.2292 13.2734 64.1068L 11.5404 65.1053ZM 30.3718 76L 49.6279 76L 49.6279 74L 30.3718 74L 30.3718 76ZM 49.6279 76C 57.3973 76 64.5755 71.846 68.4593 65.1053L 66.7263 64.1068C 63.1989 70.2292 56.6807 74 49.6279 74L 49.6279 76ZM 68.4593 65.1053C 69.9604 62.4999 71.6168 59.6245 73.2733 56.7492C 74.9298 53.8738 76.5862 50.9985 78.0873 48.3932L 76.3543 47.3947C 74.8532 50.0001 73.1968 52.8755 71.5403 55.7508C 69.8838 58.6262 68.2274 61.5015 66.7263 64.1068L 68.4593 65.1053Z"/>
<path id="path1_stroke" d="M 108.109 68.3287L 108.98 68.8209L 108.98 68.8208L 108.109 68.3287ZM 108.109 38.6695L 108.98 38.1774L 108.98 38.1772L 108.109 38.6695ZM 94.6299 14.8287L 93.7594 15.3209L 93.7595 15.3209L 94.6299 14.8287ZM 17.3696 14.8287L 16.4991 14.3365L 16.4991 14.3366L 17.3696 14.8287ZM 3.89223 38.6695L 4.7627 39.1617L 4.76277 39.1616L 3.89223 38.6695ZM 3.89223 68.3287L 4.76282 67.8367L 4.7627 67.8365L 3.89223 68.3287ZM 17.3696 92.1713L 16.499 92.6633L 16.4991 92.6635L 17.3696 92.1713ZM 94.6299 92.1713L 93.7594 91.6791L 94.6299 92.1713ZM 108.98 68.8208C 114.34 59.3379 114.34 47.6603 108.98 38.1774L 107.239 39.1616C 112.254 48.0337 112.254 58.9644 107.239 67.8366L 108.98 68.8208ZM 108.98 38.1772C 106.878 34.4613 104.559 30.3592 102.24 26.2569C 99.921 22.1548 97.6019 18.0525 95.5004 14.3364L 93.7595 15.3209C 95.8609 19.0369 98.1799 23.139 100.499 27.2412C 102.818 31.3434 105.137 35.4456 107.239 39.1617L 108.98 38.1772ZM 95.5004 14.3365C 90.1387 4.85327 80.2222 -1 69.479 -1L 69.479 1C 79.487 1 88.7455 6.45274 93.7594 15.3209L 95.5004 14.3365ZM 69.479 -1L 42.5205 -1L 42.5205 1L 69.479 1L 69.479 -1ZM 42.5205 -1C 31.7773 -1 21.8608 4.85327 16.4991 14.3365L 18.2401 15.3209C 23.2541 6.45274 32.5125 1 42.5205 1L 42.5205 -1ZM 16.4991 14.3366C 14.3985 18.0526 12.0795 22.1548 9.76041 26.2569C 7.44136 30.3591 5.12231 34.4613 3.02169 38.1774L 4.76277 39.1616C 6.86337 35.4456 9.18241 31.3434 11.5015 27.2412C 13.8205 23.139 16.1396 19.0368 18.2402 15.3208L 16.4991 14.3366ZM 3.02176 38.1772C -2.34059 47.6602 -2.34059 59.3379 3.02176 68.8209L 4.7627 67.8365C -0.254232 58.9643 -0.254232 48.0338 4.7627 39.1617L 3.02176 38.1772ZM 3.02164 68.8207C 5.12229 72.5377 7.44137 76.6399 9.76041 80.7421C 12.0795 84.8443 14.3985 88.9465 16.499 92.6633L 18.2402 91.6793C 16.1396 87.9623 13.8205 83.8601 11.5015 79.7579C 9.1824 75.6557 6.86339 71.5535 4.76282 67.8367L 3.02164 68.8207ZM 16.4991 92.6635C 21.8608 102.147 31.7773 108 42.5205 108L 42.5205 106C 32.5125 106 23.2541 100.547 18.2401 91.6791L 16.4991 92.6635ZM 42.5205 108L 69.479 108L 69.479 106L 42.5205 106L 42.5205 108ZM 69.479 108C 80.2222 108 90.1387 102.147 95.5004 92.6635L 93.7594 91.6791C 88.7455 100.547 79.487 106 69.479 106L 69.479 108ZM 95.5004 92.6635C 97.6019 88.9465 99.921 84.8443 102.24 80.7421C 104.559 76.6399 106.878 72.5378 108.98 68.8209L 107.239 67.8365C 105.137 71.5535 102.818 75.6557 100.499 79.7579C 98.1799 83.8601 95.8609 87.9622 93.7594 91.6791L 95.5004 92.6635Z"/>
<path id="path2_stroke" d="M 138.997 88.7634L 139.87 89.2518L 139.87 89.2517L 138.997 88.7634ZM 138.997 50.2342L 139.87 49.7459L 139.87 49.7457L 138.997 50.2342ZM 121.667 19.2634L 120.794 19.7518L 120.794 19.7518L 121.667 19.2634ZM 22.3324 19.2634L 21.4597 18.7751L 21.4597 18.7752L 22.3324 19.2634ZM 5.00429 50.2342L 5.87693 50.7225L 5.877 50.7224L 5.00429 50.2342ZM 5.00429 88.7634L 5.87705 88.2753L 5.87693 88.275L 5.00429 88.7634ZM 22.3324 119.737L 21.4596 120.225L 21.4597 120.225L 22.3324 119.737ZM 121.667 119.737L 120.794 119.248L 120.794 119.248L 121.667 119.737ZM 139.87 89.2517C 146.71 77.0261 146.71 61.9715 139.87 49.7459L 138.125 50.7224C 144.625 62.3413 144.625 76.6563 138.125 88.2752L 139.87 89.2517ZM 139.87 49.7457C 137.168 44.9185 134.187 39.5896 131.205 34.2605C 128.223 28.9315 125.242 23.6024 122.54 18.775L 120.794 19.7518C 123.496 24.5791 126.478 29.908 129.46 35.2371C 132.441 40.5661 135.423 45.8952 138.125 50.7226L 139.87 49.7457ZM 122.54 18.7751C 115.698 6.54877 103.043 -1 89.3301 -1L 89.3301 1C 102.297 1 114.296 8.13848 120.794 19.7518L 122.54 18.7751ZM 89.3301 -1L 54.6693 -1L 54.6693 1L 89.3301 1L 89.3301 -1ZM 54.6693 -1C 40.9564 -1 28.3013 6.54877 21.4597 18.7751L 23.2051 19.7518C 29.7036 8.13848 41.7019 1 54.6693 1L 54.6693 -1ZM 21.4597 18.7752C 18.7589 23.6025 15.7773 28.9315 12.7957 34.2605C 9.81402 39.5895 6.83239 44.9186 4.13159 49.7459L 5.877 50.7224C 8.57777 45.8951 11.5594 40.5661 14.541 35.2371C 17.5227 29.9081 20.5043 24.579 23.2051 19.7517L 21.4597 18.7752ZM 4.13166 49.7458C -2.71055 61.9714 -2.71055 77.0261 4.13166 89.2518L 5.87693 88.275C -0.625642 76.6563 -0.625642 62.3413 5.87693 50.7225L 4.13166 49.7458ZM 4.13154 89.2516C 6.83237 94.0802 9.81403 99.4093 12.7957 104.738C 15.7773 110.067 18.7589 115.396 21.4596 120.225L 23.2051 119.248C 20.5043 114.42 17.5227 109.091 14.541 103.762C 11.5594 98.4327 8.5778 93.1037 5.87705 88.2753L 4.13154 89.2516ZM 21.4597 120.225C 28.3013 132.451 40.9564 140 54.6693 140L 54.6693 138C 41.7019 138 29.7036 130.862 23.2051 119.248L 21.4597 120.225ZM 54.6693 140L 89.3301 140L 89.3301 138L 54.6693 138L 54.6693 140ZM 89.3301 140C 103.043 140 115.698 132.451 122.54 120.225L 120.794 119.248C 114.296 130.862 102.297 138 89.3301 138L 89.3301 140ZM 122.54 120.225C 125.242 115.396 128.223 110.067 131.205 104.738C 134.187 99.4093 137.168 94.0803 139.87 89.2518L 138.125 88.2751C 135.423 93.1037 132.441 98.4327 129.46 103.762C 126.478 109.091 123.496 114.42 120.794 119.248L 122.54 120.225Z"/>
<path id="path3_stroke" d="M 169.886 109.198L 170.76 109.684L 170.76 109.684L 169.886 109.198ZM 169.886 61.7989L 170.76 61.313L 170.76 61.3129L 169.886 61.7989ZM 148.704 23.6982L 147.83 24.1841L 147.83 24.1842L 148.704 23.6982ZM 27.2951 23.6982L 26.4211 23.2123L 26.4211 23.2123L 27.2951 23.6982ZM 6.11636 61.7989L 6.99034 62.2848L 6.99041 62.2847L 6.11636 61.7989ZM 6.11636 109.198L 6.99046 108.712L 6.99034 108.712L 6.11636 109.198ZM 27.2951 147.302L 26.421 147.788L 26.4211 147.788L 27.2951 147.302ZM 148.704 147.302L 147.83 146.816L 148.704 147.302ZM 170.76 109.684C 179.08 94.715 179.08 76.2821 170.76 61.313L 169.012 62.2847C 176.996 76.6495 176.996 94.3476 169.012 108.712L 170.76 109.684ZM 170.76 61.3129C 167.457 55.3743 163.813 48.8185 160.169 42.2627C 156.525 35.7068 152.881 29.1509 149.578 23.2122L 147.83 24.1842C 151.133 30.1227 154.777 36.6785 158.421 43.2344C 162.065 49.7902 165.709 56.3461 169.012 62.2849L 170.76 61.3129ZM 149.578 23.2123C 141.256 8.24251 125.862 -1 109.181 -1L 109.181 1C 125.11 1 139.848 9.82598 147.83 24.1841L 149.578 23.2123ZM 109.181 -1L 66.818 -1L 66.818 1L 109.181 1L 109.181 -1ZM 66.818 -1C 50.1374 -1 34.7434 8.24251 26.4211 23.2123L 28.1692 24.1841C 36.1514 9.82598 50.8894 1 66.818 1L 66.818 -1ZM 26.4211 23.2123C 23.1201 29.151 19.4759 35.7068 15.8317 42.2627C 12.1875 48.8185 8.54328 55.3744 5.24231 61.313L 6.99041 62.2847C 10.2914 56.346 13.9356 49.7902 17.5798 43.2344C 21.224 36.6785 24.8682 30.1227 28.1692 24.184L 26.4211 23.2123ZM 5.24238 61.3129C -3.08079 76.282 -3.08079 94.715 5.24238 109.684L 6.99034 108.712C -0.996781 94.3475 -0.996781 76.6495 6.99034 62.2848L 5.24238 61.3129ZM 5.24226 109.684C 8.54326 115.624 12.1875 122.18 15.8317 128.736C 19.4759 135.292 23.1201 141.847 26.421 147.788L 28.1692 146.816C 24.8682 140.876 21.224 134.32 17.5798 127.764C 13.9356 121.208 10.2914 114.653 6.99046 108.712L 5.24226 109.684ZM 26.4211 147.788C 34.7434 162.757 50.1374 172 66.818 172L 66.818 170C 50.8894 170 36.1514 161.174 28.1692 146.816L 26.4211 147.788ZM 66.818 172L 109.181 172L 109.181 170L 66.818 170L 66.818 172ZM 109.181 172C 125.862 172 141.256 162.757 149.578 147.788L 147.83 146.816C 139.848 161.174 125.11 170 109.181 170L 109.181 172ZM 149.578 147.788C 152.881 141.848 156.525 135.292 160.169 128.736C 163.813 122.18 167.457 115.624 170.76 109.684L 169.012 108.712C 165.709 114.652 162.065 121.208 158.421 127.764C 154.777 134.32 151.133 140.876 147.83 146.816L 149.578 147.788Z"/>
<path id="path4_stroke" d="M 200.774 129.633L 201.649 130.117L 201.649 130.117L 200.774 129.633ZM 200.774 73.3635L 201.649 72.8794L 201.649 72.8792L 200.774 73.3635ZM 175.741 28.1329L 174.866 28.6172L 174.866 28.6173L 175.741 28.1329ZM 32.2579 28.1329L 31.383 27.6487L 31.3829 27.6488L 32.2579 28.1329ZM 7.22843 73.3635L 8.10333 73.8478L 8.1034 73.8477L 7.22843 73.3635ZM 7.22843 129.633L 8.10345 129.149L 8.10333 129.149L 7.22843 129.633ZM 32.2579 174.867L 31.3829 175.351L 31.383 175.351L 32.2579 174.867ZM 175.741 174.867L 174.866 174.383L 175.741 174.867ZM 201.649 130.117C 211.45 112.404 211.45 90.5922 201.649 72.8794L 199.899 73.8477C 209.367 90.958 209.367 112.038 199.899 129.149L 201.649 130.117ZM 201.649 72.8792C 197.746 65.8293 193.439 58.0467 189.133 50.264C 184.826 42.4814 180.519 34.6987 176.616 27.6486L 174.866 28.6173C 178.769 35.6672 183.076 43.4497 187.383 51.2324C 191.69 59.0151 195.996 66.7978 199.899 73.8479L 201.649 72.8792ZM 176.616 27.6487C 166.813 9.93529 148.68 -1 129.032 -1L 129.032 1C 147.923 1 165.401 11.5144 174.866 28.6172L 176.616 27.6487ZM 129.032 -1L 78.9667 -1L 78.9667 1L 129.032 1L 129.032 -1ZM 78.9667 -1C 59.3194 -1 41.1865 9.93529 31.383 27.6487L 33.1328 28.6172C 42.5984 11.5144 60.076 1 78.9667 1L 78.9667 -1ZM 31.3829 27.6488C 27.4818 34.6987 23.175 42.4814 18.8682 50.264C 14.5614 58.0467 10.2546 65.8294 6.35345 72.8794L 8.1034 73.8477C 12.0045 66.7977 16.3113 59.0151 20.6181 51.2324C 24.9249 43.4498 29.2317 35.6671 33.1329 28.6171L 31.3829 27.6488ZM 6.35352 72.8793C -3.45117 90.5922 -3.45117 112.404 6.35352 130.117L 8.10333 129.149C -1.36778 112.038 -1.36778 90.9581 8.10333 73.8478L 6.35352 72.8793ZM 6.3534 130.117C 10.2546 137.169 14.5614 144.952 18.8682 152.734C 23.175 160.517 27.4818 168.299 31.3829 175.351L 33.1329 174.383C 29.2317 167.331 24.9249 159.548 20.6181 151.766C 16.3113 143.983 12.0045 136.201 8.10345 129.149L 6.3534 130.117ZM 31.383 175.351C 41.1865 193.065 59.3194 204 78.9667 204L 78.9667 202C 60.076 202 42.5984 191.486 33.1328 174.383L 31.383 175.351ZM 78.9667 204L 129.032 204L 129.032 202L 78.9667 202L 78.9667 204ZM 129.032 204C 148.68 204 166.813 193.065 176.616 175.351L 174.866 174.383C 165.401 191.486 147.923 202 129.032 202L 129.032 204ZM 176.616 175.351C 180.519 168.3 184.826 160.517 189.133 152.734C 193.439 144.952 197.746 137.169 201.649 130.117L 199.899 129.149C 195.996 136.2 191.69 143.983 187.383 151.766C 183.076 159.548 178.769 167.331 174.866 174.383L 176.616 175.351Z"/>
<path id="path5_stroke" d="M 231.662 150.068L 232.538 150.551L 232.538 150.551L 231.662 150.068ZM 231.662 84.9282L 232.538 84.4453L 232.538 84.4451L 231.662 84.9282ZM 202.778 32.5677L 201.903 33.0507L 201.903 33.0508L 202.778 32.5677ZM 37.2206 32.5677L 36.345 32.0846L 36.345 32.0847L 37.2206 32.5677ZM 8.34049 84.9282L 9.21607 85.4113L 9.21614 85.4112L 8.34049 84.9282ZM 8.34049 150.068L 9.21619 149.585L 9.21607 149.585L 8.34049 150.068ZM 37.2206 202.432L 36.345 202.915L 36.345 202.915L 37.2206 202.432ZM 202.778 202.432L 201.903 201.949L 202.778 202.432ZM 232.538 150.551C 243.821 130.094 243.821 104.902 232.538 84.4453L 230.787 85.4112C 241.738 105.267 241.738 129.729 230.787 149.585L 232.538 150.551ZM 232.538 84.4451C 228.035 76.2839 223.065 67.2745 218.096 58.265C 213.127 49.2555 208.157 40.2459 203.654 32.0846L 201.903 33.0508C 206.406 41.212 211.375 50.2214 216.345 59.2309C 221.314 68.2404 226.284 77.25 230.787 85.4114L 232.538 84.4451ZM 203.654 32.0846C 192.369 11.6275 171.497 -1 148.884 -1L 148.884 1C 170.737 1 190.954 13.2035 201.903 33.0507L 203.654 32.0846ZM 148.884 -1L 91.1155 -1L 91.1155 1L 148.884 1L 148.884 -1ZM 91.1155 -1C 68.502 -1 47.63 11.6275 36.345 32.0846L 38.0963 33.0507C 49.0448 13.2035 69.2619 1 91.1155 1L 91.1155 -1ZM 36.345 32.0847C 31.8437 40.246 26.8743 49.2555 21.9049 58.265C 16.9356 67.2745 11.9662 76.284 7.46485 84.4453L 9.21614 85.4112C 13.7174 77.2499 18.6868 68.2404 23.6562 59.2309C 28.6256 50.2214 33.595 41.2119 38.0963 33.0506L 36.345 32.0847ZM 7.46491 84.4452C -3.82164 104.902 -3.82164 130.094 7.46491 150.551L 9.21607 149.585C -1.73869 129.729 -1.73869 105.267 9.21607 85.4113L 7.46491 84.4452ZM 7.4648 150.551C 11.9661 158.714 16.9356 167.723 21.9049 176.733C 26.8743 185.742 31.8437 194.752 36.345 202.915L 38.0963 201.949C 33.595 193.786 28.6256 184.777 23.6562 175.767C 18.6868 166.758 13.7175 157.748 9.21619 149.585L 7.4648 150.551ZM 36.345 202.915C 47.63 223.372 68.502 236 91.1155 236L 91.1155 234C 69.2619 234 49.0448 221.797 38.0963 201.949L 36.345 202.915ZM 91.1155 236L 148.884 236L 148.884 234L 91.1155 234L 91.1155 236ZM 148.884 236C 171.497 236 192.369 223.372 203.654 202.915L 201.903 201.949C 190.954 221.797 170.737 234 148.884 234L 148.884 236ZM 203.654 202.915C 208.157 194.752 213.127 185.742 218.096 176.733C 223.065 167.723 228.035 158.714 232.538 150.551L 230.787 149.585C 226.284 157.748 221.314 166.758 216.345 175.767C 211.375 184.777 206.406 193.786 201.903 201.949L 203.654 202.915Z"/>
<path id="path6_stroke" d="M 262.551 170.502L 263.427 170.985L 263.427 170.984L 262.551 170.502ZM 262.551 96.4929L 263.427 96.0109L 263.427 96.0107L 262.551 96.4929ZM 229.815 37.0024L 228.939 37.4845L 228.939 37.4846L 229.815 37.0024ZM 42.1834 37.0024L 41.3073 36.5203L 41.3072 36.5204L 42.1834 37.0024ZM 9.45256 96.4929L 10.3286 96.9751L 10.3287 96.975L 9.45256 96.4929ZM 9.45256 170.502L 10.3288 170.02L 10.3286 170.02L 9.45256 170.502ZM 42.1834 229.998L 41.3072 230.48L 41.3073 230.48L 42.1834 229.998ZM 229.815 229.998L 228.939 229.515L 229.815 229.998ZM 263.427 170.984C 276.191 147.783 276.191 119.212 263.427 96.0109L 261.675 96.975C 274.108 119.576 274.108 147.42 261.675 170.02L 263.427 170.984ZM 263.427 96.0107C 258.323 86.7382 252.691 76.502 247.059 66.2656C 241.427 56.0293 235.795 45.7929 230.692 36.5202L 228.939 37.4846C 234.043 46.7572 239.675 56.9934 245.307 67.2297C 250.939 77.466 256.571 87.7024 261.675 96.9751L 263.427 96.0107ZM 230.692 36.5203C 217.925 13.3193 194.314 -1 168.735 -1L 168.735 1C 193.551 1 216.508 14.8929 228.939 37.4845L 230.692 36.5203ZM 168.735 -1L 103.264 -1L 103.264 1L 168.735 1L 168.735 -1ZM 103.264 -1C 77.685 -1 54.0739 13.3193 41.3073 36.5203L 43.0595 37.4845C 55.4909 14.8929 78.4474 1 103.264 1L 103.264 -1ZM 41.3072 36.5204C 36.2058 45.793 30.5738 56.0293 24.9418 66.2656C 19.3099 76.5019 13.6779 86.7383 8.5764 96.0109L 10.3287 96.975C 15.4302 87.7023 21.0622 77.466 26.6941 67.2297C 32.3261 56.9934 37.9581 46.7571 43.0596 37.4844L 41.3072 36.5204ZM 8.57647 96.0108C -4.19216 119.212 -4.19216 147.783 8.57647 170.985L 10.3286 170.02C -2.10955 147.42 -2.10955 119.576 10.3286 96.9751L 8.57647 96.0108ZM 8.57635 170.984C 13.6779 180.259 19.3099 190.496 24.9418 200.732C 30.5738 210.968 36.2057 221.205 41.3072 230.48L 43.0596 229.516C 37.9581 220.241 32.3261 210.004 26.6941 199.768C 21.0621 189.532 15.4302 179.295 10.3288 170.02L 8.57635 170.984ZM 41.3073 230.48C 54.0739 253.681 77.685 268 103.264 268L 103.264 266C 78.4474 266 55.4909 252.107 43.0595 229.515L 41.3073 230.48ZM 103.264 268L 168.735 268L 168.735 266L 103.264 266L 103.264 268ZM 168.735 268C 194.314 268 217.925 253.681 230.692 230.48L 228.939 229.515C 216.508 252.107 193.551 266 168.735 266L 168.735 268ZM 230.692 230.48C 235.795 221.205 241.427 210.968 247.059 200.732C 252.691 190.496 258.323 180.259 263.427 170.985L 261.675 170.02C 256.571 179.295 250.939 189.532 245.307 199.768C 239.675 210.004 234.043 220.241 228.939 229.515L 230.692 230.48Z"/>
<path id="path7_stroke" d="M 293.439 190.937L 294.316 191.419L 294.316 191.418L 293.439 190.937ZM 293.439 108.058L 294.316 107.576L 294.316 107.576L 293.439 108.058ZM 256.853 41.4372L 255.976 41.9185L 255.976 41.9186L 256.853 41.4372ZM 47.1462 41.4372L 46.2696 40.9558L 46.2696 40.9559L 47.1462 41.4372ZM 10.5646 108.058L 11.4411 108.539L 11.4412 108.539L 10.5646 108.058ZM 10.5646 190.937L 11.4412 190.456L 11.4411 190.456L 10.5646 190.937ZM 47.1462 257.563L 46.2696 258.044L 46.2696 258.044L 47.1462 257.563ZM 256.853 257.563L 255.976 257.081L 255.976 257.081L 256.853 257.563ZM 294.316 191.418C 308.561 165.473 308.561 133.522 294.316 107.576L 292.563 108.539C 306.479 133.885 306.479 165.11 292.563 190.456L 294.316 191.418ZM 294.316 107.576C 288.611 97.1923 282.317 85.7292 276.022 74.2661C 269.728 62.803 263.433 51.3397 257.729 40.9557L 255.976 41.9186C 261.68 52.3025 267.975 63.7656 274.269 75.2287C 280.564 86.6918 286.858 98.1551 292.563 108.539L 294.316 107.576ZM 257.729 40.9558C 243.481 15.0109 217.13 -1 188.586 -1L 188.586 1C 216.366 1 242.062 16.5825 255.976 41.9185L 257.729 40.9558ZM 188.586 -1L 115.413 -1L 115.413 1L 188.586 1L 188.586 -1ZM 115.413 -1C 86.8683 -1 60.518 15.0109 46.2696 40.9558L 48.0227 41.9185C 61.9367 16.5825 87.6327 1 115.413 1L 115.413 -1ZM 46.2696 40.9559C 40.5679 51.3398 34.2734 62.8029 27.9788 74.2661C 21.6843 85.7292 15.3897 97.1924 9.68807 107.576L 11.4412 108.539C 17.1428 98.155 23.4374 86.6919 29.7319 75.2287C 36.0265 63.7656 42.321 52.3024 48.0227 41.9185L 46.2696 40.9559ZM 9.68813 107.576C -4.56271 133.522 -4.56271 165.473 9.68813 191.419L 11.4411 190.456C -2.48037 165.11 -2.48037 133.885 11.4411 108.539L 9.68813 107.576ZM 9.68802 191.418C 15.3897 201.805 21.6843 213.268 27.9788 224.731C 34.2734 236.194 40.5679 247.658 46.2696 258.044L 48.0228 257.082C 42.3211 246.695 36.0265 235.232 29.7319 223.769C 23.4374 212.306 17.1429 200.842 11.4412 190.456L 9.68802 191.418ZM 46.2696 258.044C 60.518 283.989 86.8683 300 115.413 300L 115.413 298C 87.6327 298 61.9367 282.417 48.0227 257.081L 46.2696 258.044ZM 115.413 300L 188.586 300L 188.586 298L 115.413 298L 115.413 300ZM 188.586 300C 217.13 300 243.481 283.989 257.729 258.044L 255.976 257.081C 242.062 282.417 216.366 298 188.586 298L 188.586 300ZM 257.729 258.044C 263.433 247.658 269.728 236.194 276.022 224.731C 282.317 213.268 288.611 201.805 294.316 191.419L 292.563 190.456C 286.858 200.842 280.564 212.306 274.269 223.769C 267.975 235.232 261.68 246.695 255.976 257.081L 257.729 258.044Z"/>
<path id="path8_stroke" d="M 324.327 211.372L 325.204 211.853L 325.204 211.853L 324.327 211.372ZM 324.327 119.622L 325.204 119.142L 325.204 119.141L 324.327 119.622ZM 283.89 45.8719L 283.013 46.3527L 283.013 46.3528L 283.89 45.8719ZM 52.1089 45.8719L 51.2321 45.3911L 51.232 45.3912L 52.1089 45.8719ZM 11.6767 119.622L 12.5535 120.103L 12.5536 120.103L 11.6767 119.622ZM 11.6767 211.372L 12.5536 210.891L 12.5535 210.891L 11.6767 211.372ZM 52.1089 285.128L 51.232 285.609L 51.2321 285.609L 52.1089 285.128ZM 283.89 285.128L 283.013 284.647L 283.89 285.128ZM 325.204 211.853C 340.932 183.163 340.932 147.831 325.204 119.142L 323.451 120.103C 338.85 148.194 338.85 182.8 323.451 210.891L 325.204 211.853ZM 325.204 119.141C 318.9 107.646 311.943 94.9564 304.985 82.2664C 298.028 69.5764 291.071 56.8864 284.767 45.391L 283.013 46.3528C 289.317 57.848 296.275 70.5379 303.232 83.2279C 310.189 95.9178 317.146 108.608 323.451 120.103L 325.204 119.141ZM 284.767 45.3911C 269.036 16.7023 239.947 -1 208.437 -1L 208.437 1C 239.181 1 267.616 18.2723 283.013 46.3527L 284.767 45.3911ZM 208.437 -1L 127.562 -1L 127.562 1L 208.437 1L 208.437 -1ZM 127.562 -1C 96.0517 -1 66.9623 16.7023 51.2321 45.3911L 52.9858 46.3527C 68.3824 18.2723 96.8177 1 127.562 1L 127.562 -1ZM 51.232 45.3912C 44.9302 56.8865 37.9731 69.5764 31.0159 82.2664C 24.0588 94.9564 17.1017 107.646 10.7998 119.142L 12.5536 120.103C 18.8554 108.608 25.8125 95.9178 32.7697 83.2279C 39.7268 70.5379 46.6839 57.8479 52.9858 46.3526L 51.232 45.3912ZM 10.7999 119.142C -4.93329 147.831 -4.93329 183.163 10.7999 211.853L 12.5535 210.891C -2.85117 182.8 -2.85117 148.194 12.5535 120.103L 10.7999 119.142ZM 10.7998 211.853C 17.1016 223.351 24.0588 236.041 31.0159 248.731C 37.9731 261.421 44.9302 274.111 51.232 285.609L 52.9858 284.647C 46.684 273.149 39.7268 260.459 32.7697 247.769C 25.8125 235.079 18.8554 222.389 12.5536 210.891L 10.7998 211.853ZM 51.2321 285.609C 66.9623 314.298 96.0517 332 127.562 332L 127.562 330C 96.8177 330 68.3824 312.728 52.9858 284.647L 51.2321 285.609ZM 127.562 332L 208.437 332L 208.437 330L 127.562 330L 127.562 332ZM 208.437 332C 239.947 332 269.036 314.298 284.767 285.609L 283.013 284.647C 267.616 312.728 239.181 330 208.437 330L 208.437 332ZM 284.767 285.609C 291.071 274.111 298.028 261.421 304.985 248.731C 311.943 236.041 318.9 223.351 325.204 211.853L 323.451 210.891C 317.146 222.389 310.189 235.079 303.232 247.769C 296.275 260.459 289.317 273.149 283.013 284.647L 284.767 285.609Z"/>
<path id="path9_stroke" d="M 355.216 231.807L 356.093 232.287L 356.093 232.287L 355.216 231.807ZM 355.216 131.187L 356.093 130.707L 356.093 130.707L 355.216 131.187ZM 310.927 50.3067L 310.05 50.7869L 310.05 50.787L 310.927 50.3067ZM 57.0717 50.3067L 56.1946 49.8264L 56.1945 49.8264L 57.0717 50.3067ZM 12.7888 131.187L 13.6658 131.667L 13.6659 131.667L 12.7888 131.187ZM 12.7888 231.807L 13.6659 231.327L 13.6658 231.326L 12.7888 231.807ZM 57.0717 312.693L 56.1945 313.173L 56.1946 313.174L 57.0717 312.693ZM 310.927 312.693L 310.05 312.213L 310.927 312.693ZM 356.093 232.287C 373.302 200.853 373.302 162.141 356.093 130.707L 354.339 131.667C 371.22 162.503 371.22 200.491 354.339 231.326L 356.093 232.287ZM 356.093 130.707C 349.188 118.1 341.568 104.183 333.948 90.2666C 326.329 76.3498 318.709 62.433 311.804 49.8263L 310.05 50.787C 316.955 63.3936 324.574 77.3103 332.194 91.2271C 339.814 105.144 347.434 119.061 354.339 131.667L 356.093 130.707ZM 311.804 49.8264C 294.592 18.3936 262.763 -1 228.288 -1L 228.288 1C 261.996 1 293.171 19.9623 310.05 50.7869L 311.804 49.8264ZM 228.288 -1L 139.71 -1L 139.71 1L 228.288 1L 228.288 -1ZM 139.71 -1C 105.235 -1 73.4067 18.3936 56.1946 49.8264L 57.9488 50.7869C 74.828 19.9623 106.003 1 139.71 1L 139.71 -1ZM 56.1945 49.8264C 49.2925 62.433 41.6728 76.3498 34.0531 90.2666C 26.4334 104.183 18.8136 118.1 11.9116 130.707L 13.6659 131.667C 20.5679 119.061 28.1876 105.144 35.8073 91.2271C 43.4271 77.3103 51.0468 63.3935 57.9488 50.7869L 56.1945 49.8264ZM 11.9117 130.707C -5.30389 162.141 -5.30389 200.853 11.9117 232.287L 13.6658 231.326C -3.22194 200.491 -3.22194 162.503 13.6658 131.667L 11.9117 130.707ZM 11.9116 232.287C 18.8136 244.897 26.4334 258.813 34.0531 272.73C 41.6728 286.647 49.2925 300.564 56.1945 313.173L 57.9489 312.213C 51.0468 299.603 43.4271 285.687 35.8073 271.77C 28.1876 257.853 20.5679 243.936 13.6659 231.327L 11.9116 232.287ZM 56.1946 313.174C 73.4067 344.606 105.235 364 139.71 364L 139.71 362C 106.003 362 74.828 343.038 57.9488 312.213L 56.1946 313.174ZM 139.71 364L 228.288 364L 228.288 362L 139.71 362L 139.71 364ZM 228.288 364C 262.763 364 294.592 344.606 311.804 313.174L 310.05 312.213C 293.171 343.038 261.996 362 228.288 362L 228.288 364ZM 311.804 313.174C 318.709 300.564 326.329 286.647 333.948 272.73C 341.568 258.813 349.188 244.897 356.093 232.287L 354.339 231.326C 347.434 243.936 339.814 257.853 332.194 271.77C 324.574 285.687 316.955 299.603 310.05 312.213L 311.804 313.174Z"/>
<path id="path10_stroke" d="M 386.104 252.241L 386.981 252.721L 386.981 252.721L 386.104 252.241ZM 386.104 142.752L 386.981 142.272L 386.981 142.272L 386.104 142.752ZM 337.964 54.7414L 337.087 55.2213L 337.087 55.2214L 337.964 54.7414ZM 62.0344 54.7414L 61.1571 54.2615L 61.1571 54.2616L 62.0344 54.7414ZM 13.9008 142.752L 14.7781 143.232L 14.7782 143.232L 13.9008 142.752ZM 13.9008 252.241L 14.7782 251.762L 14.7781 251.761L 13.9008 252.241ZM 62.0344 340.259L 61.157 340.738L 61.1571 340.738L 62.0344 340.259ZM 337.964 340.259L 337.087 339.779L 337.964 340.259ZM 386.981 252.721C 405.673 218.543 405.673 176.451 386.981 142.272L 385.227 143.232C 403.591 176.812 403.591 218.181 385.227 251.762L 386.981 252.721ZM 386.981 142.272C 379.476 128.554 371.194 113.41 362.911 98.2667C 354.629 83.1231 346.347 67.9794 338.841 54.2614L 337.087 55.2214C 344.592 68.9392 352.874 84.0828 361.157 99.2264C 369.439 114.37 377.721 129.514 385.227 143.232L 386.981 142.272ZM 338.841 54.2615C 320.147 20.0848 285.579 -1 248.139 -1L 248.139 1C 284.811 1 318.725 21.6524 337.087 55.2213L 338.841 54.2615ZM 248.139 -1L 151.859 -1L 151.859 1L 248.139 1L 248.139 -1ZM 151.859 -1C 114.419 -1 79.8513 20.0848 61.1571 54.2615L 62.9117 55.2213C 81.2734 21.6524 115.187 1 151.859 1L 151.859 -1ZM 61.1571 54.2616C 53.6549 67.9795 45.3726 83.1231 37.0903 98.2667C 28.808 113.41 20.5256 128.554 13.0235 142.272L 14.7782 143.232C 22.2804 129.514 30.5627 114.37 38.845 99.2264C 47.1273 84.0828 55.4096 68.9392 62.9118 55.2212L 61.1571 54.2616ZM 13.0235 142.272C -5.67451 176.451 -5.67451 218.543 13.0235 252.721L 14.7781 251.761C -3.59271 218.181 -3.59271 176.812 14.7781 143.232L 13.0235 142.272ZM 13.0234 252.721C 20.5256 266.443 28.808 281.586 37.0903 296.73C 45.3726 311.873 53.6549 327.017 61.157 340.738L 62.9118 339.779C 55.4096 326.057 47.1273 310.914 38.845 295.77C 30.5627 280.627 22.2804 265.483 14.7782 251.762L 13.0234 252.721ZM 61.1571 340.738C 79.8513 374.915 114.419 396 151.859 396L 151.859 394C 115.187 394 81.2734 373.348 62.9117 339.779L 61.1571 340.738ZM 151.859 396L 248.139 396L 248.139 394L 151.859 394L 151.859 396ZM 248.139 396C 285.579 396 320.147 374.915 338.841 340.738L 337.087 339.779C 318.725 373.348 284.811 394 248.139 394L 248.139 396ZM 338.841 340.738C 346.347 327.017 354.629 311.873 362.911 296.73C 371.194 281.586 379.476 266.443 386.981 252.721L 385.227 251.762C 377.721 265.483 369.439 280.627 361.157 295.77C 352.874 310.914 344.592 326.057 337.087 339.779L 338.841 340.738Z"/>
<path id="path11_stroke" d="M 416.992 272.676L 417.87 273.156L 417.87 273.156L 416.992 272.676ZM 416.992 154.316L 417.87 153.837L 417.87 153.837L 416.992 154.316ZM 365.001 59.1761L 364.124 59.6557L 364.124 59.6558L 365.001 59.1761ZM 66.9972 59.1761L 66.1197 58.6966L 66.1196 58.6967L 66.9972 59.1761ZM 15.0129 154.316L 15.8904 154.796L 15.8904 154.796L 15.0129 154.316ZM 15.0129 272.676L 15.8905 272.197L 15.8904 272.197L 15.0129 272.676ZM 66.9972 367.824L 66.1196 368.303L 66.1197 368.303L 66.9972 367.824ZM 365.001 367.824L 364.124 367.344L 365.001 367.824ZM 417.87 273.156C 438.043 236.232 438.043 190.76 417.87 153.837L 416.115 154.796C 435.962 191.121 435.962 235.871 416.115 272.197L 417.87 273.156ZM 417.87 153.837C 409.764 139.008 400.819 122.637 391.874 106.267C 382.929 89.8964 373.984 73.5259 365.879 58.6965L 364.124 59.6558C 372.229 74.485 381.174 90.8553 390.119 107.226C 399.064 123.596 408.009 139.967 416.115 154.796L 417.87 153.837ZM 365.879 58.6966C 345.702 21.7758 308.395 -1 267.99 -1L 267.99 1C 307.626 1 344.279 23.3425 364.124 59.6557L 365.879 58.6966ZM 267.99 -1L 164.008 -1L 164.008 1L 267.99 1L 267.99 -1ZM 164.008 -1C 123.603 -1 86.2958 21.7758 66.1197 58.6966L 67.8747 59.6557C 87.7188 23.3425 124.372 1 164.008 1L 164.008 -1ZM 66.1196 58.6967C 58.0173 73.5259 49.0724 89.8964 40.1275 106.267C 31.1826 122.637 22.2377 139.008 14.1353 153.837L 15.8904 154.796C 23.9928 139.967 32.9377 123.596 41.8826 107.226C 50.8275 90.8554 59.7724 74.4849 67.8747 59.6556L 66.1196 58.6967ZM 14.1354 153.837C -6.04513 190.76 -6.04513 236.232 14.1354 273.156L 15.8904 272.197C -3.96346 235.871 -3.96346 191.122 15.8904 154.796L 14.1354 153.837ZM 14.1353 273.156C 22.2377 287.989 31.1826 304.359 40.1275 320.729C 49.0724 337.1 58.0172 353.47 66.1196 368.303L 67.8748 367.344C 59.7724 352.511 50.8275 336.141 41.8826 319.771C 32.9377 303.4 23.9928 287.03 15.8905 272.197L 14.1353 273.156ZM 66.1197 368.303C 86.2958 405.224 123.603 428 164.008 428L 164.008 426C 124.372 426 87.7188 403.657 67.8747 367.344L 66.1197 368.303ZM 164.008 428L 267.99 428L 267.99 426L 164.008 426L 164.008 428ZM 267.99 428C 308.395 428 345.702 405.224 365.879 368.303L 364.124 367.344C 344.279 403.657 307.626 426 267.99 426L 267.99 428ZM 365.879 368.303C 373.984 353.47 382.929 337.1 391.874 320.729C 400.819 304.359 409.764 287.989 417.87 273.156L 416.115 272.197C 408.009 287.03 399.064 303.4 390.119 319.771C 381.174 336.141 372.229 352.511 364.124 367.344L 365.879 368.303Z"/>
<path id="path12_stroke" d="M 447.881 293.111L 448.758 293.59L 448.758 293.59L 447.881 293.111ZM 447.881 165.881L 448.758 165.402L 448.758 165.402L 447.881 165.881ZM 392.038 63.6109L 391.161 64.0901L 391.161 64.0902L 392.038 63.6109ZM 71.9599 63.6109L 71.0822 63.1316L 71.0822 63.1317L 71.9599 63.6109ZM 16.125 165.881L 17.0026 166.36L 17.0027 166.36L 16.125 165.881ZM 16.125 293.111L 17.0027 292.632L 17.0026 292.632L 16.125 293.111ZM 71.9599 395.389L 71.0822 395.868L 71.0822 395.868L 71.9599 395.389ZM 392.038 395.389L 391.161 394.91L 392.038 395.389ZM 448.758 293.59C 470.414 253.922 470.414 205.07 448.758 165.402L 447.003 166.36C 468.332 205.431 468.332 253.561 447.003 292.632L 448.758 293.59ZM 448.758 165.402C 440.052 149.461 430.445 131.864 420.837 114.267C 411.23 96.6696 401.622 79.0722 392.916 63.1316L 391.161 64.0902C 399.867 80.0307 409.474 97.6279 419.082 115.225C 428.689 132.822 438.297 150.42 447.003 166.36L 448.758 165.402ZM 392.916 63.1316C 371.258 23.4669 331.211 -1 287.842 -1L 287.842 1C 330.441 1 369.834 25.0328 391.161 64.0901L 392.916 63.1316ZM 287.842 -1L 176.157 -1L 176.157 1L 287.842 1L 287.842 -1ZM 176.157 -1C 132.787 -1 92.7405 23.4669 71.0822 63.1316L 72.8376 64.0901C 94.1642 25.0328 133.557 1 176.157 1L 176.157 -1ZM 71.0822 63.1317C 62.3797 79.0723 52.7722 96.6696 43.1647 114.267C 33.5573 131.864 23.9498 149.461 15.2472 165.402L 17.0027 166.36C 25.7052 150.42 35.3127 132.822 44.9201 115.225C 54.5276 97.628 64.1351 80.0307 72.8376 64.0901L 71.0822 63.1317ZM 15.2473 165.402C -6.41577 205.07 -6.41577 253.922 15.2473 293.59L 17.0026 292.632C -4.3342 253.561 -4.3342 205.431 17.0026 166.36L 15.2473 165.402ZM 15.2472 293.59C 23.9498 309.535 33.5573 327.132 43.1647 344.729C 52.7722 362.326 62.3797 379.924 71.0822 395.868L 72.8377 394.91C 64.1351 378.965 54.5276 361.368 44.9201 343.771C 35.3127 326.174 25.7052 308.576 17.0027 292.632L 15.2472 293.59ZM 71.0822 395.868C 92.7405 435.533 132.787 460 176.157 460L 176.157 458C 133.557 458 94.1642 433.967 72.8376 394.91L 71.0822 395.868ZM 176.157 460L 287.842 460L 287.842 458L 176.157 458L 176.157 460ZM 287.842 460C 331.211 460 371.258 435.533 392.916 395.868L 391.161 394.91C 369.834 433.967 330.441 458 287.842 458L 287.842 460ZM 392.916 395.868C 401.622 379.924 411.23 362.326 420.837 344.729C 430.445 327.132 440.052 309.535 448.758 293.59L 447.003 292.632C 438.297 308.576 428.689 326.174 419.082 343.771C 409.474 361.368 399.867 378.965 391.161 394.91L 392.916 395.868Z"/>
<path id="path13_stroke" d="M 478.769 313.546L 479.647 314.025L 479.647 314.025L 478.769 313.546ZM 478.769 177.446L 479.647 176.967L 479.647 176.967L 478.769 177.446ZM 419.075 68.0456L 418.197 68.5246L 418.198 68.5247L 419.075 68.0456ZM 76.9227 68.0456L 76.0449 67.5667L 76.0448 67.5667L 76.9227 68.0456ZM 17.237 177.446L 18.1148 177.925L 18.1149 177.925L 17.237 177.446ZM 17.237 313.546L 18.1149 313.067L 18.1148 313.067L 17.237 313.546ZM 76.9227 422.954L 76.0448 423.433L 76.0449 423.433L 76.9227 422.954ZM 419.075 422.954L 418.198 422.475L 418.197 422.475L 419.075 422.954ZM 479.647 314.025C 502.784 271.612 502.784 219.379 479.647 176.967L 477.891 177.925C 500.703 219.74 500.703 271.251 477.891 313.067L 479.647 314.025ZM 479.647 176.967C 470.34 159.915 460.07 141.091 449.8 122.267C 439.53 103.443 429.26 84.6186 419.953 67.5666L 418.198 68.5247C 427.504 85.5766 437.774 104.401 448.044 123.225C 458.314 142.049 468.584 160.873 477.891 177.925L 479.647 176.967ZM 419.953 67.5667C 396.813 25.1578 354.027 -1 307.693 -1L 307.693 1C 353.257 1 395.389 26.723 418.197 68.5246L 419.953 67.5667ZM 307.693 -1L 188.305 -1L 188.305 1L 307.693 1L 307.693 -1ZM 188.305 -1C 141.971 -1 99.1852 25.1578 76.0449 67.5667L 77.8005 68.5246C 100.609 26.723 142.741 1 188.305 1L 188.305 -1ZM 76.0448 67.5667C 66.7421 84.6186 56.4721 103.443 46.202 122.267C 35.9319 141.091 25.6619 159.915 16.3592 176.967L 18.1149 177.925C 27.4176 160.873 37.6876 142.049 47.9577 123.225C 58.2278 104.401 68.4978 85.5765 77.8005 68.5246L 76.0448 67.5667ZM 16.3592 176.967C -6.78641 219.379 -6.78641 271.612 16.3592 314.025L 18.1148 313.067C -4.70494 271.251 -4.70494 219.74 18.1148 177.925L 16.3592 176.967ZM 16.3591 314.024C 25.6618 331.081 35.9319 349.905 46.202 368.729C 56.4721 387.553 66.7421 406.377 76.0448 423.433L 77.8006 422.476C 68.4978 405.419 58.2277 386.595 47.9577 367.771C 37.6876 348.947 27.4176 330.123 18.1149 313.067L 16.3591 314.024ZM 76.0449 423.433C 99.1852 465.842 141.971 492 188.305 492L 188.305 490C 142.741 490 100.609 464.277 77.8005 422.475L 76.0449 423.433ZM 188.305 492L 307.693 492L 307.693 490L 188.305 490L 188.305 492ZM 307.693 492C 354.027 492 396.813 465.842 419.953 423.433L 418.197 422.475C 395.389 464.277 353.257 490 307.693 490L 307.693 492ZM 419.953 423.433C 429.26 406.377 439.53 387.553 449.8 368.729C 460.07 349.905 470.34 331.081 479.647 314.025L 477.891 313.067C 468.584 330.123 458.314 348.947 448.044 367.771C 437.774 386.595 427.504 405.419 418.198 422.475L 419.953 423.433Z"/>
<path id="path14_stroke" d="M 509.657 333.98L 510.535 334.459L 510.535 334.459L 509.657 333.98ZM 509.657 189.011L 510.535 188.532L 510.535 188.532L 509.657 189.011ZM 446.112 72.4804L 445.234 72.9591L 445.235 72.9592L 446.112 72.4804ZM 81.8854 72.4804L 81.0075 72.0016L 81.0074 72.0017L 81.8854 72.4804ZM 18.3491 189.011L 19.227 189.489L 19.2271 189.489L 18.3491 189.011ZM 18.3491 333.98L 19.2271 333.502L 19.227 333.502L 18.3491 333.98ZM 81.8854 450.52L 81.0074 450.998L 81.0075 450.998L 81.8854 450.52ZM 446.112 450.52L 445.234 450.041L 446.112 450.52ZM 510.535 334.459C 535.155 289.302 535.155 233.689 510.535 188.532L 508.779 189.489C 533.074 234.049 533.074 288.942 508.779 333.502L 510.535 334.459ZM 510.535 188.532C 500.628 170.368 489.696 150.318 478.763 130.267C 467.83 110.216 456.898 90.1649 446.99 72.0015L 445.235 72.9592C 455.142 91.1224 466.074 111.173 477.007 131.224C 487.94 151.275 498.872 171.326 508.779 189.489L 510.535 188.532ZM 446.99 72.0016C 422.368 26.8487 376.843 -1 327.544 -1L 327.544 1C 376.072 1 420.943 28.4133 445.234 72.9591L 446.99 72.0016ZM 327.544 -1L 200.454 -1L 200.454 1L 327.544 1L 327.544 -1ZM 200.454 -1C 151.154 -1 105.63 26.8487 81.0075 72.0016L 82.7634 72.9591C 107.055 28.4133 151.926 1 200.454 1L 200.454 -1ZM 81.0074 72.0017C 71.1046 90.1649 60.1719 110.216 49.2393 130.267C 38.3066 150.318 27.374 170.369 17.4711 188.532L 19.2271 189.489C 29.1299 171.326 40.0626 151.275 50.9952 131.224C 61.9279 111.173 72.8605 91.1223 82.7634 72.9591L 81.0074 72.0017ZM 17.4712 188.532C -7.15705 233.689 -7.15705 289.302 17.4712 334.459L 19.227 333.502C -5.07567 288.942 -5.07567 234.049 19.227 189.489L 17.4712 188.532ZM 17.471 334.459C 27.374 352.627 38.3066 372.678 49.2393 392.729C 60.1719 412.78 71.1045 432.83 81.0074 450.998L 82.7635 450.041C 72.8605 431.873 61.9279 411.822 50.9952 391.771C 40.0626 371.72 29.13 351.67 19.2271 333.502L 17.471 334.459ZM 81.0075 450.998C 105.63 496.151 151.154 524 200.454 524L 200.454 522C 151.926 522 107.055 494.587 82.7634 450.041L 81.0075 450.998ZM 200.454 524L 327.544 524L 327.544 522L 200.454 522L 200.454 524ZM 327.544 524C 376.843 524 422.368 496.151 446.99 450.998L 445.234 450.041C 420.943 494.587 376.072 522 327.544 522L 327.544 524ZM 446.99 450.998C 456.898 432.831 467.83 412.78 478.763 392.729C 489.695 372.678 500.628 352.627 510.535 334.459L 508.779 333.502C 498.872 351.669 487.94 371.72 477.007 391.771C 466.074 411.822 455.142 431.873 445.234 450.041L 446.99 450.998Z"/>
<path id="path15_stroke" d="M 540.546 354.415L 541.424 354.894L 541.424 354.894L 540.546 354.415ZM 540.546 200.575L 541.424 200.097L 541.424 200.097L 540.546 200.575ZM 473.15 76.9151L 472.271 77.3937L 472.272 77.3938L 473.15 76.9151ZM 86.8482 76.9151L 85.9701 76.4366L 85.9701 76.4366L 86.8482 76.9151ZM 19.4611 200.575L 20.3392 201.054L 20.3392 201.054L 19.4611 200.575ZM 19.4611 354.415L 20.3393 353.937L 20.3392 353.937L 19.4611 354.415ZM 86.8482 478.085L 85.97 478.563L 85.9701 478.563L 86.8482 478.085ZM 473.15 478.085L 472.271 477.606L 473.15 478.085ZM 541.424 354.894C 567.525 306.992 567.525 247.998 541.424 200.097L 539.668 201.054C 565.444 248.359 565.444 306.632 539.668 353.937L 541.424 354.894ZM 541.424 200.097C 530.916 180.822 519.321 159.544 507.726 138.267C 496.13 116.989 484.535 95.7112 474.028 76.4365L 472.272 77.3938C 482.779 96.6683 494.374 117.946 505.97 139.224C 517.565 160.501 529.16 181.779 539.668 201.054L 541.424 200.097ZM 474.028 76.4366C 447.923 28.5396 399.659 -1 347.395 -1L 347.395 1C 398.887 1 446.498 30.1037 472.271 77.3937L 474.028 76.4366ZM 347.395 -1L 212.603 -1L 212.603 1L 347.395 1L 347.395 -1ZM 212.603 -1C 160.338 -1 112.075 28.5396 85.9701 76.4366L 87.7262 77.3937C 113.5 30.1037 161.111 1 212.603 1L 212.603 -1ZM 85.9701 76.4366C 75.467 95.7112 63.8718 116.989 52.2766 138.267C 40.6814 159.544 29.0861 180.822 18.5831 200.097L 20.3392 201.054C 30.8423 181.779 42.4375 160.501 54.0327 139.224C 65.628 117.946 77.2232 96.6682 87.7263 77.3936L 85.9701 76.4366ZM 18.5831 200.097C -7.52771 247.998 -7.52771 306.992 18.5831 354.894L 20.3392 353.937C -5.44639 306.632 -5.44639 248.359 20.3392 201.054L 18.5831 200.097ZM 18.583 354.894C 29.0861 374.173 40.6814 395.451 52.2766 416.729C 63.8718 438.006 75.467 459.284 85.97 478.563L 87.7263 477.606C 77.2232 458.327 65.628 437.049 54.0327 415.771C 42.4375 394.494 30.8423 373.216 20.3393 353.937L 18.583 354.894ZM 85.9701 478.563C 112.075 526.46 160.338 556 212.603 556L 212.603 554C 161.111 554 113.5 524.896 87.7262 477.606L 85.9701 478.563ZM 212.603 556L 347.395 556L 347.395 554L 212.603 554L 212.603 556ZM 347.395 556C 399.659 556 447.923 526.46 474.028 478.563L 472.271 477.606C 446.498 524.896 398.887 554 347.395 554L 347.395 556ZM 474.028 478.563C 484.535 459.284 496.13 438.006 507.726 416.729C 519.321 395.451 530.916 374.173 541.424 354.894L 539.668 353.937C 529.16 373.216 517.565 394.494 505.97 415.771C 494.374 437.049 482.779 458.327 472.271 477.606L 474.028 478.563Z"/>
<path id="path16_stroke" d="M 571.434 374.85L 572.312 375.328L 572.312 375.328L 571.434 374.85ZM 571.434 212.14L 572.312 211.662L 572.312 211.661L 571.434 212.14ZM 500.187 81.3499L 499.309 81.8282L 499.309 81.8283L 500.187 81.3499ZM 91.8109 81.3499L 90.9328 80.8715L 90.9327 80.8716L 91.8109 81.3499ZM 20.5732 212.14L 21.4513 212.618L 21.4514 212.618L 20.5732 212.14ZM 20.5732 374.85L 21.4515 374.372L 21.4513 374.371L 20.5732 374.85ZM 91.8109 505.65L 90.9327 506.128L 90.9328 506.128L 91.8109 505.65ZM 500.187 505.65L 499.309 505.172L 500.187 505.65ZM 572.312 375.328C 599.896 324.682 599.896 262.308 572.312 211.662L 570.556 212.618C 597.815 262.668 597.815 324.322 570.556 374.372L 572.312 375.328ZM 572.312 211.661C 561.204 191.276 548.946 168.771 536.689 146.267C 524.431 123.762 512.173 101.257 501.065 80.8714L 499.309 81.8283C 510.417 102.214 522.674 124.719 534.932 147.223C 547.19 169.728 559.448 192.232 570.556 212.618L 572.312 211.661ZM 501.065 80.8715C 473.478 30.2305 422.475 -1 367.246 -1L 367.246 1C 421.702 1 472.052 31.7941 499.309 81.8282L 501.065 80.8715ZM 367.246 -1L 224.751 -1L 224.751 1L 367.246 1L 367.246 -1ZM 224.751 -1C 169.522 -1 118.519 30.2305 90.9328 80.8715L 92.6891 81.8282C 119.945 31.7941 170.295 1 224.751 1L 224.751 -1ZM 90.9327 80.8716C 79.8295 101.257 67.5717 123.762 55.3139 146.267C 43.0561 168.771 30.7983 191.276 19.695 211.662L 21.4514 212.618C 32.5546 192.232 44.8124 169.728 57.0703 147.223C 69.3281 124.719 81.5859 102.214 92.6891 81.8282L 90.9327 80.8716ZM 19.6951 211.661C -7.89836 262.308 -7.89836 324.682 19.6951 375.328L 21.4513 374.371C -5.81711 324.322 -5.81711 262.668 21.4513 212.618L 19.6951 211.661ZM 19.695 375.328C 30.7982 395.719 43.0561 418.224 55.3139 440.728C 67.5717 463.233 79.8295 485.737 90.9327 506.128L 92.6892 505.172C 81.5859 484.781 69.3281 462.276 57.0703 439.772C 44.8124 417.267 32.5546 394.763 21.4515 374.372L 19.695 375.328ZM 90.9328 506.128C 118.519 556.77 169.522 588 224.751 588L 224.751 586C 170.295 586 119.945 555.206 92.6891 505.172L 90.9328 506.128ZM 224.751 588L 367.246 588L 367.246 586L 224.751 586L 224.751 588ZM 367.246 588C 422.475 588 473.478 556.77 501.065 506.128L 499.309 505.172C 472.052 555.206 421.702 586 367.246 586L 367.246 588ZM 501.065 506.128C 512.173 485.737 524.431 463.233 536.689 440.728C 548.946 418.224 561.204 395.719 572.312 375.328L 570.556 374.372C 559.448 394.763 547.19 417.267 534.932 439.772C 522.674 462.276 510.417 484.781 499.309 505.172L 501.065 506.128Z"/>
<path id="path17_stroke" d="M 602.322 395.285L 603.201 395.763L 603.201 395.763L 602.322 395.285ZM 602.322 223.705L 603.201 223.226L 603.201 223.226L 602.322 223.705ZM 527.224 85.7846L 526.346 86.2628L 526.346 86.2629L 527.224 85.7846ZM 96.7737 85.7846L 95.8954 85.3064L 95.8954 85.3065L 96.7737 85.7846ZM 21.6853 223.705L 22.5635 224.183L 22.5636 224.183L 21.6853 223.705ZM 21.6853 395.285L 22.5636 394.807L 22.5635 394.806L 21.6853 395.285ZM 96.7737 533.215L 95.8954 533.693L 95.8954 533.694L 96.7737 533.215ZM 527.224 533.215L 526.346 532.737L 527.224 533.215ZM 603.201 395.763C 632.266 342.372 632.266 276.617 603.201 223.226L 601.444 224.183C 630.185 276.977 630.185 342.012 601.444 394.806L 603.201 395.763ZM 603.201 223.226C 591.492 201.729 578.572 177.998 565.651 154.266C 552.731 130.535 539.81 106.804 528.102 85.3063L 526.346 86.2629C 538.054 107.76 550.974 131.491 563.895 155.223C 576.815 178.954 589.736 202.686 601.444 224.183L 603.201 223.226ZM 528.102 85.3064C 499.033 31.9213 445.291 -1 387.097 -1L 387.097 1C 444.518 1 497.607 33.4845 526.346 86.2628L 528.102 85.3064ZM 387.097 -1L 236.9 -1L 236.9 1L 387.097 1L 387.097 -1ZM 236.9 -1C 178.707 -1 124.964 31.9213 95.8954 85.3064L 97.6519 86.2628C 126.39 33.4845 179.48 1 236.9 1L 236.9 -1ZM 95.8954 85.3065C 84.192 106.804 71.2716 130.535 58.3512 154.266C 45.4308 177.998 32.5104 201.729 20.807 223.226L 22.5636 224.183C 34.267 202.686 47.1874 178.954 60.1078 155.223C 73.0282 131.491 85.9486 107.76 97.652 86.2628L 95.8954 85.3065ZM 20.8071 223.226C -8.26902 276.617 -8.26902 342.372 20.8071 395.763L 22.5635 394.806C -6.18783 342.012 -6.18783 276.977 22.5635 224.183L 20.8071 223.226ZM 20.8069 395.763C 32.5104 417.265 45.4308 440.997 58.3512 464.728C 71.2716 488.46 84.192 512.191 95.8954 533.693L 97.652 532.737C 85.9486 511.235 73.0281 487.503 60.1078 463.772C 47.1873 440.04 34.267 416.309 22.5636 394.807L 20.8069 395.763ZM 95.8954 533.694C 124.964 587.079 178.707 620 236.9 620L 236.9 618C 179.48 618 126.39 585.516 97.6519 532.737L 95.8954 533.694ZM 236.9 620L 387.097 620L 387.097 618L 236.9 618L 236.9 620ZM 387.097 620C 445.291 620 499.033 587.079 528.102 533.694L 526.346 532.737C 497.607 585.516 444.518 618 387.097 618L 387.097 620ZM 528.102 533.694C 539.81 512.191 552.731 488.46 565.651 464.728C 578.572 440.997 591.492 417.265 603.201 395.763L 601.444 394.806C 589.736 416.309 576.815 440.04 563.895 463.772C 550.974 487.503 538.054 511.235 526.346 532.737L 528.102 533.694Z"/>
<path id="path18_stroke" d="M 633.211 415.719L 634.089 416.197L 634.089 416.197L 633.211 415.719ZM 633.211 235.269L 634.089 234.791L 634.089 234.791L 633.211 235.269ZM 554.261 90.2194L 553.383 90.6974L 553.383 90.6975L 554.261 90.2194ZM 101.736 90.2194L 100.858 89.7413L 100.858 89.7414L 101.736 90.2194ZM 22.7973 235.269L 23.6756 235.747L 23.6757 235.747L 22.7973 235.269ZM 22.7973 415.719L 23.6758 415.241L 23.6756 415.241L 22.7973 415.719ZM 101.736 560.781L 100.858 561.259L 100.858 561.259L 101.736 560.781ZM 554.261 560.781L 553.383 560.303L 554.261 560.781ZM 634.089 416.197C 664.637 360.062 664.637 290.927 634.089 234.791L 632.332 235.747C 662.556 291.286 662.556 359.702 632.332 415.241L 634.089 416.197ZM 634.089 234.791C 621.78 212.183 608.197 187.225 594.614 162.266C 581.031 137.308 567.448 112.35 555.139 89.7412L 553.383 90.6975C 565.691 113.306 579.274 138.264 592.857 163.222C 606.44 188.181 620.023 213.139 632.332 235.747L 634.089 234.791ZM 555.139 89.7413C 524.588 33.6121 468.107 -1 406.948 -1L 406.948 1C 467.333 1 523.162 35.1749 553.383 90.6974L 555.139 89.7413ZM 406.948 -1L 249.049 -1L 249.049 1L 406.948 1L 406.948 -1ZM 249.049 -1C 187.891 -1 131.409 33.6121 100.858 89.7413L 102.615 90.6974C 132.835 35.1749 188.664 1 249.049 1L 249.049 -1ZM 100.858 89.7414C 88.5545 112.35 74.9715 137.308 61.3885 162.266C 47.8056 187.225 34.2226 212.183 21.919 234.791L 23.6757 235.747C 35.9793 213.139 49.5623 188.181 63.1452 163.222C 76.7282 138.264 90.3112 113.306 102.615 90.6974L 100.858 89.7414ZM 21.919 234.791C -8.63968 290.926 -8.63968 360.062 21.919 416.197L 23.6756 415.241C -6.55855 359.702 -6.55855 291.286 23.6756 235.747L 21.919 234.791ZM 21.9189 416.197C 34.2225 438.812 47.8056 463.77 61.3885 488.728C 74.9715 513.686 88.5545 538.644 100.858 561.259L 102.615 560.303C 90.3112 537.688 76.7282 512.73 63.1452 487.772C 49.5622 462.814 35.9793 437.856 23.6758 415.241L 21.9189 416.197ZM 100.858 561.259C 131.409 617.388 187.891 652 249.049 652L 249.049 650C 188.664 650 132.835 615.825 102.615 560.303L 100.858 561.259ZM 249.049 652L 406.948 652L 406.948 650L 249.049 650L 249.049 652ZM 406.948 652C 468.107 652 524.588 617.388 555.139 561.259L 553.383 560.303C 523.162 615.825 467.333 650 406.948 650L 406.948 652ZM 555.139 561.259C 567.448 538.644 581.031 513.686 594.614 488.728C 608.197 463.77 621.78 438.812 634.089 416.197L 632.332 415.241C 620.023 437.856 606.44 462.814 592.857 487.772C 579.274 512.73 565.691 537.688 553.383 560.303L 555.139 561.259Z"/>
<path id="path19_stroke" d="M 664.099 436.154L 664.977 436.632L 664.977 436.632L 664.099 436.154ZM 664.099 246.834L 664.977 246.356L 664.977 246.356L 664.099 246.834ZM 581.298 94.6541L 580.42 95.132L 580.42 95.1321L 581.298 94.6541ZM 106.699 94.6541L 105.821 94.1762L 105.821 94.1762L 106.699 94.6541ZM 23.9094 246.834L 24.7878 247.312L 24.7878 247.312L 23.9094 246.834ZM 23.9094 436.154L 24.7879 435.676L 24.7878 435.676L 23.9094 436.154ZM 106.699 588.346L 105.821 588.824L 105.821 588.824L 106.699 588.346ZM 581.298 588.346L 580.42 587.868L 581.298 588.346ZM 664.977 436.632C 697.008 377.752 697.008 305.236 664.977 246.356L 663.221 247.312C 694.927 305.596 694.927 377.392 663.221 435.676L 664.977 436.632ZM 664.977 246.356C 652.068 222.636 637.823 196.451 623.577 170.266C 609.331 144.081 595.086 117.896 582.176 94.1761L 580.42 95.1321C 593.329 118.852 607.575 145.037 621.82 171.222C 636.066 197.407 650.311 223.592 663.221 247.312L 664.977 246.356ZM 582.176 94.1762C 550.143 35.3029 490.923 -1 426.8 -1L 426.8 1C 490.149 1 548.717 36.8653 580.42 95.132L 582.176 94.1762ZM 426.8 -1L 261.198 -1L 261.198 1L 426.8 1L 426.8 -1ZM 261.198 -1C 197.075 -1 137.854 35.3029 105.821 94.1762L 107.578 95.132C 139.281 36.8653 197.848 1 261.198 1L 261.198 -1ZM 105.821 94.1762C 92.917 117.896 78.6715 144.081 64.4259 170.266C 50.1803 196.451 35.9347 222.636 23.031 246.356L 24.7878 247.312C 37.6916 223.592 51.9372 197.407 66.1827 171.222C 80.4283 145.037 94.6739 118.852 107.578 95.132L 105.821 94.1762ZM 23.031 246.356C -9.01035 305.236 -9.01035 377.752 23.031 436.632L 24.7878 435.676C -6.92926 377.392 -6.92926 305.596 24.7878 247.312L 23.031 246.356ZM 23.0309 436.632C 35.9347 460.358 50.1803 486.543 64.4259 512.728C 78.6715 538.913 92.917 565.098 105.821 588.824L 107.578 587.868C 94.6739 564.142 80.4283 537.957 66.1827 511.772C 51.9371 485.587 37.6916 459.402 24.7879 435.676L 23.0309 436.632ZM 105.821 588.824C 137.854 647.697 197.075 684 261.198 684L 261.198 682C 197.848 682 139.281 646.135 107.578 587.868L 105.821 588.824ZM 261.198 684L 426.8 684L 426.8 682L 261.198 682L 261.198 684ZM 426.8 684C 490.923 684 550.143 647.697 582.176 588.824L 580.42 587.868C 548.717 646.135 490.149 682 426.8 682L 426.8 684ZM 582.176 588.824C 595.086 565.098 609.331 538.913 623.577 512.728C 637.823 486.543 652.068 460.358 664.977 436.632L 663.221 435.676C 650.311 459.402 636.066 485.587 621.82 511.772C 607.575 537.957 593.329 564.142 580.42 587.868L 582.176 588.824Z"/>
<path id="path20_stroke" d="M 694.987 456.589L 695.866 457.067L 695.866 457.067L 694.987 456.589ZM 694.987 258.399L 695.866 257.921L 695.866 257.921L 694.987 258.399ZM 608.335 99.0889L 607.457 99.5667L 607.457 99.5668L 608.335 99.0889ZM 111.662 99.0889L 110.783 98.6111L 110.783 98.6111L 111.662 99.0889ZM 25.0215 258.399L 25.8999 258.877L 25.9 258.876L 25.0215 258.399ZM 25.0215 456.589L 25.9 456.111L 25.8999 456.111L 25.0215 456.589ZM 111.662 615.911L 110.783 616.389L 110.783 616.389L 111.662 615.911ZM 608.335 615.911L 607.457 615.433L 608.335 615.911ZM 695.866 457.067C 729.378 395.442 729.378 319.545 695.866 257.921L 694.109 258.876C 727.297 319.905 727.297 395.082 694.109 456.111L 695.866 457.067ZM 695.866 257.921C 682.356 233.09 667.448 205.678 652.54 178.266C 637.632 150.854 622.723 123.442 609.214 98.611L 607.457 99.5668C 620.966 124.398 635.875 151.81 650.783 179.222C 665.691 206.633 680.599 234.045 694.109 258.877L 695.866 257.921ZM 609.214 98.6111C 575.698 36.9937 513.738 -1 446.651 -1L 446.651 1C 512.964 1 574.271 38.5558 607.457 99.5667L 609.214 98.6111ZM 446.651 -1L 273.346 -1L 273.346 1L 446.651 1L 446.651 -1ZM 273.346 -1C 206.259 -1 144.299 36.9937 110.783 98.6111L 112.54 99.5667C 145.726 38.5558 207.033 1 273.346 1L 273.346 -1ZM 110.783 98.6111C 97.2795 123.442 82.3714 150.854 67.4632 178.266C 52.5551 205.678 37.6469 233.09 24.143 257.921L 25.9 258.876C 39.4039 234.045 54.312 206.633 69.2202 179.222C 84.1283 151.81 99.0365 124.398 112.54 99.5666L 110.783 98.6111ZM 24.143 257.921C -9.38102 319.545 -9.38102 395.442 24.143 457.067L 25.8999 456.111C -7.29997 395.082 -7.29997 319.905 25.8999 258.877L 24.143 257.921ZM 24.1429 457.067C 37.6469 481.904 52.5551 509.316 67.4632 536.728C 82.3714 564.14 97.2795 591.551 110.783 616.389L 112.54 615.433C 99.0365 590.596 84.1283 563.184 69.2202 535.772C 54.312 508.36 39.4039 480.949 25.9 456.111L 24.1429 457.067ZM 110.783 616.389C 144.299 678.006 206.259 716 273.346 716L 273.346 714C 207.033 714 145.726 676.444 112.54 615.433L 110.783 616.389ZM 273.346 716L 446.651 716L 446.651 714L 273.346 714L 273.346 716ZM 446.651 716C 513.738 716 575.698 678.006 609.214 616.389L 607.457 615.433C 574.271 676.444 512.964 714 446.651 714L 446.651 716ZM 609.214 616.389C 622.723 591.552 637.632 564.14 652.54 536.728C 667.448 509.316 682.356 481.904 695.866 457.067L 694.109 456.111C 680.599 480.949 665.691 508.36 650.783 535.772C 635.875 563.184 620.966 590.596 607.457 615.433L 609.214 616.389Z"/>
<path id="path21_stroke" d="M 725.876 477.024L 726.754 477.501L 726.754 477.501L 725.876 477.024ZM 725.876 269.963L 726.754 269.486L 726.754 269.486L 725.876 269.963ZM 635.372 103.524L 634.494 104.001L 634.494 104.001L 635.372 103.524ZM 116.625 103.524L 115.746 103.046L 115.746 103.046L 116.625 103.524ZM 26.1335 269.963L 27.012 270.441L 27.0121 270.441L 26.1335 269.963ZM 26.1335 477.024L 27.0121 476.546L 27.012 476.546L 26.1335 477.024ZM 116.625 643.476L 115.746 643.954L 115.746 643.954L 116.625 643.476ZM 635.372 643.476L 634.494 642.999L 635.372 643.476ZM 726.754 477.501C 761.749 413.132 761.749 333.855 726.754 269.486L 724.997 270.441C 759.668 334.214 759.668 412.773 724.997 476.546L 726.754 477.501ZM 726.754 269.486C 712.644 243.543 697.073 214.905 681.503 186.266C 665.932 157.627 650.361 128.988 636.251 103.046L 634.494 104.001C 648.604 129.944 664.175 158.582 679.745 187.221C 695.316 215.86 710.887 244.499 724.997 270.441L 726.754 269.486ZM 636.251 103.046C 601.253 38.6845 536.554 -1 466.502 -1L 466.502 1C 535.78 1 599.826 40.2463 634.494 104.001L 636.251 103.046ZM 466.502 -1L 285.495 -1L 285.495 1L 466.502 1L 466.502 -1ZM 285.495 -1C 215.443 -1 150.744 38.6845 115.746 103.046L 117.503 104.001C 152.171 40.2463 216.217 1 285.495 1L 285.495 -1ZM 115.746 103.046C 101.642 128.989 86.0713 157.627 70.5006 186.266C 54.9298 214.905 39.3591 243.543 25.255 269.486L 27.0121 270.441C 41.1162 244.499 56.6869 215.86 72.2577 187.221C 87.8284 158.583 103.399 129.944 117.503 104.001L 115.746 103.046ZM 25.255 269.486C -9.75168 333.855 -9.75168 413.132 25.255 477.501L 27.012 476.546C -7.67068 412.773 -7.67068 334.214 27.012 270.441L 25.255 269.486ZM 25.2549 477.501C 39.3591 503.45 54.9298 532.089 70.5006 560.728C 86.0713 589.366 101.642 618.005 115.746 643.954L 117.503 642.999C 103.399 617.05 87.8284 588.411 72.2577 559.772C 56.6869 531.134 41.1162 502.495 27.0121 476.546L 25.2549 477.501ZM 115.746 643.954C 150.744 708.315 215.443 748 285.495 748L 285.495 746C 216.217 746 152.171 706.754 117.503 642.999L 115.746 643.954ZM 285.495 748L 466.502 748L 466.502 746L 285.495 746L 285.495 748ZM 466.502 748C 536.554 748 601.253 708.315 636.251 643.954L 634.494 642.999C 599.826 706.754 535.78 746 466.502 746L 466.502 748ZM 636.251 643.954C 650.361 618.005 665.932 589.366 681.503 560.728C 697.073 532.089 712.644 503.45 726.754 477.501L 724.997 476.546C 710.887 502.495 695.316 531.134 679.745 559.772C 664.175 588.411 648.604 617.05 634.494 642.999L 636.251 643.954Z"/>
<path id="path22_fill" fill-rule="evenodd" d="M 5.79411 0L 0 17.0416L 4.05432 17.0416L 4.91915 14.3238L 11.5282 14.3238L 12.3926 17.0416L 16.447 17.0416L 10.6529 0L 5.79411 0ZM 8.22368 3.978L 10.4228 10.871L 6.02417 10.871L 8.22368 3.978Z"/>
<path id="path23_fill" fill-rule="evenodd" d="M 0 0L 13.039 0L 13.039 17.3876L 0 17.3876L 0 0Z"/>
<path id="path24_fill" fill-rule="evenodd" d="M 6.51975 3.25494C 8.35394 3.25494 9.58663 4.51728 9.58663 6.39597C 9.58663 8.27428 8.35394 9.53662 6.51975 9.53662C 4.68556 9.53662 3.45288 8.27428 3.45288 6.39597C 3.45288 4.51728 4.68556 3.25494 6.51975 3.25494ZM 7.26081 12.792C 10.5009 12.792 13.039 9.98262 13.039 6.39598C 13.039 2.80934 10.5009 0 7.26081 0C 5.72502 0 4.51838 0.492277 3.67526 1.46345L 3.45281 1.71917L 3.45281 0.345787L 0 0.345787L 0 17.3877L 3.45281 17.3877L 3.45281 11.0724L 3.67526 11.3281C 4.51874 12.2993 5.72502 12.792 7.26081 12.792Z"/>
<path id="path25_fill" fill-rule="evenodd" d="M 0 22.0548L 50.8868 22.0548L 50.8868 0L 0 0L 0 22.0548Z"/>
<path id="path26_fill" fill-rule="evenodd" d="M 0 17.1129L 3.45281 17.1129L 3.45281 0L 0 0L 0 17.1129Z"/>
<path id="path27_fill" fill-rule="evenodd" d="M 6.51975 9.53662C 4.68556 9.53662 3.45288 8.27428 3.45288 6.3956C 3.45288 4.51728 4.68556 3.25494 6.51975 3.25494C 8.35394 3.25494 9.58663 4.51728 9.58663 6.3956C 9.58663 8.27428 8.35394 9.53662 6.51975 9.53662ZM 13.039 12.4458L 13.039 0.345787L 9.58655 0.345787L 9.58655 1.71917L 9.36411 1.46345C 8.52098 0.492277 7.3147 0 5.77855 0C 2.53843 0 0 2.80934 0 6.39562C 0 9.98225 2.53843 12.792 5.77855 12.792C 7.31434 12.792 8.52098 12.2993 9.36411 11.3281L 9.58655 11.0724L 9.58655 12.4458L 13.039 12.4458Z"/>
</defs>
</svg>
