<?xml version="1.0" encoding="UTF-8"?>
<svg width="1163px" height="460px" viewBox="0 0 1163 460" version="1.1" xmlns="http://www.w3.org/2000/svg" xmlns:xlink="http://www.w3.org/1999/xlink">
    <!-- Generator: sketchtool 49.1 (51147) - http://www.bohemiancoding.com/sketch -->
    <title>283DBA1C-7587-4CA6-9B40-CD5585824A75</title>
    <desc>Created with sketchtool.</desc>
    <defs></defs>
    <g id="1360" stroke="none" stroke-width="1" fill="none" fill-rule="evenodd">
        <g id="apla-case-2" transform="translate(-99.000000, -5677.000000)">
            <g id="-solution-scheme" transform="translate(59.000000, 5673.000000)">
                <g id="icon-Supplier-Company-" transform="translate(42.000000, 84.000000)" stroke="#FFFFFF">
                    <g id="icon-google" stroke-width="1" fill-rule="evenodd">
                        <g id="Group-Copy-2" stroke-width="3">
                            <path d="M123.553064,76.6307569 C129.482312,66.3396557 129.482312,53.6603443 123.553064,43.3692431 C118.750682,35.0335784 112.951228,24.9664216 108.148846,16.6307569 C102.219598,6.33965566 91.2625155,0 79.4044158,0 L48.5955842,0 C36.7374845,0 25.780005,6.33965566 19.8511536,16.6307569 C15.048772,24.9664216 9.24892086,35.0335784 4.44693624,43.3692431 C-1.48231208,53.6603443 -1.48231208,66.3396557 4.44693624,76.6307569 C9.24892086,84.9664216 15.048772,95.0335784 19.8511536,103.369243 C25.780005,113.660344 36.7374845,120 48.5955842,120 L79.4044158,120 C91.2625155,120 102.219598,113.660344 108.148846,103.369243 C112.951228,95.0335784 118.750682,84.9664216 123.553064,76.6307569 Z" id="Page-1"></path>
                        </g>
                    </g>
                    <rect id="Rectangle-20" stroke-width="3" x="29.5" y="29.5" width="23" height="59"></rect>
                    <path d="M52.5,59.8091575 L52.5,88.5 L74.5,88.5 L74.5,45.7397837 L52.5,59.8091575 Z" id="Rectangle-20-Copy" stroke-width="3"></path>
                    <path d="M74.5,59.8091575 L74.5,88.5 L96.5,88.5 L96.5,45.7397837 L74.5,59.8091575 Z" id="Rectangle-20-Copy-2" stroke-width="3"></path>
                </g>
                <g id="icon-Transport-Company" transform="translate(300.000000, 84.000000)" stroke="#FFFFFF">
                    <g id="icon-google">
                        <g id="Group-Copy-2" stroke-width="3">
                            <path d="M123.553064,76.6307569 C129.482312,66.3396557 129.482312,53.6603443 123.553064,43.3692431 C118.750682,35.0335784 112.951228,24.9664216 108.148846,16.6307569 C102.219598,6.33965566 91.2625155,0 79.4044158,0 L48.5955842,0 C36.7374845,0 25.780005,6.33965566 19.8511536,16.6307569 C15.048772,24.9664216 9.24892086,35.0335784 4.44693624,43.3692431 C-1.48231208,53.6603443 -1.48231208,66.3396557 4.44693624,76.6307569 C9.24892086,84.9664216 15.048772,95.0335784 19.8511536,103.369243 C25.780005,113.660344 36.7374845,120 48.5955842,120 L79.4044158,120 C91.2625155,120 102.219598,113.660344 108.148846,103.369243 C112.951228,95.0335784 118.750682,84.9664216 123.553064,76.6307569 Z" id="Page-1"></path>
                        </g>
                    </g>
                    <g id="plane" transform="translate(35.000000, 35.000000)" stroke-linecap="round" stroke-linejoin="round">
                        <path d="M49.5591374,1.44087422 C47.6098821,-0.508281061 44.4397149,-0.475708812 42.5310006,1.51319059 L32.0833744,12.400191 L6.58726585,3.96258391 L1.23515593,9.31479219 L22.4870097,22.3999712 L11.7335829,33.6054227 L4.83752803,32.4732631 L0,37.31079 L10.1382395,40.8617628 L13.6892132,51 L18.5267412,46.1624731 L17.3945814,39.2664199 L28.6000355,28.5130952 L41.6852176,49.7648444 L47.0374271,44.4126361 L38.5999176,18.9165335 L49.4867214,8.4690094 C51.4757209,6.56029551 51.5082931,3.39012911 49.5591374,1.44087422 Z" id="Shape" stroke-width="3" fill-rule="nonzero"></path>
                    </g>
                </g>
                <g id="icon-Recipient-Company-" transform="translate(1073.000000, 84.000000)">
                    <g id="icon-google" stroke="#FFFFFF">
                        <g id="Group-Copy-2" stroke-width="3">
                            <path d="M123.553064,76.6307569 C129.482312,66.3396557 129.482312,53.6603443 123.553064,43.3692431 C118.750682,35.0335784 112.951228,24.9664216 108.148846,16.6307569 C102.219598,6.33965566 91.2625155,0 79.4044158,0 L48.5955842,0 C36.7374845,0 25.780005,6.33965566 19.8511536,16.6307569 C15.048772,24.9664216 9.24892086,35.0335784 4.44693624,43.3692431 C-1.48231208,53.6603443 -1.48231208,66.3396557 4.44693624,76.6307569 C9.24892086,84.9664216 15.048772,95.0335784 19.8511536,103.369243 C25.780005,113.660344 36.7374845,120 48.5955842,120 L79.4044158,120 C91.2625155,120 102.219598,113.660344 108.148846,103.369243 C112.951228,95.0335784 118.750682,84.9664216 123.553064,76.6307569 Z" id="Page-1"></path>
                        </g>
                    </g>
                    <g id="shopping-cart" transform="translate(36.000000, 31.000000)" fill="#FFFFFF">
                        <path d="M13.9280206,34.6251714 L42.9040317,34.6251714 C46.1896368,34.6251714 48.8699989,31.9448093 48.8699989,28.6592042 L48.8699989,16.4678799 C48.8699989,16.4570719 48.8699989,16.4354561 48.8699989,16.4246482 C48.8699989,16.3922245 48.8699989,16.3706087 48.8699989,16.3381849 C48.8699989,16.3165691 48.8699989,16.2949533 48.859191,16.2733374 C48.859191,16.2517216 48.8483831,16.2192979 48.8483831,16.1976821 C48.8483831,16.1760662 48.8375752,16.1544504 48.8375752,16.1328346 C48.8267673,16.1112188 48.8267673,16.0896029 48.8159594,16.0571792 C48.8051515,16.0355634 48.8051515,16.0139476 48.7943436,15.9923317 C48.7835356,15.9707159 48.7835356,15.9491001 48.7727277,15.9274843 C48.7619198,15.9058685 48.7511119,15.8842526 48.740304,15.8518289 C48.7294961,15.8302131 48.7186882,15.8085972 48.7078803,15.7977893 C48.6970723,15.7761735 48.6862644,15.7545577 48.6754565,15.7329419 C48.6646486,15.711326 48.6538407,15.7005181 48.6430328,15.6789023 C48.6322249,15.6572865 48.6106091,15.6356707 48.5998011,15.6140548 C48.5889932,15.592439 48.5781853,15.5816311 48.5565695,15.5600153 C48.5457616,15.5383995 48.5241458,15.5275915 48.5133378,15.5059757 C48.5025299,15.4843599 48.4809141,15.473552 48.4701062,15.4519362 C48.4592983,15.4303203 48.4376825,15.4195124 48.4268746,15.4087045 C48.4052587,15.3870887 48.3944508,15.3762808 48.372835,15.354665 C48.3512192,15.343857 48.3404113,15.3222412 48.3187954,15.3114333 C48.2971796,15.3006254 48.2755638,15.2790096 48.253948,15.2682017 C48.2323321,15.2573938 48.2215242,15.2465858 48.1999084,15.2357779 C48.1782926,15.22497 48.1566768,15.2141621 48.1350609,15.1925463 C48.1134451,15.1817384 48.0918293,15.1709305 48.0702135,15.1601225 C48.0485976,15.1493146 48.0269818,15.1385067 48.005366,15.1276988 C47.9837502,15.1168909 47.9621344,15.106083 47.9405185,15.0952751 C47.9189027,15.0844672 47.8972869,15.0844672 47.8756711,15.0736593 C47.8540552,15.0628513 47.8216315,15.0520434 47.8000157,15.0520434 C47.7783999,15.0520434 47.756784,15.0412355 47.7459761,15.0412355 C47.7135524,15.0304276 47.6919366,15.0304276 47.6595128,15.0304276 C47.6487049,15.0304276 47.637897,15.0196197 47.6162812,15.0196197 L10.8909975,9.95070914 L10.8909975,4.82775903 C10.8909975,4.77371947 10.8909975,4.71967991 10.8801895,4.67644826 C10.8801895,4.66564035 10.8801895,4.65483244 10.8693816,4.63321662 C10.8693816,4.60079288 10.8585737,4.56836915 10.8585737,4.53594541 C10.8477658,4.50352168 10.8477658,4.48190586 10.8369579,4.44948212 C10.8369579,4.4278663 10.82615,4.41705839 10.82615,4.39544256 C10.8153421,4.36301883 10.8045342,4.33059509 10.7937262,4.29817136 C10.7937262,4.28736345 10.7829183,4.26574762 10.7829183,4.25493971 C10.7721104,4.22251598 10.7613025,4.20090015 10.7396867,4.16847642 C10.7288788,4.15766851 10.7288788,4.13605268 10.7180709,4.12524477 C10.707263,4.10362895 10.696455,4.08201312 10.6748392,4.0603973 C10.6640313,4.03878148 10.6532234,4.02797357 10.6424155,4.00635774 C10.6316076,3.98474192 10.6207997,3.97393401 10.6099918,3.95231819 C10.5991838,3.93070236 10.577568,3.90908654 10.5667601,3.88747072 C10.5559522,3.8766628 10.5451443,3.86585489 10.5343364,3.85504698 C10.5127205,3.83343116 10.4911047,3.81181533 10.4694889,3.79019951 C10.458681,3.7793916 10.4478731,3.76858369 10.4370652,3.75777578 C10.4154493,3.73615995 10.3938335,3.71454413 10.3614098,3.69292831 C10.3506019,3.68212039 10.328986,3.67131248 10.3181781,3.66050457 C10.2965623,3.63888875 10.2749465,3.62808084 10.2533307,3.60646501 C10.2209069,3.58484919 10.1884832,3.56323337 10.1668674,3.55242545 C10.1560595,3.54161754 10.1452516,3.54161754 10.1344436,3.53080963 C10.091212,3.50919381 10.0371724,3.48757799 9.99394079,3.46596216 L2.02850991,0.115509556 C1.28276401,-0.197919882 0.428938993,0.14793329 0.115509556,0.893679193 C-0.197919882,1.6394251 0.14793329,2.49325011 0.893679193,2.80667955 L7.9620534,5.78966316 L7.9620534,12.4041051 L7.9620534,13.4524725 L7.9620534,21.4935588 L7.9620534,28.68082 L7.9620534,37.7594658 C7.9620534,40.785681 10.2317148,43.2931165 13.1606589,43.6713934 C12.6310712,44.5576422 12.3176418,45.5952017 12.3176418,46.6976087 C12.3176418,49.9507901 14.9655801,52.5879205 18.2079536,52.5879205 C21.4503271,52.5879205 24.0982655,49.9399822 24.0982655,46.6976087 C24.0982655,45.6168175 23.8064519,44.5900659 23.2876721,43.725433 L36.4084768,43.725433 C35.8896971,44.6008738 35.5978834,45.6168175 35.5978834,46.6976087 C35.5978834,49.9507901 38.2458218,52.5879205 41.4881953,52.5879205 C44.7305688,52.5879205 47.3785071,49.9399822 47.3785071,46.6976087 C47.3785071,43.4552352 44.7305688,40.8072969 41.4881953,40.8072969 L13.9280206,40.8072969 C12.2419864,40.8072969 10.8801895,39.4346921 10.8801895,37.7594658 L10.8801895,33.8037701 C11.7664383,34.3225499 12.8148057,34.6251714 13.9280206,34.6251714 Z M21.1909372,46.6868008 C21.1909372,48.3296034 19.8507562,49.6589765 18.2187615,49.6589765 C16.5867669,49.6589765 15.2465858,48.3187954 15.2465858,46.6868008 C15.2465858,45.0548061 16.5867669,43.7146251 18.2187615,43.7146251 C19.8507562,43.7146251 21.1909372,45.0439982 21.1909372,46.6868008 Z M44.4711789,46.6868008 C44.4711789,48.3296034 43.1309979,49.6589765 41.4990032,49.6589765 C39.8670085,49.6589765 38.5268275,48.3187954 38.5268275,46.6868008 C38.5268275,45.0548061 39.8670085,43.7146251 41.4990032,43.7146251 C43.1309979,43.7146251 44.4711789,45.0439982 44.4711789,46.6868008 Z M42.9040317,31.7070353 L13.9280206,31.7070353 C12.2419864,31.7070353 10.8801895,30.3344305 10.8801895,28.6592042 L10.8801895,21.4719429 L10.8801895,13.4308567 L10.8801895,12.8904611 L45.9518628,17.7215976 L45.9518628,28.6483963 C45.9518628,30.3452384 44.579258,31.7070353 42.9040317,31.7070353 Z" id="Shape" fill-rule="nonzero"></path>
                    </g>
                </g>
                <g id="icon-warehouse" transform="translate(815.000000, 84.000000)">
                    <g id="icon-google" stroke="#FFFFFF">
                        <g id="Group-Copy-2" stroke-width="3">
                            <path d="M123.553064,76.6307569 C129.482312,66.3396557 129.482312,53.6603443 123.553064,43.3692431 C118.750682,35.0335784 112.951228,24.9664216 108.148846,16.6307569 C102.219598,6.33965566 91.2625155,0 79.4044158,0 L48.5955842,0 C36.7374845,0 25.780005,6.33965566 19.8511536,16.6307569 C15.048772,24.9664216 9.24892086,35.0335784 4.44693624,43.3692431 C-1.48231208,53.6603443 -1.48231208,66.3396557 4.44693624,76.6307569 C9.24892086,84.9664216 15.048772,95.0335784 19.8511536,103.369243 C25.780005,113.660344 36.7374845,120 48.5955842,120 L79.4044158,120 C91.2625155,120 102.219598,113.660344 108.148846,103.369243 C112.951228,95.0335784 118.750682,84.9664216 123.553064,76.6307569 Z" id="Page-1"></path>
                        </g>
                    </g>
                    <g id="trolley" transform="translate(27.000000, 29.000000)" fill="#FFFFFF">
                        <path d="M68.9505581,42.3379687 C68.7449058,41.5711523 67.9572007,41.1152402 67.1898452,41.3219707 L62.0393726,42.7033184 L56.6790698,22.6795723 C56.5802866,22.311123 56.3395952,21.9971191 56.0091499,21.8064258 C55.6789741,21.6157324 55.2864019,21.5641172 54.9179526,21.6629004 L45.2066069,24.2675156 L41.1139097,8.97970312 C41.0151265,8.61125391 40.7744351,8.29711523 40.4439897,8.10655664 C40.113814,7.91586328 39.7213765,7.86424805 39.3527925,7.96303125 L18.5269214,13.5486621 L15.5515659,2.41917773 C15.4529175,2.05072852 15.2120913,1.73632031 14.881646,1.54562695 C14.5509312,1.35466406 14.1583589,1.30345312 13.7901792,1.40210156 L12.0317573,1.87405078 C11.2427046,0.727464844 9.92415771,0 8.47367529,0 C8.09929638,0 7.72545654,0.0494589844 7.36185888,0.146759766 L3.19625342,1.2639668 C0.907663572,1.87822852 -0.458725099,4.234875 0.141251463,6.5252168 C0.143272947,6.53330273 0.145159666,6.54098437 0.147315916,6.54893555 C0.651474119,8.43188086 2.36623193,9.74678906 4.31763818,9.74678906 C4.69215185,9.74678906 5.0659917,9.69733008 5.42918506,9.6000293 L9.59465576,8.48295703 C11.4048276,7.99766602 12.6372593,6.42198633 12.777146,4.65103125 L13.14573,4.55211328 L16.119603,15.6760723 C16.1201421,15.677959 16.1202769,15.6798457 16.1209507,15.6818672 L16.339271,16.4971992 L20.5687554,32.3180098 C20.5721245,32.3324297 20.5740112,32.3465801 20.5777847,32.3608652 L22.2139741,38.4727559 L26.3046499,53.7740449 C26.4032983,54.1424941 26.6441245,54.4567676 26.9744351,54.6474609 C27.1949116,54.7748145 27.4431499,54.8401758 27.6934097,54.8401758 C27.8180679,54.8401758 27.9432651,54.8240039 28.0657671,54.7911211 L28.813312,54.5905898 C28.5579312,55.5361055 28.5387944,56.5585723 28.8098081,57.5707969 C28.942687,58.0667344 29.1390405,58.5324844 29.3874136,58.9617129 L24.384105,58.9617129 C23.5902007,58.9617129 22.9465601,59.6053535 22.9465601,60.3992578 C22.9465601,61.1931621 23.5900659,61.8368027 24.384105,61.8368027 L34.3543354,61.8368027 C34.3566265,61.8368027 34.3587827,61.8369375 34.3610737,61.8369375 C34.3625562,61.8369375 34.3639038,61.8368027 34.3652515,61.8368027 L40.7120386,61.8368027 C41.5058081,61.8368027 42.1495835,61.1931621 42.1495835,60.3992578 C42.1495835,59.6053535 41.5059429,58.9617129 40.7120386,58.9617129 L39.338103,58.9617129 C40.0762144,57.6849434 40.3282261,56.1266484 39.9175952,54.5928809 C39.6494116,53.5907637 39.1240952,52.7100703 38.4257397,52.0123887 L56.5882378,47.1414199 C56.3328569,48.0869355 56.3137202,49.1095371 56.5847339,50.1217617 C57.2569448,52.6336582 59.5394702,54.3877676 62.1354604,54.3877676 C62.6371929,54.3877676 63.1390601,54.3213281 63.6269116,54.1904707 C66.6890562,53.3693437 68.5129741,50.2085508 67.6927905,47.1438457 C67.4244722,46.1415937 66.8992905,45.2609004 66.2006655,44.5632187 L67.9342905,44.0982773 C68.7012417,43.8932988 69.1560757,43.1047852 68.9505581,42.3379687 Z M8.85034521,5.70597656 L4.68473974,6.82304883 C4.56425928,6.85539258 4.4406792,6.87183398 4.31750342,6.87183398 C3.67008935,6.87183398 3.10083935,6.43977539 2.92820459,5.81917969 C2.92685693,5.81446289 2.92577881,5.80974609 2.92443115,5.80475977 C2.71904834,5.03767383 3.17522998,4.24646484 3.94137256,4.04094727 L8.1063042,2.923875 C8.22691943,2.89153125 8.35049951,2.87508984 8.47367529,2.87508984 C9.12567138,2.87508984 9.69842529,3.31361719 9.86661279,3.94175977 C9.86661279,3.94229883 9.86674756,3.94297266 9.86688232,3.94351172 L9.86688232,3.94364648 C10.0714565,4.71046289 9.6156792,5.50086328 8.85034521,5.70597656 Z M30.3776714,13.3467832 L32.0203296,19.4823926 L31.1494741,19.3039629 C30.7058257,19.2134004 30.2456011,19.3367109 29.9068003,19.6369687 L29.2428101,20.2262988 L27.6002866,14.0916328 L30.3776714,13.3467832 Z M19.2697495,16.3263164 L24.8234409,14.8366172 L27.0675581,23.2185 C27.196394,23.7000176 27.5655171,24.0803262 28.0428569,24.223582 C28.1787007,24.2642812 28.3179136,24.2842266 28.4560483,24.2842266 C28.8030698,24.2842266 29.1437573,24.1584902 29.4104585,23.9218418 L31.2773667,22.2650332 L33.7220151,22.7656875 C34.2106753,22.8656836 34.7152378,22.7057168 35.0567339,22.3430625 C35.3983647,21.980543 35.5277397,21.4668164 35.3991733,20.9857031 L33.1549214,12.6020684 L38.7087476,11.1123691 L42.429896,25.0123652 L22.9908979,30.2256387 L19.2697495,16.3263164 Z M42.031394,34.6719609 L41.1604038,34.493666 C40.7167554,34.4021602 40.2565308,34.5264141 39.9179995,34.8266719 L39.2537397,35.4162715 L37.6110815,29.2813359 L40.3886011,28.5362168 L42.031394,34.6719609 Z M35.1071362,58.8629297 C34.86348,58.9281563 34.6137593,58.9614434 34.3651167,58.9618477 L34.3574351,58.9618477 C33.0619331,58.9602305 31.922894,58.0833105 31.5867886,56.8272949 C31.1766968,55.2958184 32.0860952,53.7162305 33.6139331,53.3030391 L33.6284878,53.2991309 C33.8707964,53.2348477 34.1191694,53.2020996 34.3664644,53.2020996 C35.6631792,53.2020996 36.8039702,54.0796934 37.1403452,55.3365176 C37.5511108,56.8701504 36.6391519,58.4521641 35.1071362,58.8629297 Z M34.2641772,50.1518145 L32.2634468,42.6786562 C32.058064,41.9118398 31.2703589,41.4566016 30.5031382,41.6617148 C29.736187,41.8670977 29.2809487,42.655207 29.4861968,43.4220234 L31.4873315,50.8965293 L28.7152026,51.6400312 L24.9856987,37.7083652 L23.7283354,33.0047754 L34.8345054,30.0260508 L37.0787573,38.4082031 C37.207728,38.8897207 37.5767163,39.2700293 38.0539214,39.4131504 C38.1898999,39.4539844 38.3291128,39.4739297 38.4672476,39.4739297 C38.814269,39.4739297 39.1549565,39.3481934 39.4216577,39.1116797 L41.2888354,37.4547363 L43.7336187,37.9549863 C44.2224136,38.0551172 44.7268413,37.8948809 45.0682026,37.5323613 C45.4096987,37.1698418 45.5390737,36.65625 45.4105073,36.1751367 L43.1661206,27.792041 L48.7196772,26.3024766 L50.7205425,33.7760391 C50.8925034,34.4184668 51.4733433,34.8421699 52.1082241,34.8421699 C52.2311304,34.8421699 52.3563276,34.8262676 52.4808511,34.7928457 C53.2478022,34.5874629 53.7030405,33.7993535 53.4977925,33.0325371 L51.4966577,25.5577617 L54.2741772,24.8126426 L59.2625269,43.4477637 L34.2641772,50.1518145 Z M62.8821968,51.4138945 C62.6369233,51.4795254 62.385855,51.513082 62.1355952,51.513082 C60.8388804,51.513082 59.6983589,50.6354883 59.3621187,49.3786641 C58.9518921,47.8466484 59.8618296,46.2665215 61.3900718,45.8538691 L61.4017964,45.8509043 C61.6447788,45.7862168 61.8935562,45.753334 62.1412554,45.753334 C63.438105,45.753334 64.5790308,46.6310625 64.9155405,47.887752 C65.3260366,49.4213848 64.4140776,51.0032637 62.8821968,51.4138945 Z" id="Shape" fill-rule="nonzero"></path>
                        <path d="M53.0665123,36.0492958 C52.2994263,36.254409 51.8440533,37.0422489 52.0491666,37.8092001 L52.1941744,38.3513622 C52.3660005,38.9940594 52.9468404,39.4180321 53.5819908,39.4180321 C53.704897,39.4180321 53.8298248,39.4021297 53.9542134,39.3687079 C54.7212994,39.1635946 55.1766724,38.3757547 54.9715591,37.6088036 L54.8265513,37.0666415 C54.6213033,36.2996903 53.8338677,35.8437782 53.0665123,36.0492958 Z" id="Shape" fill-rule="nonzero"></path>
                        <path d="M30.8262547,38.0658149 C30.6207372,37.2989985 29.8333016,36.8434907 29.0656766,37.0495474 C28.2988602,37.2550649 27.8437567,38.0433091 28.049409,38.8101255 L28.1946864,39.3521528 C28.3667821,39.9944458 28.9474872,40.4178794 29.5822333,40.4178794 C29.7052743,40.4178794 29.8306063,40.4019771 29.9552645,40.3684204 C30.7220809,40.1629028 31.1771844,39.3746587 30.9715321,38.6078423 L30.8262547,38.0658149 Z" id="Shape" fill-rule="nonzero"></path>
                        <path d="M46.0690566,59 L45.4375449,59 C44.6436406,59 44,59.6436406 44,60.4375449 C44,61.2313145 44.6435059,61.8750898 45.4375449,61.8750898 L46.0690566,61.8750898 C46.8628262,61.8750898 47.5066016,61.2314492 47.5066016,60.4375449 C47.5066016,59.6435059 46.8628262,59 46.0690566,59 Z" id="Shape" fill-rule="nonzero"></path>
                    </g>
                </g>
                <g id="icon-key" transform="translate(200.000000, 320.000000)">
                    <g id="Group" transform="translate(26.000000, 20.000000)">
                        <g id="icon-google" fill="#FFFFFF" fill-rule="nonzero">
                            <g id="Group-Copy-2">
                                <g id="key" transform="translate(37.535658, 37.505520) rotate(-315.000000) translate(-37.535658, -37.505520) translate(11.035658, 11.005520)">
                                    <path d="M52.7731613,1.54348194 C52.7704814,0.690532231 52.076388,0 51.2265512,0 L42.4796748,0 C42.0695474,0 41.6763239,0.163139787 41.3862766,0.453510035 L22.2369654,19.6240345 C16.1806031,17.6611976 9.50353521,19.2359455 4.97399296,23.7706331 C-1.65803201,30.4100406 -1.65803201,41.2131759 4.97399296,47.8525835 C11.6059149,54.4918878 22.3969347,54.4921974 29.0291658,47.8525835 C33.5588111,43.3178959 35.1317049,36.6334985 33.1711536,30.5703943 L34.4946108,29.245464 L39.5026178,28.2427889 C40.1147682,28.1202019 40.593233,27.6412045 40.7156837,27.0283726 L41.6069558,22.5671547 L46.0632132,21.6748904 C46.675879,21.5523034 47.154653,21.0724805 47.2765883,20.4590295 L48.1223022,16.2029488 L51.2270666,16.2029488 C52.0810262,16.2029488 52.7733675,15.5098368 52.7733675,14.6549266 L52.7733675,1.5480222 C52.7733675,1.54647438 52.7731613,1.54502975 52.7731613,1.54348194 Z M49.6806626,13.1068012 L46.8532676,13.1068012 C46.1155743,13.1068012 45.4806447,13.6285183 45.3366517,14.3527929 L44.4446581,18.841562 L39.9895346,19.7336198 C39.3773841,19.8562068 38.8989193,20.3352043 38.7764686,20.9480361 L37.8851965,25.4092541 L33.4290423,26.3015183 C33.1297183,26.3614704 32.8547196,26.5087192 32.6388848,26.7248975 L30.2929437,29.0734501 C29.8585941,29.5082831 29.7224347,30.1592945 29.9462061,30.7319863 C31.9635506,35.8952935 30.7451248,41.7561497 26.8422663,45.6635591 C21.4168137,51.0949481 12.5877881,51.0965991 7.1606863,45.6635591 C1.73451216,40.2312416 1.73451216,31.3922845 7.1606863,25.9600701 C11.0699353,22.0465726 16.9259238,20.8361806 22.0756562,22.8526751 C22.6479174,23.0766956 23.2979987,22.9404878 23.7323483,22.5055516 L43.1201703,3.09614758 L47.4938662,3.09614758 L49.6806626,5.28537828 L49.6806626,13.1068012 Z" id="Shape"></path>
                                </g>
                            </g>
                        </g>
                        <circle id="Oval-11" stroke="#FFFFFF" stroke-width="3" cx="24" cy="37" r="4"></circle>
                    </g>
                </g>
                <g id="icon-key" transform="translate(461.000000, 320.000000)">
                    <g id="Group" transform="translate(26.000000, 20.000000)">
                        <g id="icon-google" fill="#FFFFFF" fill-rule="nonzero">
                            <g id="Group-Copy-2">
                                <g id="key" transform="translate(37.535658, 37.505520) rotate(-315.000000) translate(-37.535658, -37.505520) translate(11.035658, 11.005520)">
                                    <path d="M52.7731613,1.54348194 C52.7704814,0.690532231 52.076388,0 51.2265512,0 L42.4796748,0 C42.0695474,0 41.6763239,0.163139787 41.3862766,0.453510035 L22.2369654,19.6240345 C16.1806031,17.6611976 9.50353521,19.2359455 4.97399296,23.7706331 C-1.65803201,30.4100406 -1.65803201,41.2131759 4.97399296,47.8525835 C11.6059149,54.4918878 22.3969347,54.4921974 29.0291658,47.8525835 C33.5588111,43.3178959 35.1317049,36.6334985 33.1711536,30.5703943 L34.4946108,29.245464 L39.5026178,28.2427889 C40.1147682,28.1202019 40.593233,27.6412045 40.7156837,27.0283726 L41.6069558,22.5671547 L46.0632132,21.6748904 C46.675879,21.5523034 47.154653,21.0724805 47.2765883,20.4590295 L48.1223022,16.2029488 L51.2270666,16.2029488 C52.0810262,16.2029488 52.7733675,15.5098368 52.7733675,14.6549266 L52.7733675,1.5480222 C52.7733675,1.54647438 52.7731613,1.54502975 52.7731613,1.54348194 Z M49.6806626,13.1068012 L46.8532676,13.1068012 C46.1155743,13.1068012 45.4806447,13.6285183 45.3366517,14.3527929 L44.4446581,18.841562 L39.9895346,19.7336198 C39.3773841,19.8562068 38.8989193,20.3352043 38.7764686,20.9480361 L37.8851965,25.4092541 L33.4290423,26.3015183 C33.1297183,26.3614704 32.8547196,26.5087192 32.6388848,26.7248975 L30.2929437,29.0734501 C29.8585941,29.5082831 29.7224347,30.1592945 29.9462061,30.7319863 C31.9635506,35.8952935 30.7451248,41.7561497 26.8422663,45.6635591 C21.4168137,51.0949481 12.5877881,51.0965991 7.1606863,45.6635591 C1.73451216,40.2312416 1.73451216,31.3922845 7.1606863,25.9600701 C11.0699353,22.0465726 16.9259238,20.8361806 22.0756562,22.8526751 C22.6479174,23.0766956 23.2979987,22.9404878 23.7323483,22.5055516 L43.1201703,3.09614758 L47.4938662,3.09614758 L49.6806626,5.28537828 L49.6806626,13.1068012 Z" id="Shape"></path>
                                </g>
                            </g>
                        </g>
                        <circle id="Oval-11" stroke="#FFFFFF" stroke-width="3" cx="24" cy="37" r="4"></circle>
                    </g>
                </g>
                <g id="icon-key" transform="translate(717.000000, 321.000000)">
                    <g id="Group" transform="translate(26.000000, 20.000000)">
                        <g id="icon-google" fill="#FFFFFF" fill-rule="nonzero">
                            <g id="Group-Copy-2">
                                <g id="key" transform="translate(37.535658, 37.505520) rotate(-315.000000) translate(-37.535658, -37.505520) translate(11.035658, 11.005520)">
                                    <path d="M52.7731613,1.54348194 C52.7704814,0.690532231 52.076388,0 51.2265512,0 L42.4796748,0 C42.0695474,0 41.6763239,0.163139787 41.3862766,0.453510035 L22.2369654,19.6240345 C16.1806031,17.6611976 9.50353521,19.2359455 4.97399296,23.7706331 C-1.65803201,30.4100406 -1.65803201,41.2131759 4.97399296,47.8525835 C11.6059149,54.4918878 22.3969347,54.4921974 29.0291658,47.8525835 C33.5588111,43.3178959 35.1317049,36.6334985 33.1711536,30.5703943 L34.4946108,29.245464 L39.5026178,28.2427889 C40.1147682,28.1202019 40.593233,27.6412045 40.7156837,27.0283726 L41.6069558,22.5671547 L46.0632132,21.6748904 C46.675879,21.5523034 47.154653,21.0724805 47.2765883,20.4590295 L48.1223022,16.2029488 L51.2270666,16.2029488 C52.0810262,16.2029488 52.7733675,15.5098368 52.7733675,14.6549266 L52.7733675,1.5480222 C52.7733675,1.54647438 52.7731613,1.54502975 52.7731613,1.54348194 Z M49.6806626,13.1068012 L46.8532676,13.1068012 C46.1155743,13.1068012 45.4806447,13.6285183 45.3366517,14.3527929 L44.4446581,18.841562 L39.9895346,19.7336198 C39.3773841,19.8562068 38.8989193,20.3352043 38.7764686,20.9480361 L37.8851965,25.4092541 L33.4290423,26.3015183 C33.1297183,26.3614704 32.8547196,26.5087192 32.6388848,26.7248975 L30.2929437,29.0734501 C29.8585941,29.5082831 29.7224347,30.1592945 29.9462061,30.7319863 C31.9635506,35.8952935 30.7451248,41.7561497 26.8422663,45.6635591 C21.4168137,51.0949481 12.5877881,51.0965991 7.1606863,45.6635591 C1.73451216,40.2312416 1.73451216,31.3922845 7.1606863,25.9600701 C11.0699353,22.0465726 16.9259238,20.8361806 22.0756562,22.8526751 C22.6479174,23.0766956 23.2979987,22.9404878 23.7323483,22.5055516 L43.1201703,3.09614758 L47.4938662,3.09614758 L49.6806626,5.28537828 L49.6806626,13.1068012 Z" id="Shape"></path>
                                </g>
                            </g>
                        </g>
                        <circle id="Oval-11" stroke="#FFFFFF" stroke-width="3" cx="24" cy="37" r="4"></circle>
                    </g>
                </g>
                <g id="icon-key" transform="translate(974.000000, 321.000000)">
                    <g id="Group" transform="translate(26.000000, 20.000000)">
                        <g id="icon-google" fill="#FFFFFF" fill-rule="nonzero">
                            <g id="Group-Copy-2">
                                <g id="key" transform="translate(37.535658, 37.505520) rotate(-315.000000) translate(-37.535658, -37.505520) translate(11.035658, 11.005520)">
                                    <path d="M52.7731613,1.54348194 C52.7704814,0.690532231 52.076388,0 51.2265512,0 L42.4796748,0 C42.0695474,0 41.6763239,0.163139787 41.3862766,0.453510035 L22.2369654,19.6240345 C16.1806031,17.6611976 9.50353521,19.2359455 4.97399296,23.7706331 C-1.65803201,30.4100406 -1.65803201,41.2131759 4.97399296,47.8525835 C11.6059149,54.4918878 22.3969347,54.4921974 29.0291658,47.8525835 C33.5588111,43.3178959 35.1317049,36.6334985 33.1711536,30.5703943 L34.4946108,29.245464 L39.5026178,28.2427889 C40.1147682,28.1202019 40.593233,27.6412045 40.7156837,27.0283726 L41.6069558,22.5671547 L46.0632132,21.6748904 C46.675879,21.5523034 47.154653,21.0724805 47.2765883,20.4590295 L48.1223022,16.2029488 L51.2270666,16.2029488 C52.0810262,16.2029488 52.7733675,15.5098368 52.7733675,14.6549266 L52.7733675,1.5480222 C52.7733675,1.54647438 52.7731613,1.54502975 52.7731613,1.54348194 Z M49.6806626,13.1068012 L46.8532676,13.1068012 C46.1155743,13.1068012 45.4806447,13.6285183 45.3366517,14.3527929 L44.4446581,18.841562 L39.9895346,19.7336198 C39.3773841,19.8562068 38.8989193,20.3352043 38.7764686,20.9480361 L37.8851965,25.4092541 L33.4290423,26.3015183 C33.1297183,26.3614704 32.8547196,26.5087192 32.6388848,26.7248975 L30.2929437,29.0734501 C29.8585941,29.5082831 29.7224347,30.1592945 29.9462061,30.7319863 C31.9635506,35.8952935 30.7451248,41.7561497 26.8422663,45.6635591 C21.4168137,51.0949481 12.5877881,51.0965991 7.1606863,45.6635591 C1.73451216,40.2312416 1.73451216,31.3922845 7.1606863,25.9600701 C11.0699353,22.0465726 16.9259238,20.8361806 22.0756562,22.8526751 C22.6479174,23.0766956 23.2979987,22.9404878 23.7323483,22.5055516 L43.1201703,3.09614758 L47.4938662,3.09614758 L49.6806626,5.28537828 L49.6806626,13.1068012 Z" id="Shape"></path>
                                </g>
                            </g>
                        </g>
                        <circle id="Oval-11" stroke="#FFFFFF" stroke-width="3" cx="24" cy="37" r="4"></circle>
                    </g>
                </g>
                <g id="icon-man" transform="translate(123.000000, 304.000000)" fill="#FFFFFF">
                    <g id="employee" transform="translate(30.000000, 10.000000)">
                        <path d="M25.0713068,73.8529347 L18.7860341,73.8529347 C17.974108,73.8529347 17.3158636,74.511179 17.3158636,75.3231051 C17.3158636,76.1352273 17.974108,76.7932756 18.7860341,76.7932756 L25.0713068,76.7932756 C25.883233,76.7932756 26.5414773,76.1352273 26.5414773,75.3231051 C26.5416733,74.511375 25.883429,73.8529347 25.0713068,73.8529347 Z" id="Shape" fill-rule="nonzero"></path>
                        <path d="M61.9917955,55.8582443 L52.8044062,52.3143494 L48.109858,47.6198011 C47.7981818,47.308125 47.3794773,47.1650284 46.9692017,47.1932557 L46.9692017,43.1887074 C49.187983,40.8452557 50.7638097,37.863358 51.3816733,34.4988239 C51.3899062,34.4686364 51.439108,34.4190426 51.4730199,34.405321 C51.8832955,34.4335483 52.2984716,34.405517 52.7079631,34.3218153 C54.8455909,33.8842926 56.3973068,31.8972102 56.3973068,29.5970795 L56.3973068,28.3725256 C56.3973068,26.9993864 55.8231563,25.7424886 54.8949886,24.865679 C56.4063239,16.8001278 55.2099972,10.2359148 51.4208778,5.86009943 C47.7791676,1.65541193 41.90025,-0.353428977 34.4202187,0.0509659091 C27.3986847,0.430465909 22.9138807,3.70071307 21.5819062,4.81176989 C19.7106733,5.04523295 14.1734233,6.38818466 14.1734233,14.0897216 C14.1734233,18.4471108 14.8940028,22.0549091 15.3824915,24.0010227 C13.7253153,24.728071 12.6021051,26.4305284 12.6021051,28.3911477 L12.6021051,29.5972756 C12.6021051,31.8972102 14.153821,33.8842926 16.2914489,34.3220114 C16.7009403,34.4059091 17.1165085,34.4339403 17.526392,34.405517 C17.560108,34.4192386 17.6095057,34.4686364 17.6173466,34.4974517 C18.2354063,37.8625739 19.811429,40.8448636 22.0302102,43.1885114 L22.0302102,47.1932557 C21.6197386,47.1650284 21.2010341,47.308321 20.889554,47.6198011 L16.1952017,52.3141534 L7.0078125,55.8580483 C2.65355966,57.537571 -0.146625,61.7991051 0.0403806818,66.4622898 L1.34157955,98.9522727 C1.37333523,99.7436165 2.02471875,100.363636 2.80959375,100.363636 C2.82958807,100.363636 2.84958239,100.363244 2.8695767,100.36246 C3.68091477,100.32992 4.31210795,99.6459972 4.2797642,98.8346591 L2.97856534,66.3446761 C2.94034091,65.3918097 3.07324432,64.4620739 3.35375284,63.5899687 L8.70027273,68.9364886 C10.203375,70.4395909 11.031179,72.4380426 11.031179,74.5637131 L11.031179,98.8936619 C11.031179,99.7055881 11.6894233,100.363832 12.5013494,100.363832 C13.3132756,100.363832 13.9715199,99.7055881 13.9715199,98.8936619 L13.9715199,74.563321 C13.9715199,71.6523835 12.8379205,68.9155142 10.7794858,66.8570795 L4.83333239,60.9111222 C5.67897443,59.9027812 6.77964205,59.0977159 8.06633523,58.6013864 L16.7109375,55.2670398 L23.2937727,65.1414886 C24.063358,66.2960625 25.296733,67.0364403 26.677517,67.1730682 C26.8311989,67.188358 26.9844886,67.1958068 27.1369943,67.1958068 C28.0673182,67.1958068 28.9674545,66.9151023 29.7295909,66.3944659 L28.3174432,98.8293665 C28.2821591,99.6405085 28.911,100.326784 29.7223381,100.362068 C29.7440966,100.363048 29.7658551,100.36344 29.7874176,100.36344 C30.5699403,100.36344 31.2207358,99.7467528 31.2550398,98.9571733 L32.5599631,68.9856903 L36.440821,68.9856903 L37.7457443,98.9571733 C37.7800483,99.7465568 38.4308437,100.36344 39.2133665,100.36344 C39.234929,100.36344 39.2566875,100.363048 39.278446,100.362068 C40.0895881,100.326588 40.718625,99.6405085 40.6833409,98.8293665 L39.2711932,66.394858 C40.0331335,66.9156903 40.9332699,67.1961989 41.8637898,67.1961989 C42.0162955,67.1961989 42.1697812,67.188554 42.323267,67.1734602 C43.7038551,67.0368324 44.9372301,66.2962585 45.7070114,65.1418807 L52.2898466,55.2674318 L60.9344489,58.6017784 C62.221142,59.098108 63.3218097,59.9033693 64.1674517,60.9115142 L58.2212983,66.8574716 C56.1628636,68.9159062 55.0292642,71.6527756 55.0292642,74.5637131 L55.0292642,98.8936619 C55.0292642,99.7055881 55.6875085,100.363832 56.4994347,100.363832 C57.3113608,100.363832 57.9696051,99.7055881 57.9696051,98.8936619 L57.9696051,74.5637131 C57.9696051,72.4380426 58.7974091,70.4395909 60.3005114,68.9364886 L65.6470312,63.5899687 C65.9275398,64.4620739 66.0604432,65.3918097 66.0222187,66.3446761 L64.7212159,98.8346591 C64.6886761,99.6459972 65.3200653,100.32992 66.1314034,100.36246 C66.1515938,100.363244 66.171392,100.363636 66.1913864,100.363636 C66.9760653,100.363636 67.6276449,99.7436165 67.6594006,98.9522727 L68.9605994,66.4624858 C69.146233,61.7993011 66.3460483,57.537767 61.9917955,55.8582443 Z M20.5082898,33.9658381 C20.2317017,32.4566591 18.8360199,31.3614801 17.3289972,31.4716449 C17.1823722,31.4824261 17.0316307,31.4720369 16.8806932,31.4412614 C16.1173807,31.2850312 15.541858,30.4923153 15.541858,29.5972756 L15.541858,28.3911477 C15.541858,27.4988523 16.1258097,26.7233864 16.9002955,26.5873466 C17.5385455,26.4754176 18.1517045,26.7104489 18.5396335,27.2161875 C18.8211222,27.5833381 19.1959176,27.8456165 19.6236392,27.9749915 C20.2501278,28.1641534 20.941108,28.0532045 21.4719375,27.6784091 C22.7578466,26.7708239 23.847929,25.6193864 24.7116051,24.2562443 C25.1461875,23.5703608 24.9427159,22.6621875 24.2568324,22.2274091 C23.5709489,21.7928267 22.6625795,21.9964943 22.2279972,22.6821818 C21.7024602,23.511358 21.0693068,24.235858 20.3404943,24.8431364 C19.7759489,24.3213239 19.0943778,23.9557415 18.3602727,23.7673636 C17.9349034,22.1823239 17.1131761,18.543554 17.1131761,14.0899176 C17.1131761,7.95597443 21.6801136,7.71094602 22.1901648,7.70330114 C22.5700568,7.70330114 22.9350511,7.55628409 23.2088949,7.29302557 C23.2496676,7.25401705 27.3620284,3.37707955 34.5782131,2.98699432 C41.1173352,2.63376136 46.1727614,4.2927017 49.197196,7.78523864 C52.276517,11.3408949 53.2807415,16.8060085 52.1265597,23.6379886 C51.5972983,23.6019205 50.9927642,23.6417131 50.3966591,23.7544261 L48.7539886,19.8098608 C48.472108,19.1329943 47.7331023,18.767804 47.0244801,18.9528494 C46.8674659,18.9938182 31.2281847,22.9611222 24.6382926,14.757375 C24.1300057,14.1244176 23.2047784,14.0232699 22.571429,14.5317528 C21.9384716,15.0402358 21.8373239,15.9656591 22.3460028,16.5986165 C29.0039148,24.8878295 42.3430653,22.9389716 46.5154091,22.0829403 L47.8019062,25.1718665 C48.2866705,26.3364375 49.5267102,26.9725313 50.7504801,26.6843778 C51.2911108,26.5571591 51.8472273,26.5412813 52.0963722,26.590679 C52.871642,26.7449489 53.4561818,27.5108097 53.4561818,28.3723295 L53.4561818,29.5968835 C53.4561818,30.4919233 52.8806591,31.2846392 52.1173466,31.4408693 C51.9664091,31.4718409 51.8158636,31.4818381 51.6692386,31.4712528 C50.1659403,31.360696 48.7665341,32.456267 48.489358,33.9658381 C47.2493182,40.7172528 41.3655,45.617625 34.4988239,45.617625 C27.6323437,45.617625 21.7485256,40.7172528 20.5082898,33.9658381 Z M28.3139148,63.7654091 C27.9583295,64.1211903 27.4676847,64.2970227 26.9664545,64.247233 C26.4658125,64.1976392 26.0186847,63.9290881 25.7395483,63.5105795 L19.1065313,53.560858 L21.9957102,50.671679 L32.3486506,59.7304773 L28.3139148,63.7654091 Z M32.6871818,66.0455455 L32.800679,63.436875 L34.499608,61.737946 L36.1983409,63.436875 L36.3118381,66.0455455 L32.6871818,66.0455455 Z M34.499608,57.7055625 L24.9703551,49.3675398 L24.9703551,45.6678068 C27.7140852,47.5004233 31.0000142,48.558554 34.499608,48.558554 C37.9992017,48.558554 41.2851307,47.5004233 44.0288608,45.6680028 L44.0288608,49.3675398 L34.499608,57.7055625 Z M43.2594716,63.5105795 C42.9803352,63.9290881 42.5332074,64.1976392 42.0325653,64.247233 C41.5313352,64.2972187 41.0408864,64.1209943 40.6851051,63.7654091 L36.6503693,59.7304773 L47.0033097,50.671679 L49.8924886,53.560858 L43.2594716,63.5105795 Z" id="Shape" fill-rule="nonzero"></path>
                    </g>
                </g>
                <g id="icon-man" transform="translate(384.000000, 304.000000)" fill="#FFFFFF">
                    <g id="employee" transform="translate(30.000000, 10.000000)">
                        <path d="M25.0713068,73.8529347 L18.7860341,73.8529347 C17.974108,73.8529347 17.3158636,74.511179 17.3158636,75.3231051 C17.3158636,76.1352273 17.974108,76.7932756 18.7860341,76.7932756 L25.0713068,76.7932756 C25.883233,76.7932756 26.5414773,76.1352273 26.5414773,75.3231051 C26.5416733,74.511375 25.883429,73.8529347 25.0713068,73.8529347 Z" id="Shape" fill-rule="nonzero"></path>
                        <path d="M61.9917955,55.8582443 L52.8044062,52.3143494 L48.109858,47.6198011 C47.7981818,47.308125 47.3794773,47.1650284 46.9692017,47.1932557 L46.9692017,43.1887074 C49.187983,40.8452557 50.7638097,37.863358 51.3816733,34.4988239 C51.3899062,34.4686364 51.439108,34.4190426 51.4730199,34.405321 C51.8832955,34.4335483 52.2984716,34.405517 52.7079631,34.3218153 C54.8455909,33.8842926 56.3973068,31.8972102 56.3973068,29.5970795 L56.3973068,28.3725256 C56.3973068,26.9993864 55.8231563,25.7424886 54.8949886,24.865679 C56.4063239,16.8001278 55.2099972,10.2359148 51.4208778,5.86009943 C47.7791676,1.65541193 41.90025,-0.353428977 34.4202187,0.0509659091 C27.3986847,0.430465909 22.9138807,3.70071307 21.5819062,4.81176989 C19.7106733,5.04523295 14.1734233,6.38818466 14.1734233,14.0897216 C14.1734233,18.4471108 14.8940028,22.0549091 15.3824915,24.0010227 C13.7253153,24.728071 12.6021051,26.4305284 12.6021051,28.3911477 L12.6021051,29.5972756 C12.6021051,31.8972102 14.153821,33.8842926 16.2914489,34.3220114 C16.7009403,34.4059091 17.1165085,34.4339403 17.526392,34.405517 C17.560108,34.4192386 17.6095057,34.4686364 17.6173466,34.4974517 C18.2354063,37.8625739 19.811429,40.8448636 22.0302102,43.1885114 L22.0302102,47.1932557 C21.6197386,47.1650284 21.2010341,47.308321 20.889554,47.6198011 L16.1952017,52.3141534 L7.0078125,55.8580483 C2.65355966,57.537571 -0.146625,61.7991051 0.0403806818,66.4622898 L1.34157955,98.9522727 C1.37333523,99.7436165 2.02471875,100.363636 2.80959375,100.363636 C2.82958807,100.363636 2.84958239,100.363244 2.8695767,100.36246 C3.68091477,100.32992 4.31210795,99.6459972 4.2797642,98.8346591 L2.97856534,66.3446761 C2.94034091,65.3918097 3.07324432,64.4620739 3.35375284,63.5899687 L8.70027273,68.9364886 C10.203375,70.4395909 11.031179,72.4380426 11.031179,74.5637131 L11.031179,98.8936619 C11.031179,99.7055881 11.6894233,100.363832 12.5013494,100.363832 C13.3132756,100.363832 13.9715199,99.7055881 13.9715199,98.8936619 L13.9715199,74.563321 C13.9715199,71.6523835 12.8379205,68.9155142 10.7794858,66.8570795 L4.83333239,60.9111222 C5.67897443,59.9027812 6.77964205,59.0977159 8.06633523,58.6013864 L16.7109375,55.2670398 L23.2937727,65.1414886 C24.063358,66.2960625 25.296733,67.0364403 26.677517,67.1730682 C26.8311989,67.188358 26.9844886,67.1958068 27.1369943,67.1958068 C28.0673182,67.1958068 28.9674545,66.9151023 29.7295909,66.3944659 L28.3174432,98.8293665 C28.2821591,99.6405085 28.911,100.326784 29.7223381,100.362068 C29.7440966,100.363048 29.7658551,100.36344 29.7874176,100.36344 C30.5699403,100.36344 31.2207358,99.7467528 31.2550398,98.9571733 L32.5599631,68.9856903 L36.440821,68.9856903 L37.7457443,98.9571733 C37.7800483,99.7465568 38.4308437,100.36344 39.2133665,100.36344 C39.234929,100.36344 39.2566875,100.363048 39.278446,100.362068 C40.0895881,100.326588 40.718625,99.6405085 40.6833409,98.8293665 L39.2711932,66.394858 C40.0331335,66.9156903 40.9332699,67.1961989 41.8637898,67.1961989 C42.0162955,67.1961989 42.1697812,67.188554 42.323267,67.1734602 C43.7038551,67.0368324 44.9372301,66.2962585 45.7070114,65.1418807 L52.2898466,55.2674318 L60.9344489,58.6017784 C62.221142,59.098108 63.3218097,59.9033693 64.1674517,60.9115142 L58.2212983,66.8574716 C56.1628636,68.9159062 55.0292642,71.6527756 55.0292642,74.5637131 L55.0292642,98.8936619 C55.0292642,99.7055881 55.6875085,100.363832 56.4994347,100.363832 C57.3113608,100.363832 57.9696051,99.7055881 57.9696051,98.8936619 L57.9696051,74.5637131 C57.9696051,72.4380426 58.7974091,70.4395909 60.3005114,68.9364886 L65.6470312,63.5899687 C65.9275398,64.4620739 66.0604432,65.3918097 66.0222187,66.3446761 L64.7212159,98.8346591 C64.6886761,99.6459972 65.3200653,100.32992 66.1314034,100.36246 C66.1515938,100.363244 66.171392,100.363636 66.1913864,100.363636 C66.9760653,100.363636 67.6276449,99.7436165 67.6594006,98.9522727 L68.9605994,66.4624858 C69.146233,61.7993011 66.3460483,57.537767 61.9917955,55.8582443 Z M20.5082898,33.9658381 C20.2317017,32.4566591 18.8360199,31.3614801 17.3289972,31.4716449 C17.1823722,31.4824261 17.0316307,31.4720369 16.8806932,31.4412614 C16.1173807,31.2850312 15.541858,30.4923153 15.541858,29.5972756 L15.541858,28.3911477 C15.541858,27.4988523 16.1258097,26.7233864 16.9002955,26.5873466 C17.5385455,26.4754176 18.1517045,26.7104489 18.5396335,27.2161875 C18.8211222,27.5833381 19.1959176,27.8456165 19.6236392,27.9749915 C20.2501278,28.1641534 20.941108,28.0532045 21.4719375,27.6784091 C22.7578466,26.7708239 23.847929,25.6193864 24.7116051,24.2562443 C25.1461875,23.5703608 24.9427159,22.6621875 24.2568324,22.2274091 C23.5709489,21.7928267 22.6625795,21.9964943 22.2279972,22.6821818 C21.7024602,23.511358 21.0693068,24.235858 20.3404943,24.8431364 C19.7759489,24.3213239 19.0943778,23.9557415 18.3602727,23.7673636 C17.9349034,22.1823239 17.1131761,18.543554 17.1131761,14.0899176 C17.1131761,7.95597443 21.6801136,7.71094602 22.1901648,7.70330114 C22.5700568,7.70330114 22.9350511,7.55628409 23.2088949,7.29302557 C23.2496676,7.25401705 27.3620284,3.37707955 34.5782131,2.98699432 C41.1173352,2.63376136 46.1727614,4.2927017 49.197196,7.78523864 C52.276517,11.3408949 53.2807415,16.8060085 52.1265597,23.6379886 C51.5972983,23.6019205 50.9927642,23.6417131 50.3966591,23.7544261 L48.7539886,19.8098608 C48.472108,19.1329943 47.7331023,18.767804 47.0244801,18.9528494 C46.8674659,18.9938182 31.2281847,22.9611222 24.6382926,14.757375 C24.1300057,14.1244176 23.2047784,14.0232699 22.571429,14.5317528 C21.9384716,15.0402358 21.8373239,15.9656591 22.3460028,16.5986165 C29.0039148,24.8878295 42.3430653,22.9389716 46.5154091,22.0829403 L47.8019062,25.1718665 C48.2866705,26.3364375 49.5267102,26.9725313 50.7504801,26.6843778 C51.2911108,26.5571591 51.8472273,26.5412813 52.0963722,26.590679 C52.871642,26.7449489 53.4561818,27.5108097 53.4561818,28.3723295 L53.4561818,29.5968835 C53.4561818,30.4919233 52.8806591,31.2846392 52.1173466,31.4408693 C51.9664091,31.4718409 51.8158636,31.4818381 51.6692386,31.4712528 C50.1659403,31.360696 48.7665341,32.456267 48.489358,33.9658381 C47.2493182,40.7172528 41.3655,45.617625 34.4988239,45.617625 C27.6323437,45.617625 21.7485256,40.7172528 20.5082898,33.9658381 Z M28.3139148,63.7654091 C27.9583295,64.1211903 27.4676847,64.2970227 26.9664545,64.247233 C26.4658125,64.1976392 26.0186847,63.9290881 25.7395483,63.5105795 L19.1065313,53.560858 L21.9957102,50.671679 L32.3486506,59.7304773 L28.3139148,63.7654091 Z M32.6871818,66.0455455 L32.800679,63.436875 L34.499608,61.737946 L36.1983409,63.436875 L36.3118381,66.0455455 L32.6871818,66.0455455 Z M34.499608,57.7055625 L24.9703551,49.3675398 L24.9703551,45.6678068 C27.7140852,47.5004233 31.0000142,48.558554 34.499608,48.558554 C37.9992017,48.558554 41.2851307,47.5004233 44.0288608,45.6680028 L44.0288608,49.3675398 L34.499608,57.7055625 Z M43.2594716,63.5105795 C42.9803352,63.9290881 42.5332074,64.1976392 42.0325653,64.247233 C41.5313352,64.2972187 41.0408864,64.1209943 40.6851051,63.7654091 L36.6503693,59.7304773 L47.0033097,50.671679 L49.8924886,53.560858 L43.2594716,63.5105795 Z" id="Shape" fill-rule="nonzero"></path>
                    </g>
                </g>
                <g id="icon-man" transform="translate(640.000000, 305.000000)" fill="#FFFFFF">
                    <g id="employee" transform="translate(30.000000, 10.000000)">
                        <path d="M25.0713068,73.8529347 L18.7860341,73.8529347 C17.974108,73.8529347 17.3158636,74.511179 17.3158636,75.3231051 C17.3158636,76.1352273 17.974108,76.7932756 18.7860341,76.7932756 L25.0713068,76.7932756 C25.883233,76.7932756 26.5414773,76.1352273 26.5414773,75.3231051 C26.5416733,74.511375 25.883429,73.8529347 25.0713068,73.8529347 Z" id="Shape" fill-rule="nonzero"></path>
                        <path d="M61.9917955,55.8582443 L52.8044062,52.3143494 L48.109858,47.6198011 C47.7981818,47.308125 47.3794773,47.1650284 46.9692017,47.1932557 L46.9692017,43.1887074 C49.187983,40.8452557 50.7638097,37.863358 51.3816733,34.4988239 C51.3899062,34.4686364 51.439108,34.4190426 51.4730199,34.405321 C51.8832955,34.4335483 52.2984716,34.405517 52.7079631,34.3218153 C54.8455909,33.8842926 56.3973068,31.8972102 56.3973068,29.5970795 L56.3973068,28.3725256 C56.3973068,26.9993864 55.8231563,25.7424886 54.8949886,24.865679 C56.4063239,16.8001278 55.2099972,10.2359148 51.4208778,5.86009943 C47.7791676,1.65541193 41.90025,-0.353428977 34.4202187,0.0509659091 C27.3986847,0.430465909 22.9138807,3.70071307 21.5819062,4.81176989 C19.7106733,5.04523295 14.1734233,6.38818466 14.1734233,14.0897216 C14.1734233,18.4471108 14.8940028,22.0549091 15.3824915,24.0010227 C13.7253153,24.728071 12.6021051,26.4305284 12.6021051,28.3911477 L12.6021051,29.5972756 C12.6021051,31.8972102 14.153821,33.8842926 16.2914489,34.3220114 C16.7009403,34.4059091 17.1165085,34.4339403 17.526392,34.405517 C17.560108,34.4192386 17.6095057,34.4686364 17.6173466,34.4974517 C18.2354063,37.8625739 19.811429,40.8448636 22.0302102,43.1885114 L22.0302102,47.1932557 C21.6197386,47.1650284 21.2010341,47.308321 20.889554,47.6198011 L16.1952017,52.3141534 L7.0078125,55.8580483 C2.65355966,57.537571 -0.146625,61.7991051 0.0403806818,66.4622898 L1.34157955,98.9522727 C1.37333523,99.7436165 2.02471875,100.363636 2.80959375,100.363636 C2.82958807,100.363636 2.84958239,100.363244 2.8695767,100.36246 C3.68091477,100.32992 4.31210795,99.6459972 4.2797642,98.8346591 L2.97856534,66.3446761 C2.94034091,65.3918097 3.07324432,64.4620739 3.35375284,63.5899687 L8.70027273,68.9364886 C10.203375,70.4395909 11.031179,72.4380426 11.031179,74.5637131 L11.031179,98.8936619 C11.031179,99.7055881 11.6894233,100.363832 12.5013494,100.363832 C13.3132756,100.363832 13.9715199,99.7055881 13.9715199,98.8936619 L13.9715199,74.563321 C13.9715199,71.6523835 12.8379205,68.9155142 10.7794858,66.8570795 L4.83333239,60.9111222 C5.67897443,59.9027812 6.77964205,59.0977159 8.06633523,58.6013864 L16.7109375,55.2670398 L23.2937727,65.1414886 C24.063358,66.2960625 25.296733,67.0364403 26.677517,67.1730682 C26.8311989,67.188358 26.9844886,67.1958068 27.1369943,67.1958068 C28.0673182,67.1958068 28.9674545,66.9151023 29.7295909,66.3944659 L28.3174432,98.8293665 C28.2821591,99.6405085 28.911,100.326784 29.7223381,100.362068 C29.7440966,100.363048 29.7658551,100.36344 29.7874176,100.36344 C30.5699403,100.36344 31.2207358,99.7467528 31.2550398,98.9571733 L32.5599631,68.9856903 L36.440821,68.9856903 L37.7457443,98.9571733 C37.7800483,99.7465568 38.4308437,100.36344 39.2133665,100.36344 C39.234929,100.36344 39.2566875,100.363048 39.278446,100.362068 C40.0895881,100.326588 40.718625,99.6405085 40.6833409,98.8293665 L39.2711932,66.394858 C40.0331335,66.9156903 40.9332699,67.1961989 41.8637898,67.1961989 C42.0162955,67.1961989 42.1697812,67.188554 42.323267,67.1734602 C43.7038551,67.0368324 44.9372301,66.2962585 45.7070114,65.1418807 L52.2898466,55.2674318 L60.9344489,58.6017784 C62.221142,59.098108 63.3218097,59.9033693 64.1674517,60.9115142 L58.2212983,66.8574716 C56.1628636,68.9159062 55.0292642,71.6527756 55.0292642,74.5637131 L55.0292642,98.8936619 C55.0292642,99.7055881 55.6875085,100.363832 56.4994347,100.363832 C57.3113608,100.363832 57.9696051,99.7055881 57.9696051,98.8936619 L57.9696051,74.5637131 C57.9696051,72.4380426 58.7974091,70.4395909 60.3005114,68.9364886 L65.6470312,63.5899687 C65.9275398,64.4620739 66.0604432,65.3918097 66.0222187,66.3446761 L64.7212159,98.8346591 C64.6886761,99.6459972 65.3200653,100.32992 66.1314034,100.36246 C66.1515938,100.363244 66.171392,100.363636 66.1913864,100.363636 C66.9760653,100.363636 67.6276449,99.7436165 67.6594006,98.9522727 L68.9605994,66.4624858 C69.146233,61.7993011 66.3460483,57.537767 61.9917955,55.8582443 Z M20.5082898,33.9658381 C20.2317017,32.4566591 18.8360199,31.3614801 17.3289972,31.4716449 C17.1823722,31.4824261 17.0316307,31.4720369 16.8806932,31.4412614 C16.1173807,31.2850312 15.541858,30.4923153 15.541858,29.5972756 L15.541858,28.3911477 C15.541858,27.4988523 16.1258097,26.7233864 16.9002955,26.5873466 C17.5385455,26.4754176 18.1517045,26.7104489 18.5396335,27.2161875 C18.8211222,27.5833381 19.1959176,27.8456165 19.6236392,27.9749915 C20.2501278,28.1641534 20.941108,28.0532045 21.4719375,27.6784091 C22.7578466,26.7708239 23.847929,25.6193864 24.7116051,24.2562443 C25.1461875,23.5703608 24.9427159,22.6621875 24.2568324,22.2274091 C23.5709489,21.7928267 22.6625795,21.9964943 22.2279972,22.6821818 C21.7024602,23.511358 21.0693068,24.235858 20.3404943,24.8431364 C19.7759489,24.3213239 19.0943778,23.9557415 18.3602727,23.7673636 C17.9349034,22.1823239 17.1131761,18.543554 17.1131761,14.0899176 C17.1131761,7.95597443 21.6801136,7.71094602 22.1901648,7.70330114 C22.5700568,7.70330114 22.9350511,7.55628409 23.2088949,7.29302557 C23.2496676,7.25401705 27.3620284,3.37707955 34.5782131,2.98699432 C41.1173352,2.63376136 46.1727614,4.2927017 49.197196,7.78523864 C52.276517,11.3408949 53.2807415,16.8060085 52.1265597,23.6379886 C51.5972983,23.6019205 50.9927642,23.6417131 50.3966591,23.7544261 L48.7539886,19.8098608 C48.472108,19.1329943 47.7331023,18.767804 47.0244801,18.9528494 C46.8674659,18.9938182 31.2281847,22.9611222 24.6382926,14.757375 C24.1300057,14.1244176 23.2047784,14.0232699 22.571429,14.5317528 C21.9384716,15.0402358 21.8373239,15.9656591 22.3460028,16.5986165 C29.0039148,24.8878295 42.3430653,22.9389716 46.5154091,22.0829403 L47.8019062,25.1718665 C48.2866705,26.3364375 49.5267102,26.9725313 50.7504801,26.6843778 C51.2911108,26.5571591 51.8472273,26.5412813 52.0963722,26.590679 C52.871642,26.7449489 53.4561818,27.5108097 53.4561818,28.3723295 L53.4561818,29.5968835 C53.4561818,30.4919233 52.8806591,31.2846392 52.1173466,31.4408693 C51.9664091,31.4718409 51.8158636,31.4818381 51.6692386,31.4712528 C50.1659403,31.360696 48.7665341,32.456267 48.489358,33.9658381 C47.2493182,40.7172528 41.3655,45.617625 34.4988239,45.617625 C27.6323437,45.617625 21.7485256,40.7172528 20.5082898,33.9658381 Z M28.3139148,63.7654091 C27.9583295,64.1211903 27.4676847,64.2970227 26.9664545,64.247233 C26.4658125,64.1976392 26.0186847,63.9290881 25.7395483,63.5105795 L19.1065313,53.560858 L21.9957102,50.671679 L32.3486506,59.7304773 L28.3139148,63.7654091 Z M32.6871818,66.0455455 L32.800679,63.436875 L34.499608,61.737946 L36.1983409,63.436875 L36.3118381,66.0455455 L32.6871818,66.0455455 Z M34.499608,57.7055625 L24.9703551,49.3675398 L24.9703551,45.6678068 C27.7140852,47.5004233 31.0000142,48.558554 34.499608,48.558554 C37.9992017,48.558554 41.2851307,47.5004233 44.0288608,45.6680028 L44.0288608,49.3675398 L34.499608,57.7055625 Z M43.2594716,63.5105795 C42.9803352,63.9290881 42.5332074,64.1976392 42.0325653,64.247233 C41.5313352,64.2972187 41.0408864,64.1209943 40.6851051,63.7654091 L36.6503693,59.7304773 L47.0033097,50.671679 L49.8924886,53.560858 L43.2594716,63.5105795 Z" id="Shape" fill-rule="nonzero"></path>
                    </g>
                </g>
                <g id="icon-man" transform="translate(897.000000, 305.000000)" fill="#FFFFFF">
                    <g id="employee" transform="translate(30.000000, 10.000000)">
                        <path d="M25.0713068,73.8529347 L18.7860341,73.8529347 C17.974108,73.8529347 17.3158636,74.511179 17.3158636,75.3231051 C17.3158636,76.1352273 17.974108,76.7932756 18.7860341,76.7932756 L25.0713068,76.7932756 C25.883233,76.7932756 26.5414773,76.1352273 26.5414773,75.3231051 C26.5416733,74.511375 25.883429,73.8529347 25.0713068,73.8529347 Z" id="Shape" fill-rule="nonzero"></path>
                        <path d="M61.9917955,55.8582443 L52.8044062,52.3143494 L48.109858,47.6198011 C47.7981818,47.308125 47.3794773,47.1650284 46.9692017,47.1932557 L46.9692017,43.1887074 C49.187983,40.8452557 50.7638097,37.863358 51.3816733,34.4988239 C51.3899062,34.4686364 51.439108,34.4190426 51.4730199,34.405321 C51.8832955,34.4335483 52.2984716,34.405517 52.7079631,34.3218153 C54.8455909,33.8842926 56.3973068,31.8972102 56.3973068,29.5970795 L56.3973068,28.3725256 C56.3973068,26.9993864 55.8231563,25.7424886 54.8949886,24.865679 C56.4063239,16.8001278 55.2099972,10.2359148 51.4208778,5.86009943 C47.7791676,1.65541193 41.90025,-0.353428977 34.4202187,0.0509659091 C27.3986847,0.430465909 22.9138807,3.70071307 21.5819062,4.81176989 C19.7106733,5.04523295 14.1734233,6.38818466 14.1734233,14.0897216 C14.1734233,18.4471108 14.8940028,22.0549091 15.3824915,24.0010227 C13.7253153,24.728071 12.6021051,26.4305284 12.6021051,28.3911477 L12.6021051,29.5972756 C12.6021051,31.8972102 14.153821,33.8842926 16.2914489,34.3220114 C16.7009403,34.4059091 17.1165085,34.4339403 17.526392,34.405517 C17.560108,34.4192386 17.6095057,34.4686364 17.6173466,34.4974517 C18.2354063,37.8625739 19.811429,40.8448636 22.0302102,43.1885114 L22.0302102,47.1932557 C21.6197386,47.1650284 21.2010341,47.308321 20.889554,47.6198011 L16.1952017,52.3141534 L7.0078125,55.8580483 C2.65355966,57.537571 -0.146625,61.7991051 0.0403806818,66.4622898 L1.34157955,98.9522727 C1.37333523,99.7436165 2.02471875,100.363636 2.80959375,100.363636 C2.82958807,100.363636 2.84958239,100.363244 2.8695767,100.36246 C3.68091477,100.32992 4.31210795,99.6459972 4.2797642,98.8346591 L2.97856534,66.3446761 C2.94034091,65.3918097 3.07324432,64.4620739 3.35375284,63.5899687 L8.70027273,68.9364886 C10.203375,70.4395909 11.031179,72.4380426 11.031179,74.5637131 L11.031179,98.8936619 C11.031179,99.7055881 11.6894233,100.363832 12.5013494,100.363832 C13.3132756,100.363832 13.9715199,99.7055881 13.9715199,98.8936619 L13.9715199,74.563321 C13.9715199,71.6523835 12.8379205,68.9155142 10.7794858,66.8570795 L4.83333239,60.9111222 C5.67897443,59.9027812 6.77964205,59.0977159 8.06633523,58.6013864 L16.7109375,55.2670398 L23.2937727,65.1414886 C24.063358,66.2960625 25.296733,67.0364403 26.677517,67.1730682 C26.8311989,67.188358 26.9844886,67.1958068 27.1369943,67.1958068 C28.0673182,67.1958068 28.9674545,66.9151023 29.7295909,66.3944659 L28.3174432,98.8293665 C28.2821591,99.6405085 28.911,100.326784 29.7223381,100.362068 C29.7440966,100.363048 29.7658551,100.36344 29.7874176,100.36344 C30.5699403,100.36344 31.2207358,99.7467528 31.2550398,98.9571733 L32.5599631,68.9856903 L36.440821,68.9856903 L37.7457443,98.9571733 C37.7800483,99.7465568 38.4308437,100.36344 39.2133665,100.36344 C39.234929,100.36344 39.2566875,100.363048 39.278446,100.362068 C40.0895881,100.326588 40.718625,99.6405085 40.6833409,98.8293665 L39.2711932,66.394858 C40.0331335,66.9156903 40.9332699,67.1961989 41.8637898,67.1961989 C42.0162955,67.1961989 42.1697812,67.188554 42.323267,67.1734602 C43.7038551,67.0368324 44.9372301,66.2962585 45.7070114,65.1418807 L52.2898466,55.2674318 L60.9344489,58.6017784 C62.221142,59.098108 63.3218097,59.9033693 64.1674517,60.9115142 L58.2212983,66.8574716 C56.1628636,68.9159062 55.0292642,71.6527756 55.0292642,74.5637131 L55.0292642,98.8936619 C55.0292642,99.7055881 55.6875085,100.363832 56.4994347,100.363832 C57.3113608,100.363832 57.9696051,99.7055881 57.9696051,98.8936619 L57.9696051,74.5637131 C57.9696051,72.4380426 58.7974091,70.4395909 60.3005114,68.9364886 L65.6470312,63.5899687 C65.9275398,64.4620739 66.0604432,65.3918097 66.0222187,66.3446761 L64.7212159,98.8346591 C64.6886761,99.6459972 65.3200653,100.32992 66.1314034,100.36246 C66.1515938,100.363244 66.171392,100.363636 66.1913864,100.363636 C66.9760653,100.363636 67.6276449,99.7436165 67.6594006,98.9522727 L68.9605994,66.4624858 C69.146233,61.7993011 66.3460483,57.537767 61.9917955,55.8582443 Z M20.5082898,33.9658381 C20.2317017,32.4566591 18.8360199,31.3614801 17.3289972,31.4716449 C17.1823722,31.4824261 17.0316307,31.4720369 16.8806932,31.4412614 C16.1173807,31.2850312 15.541858,30.4923153 15.541858,29.5972756 L15.541858,28.3911477 C15.541858,27.4988523 16.1258097,26.7233864 16.9002955,26.5873466 C17.5385455,26.4754176 18.1517045,26.7104489 18.5396335,27.2161875 C18.8211222,27.5833381 19.1959176,27.8456165 19.6236392,27.9749915 C20.2501278,28.1641534 20.941108,28.0532045 21.4719375,27.6784091 C22.7578466,26.7708239 23.847929,25.6193864 24.7116051,24.2562443 C25.1461875,23.5703608 24.9427159,22.6621875 24.2568324,22.2274091 C23.5709489,21.7928267 22.6625795,21.9964943 22.2279972,22.6821818 C21.7024602,23.511358 21.0693068,24.235858 20.3404943,24.8431364 C19.7759489,24.3213239 19.0943778,23.9557415 18.3602727,23.7673636 C17.9349034,22.1823239 17.1131761,18.543554 17.1131761,14.0899176 C17.1131761,7.95597443 21.6801136,7.71094602 22.1901648,7.70330114 C22.5700568,7.70330114 22.9350511,7.55628409 23.2088949,7.29302557 C23.2496676,7.25401705 27.3620284,3.37707955 34.5782131,2.98699432 C41.1173352,2.63376136 46.1727614,4.2927017 49.197196,7.78523864 C52.276517,11.3408949 53.2807415,16.8060085 52.1265597,23.6379886 C51.5972983,23.6019205 50.9927642,23.6417131 50.3966591,23.7544261 L48.7539886,19.8098608 C48.472108,19.1329943 47.7331023,18.767804 47.0244801,18.9528494 C46.8674659,18.9938182 31.2281847,22.9611222 24.6382926,14.757375 C24.1300057,14.1244176 23.2047784,14.0232699 22.571429,14.5317528 C21.9384716,15.0402358 21.8373239,15.9656591 22.3460028,16.5986165 C29.0039148,24.8878295 42.3430653,22.9389716 46.5154091,22.0829403 L47.8019062,25.1718665 C48.2866705,26.3364375 49.5267102,26.9725313 50.7504801,26.6843778 C51.2911108,26.5571591 51.8472273,26.5412813 52.0963722,26.590679 C52.871642,26.7449489 53.4561818,27.5108097 53.4561818,28.3723295 L53.4561818,29.5968835 C53.4561818,30.4919233 52.8806591,31.2846392 52.1173466,31.4408693 C51.9664091,31.4718409 51.8158636,31.4818381 51.6692386,31.4712528 C50.1659403,31.360696 48.7665341,32.456267 48.489358,33.9658381 C47.2493182,40.7172528 41.3655,45.617625 34.4988239,45.617625 C27.6323437,45.617625 21.7485256,40.7172528 20.5082898,33.9658381 Z M28.3139148,63.7654091 C27.9583295,64.1211903 27.4676847,64.2970227 26.9664545,64.247233 C26.4658125,64.1976392 26.0186847,63.9290881 25.7395483,63.5105795 L19.1065313,53.560858 L21.9957102,50.671679 L32.3486506,59.7304773 L28.3139148,63.7654091 Z M32.6871818,66.0455455 L32.800679,63.436875 L34.499608,61.737946 L36.1983409,63.436875 L36.3118381,66.0455455 L32.6871818,66.0455455 Z M34.499608,57.7055625 L24.9703551,49.3675398 L24.9703551,45.6678068 C27.7140852,47.5004233 31.0000142,48.558554 34.499608,48.558554 C37.9992017,48.558554 41.2851307,47.5004233 44.0288608,45.6680028 L44.0288608,49.3675398 L34.499608,57.7055625 Z M43.2594716,63.5105795 C42.9803352,63.9290881 42.5332074,64.1976392 42.0325653,64.247233 C41.5313352,64.2972187 41.0408864,64.1209943 40.6851051,63.7654091 L36.6503693,59.7304773 L47.0033097,50.671679 L49.8924886,53.560858 L43.2594716,63.5105795 Z" id="Shape" fill-rule="nonzero"></path>
                    </g>
                </g>
                <path d="M233.5,179.79769 L233.5,328.255573" id="Line-5" stroke="#FFFFFF" stroke-width="3" stroke-linecap="round" stroke-linejoin="round" stroke-dasharray="4,10,4,10"></path>
                <path d="M494.5,179.79769 L494.5,328.255573" id="Line-5-Copy" stroke="#FFFFFF" stroke-width="3" stroke-linecap="round" stroke-linejoin="round" stroke-dasharray="4,10,4,10"></path>
                <path d="M750.5,181.79769 L750.5,330.255573" id="Line-5-Copy-2" stroke="#FFFFFF" stroke-width="3" stroke-linecap="round" stroke-linejoin="round" stroke-dasharray="4,10,4,10"></path>
                <path d="M1007.5,181.79769 L1007.5,330.255573" id="Line-5-Copy-3" stroke="#FFFFFF" stroke-width="3" stroke-linecap="round" stroke-linejoin="round" stroke-dasharray="4,10,4,10"></path>
                <g id="lock" transform="translate(170.000000, 109.000000)" stroke="#FFFFFF" stroke-width="3">
                    <g id="icon-google" transform="translate(45.000000, 0.000000)">
                        <g id="Group-Copy-2">
                            <rect id="Rectangle" x="12.5" y="1.5" width="15" height="28" rx="7.5"></rect>
                            <path d="M38.6103324,41.9471115 C40.4632225,38.7311424 40.4632225,34.7688576 38.6103324,31.5528885 C37.1095882,28.9479933 35.2972587,25.8020067 33.7965145,23.1971115 C31.9436244,19.9811424 28.5195361,18 24.8138799,18 L15.1861201,18 C11.4804639,18 8.05625155,19.9811424 6.20348549,23.1971115 C4.70274126,25.8020067 2.89028777,28.9479933 1.38966758,31.5528885 C-0.463222525,34.7688576 -0.463222525,38.7311424 1.38966758,41.9471115 C2.89028777,44.5520067 4.70274126,47.6979933 6.20348549,50.3028885 C8.05625155,53.5188576 11.4804639,55.5 15.1861201,55.5 L24.8138799,55.5 C28.5195361,55.5 31.9436244,53.5188576 33.7965145,50.3028885 C35.2972587,47.6979933 37.1095882,44.5520067 38.6103324,41.9471115 Z" id="Page-1" fill="#1C1A1A"></path>
                        </g>
                    </g>
                    <path d="M0.397873421,36.5 L44.5119031,36.5" id="Line-4" stroke-linecap="square"></path>
                    <path d="M86.5,36.5 L129.511626,36.5" id="Line-4-Copy" stroke-linecap="square"></path>
                    <path d="M61.25,39.1304157 C59.3071455,38.0065351 58,35.9059177 58,33.5 C58,29.9101491 60.9101491,27 64.5,27 C68.0898509,27 71,29.9101491 71,33.5 C71,35.9059177 69.6928545,38.0065351 67.75,39.1304157 L67.75,44.875 C67.75,46.6699254 66.2949254,48.125 64.5,48.125 C62.7050746,48.125 61.25,46.6699254 61.25,44.875 L61.25,39.1304157 Z" id="Combined-Shape"></path>
                </g>
                <g id="lock-copy" transform="translate(428.000000, 109.000000)" stroke="#FFFFFF" stroke-width="3">
                    <g id="icon-google" transform="translate(45.000000, 0.000000)">
                        <g id="Group-Copy-2">
                            <rect id="Rectangle" x="12.5" y="1.5" width="15" height="28" rx="7.5"></rect>
                            <path d="M38.6103324,41.9471115 C40.4632225,38.7311424 40.4632225,34.7688576 38.6103324,31.5528885 C37.1095882,28.9479933 35.2972587,25.8020067 33.7965145,23.1971115 C31.9436244,19.9811424 28.5195361,18 24.8138799,18 L15.1861201,18 C11.4804639,18 8.05625155,19.9811424 6.20348549,23.1971115 C4.70274126,25.8020067 2.89028777,28.9479933 1.38966758,31.5528885 C-0.463222525,34.7688576 -0.463222525,38.7311424 1.38966758,41.9471115 C2.89028777,44.5520067 4.70274126,47.6979933 6.20348549,50.3028885 C8.05625155,53.5188576 11.4804639,55.5 15.1861201,55.5 L24.8138799,55.5 C28.5195361,55.5 31.9436244,53.5188576 33.7965145,50.3028885 C35.2972587,47.6979933 37.1095882,44.5520067 38.6103324,41.9471115 Z" id="Page-1" fill="#1C1A1A"></path>
                        </g>
                    </g>
                    <path d="M0.397873421,36.5 L44.5119031,36.5" id="Line-4" stroke-linecap="square"></path>
                    <path d="M86.5,36.5 L129.511626,36.5" id="Line-4-Copy" stroke-linecap="square"></path>
                    <path d="M61.25,39.1304157 C59.3071455,38.0065351 58,35.9059177 58,33.5 C58,29.9101491 60.9101491,27 64.5,27 C68.0898509,27 71,29.9101491 71,33.5 C71,35.9059177 69.6928545,38.0065351 67.75,39.1304157 L67.75,44.875 C67.75,46.6699254 66.2949254,48.125 64.5,48.125 C62.7050746,48.125 61.25,46.6699254 61.25,44.875 L61.25,39.1304157 Z" id="Combined-Shape"></path>
                </g>
                <g id="lock-copy-2" transform="translate(686.000000, 109.000000)" stroke="#FFFFFF" stroke-width="3">
                    <g id="icon-google" transform="translate(45.000000, 0.000000)">
                        <g id="Group-Copy-2">
                            <rect id="Rectangle" x="12.5" y="1.5" width="15" height="28" rx="7.5"></rect>
                            <path d="M38.6103324,41.9471115 C40.4632225,38.7311424 40.4632225,34.7688576 38.6103324,31.5528885 C37.1095882,28.9479933 35.2972587,25.8020067 33.7965145,23.1971115 C31.9436244,19.9811424 28.5195361,18 24.8138799,18 L15.1861201,18 C11.4804639,18 8.05625155,19.9811424 6.20348549,23.1971115 C4.70274126,25.8020067 2.89028777,28.9479933 1.38966758,31.5528885 C-0.463222525,34.7688576 -0.463222525,38.7311424 1.38966758,41.9471115 C2.89028777,44.5520067 4.70274126,47.6979933 6.20348549,50.3028885 C8.05625155,53.5188576 11.4804639,55.5 15.1861201,55.5 L24.8138799,55.5 C28.5195361,55.5 31.9436244,53.5188576 33.7965145,50.3028885 C35.2972587,47.6979933 37.1095882,44.5520067 38.6103324,41.9471115 Z" id="Page-1" fill="#1C1A1A"></path>
                        </g>
                    </g>
                    <path d="M0.397873421,36.5 L44.5119031,36.5" id="Line-4" stroke-linecap="square"></path>
                    <path d="M86.5,36.5 L129.511626,36.5" id="Line-4-Copy" stroke-linecap="square"></path>
                    <path d="M61.25,39.1304157 C59.3071455,38.0065351 58,35.9059177 58,33.5 C58,29.9101491 60.9101491,27 64.5,27 C68.0898509,27 71,29.9101491 71,33.5 C71,35.9059177 69.6928545,38.0065351 67.75,39.1304157 L67.75,44.875 C67.75,46.6699254 66.2949254,48.125 64.5,48.125 C62.7050746,48.125 61.25,46.6699254 61.25,44.875 L61.25,39.1304157 Z" id="Combined-Shape"></path>
                </g>
                <g id="lock-copy-3" transform="translate(943.000000, 109.000000)" stroke="#FFFFFF" stroke-width="3">
                    <g id="icon-google" transform="translate(45.000000, 0.000000)">
                        <g id="Group-Copy-2">
                            <rect id="Rectangle" x="12.5" y="1.5" width="15" height="28" rx="7.5"></rect>
                            <path d="M38.6103324,41.9471115 C40.4632225,38.7311424 40.4632225,34.7688576 38.6103324,31.5528885 C37.1095882,28.9479933 35.2972587,25.8020067 33.7965145,23.1971115 C31.9436244,19.9811424 28.5195361,18 24.8138799,18 L15.1861201,18 C11.4804639,18 8.05625155,19.9811424 6.20348549,23.1971115 C4.70274126,25.8020067 2.89028777,28.9479933 1.38966758,31.5528885 C-0.463222525,34.7688576 -0.463222525,38.7311424 1.38966758,41.9471115 C2.89028777,44.5520067 4.70274126,47.6979933 6.20348549,50.3028885 C8.05625155,53.5188576 11.4804639,55.5 15.1861201,55.5 L24.8138799,55.5 C28.5195361,55.5 31.9436244,53.5188576 33.7965145,50.3028885 C35.2972587,47.6979933 37.1095882,44.5520067 38.6103324,41.9471115 Z" id="Page-1" fill="#1C1A1A"></path>
                        </g>
                    </g>
                    <path d="M0.397873421,36.5 L44.5119031,36.5" id="Line-4" stroke-linecap="square"></path>
                    <path d="M86.5,36.5 L129.511626,36.5" id="Line-4-Copy" stroke-linecap="square"></path>
                    <path d="M61.25,39.1304157 C59.3071455,38.0065351 58,35.9059177 58,33.5 C58,29.9101491 60.9101491,27 64.5,27 C68.0898509,27 71,29.9101491 71,33.5 C71,35.9059177 69.6928545,38.0065351 67.75,39.1304157 L67.75,44.875 C67.75,46.6699254 66.2949254,48.125 64.5,48.125 C62.7050746,48.125 61.25,46.6699254 61.25,44.875 L61.25,39.1304157 Z" id="Combined-Shape"></path>
                </g>
                <text id="Supplier-Company" font-family="GraphikLCG-Regular, Graphik LCG" font-size="20" font-weight="normal" line-spacing="28" fill="#FFFFFF">
                    <tspan x="72.24" y="20">Supplier</tspan>
                    <tspan x="66.28" y="48">Company</tspan>
                </text>
                <text id="Transport-Company" font-family="GraphikLCG-Regular, Graphik LCG" font-size="20" font-weight="normal" line-spacing="28" fill="#FFFFFF">
                    <tspan x="320.25" y="20">Transport </tspan>
                    <tspan x="320.28" y="48">Company</tspan>
                </text>
                <text id="Agents-with-a-key" font-family="GraphikLCG-Regular, Graphik LCG" font-size="20" font-weight="normal" line-spacing="28" fill="#FFFFFF">
                    <tspan x="116.3" y="460">Agents with a key</tspan>
                </text>
                <text id="Agents-with-a-key-Copy" font-family="GraphikLCG-Regular, Graphik LCG" font-size="20" font-weight="normal" line-spacing="28" fill="#FFFFFF">
                    <tspan x="392.3" y="460">Agents with a key</tspan>
                </text>
                <text id="Agents-with-a-key-Copy-2" font-family="GraphikLCG-Regular, Graphik LCG" font-size="20" font-weight="normal" line-spacing="28" fill="#FFFFFF">
                    <tspan x="650.3" y="460">Agents with a key</tspan>
                </text>
                <text id="Agents-with-a-key-Copy-3" font-family="GraphikLCG-Regular, Graphik LCG" font-size="20" font-weight="normal" line-spacing="28" fill="#FFFFFF">
                    <tspan x="917.3" y="460">Agents with a key</tspan>
                </text>
                <text id="Cargo" font-family="GraphikLCG-Regular, Graphik LCG" font-size="20" font-weight="normal" line-spacing="28" fill="#FFFFFF">
                    <tspan x="592.13" y="20">Cargo</tspan>
                </text>
                <text id="Warehouse" font-family="GraphikLCG-Regular, Graphik LCG" font-size="20" font-weight="normal" line-spacing="28" fill="#FFFFFF">
                    <tspan x="821.86" y="20">Warehouse</tspan>
                </text>
                <text id="Recipient-Company" font-family="GraphikLCG-Regular, Graphik LCG" font-size="20" font-weight="normal" line-spacing="28" fill="#FFFFFF">
                    <tspan x="1091.68" y="20">Recipient </tspan>
                    <tspan x="1090.78" y="48">Company</tspan>
                </text>
                <g id="icon-cargo" transform="translate(558.000000, 84.000000)">
                    <g id="icon-google" stroke-width="1" fill-rule="evenodd" stroke="#FFFFFF">
                        <g id="Group-Copy-2" stroke-width="3">
                            <path d="M123.553064,76.6307569 C129.482312,66.3396557 129.482312,53.6603443 123.553064,43.3692431 C118.750682,35.0335784 112.951228,24.9664216 108.148846,16.6307569 C102.219598,6.33965566 91.2625155,0 79.4044158,0 L48.5955842,0 C36.7374845,0 25.780005,6.33965566 19.8511536,16.6307569 C15.048772,24.9664216 9.24892086,35.0335784 4.44693624,43.3692431 C-1.48231208,53.6603443 -1.48231208,66.3396557 4.44693624,76.6307569 C9.24892086,84.9664216 15.048772,95.0335784 19.8511536,103.369243 C25.780005,113.660344 36.7374845,120 48.5955842,120 L79.4044158,120 C91.2625155,120 102.219598,113.660344 108.148846,103.369243 C112.951228,95.0335784 118.750682,84.9664216 123.553064,76.6307569 Z" id="Page-1"></path>
                        </g>
                    </g>
                    <rect id="Rectangle-23" stroke="#FFFFFF" stroke-width="3" x="40.5" y="27.5" width="47" height="72"></rect>
                    <rect id="Rectangle" fill="#FFFFFF" fill-rule="evenodd" x="40" y="91" width="48" height="3"></rect>
                    <rect id="Rectangle-23-Copy-7" stroke="#FFFFFF" stroke-width="3" x="35.5" y="21.5" width="57" height="6"></rect>
                    <rect id="Rectangle-23-Copy" stroke="#FFFFFF" stroke-width="3" x="50.5" y="39.5" width="8" height="8"></rect>
                    <rect id="Rectangle-23-Copy-3" stroke="#FFFFFF" stroke-width="3" x="50.5" y="56.5" width="8" height="8"></rect>
                    <rect id="Rectangle-23-Copy-5" stroke="#FFFFFF" stroke-width="3" x="50.5" y="73.5" width="8" height="8"></rect>
                    <rect id="Rectangle-23-Copy-2" stroke="#FFFFFF" stroke-width="3" x="68.5" y="39.5" width="8" height="8"></rect>
                    <rect id="Rectangle-23-Copy-4" stroke="#FFFFFF" stroke-width="3" x="68.5" y="56.5" width="8" height="8"></rect>
                    <rect id="Rectangle-23-Copy-6" stroke="#FFFFFF" stroke-width="3" x="68.5" y="73.5" width="8" height="8"></rect>
                </g>
            </g>
        </g>
    </g>
</svg>