<svg width="17" height="14" viewBox="0 0 17 14" version="1.1" xmlns="http://www.w3.org/2000/svg" xmlns:xlink="http://www.w3.org/1999/xlink">
<title>Combined Shape</title>
<desc>Created using Figma</desc>
<g id="Canvas" transform="translate(-13129 -4863)">
<g id="Combined Shape">
<use xlink:href="#path0_fill" transform="matrix(-0.707107 -0.707107 0.707107 -0.707107 13137.6 4878.93)" fill="#3AC28B"/>
</g>
</g>
<defs>
<path id="path0_fill" fill-rule="evenodd" d="M 9.34362 10.3532C 9.89604 10.3532 10.3435 10.8006 10.3435 11.3531C 10.3435 11.9055 9.89604 12.353 9.34362 12.353L 1.34343 12.3533C 1.28543 12.3533 1.22777 12.3481 1.17253 12.3385C 1.11625 12.3485 1.05893 12.3533 0.999893 12.3537C 0.447466 12.3537 -0.000345267 11.9058 -0.000345267 11.3534L 0 3.35323C 0 2.80081 0.447466 2.35334 0.999893 2.35334C 1.55232 2.35334 2.00013 2.80115 1.99979 3.35323L 1.99979 8.7974L 10.5044 0.292786C 10.8952 -0.0980558 11.5281 -0.0977106 11.9186 0.292786C 12.3091 0.683283 12.3095 1.31616 11.9186 1.707L 3.27244 10.3532L 9.34362 10.3532Z"/>
</defs>
</svg>
