<svg width="46" height="596" viewBox="0 0 46 596" version="1.1" xmlns="http://www.w3.org/2000/svg" xmlns:xlink="http://www.w3.org/1999/xlink">
<title>Group 2</title>
<desc>Created using Figma</desc>
<g id="Canvas" transform="translate(-7907 -2992)">
<g id="Group 2">
<g id="Path 3 Copy 2">
<use xlink:href="#path0_stroke" transform="translate(7909 2994)" fill="#1C1A1A"/>
</g>
<g id="Path 3 Copy 3">
<use xlink:href="#path1_stroke" transform="translate(7909 3290)" fill="#1C1A1A"/>
</g>
</g>
</g>
<defs>
<path id="path0_stroke" d="M -0.142521 -1.37917C -0.9672 -1.30046 -1.57193 -0.568115 -1.49321 0.256565C -1.4145 1.08124 -0.682158 1.68597 0.142521 1.60726L -0.142521 -1.37917ZM 20.2893 276.165L 18.7893 276.165C 18.7893 276.235 18.7941 276.304 18.8037 276.373L 20.2893 276.165ZM 42 297.5C 42.8284 297.5 43.5 296.828 43.5 296C 43.5 295.172 42.8284 294.5 42 294.5L 42 297.5ZM 0 0.114044C 0.142521 1.60726 0.141494 1.60736 0.140544 1.60745C 0.140329 1.60747 0.139451 1.60755 0.13902 1.60759C 0.138154 1.60767 0.13759 1.60772 0.137323 1.60774C 0.136791 1.60779 0.137451 1.60773 0.139284 1.60758C 0.142952 1.60727 0.151309 1.6066 0.164204 1.60568C 0.190001 1.60386 0.233903 1.60107 0.294697 1.59836C 0.416353 1.59294 0.605193 1.58781 0.851554 1.59114C 1.34493 1.5978 2.0648 1.63829 2.935 1.77645C 4.67798 2.05318 6.99674 2.71708 9.31214 4.26189C 13.8551 7.29294 18.7893 14.0002 18.7893 29.1242L 21.7893 29.1242C 21.7893 13.3015 16.5788 5.5037 10.9771 1.76634C 8.22022 -0.0730502 5.46667 -0.859182 3.40541 -1.18644C 2.37348 -1.35028 1.50825 -1.40027 0.892057 -1.40859C 0.583633 -1.41275 0.33657 -1.40649 0.16102 -1.39866C 0.0732104 -1.39474 0.00318353 -1.39043 -0.0477982 -1.38682C -0.0732928 -1.38501 -0.0940369 -1.38338 -0.109873 -1.38206C -0.117792 -1.3814 -0.124484 -1.38082 -0.129932 -1.38033C -0.132656 -1.38009 -0.135068 -1.37987 -0.137167 -1.37967C -0.138216 -1.37958 -0.139556 -1.37945 -0.14008 -1.3794C -0.141339 -1.37928 -0.142521 -1.37917 0 0.114044ZM 18.7893 29.1242C 18.7893 29.1846 18.7893 29.2458 18.7893 29.3076C 18.7893 29.3695 18.7893 29.432 18.7893 29.4953C 18.7893 29.5586 18.7893 29.6225 18.7893 29.6872C 18.7893 29.7518 18.7893 29.8172 18.7893 29.8832C 18.7893 29.9493 18.7893 30.016 18.7893 30.0834C 18.7893 30.1509 18.7893 30.219 18.7893 30.2878C 18.7893 30.3566 18.7893 30.4261 18.7893 30.4963C 18.7893 30.5665 18.7893 30.6373 18.7893 30.7089C 18.7893 30.7805 18.7893 30.8527 18.7893 30.9256C 18.7893 30.9985 18.7893 31.0721 18.7893 31.1464C 18.7893 31.2206 18.7893 31.2956 18.7893 31.3712C 18.7893 31.4468 18.7893 31.5231 18.7893 31.6001C 18.7893 31.677 18.7893 31.7547 18.7893 31.833C 18.7893 31.9113 18.7893 31.9902 18.7893 32.0699C 18.7893 32.1495 18.7893 32.2298 18.7893 32.3108C 18.7893 32.3917 18.7893 32.4734 18.7893 32.5556C 18.7893 32.6379 18.7893 32.7208 18.7893 32.8044C 18.7893 32.888 18.7893 32.9723 18.7893 33.0572C 18.7893 33.1421 18.7893 33.2276 18.7893 33.3138C 18.7893 33.4 18.7893 33.4869 18.7893 33.5744C 18.7893 33.6619 18.7893 33.75 18.7893 33.8388C 18.7893 33.9276 18.7893 34.017 18.7893 34.1071C 18.7893 34.1972 18.7893 34.2879 18.7893 34.3792C 18.7893 34.4706 18.7893 34.5626 18.7893 34.6552C 18.7893 34.7478 18.7893 34.8411 18.7893 34.935C 18.7893 35.0289 18.7893 35.1234 18.7893 35.2185C 18.7893 35.3137 18.7893 35.4095 18.7893 35.5059C 18.7893 35.6023 18.7893 35.6993 18.7893 35.7969C 18.7893 35.8946 18.7893 35.9929 18.7893 36.0918C 18.7893 36.1906 18.7893 36.2902 18.7893 36.3903C 18.7893 36.4904 18.7893 36.5912 18.7893 36.6925C 18.7893 36.7939 18.7893 36.8959 18.7893 36.9984C 18.7893 37.101 18.7893 37.2042 18.7893 37.308C 18.7893 37.4118 18.7893 37.5162 18.7893 37.6212C 18.7893 37.7263 18.7893 37.8319 18.7893 37.9381C 18.7893 38.0443 18.7893 38.1511 18.7893 38.2586C 18.7893 38.366 18.7893 38.474 18.7893 38.5826C 18.7893 38.6912 18.7893 38.8004 18.7893 38.9102C 18.7893 39.0201 18.7893 39.1304 18.7893 39.2414C 18.7893 39.3524 18.7893 39.464 18.7893 39.5762C 18.7893 39.6883 18.7893 39.8011 18.7893 39.9144C 18.7893 40.0277 18.7893 40.1416 18.7893 40.2561C 18.7893 40.3706 18.7893 40.4857 18.7893 40.6014C 18.7893 40.717 18.7893 40.8333 18.7893 40.9501C 18.7893 41.0669 18.7893 41.1843 18.7893 41.3022C 18.7893 41.4202 18.7893 41.5387 18.7893 41.6578C 18.7893 41.7769 18.7893 41.8965 18.7893 42.0168C 18.7893 42.137 18.7893 42.2578 18.7893 42.3792C 18.7893 42.5005 18.7893 42.6224 18.7893 42.7449C 18.7893 42.8674 18.7893 42.9904 18.7893 43.114C 18.7893 43.2376 18.7893 43.3618 18.7893 43.4865C 18.7893 43.6112 18.7893 43.7365 18.7893 43.8623C 18.7893 43.9881 18.7893 44.1145 18.7893 44.2414C 18.7893 44.3683 18.7893 44.4957 18.7893 44.6237C 18.7893 44.7517 18.7893 44.8803 18.7893 45.0094C 18.7893 45.1385 18.7893 45.2681 18.7893 45.3983C 18.7893 45.5285 18.7893 45.6592 18.7893 45.7904C 18.7893 45.9217 18.7893 46.0534 18.7893 46.1857C 18.7893 46.3181 18.7893 46.4509 18.7893 46.5843C 18.7893 46.7177 18.7893 46.8516 18.7893 46.986C 18.7893 47.1204 18.7893 47.2554 18.7893 47.3909C 18.7893 47.5264 18.7893 47.6624 18.7893 47.7989C 18.7893 47.9354 18.7893 48.0725 18.7893 48.2101C 18.7893 48.3476 18.7893 48.4857 18.7893 48.6243C 18.7893 48.7629 18.7893 48.902 18.7893 49.0417C 18.7893 49.1813 18.7893 49.3214 18.7893 49.4621C 18.7893 49.6027 18.7893 49.7439 18.7893 49.8856C 18.7893 50.0272 18.7893 50.1694 18.7893 50.3121C 18.7893 50.4548 18.7893 50.5979 18.7893 50.7416C 18.7893 50.8853 18.7893 51.0295 18.7893 51.1741C 18.7893 51.3188 18.7893 51.464 18.7893 51.6096C 18.7893 51.7553 18.7893 51.9015 18.7893 52.0481C 18.7893 52.1948 18.7893 52.3419 18.7893 52.4895C 18.7893 52.6372 18.7893 52.7853 18.7893 52.9339C 18.7893 53.0825 18.7893 53.2316 18.7893 53.3811C 18.7893 53.5307 18.7893 53.6808 18.7893 53.8313C 18.7893 53.9818 18.7893 54.1328 18.7893 54.2843C 18.7893 54.4358 18.7893 54.5878 18.7893 54.7402C 18.7893 54.8926 18.7893 55.0455 18.7893 55.1989C 18.7893 55.3523 18.7893 55.5061 18.7893 55.6605C 18.7893 55.8148 18.7893 55.9696 18.7893 56.1248C 18.7893 56.2801 18.7893 56.4358 18.7893 56.5919C 18.7893 56.7481 18.7893 56.9047 18.7893 57.0618C 18.7893 57.2189 18.7893 57.3765 18.7893 57.5345C 18.7893 57.6925 18.7893 57.8509 18.7893 58.0098C 18.7893 58.1688 18.7893 58.3281 18.7893 58.4879C 18.7893 58.6478 18.7893 58.808 18.7893 58.9687C 18.7893 59.1294 18.7893 59.2906 18.7893 59.4522C 18.7893 59.6138 18.7893 59.7758 18.7893 59.9383C 18.7893 60.1008 18.7893 60.2637 18.7893 60.4271C 18.7893 60.5904 18.7893 60.7542 18.7893 60.9184C 18.7893 61.0827 18.7893 61.2473 18.7893 61.4124C 18.7893 61.5775 18.7893 61.7431 18.7893 61.909C 18.7893 62.075 18.7893 62.2414 18.7893 62.4082C 18.7893 62.575 18.7893 62.7422 18.7893 62.9099C 18.7893 63.0775 18.7893 63.2456 18.7893 63.4141C 18.7893 63.5826 18.7893 63.7515 18.7893 63.9208C 18.7893 64.0902 18.7893 64.2599 18.7893 64.4301C 18.7893 64.6003 18.7893 64.7708 18.7893 64.9418C 18.7893 65.1128 18.7893 65.2842 18.7893 65.456C 18.7893 65.6278 18.7893 65.8 18.7893 65.9726C 18.7893 66.1453 18.7893 66.3183 18.7893 66.4917C 18.7893 66.6651 18.7893 66.8389 18.7893 67.0132C 18.7893 67.1874 18.7893 67.362 18.7893 67.537C 18.7893 67.712 18.7893 67.8874 18.7893 68.0632C 18.7893 68.2391 18.7893 68.4152 18.7893 68.5918C 18.7893 68.7684 18.7893 68.9454 18.7893 69.1227C 18.7893 69.3001 18.7893 69.4779 18.7893 69.656C 18.7893 69.8341 18.7893 70.0126 18.7893 70.1915C 18.7893 70.3704 18.7893 70.5497 18.7893 70.7293C 18.7893 70.909 18.7893 71.089 18.7893 71.2694C 18.7893 71.4498 18.7893 71.6306 18.7893 71.8118C 18.7893 71.9929 18.7893 72.1744 18.7893 72.3563C 18.7893 72.5382 18.7893 72.7205 18.7893 72.9031C 18.7893 73.0857 18.7893 73.2687 18.7893 73.4521C 18.7893 73.6354 18.7893 73.8191 18.7893 74.0032C 18.7893 74.1873 18.7893 74.3717 18.7893 74.5565C 18.7893 74.7413 18.7893 74.9264 18.7893 75.1119C 18.7893 75.2974 18.7893 75.4833 18.7893 75.6695C 18.7893 75.8557 18.7893 76.0423 18.7893 76.2291C 18.7893 76.4161 18.7893 76.6033 18.7893 76.7909C 18.7893 76.9785 18.7893 77.1664 18.7893 77.3547C 18.7893 77.543 18.7893 77.7316 18.7893 77.9206C 18.7893 78.1095 18.7893 78.2988 18.7893 78.4885C 18.7893 78.6781 18.7893 78.8681 18.7893 79.0584C 18.7893 79.2487 18.7893 79.4393 18.7893 79.6303C 18.7893 79.8212 18.7893 80.0125 18.7893 80.2042C 18.7893 80.3958 18.7893 80.5877 18.7893 80.78C 18.7893 80.9723 18.7893 81.1649 18.7893 81.3578C 18.7893 81.5507 18.7893 81.7439 18.7893 81.9375C 18.7893 82.131 18.7893 82.3249 18.7893 82.5191C 18.7893 82.7133 18.7893 82.9078 18.7893 83.1026C 18.7893 83.2974 18.7893 83.4925 18.7893 83.688C 18.7893 83.8834 18.7893 84.0791 18.7893 84.2752C 18.7893 84.4712 18.7893 84.6676 18.7893 84.8642C 18.7893 85.0609 18.7893 85.2579 18.7893 85.4551C 18.7893 85.6524 18.7893 85.8499 18.7893 86.0478C 18.7893 86.2456 18.7893 86.4438 18.7893 86.6422C 18.7893 86.8407 18.7893 87.0394 18.7893 87.2384C 18.7893 87.4375 18.7893 87.6368 18.7893 87.8364C 18.7893 88.036 18.7893 88.2359 18.7893 88.4361C 18.7893 88.6363 18.7893 88.8367 18.7893 89.0375C 18.7893 89.2382 18.7893 89.4393 18.7893 89.6406C 18.7893 89.8419 18.7893 90.0435 18.7893 90.2453C 18.7893 90.4472 18.7893 90.6493 18.7893 90.8517C 18.7893 91.0541 18.7893 91.2568 18.7893 91.4598C 18.7893 91.6627 18.7893 91.866 18.7893 92.0694C 18.7893 92.2729 18.7893 92.4767 18.7893 92.6807C 18.7893 92.8847 18.7893 93.089 18.7893 93.2936C 18.7893 93.4981 18.7893 93.7029 18.7893 93.908C 18.7893 94.113 18.7893 94.3184 18.7893 94.5239C 18.7893 94.7295 18.7893 94.9353 18.7893 95.1414C 18.7893 95.3475 18.7893 95.5539 18.7893 95.7604C 18.7893 95.967 18.7893 96.1739 18.7893 96.3809C 18.7893 96.588 18.7893 96.7953 18.7893 97.0029C 18.7893 97.2105 18.7893 97.4183 18.7893 97.6263C 18.7893 97.8344 18.7893 98.0427 18.7893 98.2512C 18.7893 98.4597 18.7893 98.6685 18.7893 98.8775C 18.7893 99.0865 18.7893 99.2957 18.7893 99.5052C 18.7893 99.7147 18.7893 99.9243 18.7893 100.134C 18.7893 100.344 18.7893 100.554 18.7893 100.765C 18.7893 100.975 18.7893 101.186 18.7893 101.397C 18.7893 101.607 18.7893 101.818 18.7893 102.03C 18.7893 102.241 18.7893 102.452 18.7893 102.664C 18.7893 102.876 18.7893 103.088 18.7893 103.3C 18.7893 103.512 18.7893 103.724 18.7893 103.937C 18.7893 104.149 18.7893 104.362 18.7893 104.575C 18.7893 104.788 18.7893 105.001 18.7893 105.215C 18.7893 105.428 18.7893 105.642 18.7893 105.855C 18.7893 106.069 18.7893 106.283 18.7893 106.497C 18.7893 106.712 18.7893 106.926 18.7893 107.14C 18.7893 107.355 18.7893 107.57 18.7893 107.785C 18.7893 108 18.7893 108.215 18.7893 108.43C 18.7893 108.646 18.7893 108.861 18.7893 109.077C 18.7893 109.293 18.7893 109.508 18.7893 109.725C 18.7893 109.941 18.7893 110.157 18.7893 110.373C 18.7893 110.59 18.7893 110.806 18.7893 111.023C 18.7893 111.24 18.7893 111.457 18.7893 111.674C 18.7893 111.891 18.7893 112.109 18.7893 112.326C 18.7893 112.544 18.7893 112.761 18.7893 112.979C 18.7893 113.197 18.7893 113.415 18.7893 113.633C 18.7893 113.851 18.7893 114.07 18.7893 114.288C 18.7893 114.507 18.7893 114.725 18.7893 114.944C 18.7893 115.163 18.7893 115.382 18.7893 115.601C 18.7893 115.82 18.7893 116.04 18.7893 116.259C 18.7893 116.479 18.7893 116.698 18.7893 116.918C 18.7893 117.138 18.7893 117.358 18.7893 117.578C 18.7893 117.798 18.7893 118.018 18.7893 118.238C 18.7893 118.459 18.7893 118.679 18.7893 118.9C 18.7893 119.12 18.7893 119.341 18.7893 119.562C 18.7893 119.783 18.7893 120.004 18.7893 120.225C 18.7893 120.446 18.7893 120.668 18.7893 120.889C 18.7893 121.111 18.7893 121.332 18.7893 121.554C 18.7893 121.776 18.7893 121.997 18.7893 122.219C 18.7893 122.441 18.7893 122.663 18.7893 122.886C 18.7893 123.108 18.7893 123.33 18.7893 123.553C 18.7893 123.775 18.7893 123.998 18.7893 124.22C 18.7893 124.443 18.7893 124.666 18.7893 124.889C 18.7893 125.112 18.7893 125.335 18.7893 125.558C 18.7893 125.781 18.7893 126.004 18.7893 126.228C 18.7893 126.451 18.7893 126.675 18.7893 126.898C 18.7893 127.122 18.7893 127.346 18.7893 127.569C 18.7893 127.793 18.7893 128.017 18.7893 128.241C 18.7893 128.465 18.7893 128.689 18.7893 128.913C 18.7893 129.138 18.7893 129.362 18.7893 129.586C 18.7893 129.811 18.7893 130.035 18.7893 130.26C 18.7893 130.484 18.7893 130.709 18.7893 130.934C 18.7893 131.158 18.7893 131.383 18.7893 131.608C 18.7893 131.833 18.7893 132.058 18.7893 132.283C 18.7893 132.508 18.7893 132.733 18.7893 132.959C 18.7893 133.184 18.7893 133.409 18.7893 133.635C 18.7893 133.86 18.7893 134.085 18.7893 134.311C 18.7893 134.537 18.7893 134.762 18.7893 134.988C 18.7893 135.214 18.7893 135.439 18.7893 135.665C 18.7893 135.891 18.7893 136.117 18.7893 136.343C 18.7893 136.569 18.7893 136.795 18.7893 137.021C 18.7893 137.247 18.7893 137.473 18.7893 137.699C 18.7893 137.926 18.7893 138.152 18.7893 138.378C 18.7893 138.604 18.7893 138.831 18.7893 139.057C 18.7893 139.284 18.7893 139.51 18.7893 139.737C 18.7893 139.963 18.7893 140.19 18.7893 140.416C 18.7893 140.643 18.7893 140.87 18.7893 141.096C 18.7893 141.323 18.7893 141.55 18.7893 141.776C 18.7893 142.003 18.7893 142.23 18.7893 142.457C 18.7893 142.684 18.7893 142.911 18.7893 143.138C 18.7893 143.365 18.7893 143.591 18.7893 143.818C 18.7893 144.045 18.7893 144.272 18.7893 144.5C 18.7893 144.727 18.7893 144.954 18.7893 145.181C 18.7893 145.408 18.7893 145.635 18.7893 145.862C 18.7893 146.089 18.7893 146.316 18.7893 146.544C 18.7893 146.771 18.7893 146.998 18.7893 147.225C 18.7893 147.452 18.7893 147.68 18.7893 147.907C 18.7893 148.134 18.7893 148.361 18.7893 148.589C 18.7893 148.816 18.7893 149.043 18.7893 149.271C 18.7893 149.498 18.7893 149.725 18.7893 149.952C 18.7893 150.18 18.7893 150.407 18.7893 150.634C 18.7893 150.862 18.7893 151.089 18.7893 151.316C 18.7893 151.544 18.7893 151.771 18.7893 151.998C 18.7893 152.226 18.7893 152.453 18.7893 152.68C 18.7893 152.907 18.7893 153.135 18.7893 153.362C 18.7893 153.589 18.7893 153.816 18.7893 154.044C 18.7893 154.271 18.7893 154.498 18.7893 154.725C 18.7893 154.953 18.7893 155.18 18.7893 155.407C 18.7893 155.634 18.7893 155.861 18.7893 156.088C 18.7893 156.315 18.7893 156.543 18.7893 156.77C 18.7893 156.997 18.7893 157.224 18.7893 157.451C 18.7893 157.678 18.7893 157.905 18.7893 158.132C 18.7893 158.359 18.7893 158.586 18.7893 158.813C 18.7893 159.039 18.7893 159.266 18.7893 159.493C 18.7893 159.72 18.7893 159.947 18.7893 160.173C 18.7893 160.4 18.7893 160.627 18.7893 160.854C 18.7893 161.08 18.7893 161.307 18.7893 161.533C 18.7893 161.76 18.7893 161.986 18.7893 162.213C 18.7893 162.439 18.7893 162.666 18.7893 162.892C 18.7893 163.119 18.7893 163.345 18.7893 163.571C 18.7893 163.797 18.7893 164.024 18.7893 164.25C 18.7893 164.476 18.7893 164.702 18.7893 164.928C 18.7893 165.154 18.7893 165.38 18.7893 165.606C 18.7893 165.832 18.7893 166.058 18.7893 166.283C 18.7893 166.509 18.7893 166.735 18.7893 166.96C 18.7893 167.186 18.7893 167.412 18.7893 167.637C 18.7893 167.863 18.7893 168.088 18.7893 168.313C 18.7893 168.539 18.7893 168.764 18.7893 168.989C 18.7893 169.214 18.7893 169.439 18.7893 169.664C 18.7893 169.889 18.7893 170.114 18.7893 170.339C 18.7893 170.564 18.7893 170.789 18.7893 171.013C 18.7893 171.238 18.7893 171.462 18.7893 171.687C 18.7893 171.911 18.7893 172.136 18.7893 172.36C 18.7893 172.584 18.7893 172.809 18.7893 173.033C 18.7893 173.257 18.7893 173.481 18.7893 173.705C 18.7893 173.929 18.7893 174.152 18.7893 174.376C 18.7893 174.6 18.7893 174.823 18.7893 175.047C 18.7893 175.27 18.7893 175.494 18.7893 175.717C 18.7893 175.94 18.7893 176.163 18.7893 176.387C 18.7893 176.61 18.7893 176.833 18.7893 177.055C 18.7893 177.278 18.7893 177.501 18.7893 177.723C 18.7893 177.946 18.7893 178.168 18.7893 178.391C 18.7893 178.613 18.7893 178.835 18.7893 179.057C 18.7893 179.28 18.7893 179.502 18.7893 179.723C 18.7893 179.945 18.7893 180.167 18.7893 180.389C 18.7893 180.61 18.7893 180.832 18.7893 181.053C 18.7893 181.274 18.7893 181.495 18.7893 181.716C 18.7893 181.938 18.7893 182.158 18.7893 182.379C 18.7893 182.6 18.7893 182.821 18.7893 183.041C 18.7893 183.262 18.7893 183.482 18.7893 183.702C 18.7893 183.922 18.7893 184.142 18.7893 184.362C 18.7893 184.582 18.7893 184.802 18.7893 185.022C 18.7893 185.241 18.7893 185.461 18.7893 185.68C 18.7893 185.899 18.7893 186.118 18.7893 186.337C 18.7893 186.556 18.7893 186.775 18.7893 186.994C 18.7893 187.213 18.7893 187.431 18.7893 187.649C 18.7893 187.868 18.7893 188.086 18.7893 188.304C 18.7893 188.522 18.7893 188.74 18.7893 188.957C 18.7893 189.175 18.7893 189.393 18.7893 189.61C 18.7893 189.827 18.7893 190.045 18.7893 190.262C 18.7893 190.478 18.7893 190.695 18.7893 190.912C 18.7893 191.129 18.7893 191.345 18.7893 191.561C 18.7893 191.778 18.7893 191.994 18.7893 192.21C 18.7893 192.425 18.7893 192.641 18.7893 192.857C 18.7893 193.072 18.7893 193.288 18.7893 193.503C 18.7893 193.718 18.7893 193.933 18.7893 194.148C 18.7893 194.362 18.7893 194.577 18.7893 194.791C 18.7893 195.006 18.7893 195.22 18.7893 195.434C 18.7893 195.648 18.7893 195.862 18.7893 196.075C 18.7893 196.289 18.7893 196.502 18.7893 196.715C 18.7893 196.929 18.7893 197.142 18.7893 197.354C 18.7893 197.567 18.7893 197.78 18.7893 197.992C 18.7893 198.204 18.7893 198.417 18.7893 198.628C 18.7893 198.84 18.7893 199.052 18.7893 199.264C 18.7893 199.475 18.7893 199.686 18.7893 199.897C 18.7893 200.108 18.7893 200.319 18.7893 200.53C 18.7893 200.74 18.7893 200.951 18.7893 201.161C 18.7893 201.371 18.7893 201.581 18.7893 201.791C 18.7893 202 18.7893 202.21 18.7893 202.419C 18.7893 202.628 18.7893 202.837 18.7893 203.046C 18.7893 203.255 18.7893 203.464 18.7893 203.672C 18.7893 203.88 18.7893 204.088 18.7893 204.296C 18.7893 204.504 18.7893 204.711 18.7893 204.919C 18.7893 205.126 18.7893 205.333 18.7893 205.54C 18.7893 205.747 18.7893 205.953 18.7893 206.16C 18.7893 206.366 18.7893 206.572 18.7893 206.778C 18.7893 206.984 18.7893 207.189 18.7893 207.395C 18.7893 207.6 18.7893 207.805 18.7893 208.01C 18.7893 208.215 18.7893 208.419 18.7893 208.624C 18.7893 208.828 18.7893 209.032 18.7893 209.236C 18.7893 209.439 18.7893 209.643 18.7893 209.846C 18.7893 210.049 18.7893 210.252 18.7893 210.455C 18.7893 210.658 18.7893 210.86 18.7893 211.062C 18.7893 211.264 18.7893 211.466 18.7893 211.668C 18.7893 211.869 18.7893 212.071 18.7893 212.272C 18.7893 212.473 18.7893 212.674 18.7893 212.874C 18.7893 213.075 18.7893 213.275 18.7893 213.475C 18.7893 213.675 18.7893 213.874 18.7893 214.073C 18.7893 214.273 18.7893 214.472 18.7893 214.671C 18.7893 214.869 18.7893 215.068 18.7893 215.266C 18.7893 215.464 18.7893 215.662 18.7893 215.86C 18.7893 216.057 18.7893 216.254 18.7893 216.451C 18.7893 216.648 18.7893 216.845 18.7893 217.041C 18.7893 217.238 18.7893 217.434 18.7893 217.629C 18.7893 217.825 18.7893 218.021 18.7893 218.216C 18.7893 218.411 18.7893 218.606 18.7893 218.8C 18.7893 218.995 18.7893 219.189 18.7893 219.383C 18.7893 219.577 18.7893 219.77 18.7893 219.963C 18.7893 220.157 18.7893 220.35 18.7893 220.542C 18.7893 220.735 18.7893 220.927 18.7893 221.119C 18.7893 221.311 18.7893 221.503 18.7893 221.694C 18.7893 221.885 18.7893 222.076 18.7893 222.267C 18.7893 222.458 18.7893 222.648 18.7893 222.838C 18.7893 223.028 18.7893 223.217 18.7893 223.407C 18.7893 223.596 18.7893 223.785 18.7893 223.974C 18.7893 224.162 18.7893 224.351 18.7893 224.539C 18.7893 224.726 18.7893 224.914 18.7893 225.101C 18.7893 225.289 18.7893 225.475 18.7893 225.662C 18.7893 225.849 18.7893 226.035 18.7893 226.221C 18.7893 226.407 18.7893 226.592 18.7893 226.777C 18.7893 226.962 18.7893 227.147 18.7893 227.332C 18.7893 227.516 18.7893 227.7 18.7893 227.884C 18.7893 228.068 18.7893 228.251 18.7893 228.434C 18.7893 228.617 18.7893 228.8 18.7893 228.982C 18.7893 229.164 18.7893 229.346 18.7893 229.527C 18.7893 229.709 18.7893 229.89 18.7893 230.071C 18.7893 230.252 18.7893 230.432 18.7893 230.612C 18.7893 230.792 18.7893 230.972 18.7893 231.151C 18.7893 231.33 18.7893 231.509 18.7893 231.688C 18.7893 231.866 18.7893 232.045 18.7893 232.222C 18.7893 232.4 18.7893 232.577 18.7893 232.754C 18.7893 232.931 18.7893 233.108 18.7893 233.284C 18.7893 233.46 18.7893 233.636 18.7893 233.812C 18.7893 233.987 18.7893 234.162 18.7893 234.337C 18.7893 234.511 18.7893 234.686 18.7893 234.859C 18.7893 235.033 18.7893 235.207 18.7893 235.38C 18.7893 235.553 18.7893 235.725 18.7893 235.898C 18.7893 236.07 18.7893 236.242 18.7893 236.413C 18.7893 236.584 18.7893 236.755 18.7893 236.926C 18.7893 237.097 18.7893 237.267 18.7893 237.436C 18.7893 237.606 18.7893 237.776 18.7893 237.945C 18.7893 238.113 18.7893 238.282 18.7893 238.45C 18.7893 238.618 18.7893 238.786 18.7893 238.953C 18.7893 239.12 18.7893 239.287 18.7893 239.453C 18.7893 239.62 18.7893 239.786 18.7893 239.951C 18.7893 240.117 18.7893 240.282 18.7893 240.447C 18.7893 240.611 18.7893 240.776 18.7893 240.939C 18.7893 241.103 18.7893 241.267 18.7893 241.43C 18.7893 241.592 18.7893 241.755 18.7893 241.917C 18.7893 242.079 18.7893 242.241 18.7893 242.402C 18.7893 242.563 18.7893 242.724 18.7893 242.884C 18.7893 243.044 18.7893 243.204 18.7893 243.363C 18.7893 243.523 18.7893 243.682 18.7893 243.84C 18.7893 243.999 18.7893 244.157 18.7893 244.314C 18.7893 244.472 18.7893 244.629 18.7893 244.786C 18.7893 244.942 18.7893 245.098 18.7893 245.254C 18.7893 245.41 18.7893 245.565 18.7893 245.72C 18.7893 245.875 18.7893 246.029 18.7893 246.183C 18.7893 246.337 18.7893 246.49 18.7893 246.643C 18.7893 246.796 18.7893 246.948 18.7893 247.1C 18.7893 247.252 18.7893 247.404 18.7893 247.555C 18.7893 247.706 18.7893 247.856 18.7893 248.006C 18.7893 248.156 18.7893 248.306 18.7893 248.455C 18.7893 248.604 18.7893 248.753 18.7893 248.901C 18.7893 249.049 18.7893 249.197 18.7893 249.344C 18.7893 249.491 18.7893 249.638 18.7893 249.784C 18.7893 249.93 18.7893 250.076 18.7893 250.221C 18.7893 250.366 18.7893 250.511 18.7893 250.655C 18.7893 250.799 18.7893 250.943 18.7893 251.086C 18.7893 251.229 18.7893 251.372 18.7893 251.514C 18.7893 251.656 18.7893 251.798 18.7893 251.939C 18.7893 252.08 18.7893 252.221 18.7893 252.361C 18.7893 252.501 18.7893 252.641 18.7893 252.78C 18.7893 252.919 18.7893 253.058 18.7893 253.196C 18.7893 253.334 18.7893 253.472 18.7893 253.609C 18.7893 253.746 18.7893 253.882 18.7893 254.018C 18.7893 254.154 18.7893 254.29 18.7893 254.425C 18.7893 254.56 18.7893 254.694 18.7893 254.828C 18.7893 254.962 18.7893 255.095 18.7893 255.228C 18.7893 255.361 18.7893 255.493 18.7893 255.625C 18.7893 255.757 18.7893 255.888 18.7893 256.019C 18.7893 256.15 18.7893 256.28 18.7893 256.41C 18.7893 256.539 18.7893 256.668 18.7893 256.797C 18.7893 256.925 18.7893 257.053 18.7893 257.181C 18.7893 257.308 18.7893 257.435 18.7893 257.562C 18.7893 257.688 18.7893 257.814 18.7893 257.939C 18.7893 258.064 18.7893 258.189 18.7893 258.313C 18.7893 258.437 18.7893 258.561 18.7893 258.684C 18.7893 258.807 18.7893 258.93 18.7893 259.052C 18.7893 259.174 18.7893 259.295 18.7893 259.416C 18.7893 259.536 18.7893 259.657 18.7893 259.776C 18.7893 259.896 18.7893 260.015 18.7893 260.134C 18.7893 260.252 18.7893 260.37 18.7893 260.488C 18.7893 260.605 18.7893 260.722 18.7893 260.838C 18.7893 260.954 18.7893 261.07 18.7893 261.185C 18.7893 261.3 18.7893 261.415 18.7893 261.529C 18.7893 261.643 18.7893 261.756 18.7893 261.869C 18.7893 261.981 18.7893 262.094 18.7893 262.205C 18.7893 262.317 18.7893 262.428 18.7893 262.538C 18.7893 262.649 18.7893 262.758 18.7893 262.868C 18.7893 262.977 18.7893 263.085 18.7893 263.194C 18.7893 263.302 18.7893 263.409 18.7893 263.516C 18.7893 263.623 18.7893 263.729 18.7893 263.835C 18.7893 263.94 18.7893 264.045 18.7893 264.15C 18.7893 264.254 18.7893 264.358 18.7893 264.461C 18.7893 264.564 18.7893 264.667 18.7893 264.769C 18.7893 264.871 18.7893 264.972 18.7893 265.073C 18.7893 265.174 18.7893 265.274 18.7893 265.373C 18.7893 265.473 18.7893 265.572 18.7893 265.67C 18.7893 265.768 18.7893 265.866 18.7893 265.963C 18.7893 266.06 18.7893 266.157 18.7893 266.252C 18.7893 266.348 18.7893 266.443 18.7893 266.538C 18.7893 266.632 18.7893 266.726 18.7893 266.82C 18.7893 266.913 18.7893 267.005 18.7893 267.097C 18.7893 267.189 18.7893 267.281 18.7893 267.372C 18.7893 267.462 18.7893 267.552 18.7893 267.642C 18.7893 267.731 18.7893 267.82 18.7893 267.908C 18.7893 267.996 18.7893 268.084 18.7893 268.171C 18.7893 268.258 18.7893 268.344 18.7893 268.429C 18.7893 268.515 18.7893 268.6 18.7893 268.684C 18.7893 268.768 18.7893 268.852 18.7893 268.935C 18.7893 269.018 18.7893 269.1 18.7893 269.182C 18.7893 269.263 18.7893 269.344 18.7893 269.425C 18.7893 269.505 18.7893 269.585 18.7893 269.664C 18.7893 269.743 18.7893 269.821 18.7893 269.899C 18.7893 269.976 18.7893 270.053 18.7893 270.13C 18.7893 270.206 18.7893 270.281 18.7893 270.356C 18.7893 270.431 18.7893 270.506 18.7893 270.579C 18.7893 270.653 18.7893 270.726 18.7893 270.798C 18.7893 270.87 18.7893 270.942 18.7893 271.013C 18.7893 271.084 18.7893 271.154 18.7893 271.223C 18.7893 271.293 18.7893 271.362 18.7893 271.43C 18.7893 271.498 18.7893 271.565 18.7893 271.632C 18.7893 271.699 18.7893 271.765 18.7893 271.83C 18.7893 271.896 18.7893 271.96 18.7893 272.024C 18.7893 272.088 18.7893 272.152 18.7893 272.214C 18.7893 272.277 18.7893 272.339 18.7893 272.4C 18.7893 272.461 18.7893 272.521 18.7893 272.581C 18.7893 272.641 18.7893 272.7 18.7893 272.758C 18.7893 272.817 18.7893 272.874 18.7893 272.931C 18.7893 272.988 18.7893 273.044 18.7893 273.1C 18.7893 273.155 18.7893 273.21 18.7893 273.264C 18.7893 273.318 18.7893 273.371 18.7893 273.424C 18.7893 273.477 18.7893 273.528 18.7893 273.58C 18.7893 273.631 18.7893 273.681 18.7893 273.731C 18.7893 273.781 18.7893 273.83 18.7893 273.878C 18.7893 273.926 18.7893 273.974 18.7893 274.02C 18.7893 274.067 18.7893 274.113 18.7893 274.158C 18.7893 274.204 18.7893 274.248 18.7893 274.292C 18.7893 274.336 18.7893 274.379 18.7893 274.421C 18.7893 274.464 18.7893 274.505 18.7893 274.546C 18.7893 274.587 18.7893 274.627 18.7893 274.666C 18.7893 274.706 18.7893 274.744 18.7893 274.782C 18.7893 274.82 18.7893 274.857 18.7893 274.893C 18.7893 274.93 18.7893 274.965 18.7893 275C 18.7893 275.035 18.7893 275.069 18.7893 275.102C 18.7893 275.136 18.7893 275.168 18.7893 275.2C 18.7893 275.232 18.7893 275.263 18.7893 275.293C 18.7893 275.323 18.7893 275.353 18.7893 275.381C 18.7893 275.41 18.7893 275.438 18.7893 275.465C 18.7893 275.492 18.7893 275.519 18.7893 275.544C 18.7893 275.57 18.7893 275.595 18.7893 275.619C 18.7893 275.643 18.7893 275.666 18.7893 275.689C 18.7893 275.711 18.7893 275.733 18.7893 275.754C 18.7893 275.775 18.7893 275.795 18.7893 275.814C 18.7893 275.834 18.7893 275.852 18.7893 275.87C 18.7893 275.888 18.7893 275.905 18.7893 275.921C 18.7893 275.937 18.7893 275.953 18.7893 275.967C 18.7893 275.982 18.7893 275.996 18.7893 276.009C 18.7893 276.022 18.7893 276.034 18.7893 276.045C 18.7893 276.057 18.7893 276.067 18.7893 276.077C 18.7893 276.087 18.7893 276.096 18.7893 276.104C 18.7893 276.112 18.7893 276.119 18.7893 276.126C 18.7893 276.132 18.7893 276.138 18.7893 276.143C 18.7893 276.148 18.7893 276.152 18.7893 276.155C 18.7893 276.159 18.7893 276.161 18.7893 276.163C 18.7893 276.164 18.7893 276.165 20.2893 276.165C 21.7893 276.165 21.7893 276.164 21.7893 276.163C 21.7893 276.161 21.7893 276.159 21.7893 276.155C 21.7893 276.152 21.7893 276.148 21.7893 276.143C 21.7893 276.138 21.7893 276.132 21.7893 276.126C 21.7893 276.119 21.7893 276.112 21.7893 276.104C 21.7893 276.096 21.7893 276.087 21.7893 276.077C 21.7893 276.067 21.7893 276.057 21.7893 276.045C 21.7893 276.034 21.7893 276.022 21.7893 276.009C 21.7893 275.996 21.7893 275.982 21.7893 275.967C 21.7893 275.953 21.7893 275.937 21.7893 275.921C 21.7893 275.905 21.7893 275.888 21.7893 275.87C 21.7893 275.852 21.7893 275.834 21.7893 275.814C 21.7893 275.795 21.7893 275.775 21.7893 275.754C 21.7893 275.733 21.7893 275.711 21.7893 275.689C 21.7893 275.666 21.7893 275.643 21.7893 275.619C 21.7893 275.595 21.7893 275.57 21.7893 275.544C 21.7893 275.519 21.7893 275.492 21.7893 275.465C 21.7893 275.438 21.7893 275.41 21.7893 275.381C 21.7893 275.353 21.7893 275.323 21.7893 275.293C 21.7893 275.263 21.7893 275.232 21.7893 275.2C 21.7893 275.168 21.7893 275.136 21.7893 275.102C 21.7893 275.069 21.7893 275.035 21.7893 275C 21.7893 274.965 21.7893 274.93 21.7893 274.893C 21.7893 274.857 21.7893 274.82 21.7893 274.782C 21.7893 274.744 21.7893 274.706 21.7893 274.666C 21.7893 274.627 21.7893 274.587 21.7893 274.546C 21.7893 274.505 21.7893 274.464 21.7893 274.421C 21.7893 274.379 21.7893 274.336 21.7893 274.292C 21.7893 274.248 21.7893 274.204 21.7893 274.158C 21.7893 274.113 21.7893 274.067 21.7893 274.02C 21.7893 273.974 21.7893 273.926 21.7893 273.878C 21.7893 273.83 21.7893 273.781 21.7893 273.731C 21.7893 273.681 21.7893 273.631 21.7893 273.58C 21.7893 273.528 21.7893 273.477 21.7893 273.424C 21.7893 273.371 21.7893 273.318 21.7893 273.264C 21.7893 273.21 21.7893 273.155 21.7893 273.1C 21.7893 273.044 21.7893 272.988 21.7893 272.931C 21.7893 272.874 21.7893 272.817 21.7893 272.758C 21.7893 272.7 21.7893 272.641 21.7893 272.581C 21.7893 272.521 21.7893 272.461 21.7893 272.4C 21.7893 272.339 21.7893 272.277 21.7893 272.214C 21.7893 272.152 21.7893 272.088 21.7893 272.024C 21.7893 271.96 21.7893 271.896 21.7893 271.83C 21.7893 271.765 21.7893 271.699 21.7893 271.632C 21.7893 271.565 21.7893 271.498 21.7893 271.43C 21.7893 271.362 21.7893 271.293 21.7893 271.223C 21.7893 271.154 21.7893 271.084 21.7893 271.013C 21.7893 270.942 21.7893 270.87 21.7893 270.798C 21.7893 270.726 21.7893 270.653 21.7893 270.579C 21.7893 270.506 21.7893 270.431 21.7893 270.356C 21.7893 270.281 21.7893 270.206 21.7893 270.13C 21.7893 270.053 21.7893 269.976 21.7893 269.899C 21.7893 269.821 21.7893 269.743 21.7893 269.664C 21.7893 269.585 21.7893 269.505 21.7893 269.425C 21.7893 269.344 21.7893 269.263 21.7893 269.182C 21.7893 269.1 21.7893 269.018 21.7893 268.935C 21.7893 268.852 21.7893 268.768 21.7893 268.684C 21.7893 268.6 21.7893 268.515 21.7893 268.429C 21.7893 268.344 21.7893 268.258 21.7893 268.171C 21.7893 268.084 21.7893 267.996 21.7893 267.908C 21.7893 267.82 21.7893 267.731 21.7893 267.642C 21.7893 267.552 21.7893 267.462 21.7893 267.372C 21.7893 267.281 21.7893 267.189 21.7893 267.097C 21.7893 267.005 21.7893 266.913 21.7893 266.82C 21.7893 266.726 21.7893 266.632 21.7893 266.538C 21.7893 266.443 21.7893 266.348 21.7893 266.252C 21.7893 266.157 21.7893 266.06 21.7893 265.963C 21.7893 265.866 21.7893 265.768 21.7893 265.67C 21.7893 265.572 21.7893 265.473 21.7893 265.373C 21.7893 265.274 21.7893 265.174 21.7893 265.073C 21.7893 264.972 21.7893 264.871 21.7893 264.769C 21.7893 264.667 21.7893 264.564 21.7893 264.461C 21.7893 264.358 21.7893 264.254 21.7893 264.15C 21.7893 264.045 21.7893 263.94 21.7893 263.835C 21.7893 263.729 21.7893 263.623 21.7893 263.516C 21.7893 263.409 21.7893 263.302 21.7893 263.194C 21.7893 263.085 21.7893 262.977 21.7893 262.868C 21.7893 262.758 21.7893 262.649 21.7893 262.538C 21.7893 262.428 21.7893 262.317 21.7893 262.205C 21.7893 262.094 21.7893 261.981 21.7893 261.869C 21.7893 261.756 21.7893 261.643 21.7893 261.529C 21.7893 261.415 21.7893 261.3 21.7893 261.185C 21.7893 261.07 21.7893 260.954 21.7893 260.838C 21.7893 260.722 21.7893 260.605 21.7893 260.488C 21.7893 260.37 21.7893 260.252 21.7893 260.134C 21.7893 260.015 21.7893 259.896 21.7893 259.776C 21.7893 259.657 21.7893 259.536 21.7893 259.416C 21.7893 259.295 21.7893 259.174 21.7893 259.052C 21.7893 258.93 21.7893 258.807 21.7893 258.684C 21.7893 258.561 21.7893 258.437 21.7893 258.313C 21.7893 258.189 21.7893 258.064 21.7893 257.939C 21.7893 257.814 21.7893 257.688 21.7893 257.562C 21.7893 257.435 21.7893 257.308 21.7893 257.181C 21.7893 257.053 21.7893 256.925 21.7893 256.797C 21.7893 256.668 21.7893 256.539 21.7893 256.41C 21.7893 256.28 21.7893 256.15 21.7893 256.019C 21.7893 255.888 21.7893 255.757 21.7893 255.625C 21.7893 255.493 21.7893 255.361 21.7893 255.228C 21.7893 255.095 21.7893 254.962 21.7893 254.828C 21.7893 254.694 21.7893 254.56 21.7893 254.425C 21.7893 254.29 21.7893 254.154 21.7893 254.018C 21.7893 253.882 21.7893 253.746 21.7893 253.609C 21.7893 253.472 21.7893 253.334 21.7893 253.196C 21.7893 253.058 21.7893 252.919 21.7893 252.78C 21.7893 252.641 21.7893 252.501 21.7893 252.361C 21.7893 252.221 21.7893 252.08 21.7893 251.939C 21.7893 251.798 21.7893 251.656 21.7893 251.514C 21.7893 251.372 21.7893 251.229 21.7893 251.086C 21.7893 250.943 21.7893 250.799 21.7893 250.655C 21.7893 250.511 21.7893 250.366 21.7893 250.221C 21.7893 250.076 21.7893 249.93 21.7893 249.784C 21.7893 249.638 21.7893 249.491 21.7893 249.344C 21.7893 249.197 21.7893 249.049 21.7893 248.901C 21.7893 248.753 21.7893 248.604 21.7893 248.455C 21.7893 248.306 21.7893 248.156 21.7893 248.006C 21.7893 247.856 21.7893 247.706 21.7893 247.555C 21.7893 247.404 21.7893 247.252 21.7893 247.1C 21.7893 246.948 21.7893 246.796 21.7893 246.643C 21.7893 246.49 21.7893 246.337 21.7893 246.183C 21.7893 246.029 21.7893 245.875 21.7893 245.72C 21.7893 245.565 21.7893 245.41 21.7893 245.254C 21.7893 245.098 21.7893 244.942 21.7893 244.786C 21.7893 244.629 21.7893 244.472 21.7893 244.314C 21.7893 244.157 21.7893 243.999 21.7893 243.84C 21.7893 243.682 21.7893 243.523 21.7893 243.363C 21.7893 243.204 21.7893 243.044 21.7893 242.884C 21.7893 242.724 21.7893 242.563 21.7893 242.402C 21.7893 242.241 21.7893 242.079 21.7893 241.917C 21.7893 241.755 21.7893 241.592 21.7893 241.43C 21.7893 241.267 21.7893 241.103 21.7893 240.939C 21.7893 240.776 21.7893 240.611 21.7893 240.447C 21.7893 240.282 21.7893 240.117 21.7893 239.951C 21.7893 239.786 21.7893 239.62 21.7893 239.453C 21.7893 239.287 21.7893 239.12 21.7893 238.953C 21.7893 238.786 21.7893 238.618 21.7893 238.45C 21.7893 238.282 21.7893 238.113 21.7893 237.945C 21.7893 237.776 21.7893 237.606 21.7893 237.436C 21.7893 237.267 21.7893 237.097 21.7893 236.926C 21.7893 236.755 21.7893 236.584 21.7893 236.413C 21.7893 236.242 21.7893 236.07 21.7893 235.898C 21.7893 235.725 21.7893 235.553 21.7893 235.38C 21.7893 235.207 21.7893 235.033 21.7893 234.859C 21.7893 234.686 21.7893 234.511 21.7893 234.337C 21.7893 234.162 21.7893 233.987 21.7893 233.812C 21.7893 233.636 21.7893 233.46 21.7893 233.284C 21.7893 233.108 21.7893 232.931 21.7893 232.754C 21.7893 232.577 21.7893 232.4 21.7893 232.222C 21.7893 232.045 21.7893 231.866 21.7893 231.688C 21.7893 231.509 21.7893 231.33 21.7893 231.151C 21.7893 230.972 21.7893 230.792 21.7893 230.612C 21.7893 230.432 21.7893 230.252 21.7893 230.071C 21.7893 229.89 21.7893 229.709 21.7893 229.527C 21.7893 229.346 21.7893 229.164 21.7893 228.982C 21.7893 228.8 21.7893 228.617 21.7893 228.434C 21.7893 228.251 21.7893 228.068 21.7893 227.884C 21.7893 227.7 21.7893 227.516 21.7893 227.332C 21.7893 227.147 21.7893 226.962 21.7893 226.777C 21.7893 226.592 21.7893 226.407 21.7893 226.221C 21.7893 226.035 21.7893 225.849 21.7893 225.662C 21.7893 225.475 21.7893 225.289 21.7893 225.101C 21.7893 224.914 21.7893 224.726 21.7893 224.539C 21.7893 224.351 21.7893 224.162 21.7893 223.974C 21.7893 223.785 21.7893 223.596 21.7893 223.407C 21.7893 223.217 21.7893 223.028 21.7893 222.838C 21.7893 222.648 21.7893 222.458 21.7893 222.267C 21.7893 222.076 21.7893 221.885 21.7893 221.694C 21.7893 221.503 21.7893 221.311 21.7893 221.119C 21.7893 220.927 21.7893 220.735 21.7893 220.542C 21.7893 220.35 21.7893 220.157 21.7893 219.963C 21.7893 219.77 21.7893 219.577 21.7893 219.383C 21.7893 219.189 21.7893 218.995 21.7893 218.8C 21.7893 218.606 21.7893 218.411 21.7893 218.216C 21.7893 218.021 21.7893 217.825 21.7893 217.629C 21.7893 217.434 21.7893 217.238 21.7893 217.041C 21.7893 216.845 21.7893 216.648 21.7893 216.451C 21.7893 216.254 21.7893 216.057 21.7893 215.86C 21.7893 215.662 21.7893 215.464 21.7893 215.266C 21.7893 215.068 21.7893 214.869 21.7893 214.671C 21.7893 214.472 21.7893 214.273 21.7893 214.073C 21.7893 213.874 21.7893 213.675 21.7893 213.475C 21.7893 213.275 21.7893 213.075 21.7893 212.874C 21.7893 212.674 21.7893 212.473 21.7893 212.272C 21.7893 212.071 21.7893 211.869 21.7893 211.668C 21.7893 211.466 21.7893 211.264 21.7893 211.062C 21.7893 210.86 21.7893 210.658 21.7893 210.455C 21.7893 210.252 21.7893 210.049 21.7893 209.846C 21.7893 209.643 21.7893 209.439 21.7893 209.236C 21.7893 209.032 21.7893 208.828 21.7893 208.624C 21.7893 208.419 21.7893 208.215 21.7893 208.01C 21.7893 207.805 21.7893 207.6 21.7893 207.395C 21.7893 207.189 21.7893 206.984 21.7893 206.778C 21.7893 206.572 21.7893 206.366 21.7893 206.16C 21.7893 205.953 21.7893 205.747 21.7893 205.54C 21.7893 205.333 21.7893 205.126 21.7893 204.919C 21.7893 204.711 21.7893 204.504 21.7893 204.296C 21.7893 204.088 21.7893 203.88 21.7893 203.672C 21.7893 203.464 21.7893 203.255 21.7893 203.046C 21.7893 202.837 21.7893 202.628 21.7893 202.419C 21.7893 202.21 21.7893 202 21.7893 201.791C 21.7893 201.581 21.7893 201.371 21.7893 201.161C 21.7893 200.951 21.7893 200.74 21.7893 200.53C 21.7893 200.319 21.7893 200.108 21.7893 199.897C 21.7893 199.686 21.7893 199.475 21.7893 199.264C 21.7893 199.052 21.7893 198.84 21.7893 198.628C 21.7893 198.417 21.7893 198.204 21.7893 197.992C 21.7893 197.78 21.7893 197.567 21.7893 197.354C 21.7893 197.142 21.7893 196.929 21.7893 196.715C 21.7893 196.502 21.7893 196.289 21.7893 196.075C 21.7893 195.862 21.7893 195.648 21.7893 195.434C 21.7893 195.22 21.7893 195.006 21.7893 194.791C 21.7893 194.577 21.7893 194.362 21.7893 194.148C 21.7893 193.933 21.7893 193.718 21.7893 193.503C 21.7893 193.288 21.7893 193.072 21.7893 192.857C 21.7893 192.641 21.7893 192.425 21.7893 192.21C 21.7893 191.994 21.7893 191.778 21.7893 191.561C 21.7893 191.345 21.7893 191.129 21.7893 190.912C 21.7893 190.695 21.7893 190.478 21.7893 190.262C 21.7893 190.045 21.7893 189.827 21.7893 189.61C 21.7893 189.393 21.7893 189.175 21.7893 188.957C 21.7893 188.74 21.7893 188.522 21.7893 188.304C 21.7893 188.086 21.7893 187.868 21.7893 187.649C 21.7893 187.431 21.7893 187.213 21.7893 186.994C 21.7893 186.775 21.7893 186.556 21.7893 186.337C 21.7893 186.118 21.7893 185.899 21.7893 185.68C 21.7893 185.461 21.7893 185.241 21.7893 185.022C 21.7893 184.802 21.7893 184.582 21.7893 184.362C 21.7893 184.142 21.7893 183.922 21.7893 183.702C 21.7893 183.482 21.7893 183.262 21.7893 183.041C 21.7893 182.821 21.7893 182.6 21.7893 182.379C 21.7893 182.158 21.7893 181.938 21.7893 181.716C 21.7893 181.495 21.7893 181.274 21.7893 181.053C 21.7893 180.832 21.7893 180.61 21.7893 180.389C 21.7893 180.167 21.7893 179.945 21.7893 179.723C 21.7893 179.502 21.7893 179.28 21.7893 179.057C 21.7893 178.835 21.7893 178.613 21.7893 178.391C 21.7893 178.168 21.7893 177.946 21.7893 177.723C 21.7893 177.501 21.7893 177.278 21.7893 177.055C 21.7893 176.833 21.7893 176.61 21.7893 176.387C 21.7893 176.163 21.7893 175.94 21.7893 175.717C 21.7893 175.494 21.7893 175.27 21.7893 175.047C 21.7893 174.823 21.7893 174.6 21.7893 174.376C 21.7893 174.152 21.7893 173.929 21.7893 173.705C 21.7893 173.481 21.7893 173.257 21.7893 173.033C 21.7893 172.809 21.7893 172.584 21.7893 172.36C 21.7893 172.136 21.7893 171.911 21.7893 171.687C 21.7893 171.462 21.7893 171.238 21.7893 171.013C 21.7893 170.789 21.7893 170.564 21.7893 170.339C 21.7893 170.114 21.7893 169.889 21.7893 169.664C 21.7893 169.439 21.7893 169.214 21.7893 168.989C 21.7893 168.764 21.7893 168.539 21.7893 168.313C 21.7893 168.088 21.7893 167.863 21.7893 167.637C 21.7893 167.412 21.7893 167.186 21.7893 166.96C 21.7893 166.735 21.7893 166.509 21.7893 166.283C 21.7893 166.058 21.7893 165.832 21.7893 165.606C 21.7893 165.38 21.7893 165.154 21.7893 164.928C 21.7893 164.702 21.7893 164.476 21.7893 164.25C 21.7893 164.024 21.7893 163.797 21.7893 163.571C 21.7893 163.345 21.7893 163.119 21.7893 162.892C 21.7893 162.666 21.7893 162.439 21.7893 162.213C 21.7893 161.986 21.7893 161.76 21.7893 161.533C 21.7893 161.307 21.7893 161.08 21.7893 160.854C 21.7893 160.627 21.7893 160.4 21.7893 160.173C 21.7893 159.947 21.7893 159.72 21.7893 159.493C 21.7893 159.266 21.7893 159.039 21.7893 158.813C 21.7893 158.586 21.7893 158.359 21.7893 158.132C 21.7893 157.905 21.7893 157.678 21.7893 157.451C 21.7893 157.224 21.7893 156.997 21.7893 156.77C 21.7893 156.543 21.7893 156.315 21.7893 156.088C 21.7893 155.861 21.7893 155.634 21.7893 155.407C 21.7893 155.18 21.7893 154.953 21.7893 154.725C 21.7893 154.498 21.7893 154.271 21.7893 154.044C 21.7893 153.816 21.7893 153.589 21.7893 153.362C 21.7893 153.135 21.7893 152.907 21.7893 152.68C 21.7893 152.453 21.7893 152.226 21.7893 151.998C 21.7893 151.771 21.7893 151.544 21.7893 151.316C 21.7893 151.089 21.7893 150.862 21.7893 150.634C 21.7893 150.407 21.7893 150.18 21.7893 149.952C 21.7893 149.725 21.7893 149.498 21.7893 149.271C 21.7893 149.043 21.7893 148.816 21.7893 148.589C 21.7893 148.361 21.7893 148.134 21.7893 147.907C 21.7893 147.68 21.7893 147.452 21.7893 147.225C 21.7893 146.998 21.7893 146.771 21.7893 146.544C 21.7893 146.316 21.7893 146.089 21.7893 145.862C 21.7893 145.635 21.7893 145.408 21.7893 145.181C 21.7893 144.954 21.7893 144.727 21.7893 144.5C 21.7893 144.272 21.7893 144.045 21.7893 143.818C 21.7893 143.591 21.7893 143.365 21.7893 143.138C 21.7893 142.911 21.7893 142.684 21.7893 142.457C 21.7893 142.23 21.7893 142.003 21.7893 141.776C 21.7893 141.55 21.7893 141.323 21.7893 141.096C 21.7893 140.87 21.7893 140.643 21.7893 140.416C 21.7893 140.19 21.7893 139.963 21.7893 139.737C 21.7893 139.51 21.7893 139.284 21.7893 139.057C 21.7893 138.831 21.7893 138.604 21.7893 138.378C 21.7893 138.152 21.7893 137.926 21.7893 137.699C 21.7893 137.473 21.7893 137.247 21.7893 137.021C 21.7893 136.795 21.7893 136.569 21.7893 136.343C 21.7893 136.117 21.7893 135.891 21.7893 135.665C 21.7893 135.439 21.7893 135.214 21.7893 134.988C 21.7893 134.762 21.7893 134.537 21.7893 134.311C 21.7893 134.085 21.7893 133.86 21.7893 133.635C 21.7893 133.409 21.7893 133.184 21.7893 132.959C 21.7893 132.733 21.7893 132.508 21.7893 132.283C 21.7893 132.058 21.7893 131.833 21.7893 131.608C 21.7893 131.383 21.7893 131.158 21.7893 130.934C 21.7893 130.709 21.7893 130.484 21.7893 130.26C 21.7893 130.035 21.7893 129.811 21.7893 129.586C 21.7893 129.362 21.7893 129.138 21.7893 128.913C 21.7893 128.689 21.7893 128.465 21.7893 128.241C 21.7893 128.017 21.7893 127.793 21.7893 127.569C 21.7893 127.346 21.7893 127.122 21.7893 126.898C 21.7893 126.675 21.7893 126.451 21.7893 126.228C 21.7893 126.004 21.7893 125.781 21.7893 125.558C 21.7893 125.335 21.7893 125.112 21.7893 124.889C 21.7893 124.666 21.7893 124.443 21.7893 124.22C 21.7893 123.998 21.7893 123.775 21.7893 123.553C 21.7893 123.33 21.7893 123.108 21.7893 122.886C 21.7893 122.663 21.7893 122.441 21.7893 122.219C 21.7893 121.997 21.7893 121.776 21.7893 121.554C 21.7893 121.332 21.7893 121.111 21.7893 120.889C 21.7893 120.668 21.7893 120.446 21.7893 120.225C 21.7893 120.004 21.7893 119.783 21.7893 119.562C 21.7893 119.341 21.7893 119.12 21.7893 118.9C 21.7893 118.679 21.7893 118.459 21.7893 118.238C 21.7893 118.018 21.7893 117.798 21.7893 117.578C 21.7893 117.358 21.7893 117.138 21.7893 116.918C 21.7893 116.698 21.7893 116.479 21.7893 116.259C 21.7893 116.04 21.7893 115.82 21.7893 115.601C 21.7893 115.382 21.7893 115.163 21.7893 114.944C 21.7893 114.725 21.7893 114.507 21.7893 114.288C 21.7893 114.07 21.7893 113.851 21.7893 113.633C 21.7893 113.415 21.7893 113.197 21.7893 112.979C 21.7893 112.761 21.7893 112.544 21.7893 112.326C 21.7893 112.109 21.7893 111.891 21.7893 111.674C 21.7893 111.457 21.7893 111.24 21.7893 111.023C 21.7893 110.806 21.7893 110.59 21.7893 110.373C 21.7893 110.157 21.7893 109.941 21.7893 109.725C 21.7893 109.508 21.7893 109.293 21.7893 109.077C 21.7893 108.861 21.7893 108.646 21.7893 108.43C 21.7893 108.215 21.7893 108 21.7893 107.785C 21.7893 107.57 21.7893 107.355 21.7893 107.14C 21.7893 106.926 21.7893 106.712 21.7893 106.497C 21.7893 106.283 21.7893 106.069 21.7893 105.855C 21.7893 105.642 21.7893 105.428 21.7893 105.215C 21.7893 105.001 21.7893 104.788 21.7893 104.575C 21.7893 104.362 21.7893 104.149 21.7893 103.937C 21.7893 103.724 21.7893 103.512 21.7893 103.3C 21.7893 103.088 21.7893 102.876 21.7893 102.664C 21.7893 102.452 21.7893 102.241 21.7893 102.03C 21.7893 101.818 21.7893 101.607 21.7893 101.397C 21.7893 101.186 21.7893 100.975 21.7893 100.765C 21.7893 100.554 21.7893 100.344 21.7893 100.134C 21.7893 99.9243 21.7893 99.7147 21.7893 99.5052C 21.7893 99.2957 21.7893 99.0865 21.7893 98.8775C 21.7893 98.6685 21.7893 98.4597 21.7893 98.2512C 21.7893 98.0427 21.7893 97.8344 21.7893 97.6263C 21.7893 97.4183 21.7893 97.2105 21.7893 97.0029C 21.7893 96.7953 21.7893 96.588 21.7893 96.3809C 21.7893 96.1739 21.7893 95.967 21.7893 95.7604C 21.7893 95.5539 21.7893 95.3475 21.7893 95.1414C 21.7893 94.9353 21.7893 94.7295 21.7893 94.5239C 21.7893 94.3184 21.7893 94.113 21.7893 93.908C 21.7893 93.7029 21.7893 93.4981 21.7893 93.2936C 21.7893 93.089 21.7893 92.8847 21.7893 92.6807C 21.7893 92.4767 21.7893 92.2729 21.7893 92.0694C 21.7893 91.866 21.7893 91.6627 21.7893 91.4598C 21.7893 91.2568 21.7893 91.0541 21.7893 90.8517C 21.7893 90.6493 21.7893 90.4472 21.7893 90.2453C 21.7893 90.0435 21.7893 89.8419 21.7893 89.6406C 21.7893 89.4393 21.7893 89.2382 21.7893 89.0375C 21.7893 88.8367 21.7893 88.6363 21.7893 88.4361C 21.7893 88.2359 21.7893 88.036 21.7893 87.8364C 21.7893 87.6368 21.7893 87.4375 21.7893 87.2384C 21.7893 87.0394 21.7893 86.8407 21.7893 86.6422C 21.7893 86.4438 21.7893 86.2456 21.7893 86.0478C 21.7893 85.8499 21.7893 85.6524 21.7893 85.4551C 21.7893 85.2579 21.7893 85.0609 21.7893 84.8642C 21.7893 84.6676 21.7893 84.4712 21.7893 84.2752C 21.7893 84.0791 21.7893 83.8834 21.7893 83.688C 21.7893 83.4925 21.7893 83.2974 21.7893 83.1026C 21.7893 82.9078 21.7893 82.7133 21.7893 82.5191C 21.7893 82.3249 21.7893 82.131 21.7893 81.9375C 21.7893 81.7439 21.7893 81.5507 21.7893 81.3578C 21.7893 81.1649 21.7893 80.9723 21.7893 80.78C 21.7893 80.5877 21.7893 80.3958 21.7893 80.2042C 21.7893 80.0125 21.7893 79.8212 21.7893 79.6303C 21.7893 79.4393 21.7893 79.2487 21.7893 79.0584C 21.7893 78.8681 21.7893 78.6781 21.7893 78.4885C 21.7893 78.2988 21.7893 78.1095 21.7893 77.9206C 21.7893 77.7316 21.7893 77.543 21.7893 77.3547C 21.7893 77.1664 21.7893 76.9785 21.7893 76.7909C 21.7893 76.6033 21.7893 76.4161 21.7893 76.2291C 21.7893 76.0423 21.7893 75.8557 21.7893 75.6695C 21.7893 75.4833 21.7893 75.2974 21.7893 75.1119C 21.7893 74.9264 21.7893 74.7413 21.7893 74.5565C 21.7893 74.3717 21.7893 74.1873 21.7893 74.0032C 21.7893 73.8191 21.7893 73.6354 21.7893 73.4521C 21.7893 73.2687 21.7893 73.0857 21.7893 72.9031C 21.7893 72.7205 21.7893 72.5382 21.7893 72.3563C 21.7893 72.1744 21.7893 71.9929 21.7893 71.8118C 21.7893 71.6306 21.7893 71.4498 21.7893 71.2694C 21.7893 71.089 21.7893 70.909 21.7893 70.7293C 21.7893 70.5497 21.7893 70.3704 21.7893 70.1915C 21.7893 70.0126 21.7893 69.8341 21.7893 69.656C 21.7893 69.4779 21.7893 69.3001 21.7893 69.1227C 21.7893 68.9454 21.7893 68.7684 21.7893 68.5918C 21.7893 68.4152 21.7893 68.2391 21.7893 68.0632C 21.7893 67.8874 21.7893 67.712 21.7893 67.537C 21.7893 67.362 21.7893 67.1874 21.7893 67.0132C 21.7893 66.8389 21.7893 66.6651 21.7893 66.4917C 21.7893 66.3183 21.7893 66.1453 21.7893 65.9726C 21.7893 65.8 21.7893 65.6278 21.7893 65.456C 21.7893 65.2842 21.7893 65.1128 21.7893 64.9418C 21.7893 64.7708 21.7893 64.6003 21.7893 64.4301C 21.7893 64.2599 21.7893 64.0902 21.7893 63.9208C 21.7893 63.7515 21.7893 63.5826 21.7893 63.4141C 21.7893 63.2456 21.7893 63.0775 21.7893 62.9099C 21.7893 62.7422 21.7893 62.575 21.7893 62.4082C 21.7893 62.2414 21.7893 62.075 21.7893 61.909C 21.7893 61.7431 21.7893 61.5775 21.7893 61.4124C 21.7893 61.2473 21.7893 61.0827 21.7893 60.9184C 21.7893 60.7542 21.7893 60.5904 21.7893 60.4271C 21.7893 60.2637 21.7893 60.1008 21.7893 59.9383C 21.7893 59.7758 21.7893 59.6138 21.7893 59.4522C 21.7893 59.2906 21.7893 59.1294 21.7893 58.9687C 21.7893 58.808 21.7893 58.6478 21.7893 58.4879C 21.7893 58.3281 21.7893 58.1688 21.7893 58.0098C 21.7893 57.8509 21.7893 57.6925 21.7893 57.5345C 21.7893 57.3765 21.7893 57.2189 21.7893 57.0618C 21.7893 56.9047 21.7893 56.7481 21.7893 56.5919C 21.7893 56.4358 21.7893 56.2801 21.7893 56.1248C 21.7893 55.9696 21.7893 55.8148 21.7893 55.6605C 21.7893 55.5061 21.7893 55.3523 21.7893 55.1989C 21.7893 55.0455 21.7893 54.8926 21.7893 54.7402C 21.7893 54.5878 21.7893 54.4358 21.7893 54.2843C 21.7893 54.1328 21.7893 53.9818 21.7893 53.8313C 21.7893 53.6808 21.7893 53.5307 21.7893 53.3811C 21.7893 53.2316 21.7893 53.0825 21.7893 52.9339C 21.7893 52.7853 21.7893 52.6372 21.7893 52.4895C 21.7893 52.3419 21.7893 52.1948 21.7893 52.0481C 21.7893 51.9015 21.7893 51.7553 21.7893 51.6096C 21.7893 51.464 21.7893 51.3188 21.7893 51.1741C 21.7893 51.0295 21.7893 50.8853 21.7893 50.7416C 21.7893 50.5979 21.7893 50.4548 21.7893 50.3121C 21.7893 50.1694 21.7893 50.0272 21.7893 49.8856C 21.7893 49.7439 21.7893 49.6027 21.7893 49.4621C 21.7893 49.3214 21.7893 49.1813 21.7893 49.0417C 21.7893 48.902 21.7893 48.7629 21.7893 48.6243C 21.7893 48.4857 21.7893 48.3476 21.7893 48.2101C 21.7893 48.0725 21.7893 47.9354 21.7893 47.7989C 21.7893 47.6624 21.7893 47.5264 21.7893 47.3909C 21.7893 47.2554 21.7893 47.1204 21.7893 46.986C 21.7893 46.8516 21.7893 46.7177 21.7893 46.5843C 21.7893 46.4509 21.7893 46.3181 21.7893 46.1857C 21.7893 46.0534 21.7893 45.9217 21.7893 45.7904C 21.7893 45.6592 21.7893 45.5285 21.7893 45.3983C 21.7893 45.2681 21.7893 45.1385 21.7893 45.0094C 21.7893 44.8803 21.7893 44.7517 21.7893 44.6237C 21.7893 44.4957 21.7893 44.3683 21.7893 44.2414C 21.7893 44.1145 21.7893 43.9881 21.7893 43.8623C 21.7893 43.7365 21.7893 43.6112 21.7893 43.4865C 21.7893 43.3618 21.7893 43.2376 21.7893 43.114C 21.7893 42.9904 21.7893 42.8674 21.7893 42.7449C 21.7893 42.6224 21.7893 42.5005 21.7893 42.3792C 21.7893 42.2578 21.7893 42.137 21.7893 42.0168C 21.7893 41.8965 21.7893 41.7769 21.7893 41.6578C 21.7893 41.5387 21.7893 41.4202 21.7893 41.3022C 21.7893 41.1843 21.7893 41.0669 21.7893 40.9501C 21.7893 40.8333 21.7893 40.717 21.7893 40.6014C 21.7893 40.4857 21.7893 40.3706 21.7893 40.2561C 21.7893 40.1416 21.7893 40.0277 21.7893 39.9144C 21.7893 39.8011 21.7893 39.6883 21.7893 39.5762C 21.7893 39.464 21.7893 39.3524 21.7893 39.2414C 21.7893 39.1304 21.7893 39.0201 21.7893 38.9102C 21.7893 38.8004 21.7893 38.6912 21.7893 38.5826C 21.7893 38.474 21.7893 38.366 21.7893 38.2586C 21.7893 38.1511 21.7893 38.0443 21.7893 37.9381C 21.7893 37.8319 21.7893 37.7263 21.7893 37.6212C 21.7893 37.5162 21.7893 37.4118 21.7893 37.308C 21.7893 37.2042 21.7893 37.101 21.7893 36.9984C 21.7893 36.8959 21.7893 36.7939 21.7893 36.6925C 21.7893 36.5912 21.7893 36.4904 21.7893 36.3903C 21.7893 36.2902 21.7893 36.1906 21.7893 36.0918C 21.7893 35.9929 21.7893 35.8946 21.7893 35.7969C 21.7893 35.6993 21.7893 35.6023 21.7893 35.5059C 21.7893 35.4095 21.7893 35.3137 21.7893 35.2185C 21.7893 35.1234 21.7893 35.0289 21.7893 34.935C 21.7893 34.8411 21.7893 34.7478 21.7893 34.6552C 21.7893 34.5626 21.7893 34.4706 21.7893 34.3792C 21.7893 34.2879 21.7893 34.1972 21.7893 34.1071C 21.7893 34.017 21.7893 33.9276 21.7893 33.8388C 21.7893 33.75 21.7893 33.6619 21.7893 33.5744C 21.7893 33.4869 21.7893 33.4 21.7893 33.3138C 21.7893 33.2276 21.7893 33.1421 21.7893 33.0572C 21.7893 32.9723 21.7893 32.888 21.7893 32.8044C 21.7893 32.7208 21.7893 32.6379 21.7893 32.5556C 21.7893 32.4734 21.7893 32.3917 21.7893 32.3108C 21.7893 32.2298 21.7893 32.1495 21.7893 32.0699C 21.7893 31.9902 21.7893 31.9113 21.7893 31.833C 21.7893 31.7547 21.7893 31.677 21.7893 31.6001C 21.7893 31.5231 21.7893 31.4468 21.7893 31.3712C 21.7893 31.2956 21.7893 31.2206 21.7893 31.1464C 21.7893 31.0721 21.7893 30.9985 21.7893 30.9256C 21.7893 30.8527 21.7893 30.7805 21.7893 30.7089C 21.7893 30.6373 21.7893 30.5665 21.7893 30.4963C 21.7893 30.4261 21.7893 30.3566 21.7893 30.2878C 21.7893 30.219 21.7893 30.1509 21.7893 30.0834C 21.7893 30.016 21.7893 29.9493 21.7893 29.8832C 21.7893 29.8172 21.7893 29.7518 21.7893 29.6872C 21.7893 29.6225 21.7893 29.5586 21.7893 29.4953C 21.7893 29.432 21.7893 29.3695 21.7893 29.3076C 21.7893 29.2458 21.7893 29.1846 21.7893 29.1242L 18.7893 29.1242ZM 20.2893 276.165C 18.8037 276.373 18.8038 276.374 18.804 276.375C 18.804 276.375 18.8041 276.376 18.8042 276.377C 18.8045 276.378 18.8047 276.38 18.805 276.382C 18.8056 276.386 18.8064 276.392 18.8074 276.398C 18.8094 276.412 18.8121 276.43 18.8156 276.452C 18.8226 276.497 18.8328 276.561 18.8467 276.642C 18.8744 276.803 18.9167 277.034 18.9769 277.323C 19.0972 277.901 19.2895 278.718 19.5813 279.694C 20.1631 281.641 21.1487 284.249 22.7664 286.87C 26.0272 292.154 31.8857 297.5 42 297.5L 42 294.5C 33.1764 294.5 28.1795 289.929 25.3194 285.295C 23.8767 282.957 22.9854 280.607 22.4556 278.835C 22.1915 277.951 22.0193 277.218 21.914 276.712C 21.8614 276.459 21.8256 276.263 21.8034 276.134C 21.7924 276.07 21.7847 276.022 21.7801 275.992C 21.7778 275.977 21.7762 275.967 21.7753 275.961C 21.7749 275.958 21.7747 275.956 21.7746 275.956C 21.7745 275.955 21.7745 275.955 21.7746 275.956C 21.7746 275.956 21.7747 275.956 21.7747 275.956C 21.7748 275.957 21.7748 275.958 20.2893 276.165Z"/>
<path id="path1_stroke" d="M 0.142521 294.393C -0.682158 294.314 -1.4145 294.919 -1.49321 295.743C -1.57193 296.568 -0.9672 297.3 -0.142521 297.379L 0.142521 294.393ZM 20.2893 19.8347L 18.8037 19.627C 18.7941 19.6958 18.7893 19.7652 18.7893 19.8347L 20.2893 19.8347ZM 42 1.5C 42.8284 1.5 43.5 0.828427 43.5 0C 43.5 -0.828427 42.8284 -1.5 42 -1.5L 42 1.5ZM -0.142521 297.379C 7.06073 298.067 12.7024 295.814 16.4462 290.461C 20.0927 285.247 21.7893 277.295 21.7893 266.876L 18.7893 266.876C 18.7893 277.087 17.1043 284.286 13.9878 288.742C 10.9684 293.059 6.46547 294.996 0.142521 294.393L -0.142521 297.379ZM 21.7893 266.876L 21.7893 19.8347L 18.7893 19.8347L 18.7893 266.876L 21.7893 266.876ZM 21.7748 20.0424C 22.6682 13.6518 24.8344 9.06327 28.1151 6.0661C 31.3847 3.07901 35.9505 1.5 42 1.5L 42 -1.5C 35.4242 -1.5 30.0589 0.226777 26.0916 3.85125C 22.1353 7.46566 19.7589 12.7945 18.8037 19.627L 21.7748 20.0424Z"/>
</defs>
</svg>
