<svg xmlns="http://www.w3.org/2000/svg" viewBox="0 0 42 40"><defs><style>.cls-1{fill:#fff;}</style></defs><title>btn-white</title><g id="Layer_2" data-name="Layer 2"><g id="Layer_1-2" data-name="Layer 1"><g id="Canvas"><g id="coursor_copy_3" data-name="coursor copy 3"><path id="path0_stroke" data-name="path0 stroke" class="cls-1" d="M39.61,25.27l.87.49h0Zm0-10.53.87-.49h0ZM34.8,6.27l-.87.49h0ZM7.2,6.27l-.87-.49h0ZM2.39,14.73l.87.49h0Zm0,10.53.87-.49h0ZM7.2,33.73l-.87.49h0Zm27.59,0-.87-.49h0Zm5.68-8a11.68,11.68,0,0,0,0-11.52l-1.74,1a9.68,9.68,0,0,1,0,9.54Zm0-11.52L38.07,10,35.67,5.77l-1.74,1L36.33,11l2.41,4.23ZM35.67,5.77A11.34,11.34,0,0,0,25.81,0V2a9.34,9.34,0,0,1,8.11,4.76ZM25.81,0H16.19V2h9.63ZM16.19,0A11.34,11.34,0,0,0,6.33,5.77l1.74,1A9.34,9.34,0,0,1,16.19,2ZM6.33,5.77,3.93,10,1.52,14.24l1.74,1L5.67,11,8.07,6.76ZM1.52,14.24a11.67,11.67,0,0,0,0,11.52l1.74-1a9.67,9.67,0,0,1,0-9.54Zm0,11.52L3.93,30l2.41,4.23,1.74-1L5.67,29,3.26,24.77Zm4.81,8.47A11.34,11.34,0,0,0,16.19,40V38a9.34,9.34,0,0,1-8.11-4.76ZM16.19,40h9.63V38H16.19Zm9.63,0a11.34,11.34,0,0,0,9.85-5.77l-1.74-1A9.34,9.34,0,0,1,25.81,38Zm9.85-5.77L38.07,30l2.41-4.23-1.74-1L36.33,29l-2.41,4.23Z"/></g></g></g></g></svg>