<svg xmlns="http://www.w3.org/2000/svg" viewBox="0 0 50 46.61"><defs><style>.cls-1{fill:#fff;}.cls-2{fill:none;stroke:#1c1a1a;stroke-width:2px;}</style></defs><title>btn-black</title><g id="Layer_2" data-name="Layer 2"><g id="Layer_1-2" data-name="Layer 1"><g id="Canvas"><g id="cross"><g id="cross_2" data-name="cross 2"><g id="Page_1" data-name="Page 1"><path class="cls-1" d="M47.33,29.49a12.29,12.29,0,0,0,0-12.36L41.56,7.18A12.46,12.46,0,0,0,30.78,1H19.22A12.46,12.46,0,0,0,8.44,7.18L2.67,17.12a12.29,12.29,0,0,0,0,12.36l5.78,9.94a12.46,12.46,0,0,0,10.78,6.18H30.78a12.46,12.46,0,0,0,10.78-6.18Z"/><path class="cls-2" d="M47.33,29.49a12.29,12.29,0,0,0,0-12.36L41.56,7.18A12.46,12.46,0,0,0,30.78,1H19.22A12.46,12.46,0,0,0,8.44,7.18L2.67,17.12a12.29,12.29,0,0,0,0,12.36l5.78,9.94a12.46,12.46,0,0,0,10.78,6.18H30.78a12.46,12.46,0,0,0,10.78-6.18Z"/></g></g></g></g></g></g></svg>