<svg width="10" height="9" viewBox="0 0 10 9" version="1.1" xmlns="http://www.w3.org/2000/svg" xmlns:xlink="http://www.w3.org/1999/xlink">
<title>Page 1</title>
<desc>Created using Figma</desc>
<g id="Canvas" transform="translate(-7398 -1692)">
<g id="Page 1">
<use xlink:href="#path0_fill" transform="translate(7398 1692)" fill="#1A1F32"/>
</g>
</g>
<defs>
<path id="path0_fill" fill-rule="evenodd" d="M 9.65258 5.74731C 10.1158 4.97547 10.1158 4.02453 9.65258 3.25269C 9.2774 2.62752 8.82432 1.87248 8.44913 1.24731C 7.98591 0.475474 7.12988 0 6.20347 0L 3.79653 0C 2.87012 0 2.01406 0.475474 1.55087 1.24731C 1.17569 1.87248 0.722572 2.62752 0.347417 3.25269C -0.115806 4.02453 -0.115806 4.97547 0.347417 5.74731C 0.722572 6.37248 1.17569 7.12752 1.55087 7.75269C 2.01406 8.52453 2.87012 9 3.79653 9L 6.20347 9C 7.12988 9 7.98591 8.52453 8.44913 7.75269C 8.82432 7.12752 9.2774 6.37248 9.65258 5.74731Z"/>
</defs>
</svg>
