<svg width="100" height="100" viewBox="0 0 100 100" version="1.1" xmlns="http://www.w3.org/2000/svg" xmlns:xlink="http://www.w3.org/1999/xlink">
<title>icon-Rapid-development </title>
<desc>Created using Figma</desc>
<g id="Canvas" transform="translate(-8188 -7963)">
<g id="icon-Rapid-development ">
<g id="Rectangle 15">
<mask id="mask0_outline_ins">
<use xlink:href="#path0_fill" fill="white" transform="translate(8230 7983)"/>
</mask>
<g mask="url(#mask0_outline_ins)">
<use xlink:href="#path1_stroke_2x" transform="translate(8230 7983)" fill="#FFFFFF"/>
</g>
</g>
<g id="Page 1">
<mask id="mask1_outline_ins">
<use xlink:href="#path2_fill" fill="white" transform="translate(8188 7967)"/>
</mask>
<g mask="url(#mask1_outline_ins)">
<use xlink:href="#path3_stroke_2x" transform="translate(8188 7967)" fill="#FFFFFF"/>
</g>
</g>
<g id="Oval 7">
<use xlink:href="#path4_fill" transform="translate(8215 7992)" fill="#1C1A1A"/>
<use xlink:href="#path5_stroke" transform="translate(8215 7992)" fill="#FFFFFF"/>
</g>
<g id="Rectangle 14">
<use xlink:href="#path6_fill" transform="matrix(0.707107 -0.707107 0.707107 0.707107 8215 7997.12)" fill="#FFFFFF"/>
</g>
<g id="Rectangle 14 Copy">
<use xlink:href="#path6_fill" transform="matrix(-0.707107 -0.707107 -0.707107 0.707107 8261.07 7997.12)" fill="#FFFFFF"/>
</g>
<g id="Rectangle 14 Copy 2">
<use xlink:href="#path7_fill" transform="matrix(-0.707107 -0.707107 -0.707107 0.707107 8249.58 8005.12)" fill="#FFFFFF"/>
</g>
<g id="Rectangle 14 Copy 3">
<use xlink:href="#path8_fill" transform="matrix(-1 0 0 1 8240 7991)" fill="#FFFFFF"/>
</g>
<g id="Rectangle 14 Copy 4">
<use xlink:href="#path8_fill" transform="matrix(-1 0 0 1 8240 8031)" fill="#FFFFFF"/>
</g>
<g id="Rectangle 14 Copy 5">
<use xlink:href="#path8_fill" transform="matrix(1.83697e-16 1 1 -1.83697e-16 8254 8014)" fill="#FFFFFF"/>
</g>
<g id="Rectangle 14 Copy 6">
<use xlink:href="#path8_fill" transform="matrix(1.83697e-16 1 1 -1.83697e-16 8215 8014)" fill="#FFFFFF"/>
</g>
<g id="Oval">
<use xlink:href="#path9_stroke" transform="translate(8234 8011)" fill="#FFFFFF"/>
</g>
</g>
</g>
<defs>
<path id="path0_fill" fill-rule="evenodd" d="M 0 8C 0 6.14006 0 5.21008 0.204445 4.44709C 0.759248 2.37653 2.37653 0.759248 4.44709 0.204445C 5.21008 0 6.14006 0 8 0C 9.85994 0 10.7899 0 11.5529 0.204445C 13.6235 0.759248 15.2408 2.37653 15.7956 4.44709C 16 5.21008 16 6.14006 16 8C 16 9.85994 16 10.7899 15.7956 11.5529C 15.2408 13.6235 13.6235 15.2408 11.5529 15.7956C 10.7899 16 9.85994 16 8 16C 6.14006 16 5.21008 16 4.44709 15.7956C 2.37653 15.2408 0.759248 13.6235 0.204445 11.5529C 0 10.7899 0 9.85994 0 8Z"/>
<path id="path1_stroke_2x" d="M 4.44709 15.7956L 3.67063 18.6933L 4.44709 15.7956ZM 15.7956 11.5529L 18.6933 12.3294L 15.7956 11.5529ZM 11.5529 15.7956L 12.3294 18.6933L 11.5529 15.7956ZM 11.5529 0.204445L 10.7765 3.10222L 11.5529 0.204445ZM 15.7956 4.44709L 18.6933 3.67063L 15.7956 4.44709ZM 8 13C 5.94691 13 5.50888 12.9742 5.22354 12.8978L 3.67063 18.6933C 4.91129 19.0258 6.3332 19 8 19L 8 13ZM -3 8C -3 9.6668 -3.02577 11.0887 -2.69333 12.3294L 3.10222 10.7765C 3.02577 10.4911 3 10.0531 3 8L -3 8ZM 5.22354 12.8978C 4.18827 12.6204 3.37962 11.8117 3.10222 10.7765L -2.69333 12.3294C -1.86113 15.4352 0.5648 17.8611 3.67063 18.6933L 5.22354 12.8978ZM 13 8C 13 10.0531 12.9742 10.4911 12.8978 10.7765L 18.6933 12.3294C 19.0258 11.0887 19 9.6668 19 8L 13 8ZM 8 19C 9.6668 19 11.0887 19.0258 12.3294 18.6933L 10.7765 12.8978C 10.4911 12.9742 10.0531 13 8 13L 8 19ZM 12.8978 10.7765C 12.6204 11.8117 11.8117 12.6204 10.7765 12.8978L 12.3294 18.6933C 15.4352 17.8611 17.8611 15.4352 18.6933 12.3294L 12.8978 10.7765ZM 8 3C 10.0531 3 10.4911 3.02577 10.7765 3.10222L 12.3294 -2.69333C 11.0887 -3.02577 9.6668 -3 8 -3L 8 3ZM 19 8C 19 6.3332 19.0258 4.91129 18.6933 3.67063L 12.8978 5.22354C 12.9742 5.50888 13 5.94691 13 8L 19 8ZM 10.7765 3.10222C 11.8117 3.37962 12.6204 4.18827 12.8978 5.22354L 18.6933 3.67063C 17.8611 0.5648 15.4352 -1.86113 12.3294 -2.69333L 10.7765 3.10222ZM 8 -3C 6.3332 -3 4.91129 -3.02577 3.67063 -2.69333L 5.22354 3.10222C 5.50888 3.02577 5.94691 3 8 3L 8 -3ZM 3 8C 3 5.94691 3.02577 5.50888 3.10222 5.22354L -2.69333 3.67063C -3.02577 4.91129 -3 6.3332 -3 8L 3 8ZM 3.67063 -2.69333C 0.5648 -1.86113 -1.86113 0.5648 -2.69333 3.67063L 3.10222 5.22354C 3.37962 4.18827 4.18827 3.37962 5.22354 3.10222L 3.67063 -2.69333Z"/>
<path id="path2_fill" fill-rule="evenodd" d="M 96.5258 59.3437C 101.158 51.3741 101.158 41.5551 96.5258 33.5856C 92.774 27.1304 88.2431 19.3343 84.4913 12.879C 79.8591 4.9095 71.2988 0 62.0347 0L 37.9653 0C 28.7012 0 20.1406 4.9095 15.5087 12.879C 11.7569 19.3343 7.22572 27.1304 3.47417 33.5856C -1.15806 41.5551 -1.15806 51.3741 3.47417 59.3437C 7.22572 65.7989 11.7569 73.595 15.5087 80.0503C 20.1406 88.0198 28.7012 92.9293 37.9653 92.9293L 62.0347 92.9293C 71.2988 92.9293 79.8591 88.0198 84.4913 80.0503C 88.2431 73.595 92.774 65.7989 96.5258 59.3437Z"/>
<path id="path3_stroke_2x" d="M 96.5258 59.3437L 93.9321 57.8361L 93.9321 57.8362L 96.5258 59.3437ZM 96.5258 33.5856L 93.9321 35.0931L 93.9321 35.0932L 96.5258 33.5856ZM 84.4913 12.879L 87.085 11.3715L 87.085 11.3715L 84.4913 12.879ZM 15.5087 12.879L 18.1024 14.3865L 18.1025 14.3865L 15.5087 12.879ZM 3.47417 33.5856L 6.06786 35.0932L 6.06795 35.093L 3.47417 33.5856ZM 3.47417 59.3437L 6.06795 57.8363L 6.06786 57.8361L 3.47417 59.3437ZM 15.5087 80.0503L 18.1025 78.5428L 18.1024 78.5427L 15.5087 80.0503ZM 84.4913 80.0503L 87.085 81.5578L 87.085 81.5578L 84.4913 80.0503ZM 99.1195 60.8512C 104.293 51.9497 104.293 40.9796 99.1195 32.078L 93.9321 35.0932C 98.0226 42.1307 98.0226 50.7986 93.9321 57.8361L 99.1195 60.8512ZM 99.1196 32.0781C 97.2436 28.8505 95.173 25.2877 93.1023 21.7249C 91.0316 18.162 88.961 14.5992 87.085 11.3715L 81.8976 14.3865C 83.7735 17.6141 85.8441 21.1769 87.9148 24.7398C 89.9855 28.3026 92.0562 31.8655 93.9321 35.0931L 99.1196 32.0781ZM 87.085 11.3715C 81.9124 2.47231 72.3609 -3 62.0347 -3L 62.0347 3C 70.2368 3 77.8057 7.34668 81.8976 14.3866L 87.085 11.3715ZM 62.0347 -3L 37.9653 -3L 37.9653 3L 62.0347 3L 62.0347 -3ZM 37.9653 -3C 27.6391 -3 18.0873 2.47227 12.915 11.3715L 18.1025 14.3865C 22.194 7.34672 29.7632 3 37.9653 3L 37.9653 -3ZM 12.915 11.3715C 9.16312 17.8268 4.63197 25.6229 0.880387 32.0782L 6.06795 35.093C 9.81947 28.6378 14.3506 20.8418 18.1024 14.3865L 12.915 11.3715ZM 0.880474 32.078C -4.29349 40.9796 -4.29349 51.9497 0.880474 60.8512L 6.06786 57.8361C 1.97738 50.7986 1.97738 42.1307 6.06786 35.0932L 0.880474 32.078ZM 0.880387 60.8511C 4.63197 67.3064 9.16312 75.1025 12.915 81.5578L 18.1024 78.5427C 14.3506 72.0875 9.81947 64.2915 6.06795 57.8363L 0.880387 60.8511ZM 12.915 81.5577C 18.0873 90.457 27.6391 95.9293 37.9653 95.9293L 37.9653 89.9293C 29.7632 89.9293 22.194 85.5826 18.1025 78.5428L 12.915 81.5577ZM 37.9653 95.9293L 62.0347 95.9293L 62.0347 89.9293L 37.9653 89.9293L 37.9653 95.9293ZM 62.0347 95.9293C 72.3609 95.9293 81.9124 90.457 87.085 81.5578L 81.8976 78.5427C 77.8057 85.5826 70.2368 89.9293 62.0347 89.9293L 62.0347 95.9293ZM 87.085 81.5578C 88.961 78.3301 91.0316 74.7673 93.1023 71.2044C 95.173 67.6416 97.2436 64.0788 99.1196 60.8512L 93.9321 57.8362C 92.0562 61.0638 89.9855 64.6267 87.9148 68.1895C 85.8441 71.7524 83.7735 75.3152 81.8976 78.5427L 87.085 81.5578Z"/>
<path id="path4_fill" fill-rule="evenodd" d="M 23 46C 35.7025 46 46 35.7025 46 23C 46 10.2975 35.7025 0 23 0C 10.2975 0 0 10.2975 0 23C 0 35.7025 10.2975 46 23 46Z"/>
<path id="path5_stroke" d="M 23 47.5C 36.531 47.5 47.5 36.531 47.5 23L 44.5 23C 44.5 34.8741 34.8741 44.5 23 44.5L 23 47.5ZM 47.5 23C 47.5 9.46902 36.531 -1.5 23 -1.5L 23 1.5C 34.8741 1.5 44.5 11.1259 44.5 23L 47.5 23ZM 23 -1.5C 9.46902 -1.5 -1.5 9.46902 -1.5 23L 1.5 23C 1.5 11.1259 11.1259 1.5 23 1.5L 23 -1.5ZM -1.5 23C -1.5 36.531 9.46902 47.5 23 47.5L 23 44.5C 11.1259 44.5 1.5 34.8741 1.5 23L -1.5 23Z"/>
<path id="path6_fill" fill-rule="evenodd" d="M 0 1.5C 0 1.5 0 1.5 4.44089e-16 1.5C 9.69537e-09 0.671573 0.671573 9.69537e-09 1.5 4.44089e-16C 1.5 0 1.5 0 1.5 0C 1.5 0 1.5 0 1.5 4.44089e-16C 2.32843 9.69537e-09 3 0.671573 3 1.5L 3 5.5C 3 6.32843 2.32843 7 1.5 7C 1.5 7 1.5 7 1.5 7C 0.671573 7 9.69537e-09 6.32843 4.44089e-16 5.5C 0 5.5 0 5.5 0 5.5L 0 1.5Z"/>
<path id="path7_fill" fill-rule="evenodd" d="M 0 1.5C 0 1.5 0 1.5 4.44089e-16 1.5C 9.69537e-09 0.671573 0.671573 9.69537e-09 1.5 4.44089e-16C 1.5 0 1.5 0 1.5 0C 1.5 0 1.5 0 1.5 4.44089e-16C 2.32843 9.69537e-09 3 0.671573 3 1.5C 3 1.5 3 1.5 3 1.5L 3 10.4645C 3 10.4645 3 10.4645 3 10.4645C 3 11.2929 2.32843 11.9645 1.5 11.9645C 1.5 11.9645 1.5 11.9645 1.5 11.9645C 1.5 11.9645 1.5 11.9645 1.5 11.9645C 0.671573 11.9645 9.69537e-09 11.2929 4.44089e-16 10.4645C 0 10.4645 0 10.4645 0 10.4645L 0 1.5Z"/>
<path id="path8_fill" fill-rule="evenodd" d="M 0 1.5C 0 1.5 0 1.5 4.44089e-16 1.5C 9.69537e-09 0.671573 0.671573 9.69537e-09 1.5 4.44089e-16C 1.5 0 1.5 0 1.5 0C 1.5 0 1.5 0 1.5 4.44089e-16C 2.32843 9.69537e-09 3 0.671573 3 1.5L 3 5.57107C 3 6.3995 2.32843 7.07107 1.5 7.07107C 1.5 7.07107 1.5 7.07107 1.5 7.07107C 0.671573 7.07107 9.69537e-09 6.3995 4.44089e-16 5.57107C 0 5.57107 0 5.57107 0 5.57107L 0 1.5Z"/>
<path id="path9_stroke" d="M 4 9.5C 7.03757 9.5 9.5 7.03757 9.5 4L 6.5 4C 6.5 5.38071 5.38071 6.5 4 6.5L 4 9.5ZM 9.5 4C 9.5 0.962434 7.03757 -1.5 4 -1.5L 4 1.5C 5.38071 1.5 6.5 2.61929 6.5 4L 9.5 4ZM 4 -1.5C 0.962434 -1.5 -1.5 0.962434 -1.5 4L 1.5 4C 1.5 2.61929 2.61929 1.5 4 1.5L 4 -1.5ZM -1.5 4C -1.5 7.03757 0.962434 9.5 4 9.5L 4 6.5C 2.61929 6.5 1.5 5.38071 1.5 4L -1.5 4Z"/>
</defs>
</svg>
