<svg width="60" height="60" viewBox="0 0 60 60" version="1.1" xmlns="http://www.w3.org/2000/svg" xmlns:xlink="http://www.w3.org/1999/xlink">
<title>icon-asset-registry</title>
<desc>Created using Figma</desc>
<g id="Canvas" transform="translate(-5091 -4125)">
<g id="icon-asset-registry">
<g id="Page 1">
<g id="Fill 1">
<use xlink:href="#path0_fill" transform="translate(5100.08 4130)" fill="#221E1F"/>
</g>
<g id="Group 13">
<g id="Fill 2">
<use xlink:href="#path1_fill" transform="translate(5095.47 4141.43)" fill="#FEFEFE"/>
</g>
<g id="Group 6">
<mask id="mask0_outline" mask-type="alpha">
<g id="Clip 5">
<use xlink:href="#path2_fill" transform="translate(5094 4139.96)" fill="#FFFFFF"/>
</g>
</mask>
<g id="Fill 4" mask="url(#mask0_outline)">
<use xlink:href="#path3_fill" transform="translate(5094 4139.96)" fill="#221E1F"/>
</g>
</g>
<g id="Fill 7">
<use xlink:href="#path4_fill" transform="translate(5126.87 4158.44)" fill="#FEFEFE"/>
</g>
<g id="Fill 9">
<use xlink:href="#path5_fill" transform="translate(5125.41 4156.98)" fill="#221E1F"/>
</g>
<g id="Fill 11">
<use xlink:href="#path6_fill" transform="translate(5130.74 4156.11)" fill="#221E1F"/>
</g>
</g>
</g>
</g>
</g>
<defs>
<path id="path0_fill" fill-rule="evenodd" d="M 0 21.6942L 36.5479 21.6942L 36.5479 0L 0 0L 0 21.6942ZM 2.93311 18.7616L 33.6136 18.7616L 33.6136 2.93408L 2.93311 2.93408L 2.93311 18.7616Z"/>
<path id="path1_fill" fill-rule="evenodd" d="M 40.8357 6.853L 22.6409 6.853L 19.9848 2.49847C 19.0417 0.951133 17.3103 0 15.4381 0L 4.00107 0C 1.79153 0 0 1.71307 0 3.82653L 0 11.0917C 0 11.1745 0.00806667 11.2545 0.0132 11.3366C 0.0088 11.418 0 11.4979 0 11.5808L 0 26.6816C 0 29.293 2.2132 31.4094 4.9434 31.4094L 40.8357 31.4094C 43.5659 31.4094 45.7783 29.293 45.7783 26.6823L 45.7783 11.5808C 45.7783 8.9694 43.5659 6.853 40.8357 6.853"/>
<path id="path2_fill" fill-rule="evenodd" d="M 0 0L 48.7114 0L 48.7114 34.3427L 0 34.3427L 0 0Z"/>
<path id="path3_fill" fill-rule="evenodd" d="M 5.46751 2.93311C 4.07051 2.93311 2.93311 3.99131 2.93311 5.29297L 2.93311 28.148C 2.93311 29.9462 4.49291 31.4092 6.40984 31.4092L 42.3021 31.4092C 44.219 31.4092 45.7781 29.9462 45.7781 28.148L 45.7781 13.0472C 45.7781 11.2484 44.219 9.78611 42.3021 9.78611L 23.2846 9.78611L 20.1994 4.72831C 19.524 3.62097 18.262 2.93311 16.9046 2.93311L 5.46751 2.93311ZM 42.3023 34.3427L 6.41007 34.3427C 2.8754 34.3427 0 31.5641 0 28.1483L 0 13.0475C 0 12.9653 0.0044 12.8847 0.0102667 12.804C 0.00366667 12.7079 0 12.6339 0 12.5583L 0 5.2932C 0 2.37453 2.453 0 5.46773 0L 16.9048 0C 19.2779 0 21.4999 1.22613 22.704 3.201L 24.9311 6.853L 42.3023 6.853C 45.8363 6.853 48.7117 9.6316 48.7117 13.0475L 48.7117 28.1483C 48.7117 31.5641 45.837 34.3427 42.3023 34.3427L 42.3023 34.3427Z"/>
<path id="path4_fill" fill-rule="evenodd" d="M 20.3507 10.175C 20.3507 15.7953 15.7953 20.3507 10.1757 20.3507C 4.55547 20.3507 0 15.7953 0 10.175C 0 4.55547 4.55547 0 10.1757 0C 15.7953 0 20.3507 4.55547 20.3507 10.175"/>
<path id="path5_fill" fill-rule="evenodd" d="M 11.6414 2.93311C 6.83957 2.93311 2.93311 6.83957 2.93311 11.6414C 2.93311 16.444 6.83957 20.3505 11.6414 20.3505C 16.4433 20.3505 20.3505 16.444 20.3505 11.6414C 20.3505 6.83957 16.4433 2.93311 11.6414 2.93311L 11.6414 2.93311ZM 11.6417 23.2841C 5.22207 23.2841 0 18.0613 0 11.6417C 0 5.2228 5.22207 0 11.6417 0C 18.0613 0 23.2841 5.2228 23.2841 11.6417C 23.2841 18.0613 18.0613 23.2841 11.6417 23.2841L 11.6417 23.2841Z"/>
<path id="path6_fill" fill-rule="evenodd" d="M 5.55351 16.6395C 4.71971 16.6395 3.90938 16.3381 3.27285 15.7807L 0.500112 13.349C -0.109288 12.8144 -0.170154 11.8882 0.363712 11.2788C 0.897579 10.6694 1.82451 10.6093 2.43391 11.1431L 5.20665 13.5749C 5.36725 13.7149 5.54105 13.7135 5.63125 13.7003C 5.72145 13.6871 5.88938 13.6387 6.00158 13.459L 13.9817 0.689453C 14.4114 0.00231951 15.3156 -0.205947 16.0035 0.223053C 16.6899 0.652053 16.8989 1.55699 16.4699 2.24412L 8.48758 15.0173C 7.94491 15.8797 7.05905 16.4561 6.05511 16.6028C 5.88791 16.627 5.71998 16.6395 5.55351 16.6395"/>
</defs>
</svg>
