<svg width="60" height="60" viewBox="0 0 60 60" version="1.1" xmlns="http://www.w3.org/2000/svg" xmlns:xlink="http://www.w3.org/1999/xlink">
<title>icon-radio</title>
<desc>Created using Figma</desc>
<g id="Canvas" transform="translate(-9532 -6512)">
<g id="icon-radio">
<g id="Oval 12">
<use xlink:href="#path0_stroke" transform="translate(9557 6532)" fill="#FFFFFF"/>
</g>
<g id="Oval 12 Copy">
<use xlink:href="#path1_stroke" transform="matrix(0.707107 -0.707107 0.707107 0.707107 9545 6537.62)" fill="#FFFFFF"/>
</g>
<g id="Oval 12 Copy 2">
<use xlink:href="#path2_stroke" transform="matrix(0.707107 -0.707107 0.707107 0.707107 9535 6537.67)" fill="#FFFFFF"/>
</g>
<g id="Rectangle">
<use xlink:href="#path3_fill" transform="translate(9561 6542.94)" fill="#FFFFFF"/>
</g>
</g>
</g>
<defs>
<path id="path0_stroke" d="M 5.5 12.5C 9.36599 12.5 12.5 9.36599 12.5 5.5L 9.5 5.5C 9.5 7.70914 7.70914 9.5 5.5 9.5L 5.5 12.5ZM 12.5 5.5C 12.5 1.63401 9.36599 -1.5 5.5 -1.5L 5.5 1.5C 7.70914 1.5 9.5 3.29086 9.5 5.5L 12.5 5.5ZM 5.5 -1.5C 1.63401 -1.5 -1.5 1.63401 -1.5 5.5L 1.5 5.5C 1.5 3.29086 3.29086 1.5 5.5 1.5L 5.5 -1.5ZM -1.5 5.5C -1.5 9.36599 1.63401 12.5 5.5 12.5L 5.5 9.5C 3.29086 9.5 1.5 7.70914 1.5 5.5L -1.5 5.5Z"/>
<path id="path1_stroke" d="M 12.5 23.5C 11.6716 23.5 11 24.1716 11 25C 11 25.8284 11.6716 26.5 12.5 26.5L 12.5 23.5ZM -1.5 12.5C -1.5 13.3284 -0.828427 14 0 14C 0.828427 14 1.5 13.3284 1.5 12.5L -1.5 12.5ZM 12.5 26.5C 20.232 26.5 26.5 20.232 26.5 12.5L 23.5 12.5C 23.5 18.5751 18.5751 23.5 12.5 23.5L 12.5 26.5ZM 26.5 12.5C 26.5 4.76801 20.232 -1.5 12.5 -1.5L 12.5 1.5C 18.5751 1.5 23.5 6.42487 23.5 12.5L 26.5 12.5ZM 12.5 -1.5C 4.76801 -1.5 -1.5 4.76801 -1.5 12.5L 1.5 12.5C 1.5 6.42487 6.42487 1.5 12.5 1.5L 12.5 -1.5Z"/>
<path id="path2_stroke" d="M 19.605 37.71C 18.7766 37.71 18.105 38.3816 18.105 39.21C 18.105 40.0384 18.7766 40.71 19.605 40.71L 19.605 37.71ZM -1.5 19.605C -1.5 20.4334 -0.828427 21.105 0 21.105C 0.828427 21.105 1.5 20.4334 1.5 19.605L -1.5 19.605ZM 19.605 40.71C 31.261 40.71 40.71 31.261 40.71 19.605L 37.71 19.605C 37.71 29.6041 29.6041 37.71 19.605 37.71L 19.605 40.71ZM 40.71 19.605C 40.71 7.94903 31.261 -1.5 19.605 -1.5L 19.605 1.5C 29.6041 1.5 37.71 9.60588 37.71 19.605L 40.71 19.605ZM 19.605 -1.5C 7.94903 -1.5 -1.5 7.94903 -1.5 19.605L 1.5 19.605C 1.5 9.60588 9.60588 1.5 19.605 1.5L 19.605 -1.5Z"/>
<path id="path3_fill" fill-rule="evenodd" d="M 0 1.5C 0 0.671573 0.671573 0 1.5 0L 1.5 0C 2.32843 0 3 0.671573 3 1.5L 3 21.5C 3 22.3284 2.32843 23 1.5 23L 1.5 23C 0.671573 23 0 22.3284 0 21.5L 0 1.5Z"/>
</defs>
</svg>
