<svg width="60" height="60" viewBox="0 0 60 60" version="1.1" xmlns="http://www.w3.org/2000/svg" xmlns:xlink="http://www.w3.org/1999/xlink">
<title>icon-education</title>
<desc>Created using Figma</desc>
<g id="Canvas" transform="translate(-3553 -4444)">
<g id="icon-education">
<g id="Rectangle 9 Copy">
<use xlink:href="#path0_fill" transform="matrix(0.707107 -0.707107 0.707107 0.707107 3559.26 4477.49)" fill="#FFFFFF"/>
<use xlink:href="#path1_stroke" transform="matrix(0.707107 -0.707107 0.707107 0.707107 3559.26 4477.49)" fill="#1C1A1A"/>
</g>
<g id="Rectangle 10">
<use xlink:href="#path2_fill" transform="translate(3568 4460.67)" fill="#FFFFFF"/>
<mask id="mask0_outline_ins">
<use xlink:href="#path2_fill" fill="white" transform="translate(3568 4460.67)"/>
</mask>
<g mask="url(#mask0_outline_ins)">
<use xlink:href="#path3_stroke_2x" transform="translate(3568 4460.67)" fill="#1C1A1A"/>
</g>
</g>
<g id="Rectangle 9">
<use xlink:href="#path4_fill" transform="matrix(0.707107 -0.707107 0.707107 0.707107 3557 4460.46)" fill="#FFFFFF"/>
<mask id="mask1_outline_ins">
<use xlink:href="#path4_fill" fill="white" transform="matrix(0.707107 -0.707107 0.707107 0.707107 3557 4460.46)"/>
</mask>
<g mask="url(#mask1_outline_ins)">
<use xlink:href="#path5_stroke_2x" transform="matrix(0.707107 -0.707107 0.707107 0.707107 3557 4460.46)" fill="#1C1A1A"/>
</g>
</g>
<g id="Path 7">
<use xlink:href="#path6_stroke" transform="translate(3557.66 4477.54)" fill="#1C1A1A"/>
</g>
<g id="Path 8">
<use xlink:href="#path7_stroke" transform="translate(3583 4478.4)" fill="#1C1A1A"/>
</g>
</g>
</g>
<defs>
<path id="path0_fill" fill-rule="evenodd" d="M 0 0L 23.3424 9.96313L 32.8492 33.7617L 8.50859 24.7969L 0 0Z"/>
<path id="path1_stroke" d="M 0 0L 0.588844 -1.37959C 0.0437439 -1.61225 -0.587243 -1.50214 -1.02132 -1.09859C -1.45539 -0.695053 -1.61116 -0.0737589 -1.4188 0.486835L 0 0ZM 23.3424 9.96313L 24.7353 9.40668C 24.5874 9.03631 24.298 8.74011 23.9312 8.58354L 23.3424 9.96313ZM 32.8492 33.7617L 32.3308 35.1693C 32.8867 35.374 33.511 35.2324 33.9242 34.8079C 34.3374 34.3833 34.462 33.7554 34.2422 33.2053L 32.8492 33.7617ZM 8.50859 24.7969L 7.08979 25.2837C 7.2362 25.7104 7.56687 26.0485 7.99018 26.2045L 8.50859 24.7969ZM -0.588844 1.37959L 22.7535 11.3427L 23.9312 8.58354L 0.588844 -1.37959L -0.588844 1.37959ZM 21.9494 10.5196L 31.4563 34.3182L 34.2422 33.2053L 24.7353 9.40668L 21.9494 10.5196ZM 33.3677 32.3542L 9.02701 23.3893L 7.99018 26.2045L 32.3308 35.1693L 33.3677 32.3542ZM 9.92739 24.3101L 1.4188 -0.486835L -1.4188 0.486835L 7.08979 25.2837L 9.92739 24.3101Z"/>
<path id="path2_fill" fill-rule="evenodd" d="M 0 0L 30 0L 30 14.8363C 30 14.8363 25.3509 20.757 15 20.757C 4.64911 20.757 0 14.8363 0 14.8363L 0 0Z"/>
<path id="path3_stroke_2x" d="M 0 0L 0 -3L -3 -3L -3 0L 0 0ZM 30 0L 33 0L 33 -3L 30 -3L 30 0ZM 30 14.8363L 32.3595 16.6891L 33 15.8734L 33 14.8363L 30 14.8363ZM 0 14.8363L -3 14.8363L -3 15.8734L -2.3595 16.6891L 0 14.8363ZM 0 3L 30 3L 30 -3L 0 -3L 0 3ZM 27 0L 27 14.8363L 33 14.8363L 33 0L 27 0ZM 30 14.8363C 27.6405 12.9836 27.6415 12.9823 27.6424 12.9811C 27.6427 12.9808 27.6436 12.9796 27.6442 12.9788C 27.6454 12.9774 27.6465 12.976 27.6475 12.9747C 27.6496 12.972 27.6514 12.9697 27.653 12.9678C 27.6561 12.9639 27.6581 12.9614 27.6591 12.9602C 27.661 12.9578 27.6587 12.9607 27.6521 12.9685C 27.6389 12.9842 27.6087 13.0194 27.5613 13.0715C 27.4664 13.1758 27.3032 13.3469 27.0702 13.5633C 26.6035 13.9968 25.8623 14.607 24.8331 15.2272C 22.7923 16.457 19.572 17.757 15 17.757L 15 23.757C 20.7789 23.757 25.0585 22.0966 27.93 20.3661C 29.3571 19.5062 30.425 18.6362 31.1535 17.9595C 31.5181 17.6209 31.799 17.3295 31.9987 17.11C 32.0986 17.0002 32.1784 16.9082 32.2384 16.8371C 32.2684 16.8016 32.2935 16.7712 32.3136 16.7464C 32.3237 16.734 32.3326 16.723 32.3402 16.7135C 32.344 16.7087 32.3475 16.7042 32.3508 16.7002C 32.3524 16.6982 32.3539 16.6962 32.3554 16.6944C 32.3561 16.6935 32.3571 16.6921 32.3575 16.6917C 32.3585 16.6904 32.3595 16.6891 30 14.8363ZM 15 17.757C 10.428 17.757 7.20765 16.457 5.16688 15.2272C 4.13775 14.607 3.39647 13.9968 2.92982 13.5633C 2.6968 13.3469 2.53361 13.1758 2.43867 13.0715C 2.39125 13.0194 2.36105 12.9842 2.34788 12.9685C 2.34129 12.9607 2.33898 12.9578 2.34092 12.9602C 2.34189 12.9614 2.34393 12.9639 2.34703 12.9678C 2.34857 12.9697 2.35039 12.972 2.35247 12.9747C 2.3535 12.976 2.35461 12.9774 2.35578 12.9788C 2.35637 12.9796 2.3573 12.9808 2.35759 12.9811C 2.35854 12.9823 2.3595 12.9836 0 14.8363C -2.3595 16.6891 -2.3585 16.6904 -2.35748 16.6917C -2.35712 16.6921 -2.35608 16.6935 -2.35536 16.6944C -2.3539 16.6962 -2.35237 16.6982 -2.35076 16.7002C -2.34755 16.7042 -2.34403 16.7087 -2.34021 16.7135C -2.33256 16.723 -2.3237 16.734 -2.31362 16.7464C -2.29346 16.7712 -2.26839 16.8016 -2.2384 16.8371C -2.17842 16.9082 -2.09863 17.0002 -1.9987 17.11C -1.79897 17.3295 -1.51807 17.6209 -1.1535 17.9595C -0.424987 18.6362 0.642947 19.5062 2.06996 20.3661C 4.94146 22.0966 9.22115 23.757 15 23.757L 15 17.757ZM 3 14.8363L 3 0L -3 0L -3 14.8363L 3 14.8363Z"/>
<path id="path4_fill" fill-rule="evenodd" d="M 0 0L 25.5813 10.9187L 36 37L 10.4996 26.0004L 0 0Z"/>
<path id="path5_stroke_2x" d="M 0 0L 1.17769 -2.75918L -5.50073 -5.6097L -2.78174 1.12334L 0 0ZM 25.5813 10.9187L 28.3672 9.80584L 27.9049 8.64872L 26.7589 8.15957L 25.5813 10.9187ZM 36 37L 34.8118 39.7547L 41.4799 42.631L 38.7859 35.8871L 36 37ZM 10.4996 26.0004L 7.7179 27.1237L 8.17949 28.2668L 9.31142 28.755L 10.4996 26.0004ZM -1.17769 2.75918L 24.4036 13.6779L 26.7589 8.15957L 1.17769 -2.75918L -1.17769 2.75918ZM 22.7953 12.0317L 33.2141 38.1129L 38.7859 35.8871L 28.3672 9.80584L 22.7953 12.0317ZM 37.1882 34.2453L 11.6879 23.2457L 9.31142 28.755L 34.8118 39.7547L 37.1882 34.2453ZM 13.2814 24.877L 2.78174 -1.12334L -2.78174 1.12334L 7.7179 27.1237L 13.2814 24.877Z"/>
<path id="path6_stroke" d="M 1.6731 8.67651L 0.479124 9.58449C 0.616012 9.76449 0.791829 9.91122 0.993423 10.0137L 1.6731 8.67651ZM 1.6731 0L 2.34373 -1.34173C 1.71435 -1.65632 0.950893 -1.49114 0.507828 -0.944538L 1.6731 0ZM 24.5115 11.4153L 25.7861 12.206C 26.0084 11.8476 26.0696 11.4122 25.9547 11.0065C 25.8398 10.6007 25.5593 10.2621 25.1821 10.0735L 24.5115 11.4153ZM 25.3394 20.7058L 24.6597 22.043C 25.3266 22.382 26.1414 22.1777 26.5695 21.5642C 26.9976 20.9506 26.9082 20.1154 26.3598 19.6064L 25.3394 20.7058ZM 1.6731 8.67651C 2.86707 7.76853 2.86728 7.7688 2.86748 7.76906C 2.86754 7.76914 2.86773 7.7694 2.86785 7.76955C 2.86809 7.76987 2.8683 7.77014 2.86848 7.77039C 2.86886 7.77088 2.86913 7.77125 2.86931 7.77148C 2.86967 7.77196 2.86964 7.77192 2.86924 7.77138C 2.86843 7.77031 2.86614 7.76723 2.86245 7.76222C 2.85507 7.75219 2.84215 7.73447 2.82449 7.70957C 2.7891 7.6597 2.73502 7.58158 2.66843 7.4794C 2.53449 7.27383 2.35425 6.97743 2.17468 6.62291C 1.79963 5.88245 1.5 5.02941 1.5 4.27026L -1.5 4.27026C -1.5 5.71728 -0.963083 7.06736 -0.501589 7.97848C -0.262884 8.44975 -0.0248473 8.84126 0.154914 9.11715C 0.245186 9.25569 0.321817 9.36669 0.377924 9.44576C 0.406007 9.48533 0.429037 9.51703 0.446164 9.5403C 0.454731 9.55194 0.46183 9.56149 0.467356 9.56887C 0.470119 9.57257 0.47249 9.57572 0.474456 9.57832C 0.475438 9.57963 0.47632 9.58079 0.477098 9.58182C 0.477488 9.58233 0.477851 9.58281 0.478189 9.58326C 0.478357 9.58348 0.478591 9.58379 0.478676 9.5839C 0.478903 9.5842 0.479124 9.58449 1.6731 8.67651ZM 1.5 4.27026C 1.5 3.51818 1.79532 2.70421 2.16286 2.00845C 2.33929 1.67448 2.51628 1.39784 2.64744 1.20721C 2.71261 1.11249 2.76532 1.04066 2.79943 0.995361C 2.81645 0.972755 2.82874 0.956895 2.83552 0.948241C 2.8389 0.943918 2.8409 0.941408 2.84141 0.940768C 2.84166 0.940448 2.84154 0.940598 2.84104 0.941223C 2.84079 0.941536 2.84044 0.941968 2.84 0.94252C 2.83977 0.942796 2.83953 0.943102 2.83925 0.943438C 2.83912 0.943606 2.83889 0.943881 2.83883 0.943965C 2.8386 0.944247 2.83836 0.944538 1.6731 0C 0.507828 -0.944538 0.50758 -0.944232 0.507326 -0.943918C 0.507233 -0.943803 0.506972 -0.94348 0.506785 -0.94325C 0.506411 -0.942788 0.506012 -0.942293 0.505586 -0.941766C 0.504735 -0.940712 0.503781 -0.939528 0.502726 -0.938214C 0.500615 -0.935588 0.498097 -0.932444 0.495186 -0.928791C 0.489365 -0.921485 0.481966 -0.912136 0.473095 -0.900803C 0.45536 -0.878144 0.431704 -0.847504 0.402979 -0.809361C 0.345594 -0.73316 0.267595 -0.626504 0.175908 -0.493239C -0.00664017 -0.227913 -0.247916 0.149354 -0.489764 0.607173C -0.958769 1.495 -1.5 2.81616 -1.5 4.27026L 1.5 4.27026ZM 1.00246 1.34173L 23.8408 12.757L 25.1821 10.0735L 2.34373 -1.34173L 1.00246 1.34173ZM 24.5115 11.4153C 23.2368 10.6245 23.2366 10.6249 23.2364 10.6253C 23.2363 10.6254 23.236 10.6258 23.2359 10.6261C 23.2355 10.6266 23.2352 10.6272 23.2348 10.6278C 23.2341 10.629 23.2332 10.6303 23.2323 10.6318C 23.2305 10.6347 23.2284 10.6382 23.226 10.6422C 23.2212 10.6501 23.2152 10.6601 23.208 10.6721C 23.1938 10.696 23.175 10.7281 23.1524 10.7678C 23.1073 10.8472 23.0467 10.9576 22.9759 11.096C 22.8345 11.3722 22.6507 11.7637 22.4679 12.246C 22.1055 13.2024 21.7297 14.5624 21.7297 16.1145L 24.7297 16.1145C 24.7297 15.0336 24.9948 14.044 25.2733 13.309C 25.411 12.9456 25.5476 12.656 25.6466 12.4625C 25.6959 12.3661 25.7354 12.2945 25.7604 12.2506C 25.7728 12.2287 25.7816 12.2138 25.7861 12.2062C 25.7884 12.2024 25.7895 12.2005 25.7896 12.2004C 25.7896 12.2004 25.7893 12.2008 25.7887 12.2018C 25.7885 12.2022 25.7881 12.2028 25.7877 12.2035C 25.7874 12.2039 25.7872 12.2043 25.787 12.2047C 25.7868 12.2049 25.7866 12.2052 25.7866 12.2053C 25.7863 12.2057 25.7861 12.206 24.5115 11.4153ZM 21.7297 16.1145C 21.7297 17.8261 22.4104 19.2581 23.0236 20.2099C 23.3357 20.6944 23.6473 21.081 23.8837 21.3497C 24.0025 21.4846 24.1038 21.5916 24.1789 21.668C 24.2165 21.7062 24.2477 21.737 24.2714 21.7599C 24.2832 21.7714 24.2931 21.7809 24.3011 21.7885C 24.3051 21.7923 24.3086 21.7955 24.3115 21.7983C 24.313 21.7997 24.3144 21.801 24.3156 21.8021C 24.3162 21.8027 24.3168 21.8032 24.3173 21.8037C 24.3176 21.804 24.318 21.8044 24.3181 21.8045C 24.3185 21.8048 24.3189 21.8052 25.3394 20.7058C 26.3598 19.6064 26.3602 19.6068 26.3605 19.6071C 26.3606 19.6072 26.361 19.6075 26.3612 19.6077C 26.3616 19.6081 26.362 19.6084 26.3623 19.6088C 26.3631 19.6094 26.3637 19.61 26.3641 19.6104C 26.3651 19.6113 26.3655 19.6117 26.3655 19.6117C 26.3655 19.6117 26.3636 19.6099 26.36 19.6064C 26.3527 19.5994 26.3386 19.5855 26.3185 19.565C 26.2782 19.5241 26.2148 19.4575 26.1358 19.3677C 25.9766 19.1869 25.7608 18.9194 25.5455 18.5852C 25.1038 17.8996 24.7297 17.0359 24.7297 16.1145L 21.7297 16.1145ZM 26.019 19.3686L 2.35277 7.33933L 0.993423 10.0137L 24.6597 22.043L 26.019 19.3686Z"/>
<path id="path7_stroke" d="M 22.5425 7.92627L 23.2264 9.26127L 24.0425 8.84319L 24.0425 7.92627L 22.5425 7.92627ZM 0.68394 20.8101L 23.2264 9.26127L 21.8585 6.59127L -0.68394 18.1401L 0.68394 20.8101ZM 24.0425 7.92627L 24.0425 0L 21.0425 0L 21.0425 7.92627L 24.0425 7.92627Z"/>
</defs>
</svg>
