<svg width="60" height="60" viewBox="0 0 60 60" version="1.1" xmlns="http://www.w3.org/2000/svg" xmlns:xlink="http://www.w3.org/1999/xlink">
<title>icon-Tokenize-assets</title>
<desc>Created using Figma</desc>
<g id="Canvas" transform="translate(-2961 -4754)">
<g id="icon-Tokenize-assets">
<g id="Path 9 Copy 2">
<use xlink:href="#path0_stroke" transform="translate(2966 4787)" fill="#1C1A1A"/>
</g>
<g id="Oval 4 Copy">
<use xlink:href="#path1_fill" transform="translate(2966 4782)" fill="#FFFFFF"/>
<use xlink:href="#path2_stroke" transform="translate(2966 4782)" fill="#1C1A1A"/>
</g>
<g id="Path 9 Copy">
<use xlink:href="#path3_fill" transform="translate(2975 4778)" fill="#FFFFFF"/>
<use xlink:href="#path4_stroke" transform="translate(2975 4778)" fill="#1C1A1A"/>
</g>
<g id="Path 9">
<use xlink:href="#path5_fill" transform="translate(2975 4771)" fill="#FFFFFF"/>
<use xlink:href="#path6_stroke" transform="translate(2975 4771)" fill="#1C1A1A"/>
</g>
<g id="Oval 4">
<use xlink:href="#path7_fill" transform="translate(2975 4766)" fill="#FFFFFF"/>
<use xlink:href="#path8_stroke" transform="translate(2975 4766)" fill="#1C1A1A"/>
</g>
</g>
</g>
<defs>
<path id="path0_stroke" d="M 1.5 0.682607C 1.5 -0.14582 0.828427 -0.817393 0 -0.817393C -0.828427 -0.817393 -1.5 -0.14582 -1.5 0.682607L 1.5 0.682607ZM 0 9.64453L -1.5 9.64453C -1.5 10.0376 -1.34568 10.415 -1.07024 10.6955L 0 9.64453ZM 40 9.64453L 41.0702 10.6955C 41.3457 10.415 41.5 10.0376 41.5 9.64453L 40 9.64453ZM 41.5 0C 41.5 -0.828427 40.8284 -1.5 40 -1.5C 39.1716 -1.5 38.5 -0.828427 38.5 0L 41.5 0ZM -1.5 0.682607L -1.5 9.64453L 1.5 9.64453L 1.5 0.682607L -1.5 0.682607ZM 0 9.64453C -1.07024 10.6955 -1.0695 10.6963 -1.06874 10.6971C -1.06846 10.6973 -1.06767 10.6981 -1.06711 10.6987C -1.06598 10.6998 -1.06478 10.7011 -1.06348 10.7024C -1.0609 10.705 -1.05798 10.7079 -1.05473 10.7111C -1.04823 10.7176 -1.04039 10.7253 -1.03119 10.7343C -1.0128 10.7522 -0.988982 10.775 -0.959616 10.8024C -0.900883 10.8571 -0.819956 10.9299 -0.715784 11.0183C -0.507407 11.195 -0.206209 11.4336 0.196155 11.7127C 1.00137 12.2713 2.20899 12.9902 3.88458 13.7C 7.23986 15.1214 12.4405 16.4932 20 16.4932L 20 13.4932C 12.8119 13.4932 8.01258 12.1906 5.05475 10.9377C 3.57379 10.3103 2.54657 9.69206 1.90609 9.24777C 1.58561 9.02545 1.36125 8.84619 1.22477 8.73043C 1.15652 8.67254 1.1102 8.63049 1.08479 8.60683C 1.07209 8.595 1.06461 8.58776 1.06222 8.58544C 1.06103 8.58428 1.06112 8.58435 1.06246 8.58569C 1.06313 8.58635 1.06411 8.58734 1.06541 8.58865C 1.06606 8.5893 1.06679 8.59003 1.06759 8.59085C 1.06799 8.59126 1.06866 8.59193 1.06886 8.59213C 1.06954 8.59282 1.07024 8.59354 0 9.64453ZM 20 16.4932C 27.5595 16.4932 32.7601 15.1214 36.1154 13.7C 37.791 12.9902 38.9986 12.2713 39.8038 11.7127C 40.2062 11.4336 40.5074 11.195 40.7158 11.0183C 40.82 10.9299 40.9009 10.8571 40.9596 10.8024C 40.989 10.775 41.0128 10.7522 41.0312 10.7343C 41.0404 10.7253 41.0482 10.7176 41.0547 10.7111C 41.058 10.7079 41.0609 10.705 41.0635 10.7024C 41.0648 10.7011 41.066 10.6998 41.0671 10.6987C 41.0677 10.6981 41.0685 10.6973 41.0687 10.6971C 41.0695 10.6963 41.0702 10.6955 40 9.64453C 38.9298 8.59354 38.9305 8.59282 38.9311 8.59213C 38.9313 8.59193 38.932 8.59126 38.9324 8.59085C 38.9332 8.59003 38.9339 8.5893 38.9346 8.58865C 38.9359 8.58734 38.9369 8.58635 38.9375 8.58569C 38.9389 8.58435 38.939 8.58428 38.9378 8.58544C 38.9354 8.58776 38.9279 8.595 38.9152 8.60683C 38.8898 8.63049 38.8435 8.67254 38.7752 8.73043C 38.6388 8.84619 38.4144 9.02545 38.0939 9.24777C 37.4534 9.69206 36.4262 10.3103 34.9452 10.9377C 31.9874 12.1906 27.1881 13.4932 20 13.4932L 20 16.4932ZM 41.5 9.64453L 41.5 0L 38.5 0L 38.5 9.64453L 41.5 9.64453Z"/>
<path id="path1_fill" fill-rule="evenodd" d="M 20 13.0322C 31.0457 13.0322 40 9.24883 40 5.9582C 40 2.66758 31.0457 0 20 0C 8.9543 0 0 2.66758 0 5.9582C 0 9.24883 8.9543 13.0322 20 13.0322Z"/>
<path id="path2_stroke" d="M 20 14.5322C 25.6791 14.5322 30.8603 13.5618 34.6688 12.1337C 36.5662 11.4222 38.1906 10.5719 39.3708 9.61866C 40.5002 8.70647 41.5 7.46826 41.5 5.9582L 38.5 5.9582C 38.5 6.09345 38.3805 6.56216 37.4858 7.28484C 36.6419 7.96644 35.3374 8.67901 33.6155 9.3247C 30.1854 10.6109 25.3666 11.5322 20 11.5322L 20 14.5322ZM 41.5 5.9582C 41.5 4.4035 40.4496 3.22792 39.2921 2.41266C 38.0938 1.56869 36.4574 0.869724 34.5704 0.307554C 30.777 -0.822536 25.626 -1.5 20 -1.5L 20 1.5C 25.4197 1.5 30.2687 2.15633 33.7139 3.18268C 35.4461 3.69873 36.7387 4.28366 37.5645 4.86535C 38.4312 5.47574 38.5 5.86759 38.5 5.9582L 41.5 5.9582ZM 20 -1.5C 14.374 -1.5 9.22299 -0.822536 5.4296 0.307554C 3.54255 0.869724 1.90618 1.56869 0.707938 2.41266C -0.449552 3.22792 -1.5 4.4035 -1.5 5.9582L 1.5 5.9582C 1.5 5.86759 1.56884 5.47574 2.43546 4.86535C 3.26133 4.28366 4.55389 3.69873 6.28613 3.18268C 9.73131 2.15633 14.5803 1.5 20 1.5L 20 -1.5ZM -1.5 5.9582C -1.5 7.46826 -0.500177 8.70647 0.629187 9.61866C 1.80943 10.5719 3.43381 11.4222 5.3312 12.1337C 9.13966 13.5618 14.3209 14.5322 20 14.5322L 20 11.5322C 14.6334 11.5322 9.81465 10.6109 6.38453 9.3247C 4.66263 8.67901 3.35808 7.96644 2.51421 7.28484C 1.61947 6.56216 1.5 6.09345 1.5 5.9582L -1.5 5.9582Z"/>
<path id="path3_fill" fill-rule="evenodd" d="M 0 0.682607L 0 8.53271C 0 8.53271 4.7002 13.0322 20 13.0322C 35.2998 13.0322 40 8.53271 40 8.53271L 40 0"/>
<path id="path4_stroke" d="M 1.5 0.682607C 1.5 -0.14582 0.828427 -0.817393 0 -0.817393C -0.828427 -0.817393 -1.5 -0.14582 -1.5 0.682607L 1.5 0.682607ZM 0 8.53271L -1.5 8.53271C -1.5 8.94189 -1.33285 9.3333 -1.03728 9.61625L 0 8.53271ZM 40 8.53271L 41.0373 9.61625C 41.3328 9.3333 41.5 8.94189 41.5 8.53271L 40 8.53271ZM 41.5 0C 41.5 -0.828427 40.8284 -1.5 40 -1.5C 39.1716 -1.5 38.5 -0.828427 38.5 0L 41.5 0ZM -1.5 0.682607L -1.5 8.53271L 1.5 8.53271L 1.5 0.682607L -1.5 0.682607ZM 0 8.53271C -1.03728 9.61625 -1.0364 9.61709 -1.0355 9.61795C -1.03518 9.61826 -1.03426 9.61913 -1.03361 9.61975C -1.03232 9.62098 -1.03095 9.62228 -1.0295 9.62365C -1.02661 9.62638 -1.02342 9.62938 -1.01993 9.63264C -1.01295 9.63915 -1.00476 9.64671 -0.995338 9.65528C -0.976496 9.67242 -0.952738 9.69358 -0.923885 9.7185C -0.86617 9.76834 -0.788112 9.83315 -0.688279 9.91069C -0.488547 10.0658 -0.202079 10.2716 0.182495 10.5103C 0.952146 10.9879 2.11106 11.5951 3.7491 12.1918C 7.02573 13.3856 12.2032 14.5322 20 14.5322L 20 11.5322C 12.497 11.5322 7.67447 10.4291 4.77605 9.37309C 3.32656 8.845 2.35419 8.32726 1.76443 7.96126C 1.46931 7.7781 1.26904 7.63235 1.15197 7.54141C 1.0934 7.49592 1.05553 7.46406 1.03693 7.44799C 1.02762 7.43995 1.02312 7.43586 1.02324 7.43597C 1.0233 7.43602 1.02451 7.43713 1.02686 7.43932C 1.02803 7.44041 1.02949 7.44178 1.03123 7.44342C 1.0321 7.44424 1.03304 7.44513 1.03404 7.44609C 1.03455 7.44657 1.03536 7.44734 1.03561 7.44758C 1.03643 7.44837 1.03728 7.44917 0 8.53271ZM 20 14.5322C 27.7969 14.5322 32.9743 13.3856 36.2509 12.1918C 37.8889 11.5951 39.0479 10.9879 39.8175 10.5103C 40.2021 10.2716 40.4885 10.0658 40.6883 9.91069C 40.7881 9.83315 40.8662 9.76834 40.9239 9.7185C 40.9527 9.69358 40.9765 9.67242 40.9953 9.65528C 41.0048 9.64671 41.0129 9.63915 41.0199 9.63264C 41.0234 9.62938 41.0266 9.62638 41.0295 9.62365C 41.0309 9.62228 41.0323 9.62098 41.0336 9.61975C 41.0343 9.61913 41.0352 9.61826 41.0355 9.61795C 41.0364 9.61709 41.0373 9.61625 40 8.53271C 38.9627 7.44917 38.9636 7.44837 38.9644 7.44758C 38.9646 7.44734 38.9655 7.44657 38.966 7.44609C 38.967 7.44513 38.9679 7.44424 38.9688 7.44342C 38.9705 7.44178 38.972 7.44041 38.9731 7.43932C 38.9755 7.43713 38.9767 7.43602 38.9768 7.43597C 38.9769 7.43586 38.9724 7.43995 38.9631 7.44799C 38.9445 7.46406 38.9066 7.49592 38.848 7.54141C 38.731 7.63235 38.5307 7.7781 38.2356 7.96126C 37.6458 8.32726 36.6734 8.845 35.2239 9.37309C 32.3255 10.4291 27.503 11.5322 20 11.5322L 20 14.5322ZM 41.5 8.53271L 41.5 0L 38.5 0L 38.5 8.53271L 41.5 8.53271Z"/>
<path id="path5_fill" fill-rule="evenodd" d="M 0 0.682607L 0 8.53271C 0 8.53271 4.7002 13 20 13C 35.2998 13 40 8.53271 40 8.53271L 40 0"/>
<path id="path6_stroke" d="M 0 8.53271L -1.5 8.53271L -1.5 9.17647L -1.03338 9.61997L 0 8.53271ZM 40 8.53271L 41.0334 9.61997L 41.5 9.17647L 41.5 8.53271L 40 8.53271ZM -1.5 0.682607L -1.5 8.53271L 1.5 8.53271L 1.5 0.682607L -1.5 0.682607ZM 0 8.53271C -1.03338 9.61997 -1.0325 9.62081 -1.0316 9.62166C -1.03127 9.62197 -1.03035 9.62284 -1.02971 9.62345C -1.02841 9.62468 -1.02703 9.62597 -1.02558 9.62733C -1.02269 9.63005 -1.01949 9.63303 -1.01599 9.63627C -1.009 9.64275 -1.00079 9.65027 -0.991362 9.65879C -0.972497 9.67583 -0.948717 9.69686 -0.919844 9.72162C -0.86209 9.77114 -0.784004 9.8355 -0.684152 9.9125C -0.484383 10.0666 -0.197922 10.2708 0.186598 10.5078C 0.956128 10.9819 2.11476 11.5846 3.75235 12.1769C 7.028 13.3618 12.2043 14.5 20 14.5L 20 11.5C 12.4959 11.5 7.67219 10.4046 4.7728 9.3558C 3.32286 8.83133 2.35021 8.31714 1.76033 7.95368C 1.46515 7.7718 1.26488 7.62709 1.14784 7.53683C 1.08929 7.49168 1.05145 7.46007 1.03289 7.44415C 1.0236 7.43619 1.01912 7.43214 1.01926 7.43227C 1.01934 7.43234 1.02056 7.43345 1.02292 7.43563C 1.0241 7.43673 1.02557 7.43809 1.02731 7.43973C 1.02818 7.44054 1.02912 7.44143 1.03014 7.44239C 1.03064 7.44286 1.03145 7.44363 1.03171 7.44387C 1.03253 7.44466 1.03338 7.44546 0 8.53271ZM 20 14.5C 27.7957 14.5 32.972 13.3618 36.2477 12.1769C 37.8852 11.5846 39.0439 10.9819 39.8134 10.5078C 40.1979 10.2708 40.4844 10.0666 40.6842 9.9125C 40.784 9.8355 40.8621 9.77114 40.9198 9.72162C 40.9487 9.69686 40.9725 9.67583 40.9914 9.65879C 41.0008 9.65027 41.009 9.64275 41.016 9.63627C 41.0195 9.63303 41.0227 9.63005 41.0256 9.62733C 41.027 9.62597 41.0284 9.62468 41.0297 9.62345C 41.0304 9.62284 41.0313 9.62197 41.0316 9.62166C 41.0325 9.62081 41.0334 9.61997 40 8.53271C 38.9666 7.44546 38.9675 7.44466 38.9683 7.44387C 38.9685 7.44363 38.9694 7.44286 38.9699 7.44239C 38.9709 7.44143 38.9718 7.44054 38.9727 7.43973C 38.9744 7.43809 38.9759 7.43673 38.9771 7.43563C 38.9794 7.43345 38.9807 7.43234 38.9807 7.43227C 38.9809 7.43214 38.9764 7.43619 38.9671 7.44415C 38.9485 7.46007 38.9107 7.49168 38.8522 7.53683C 38.7351 7.62709 38.5349 7.7718 38.2397 7.95368C 37.6498 8.31714 36.6771 8.83133 35.2272 9.3558C 32.3278 10.4046 27.5041 11.5 20 11.5L 20 14.5ZM 41.5 8.53271L 41.5 0L 38.5 0L 38.5 8.53271L 41.5 8.53271Z"/>
<path id="path7_fill" fill-rule="evenodd" d="M 20 11C 31.0457 11 40 8.53757 40 5.5C 40 2.46243 31.0457 0 20 0C 8.9543 0 0 2.46243 0 5.5C 0 8.53757 8.9543 11 20 11Z"/>
<path id="path8_stroke" d="M 20 12.5C 25.6176 12.5 30.7577 11.8755 34.5399 10.8354C 36.4203 10.3183 38.0507 9.67556 39.2459 8.89841C 40.3769 8.16312 41.5 7.04781 41.5 5.5L 38.5 5.5C 38.5 5.5017 38.5003 5.51372 38.4896 5.54271C 38.478 5.57422 38.451 5.63138 38.3903 5.71299C 38.2631 5.88389 38.0226 6.11543 37.6107 6.38328C 36.7818 6.92216 35.4832 7.4646 33.7444 7.94278C 30.288 8.89328 25.4281 9.5 20 9.5L 20 12.5ZM 41.5 5.5C 41.5 3.95219 40.3769 2.83688 39.2459 2.10159C 38.0507 1.32444 36.4203 0.681727 34.5399 0.164605C 30.7577 -0.875502 25.6176 -1.5 20 -1.5L 20 1.5C 25.4281 1.5 30.288 2.10672 33.7444 3.05722C 35.4832 3.5354 36.7818 4.07784 37.6107 4.61672C 38.0226 4.88457 38.2631 5.11611 38.3903 5.28701C 38.451 5.36862 38.478 5.42578 38.4896 5.45729C 38.5003 5.48628 38.5 5.4983 38.5 5.5L 41.5 5.5ZM 20 -1.5C 14.3824 -1.5 9.24234 -0.875502 5.46013 0.164605C 3.57968 0.681727 1.94935 1.32444 0.754064 2.10159C -0.376864 2.83688 -1.5 3.95219 -1.5 5.5L 1.5 5.5C 1.5 5.4983 1.49967 5.48628 1.51037 5.45729C 1.52201 5.42578 1.549 5.36862 1.60972 5.28701C 1.7369 5.11611 1.97736 4.88457 2.38933 4.61672C 3.21816 4.07784 4.51676 3.5354 6.2556 3.05722C 9.71197 2.10672 14.5719 1.5 20 1.5L 20 -1.5ZM -1.5 5.5C -1.5 7.04781 -0.376864 8.16312 0.754064 8.89841C 1.94935 9.67556 3.57968 10.3183 5.46013 10.8354C 9.24234 11.8755 14.3824 12.5 20 12.5L 20 9.5C 14.5719 9.5 9.71197 8.89328 6.2556 7.94278C 4.51676 7.4646 3.21816 6.92216 2.38933 6.38328C 1.97736 6.11543 1.7369 5.88389 1.60972 5.71299C 1.549 5.63138 1.52201 5.57422 1.51037 5.54271C 1.49967 5.51372 1.5 5.5017 1.5 5.5L -1.5 5.5Z"/>
</defs>
</svg>
