<svg width="60" height="60" viewBox="0 0 60 60" version="1.1" xmlns="http://www.w3.org/2000/svg" xmlns:xlink="http://www.w3.org/1999/xlink">
<title>icon-Vehicle-registry</title>
<desc>Created using Figma</desc>
<g id="Canvas" transform="translate(-3848 -4125)">
<g id="icon-Vehicle-registry">
<g id="Group 8">
<g id="Rectangle 8">
<mask id="mask0_outline_ins">
<use xlink:href="#path0_fill" fill="white" transform="translate(3855 4161)"/>
</mask>
<g mask="url(#mask0_outline_ins)">
<use xlink:href="#path1_stroke_2x" transform="translate(3855 4161)" fill="#1C1A1A"/>
</g>
</g>
<g id="Rectangle 8 Copy">
<mask id="mask1_outline_ins">
<use xlink:href="#path0_fill" fill="white" transform="translate(3890 4161)"/>
</mask>
<g mask="url(#mask1_outline_ins)">
<use xlink:href="#path1_stroke_2x" transform="translate(3890 4161)" fill="#1C1A1A"/>
</g>
</g>
<g id="Rectangle 7">
<use xlink:href="#path2_fill" transform="translate(3850 4149)" fill="#FFFFFF"/>
<mask id="mask2_outline_ins">
<use xlink:href="#path2_fill" fill="white" transform="translate(3850 4149)"/>
</mask>
<g mask="url(#mask2_outline_ins)">
<use xlink:href="#path3_stroke_2x" transform="translate(3850 4149)" fill="#1C1A1A"/>
</g>
</g>
<g id="Path 4">
<use xlink:href="#path4_stroke" transform="translate(3856 4130)" fill="#1C1A1A"/>
</g>
<g id="Oval 3">
<use xlink:href="#path5_stroke" transform="translate(3858 4156)" fill="#1C1A1A"/>
</g>
<g id="Oval 3 Copy">
<use xlink:href="#path5_stroke" transform="translate(3890 4156)" fill="#1C1A1A"/>
</g>
<g id="Path 6">
<use xlink:href="#path6_stroke" transform="translate(3866.18 4135.92)" fill="#1C1A1A"/>
</g>
</g>
</g>
</g>
<defs>
<path id="path0_fill" fill-rule="evenodd" d="M 0 5.5C 0 2.46243 2.46243 0 5.5 0C 8.53757 0 11 2.46243 11 5.5L 11 15.5C 11 18.5376 8.53757 21 5.5 21C 2.46243 21 0 18.5376 0 15.5L 0 5.5Z"/>
<path id="path1_stroke_2x" d="M 8 5.5L 8 15.5L 14 15.5L 14 5.5L 8 5.5ZM 3 15.5L 3 5.5L -3 5.5L -3 15.5L 3 15.5ZM 5.5 18C 4.11929 18 3 16.8807 3 15.5L -3 15.5C -3 20.1944 0.80558 24 5.5 24L 5.5 18ZM 8 15.5C 8 16.8807 6.88071 18 5.5 18L 5.5 24C 10.1944 24 14 20.1944 14 15.5L 8 15.5ZM 5.5 3C 6.88071 3 8 4.11929 8 5.5L 14 5.5C 14 0.80558 10.1944 -3 5.5 -3L 5.5 3ZM 5.5 -3C 0.80558 -3 -3 0.80558 -3 5.5L 3 5.5C 3 4.11929 4.11929 3 5.5 3L 5.5 -3Z"/>
<path id="path2_fill" fill-rule="evenodd" d="M 0 6C 0 2.68629 2.68629 0 6 0L 50 0C 53.3137 0 56 2.68629 56 6L 56 17C 56 20.3137 53.3137 23 50 23L 6 23C 2.68629 23 0 20.3137 0 17L 0 6Z"/>
<path id="path3_stroke_2x" d="M 6 3L 50 3L 50 -3L 6 -3L 6 3ZM 53 6L 53 17L 59 17L 59 6L 53 6ZM 50 20L 6 20L 6 26L 50 26L 50 20ZM 3 17L 3 6L -3 6L -3 17L 3 17ZM 6 20C 4.34315 20 3 18.6569 3 17L -3 17C -3 21.9706 1.02944 26 6 26L 6 20ZM 53 17C 53 18.6569 51.6569 20 50 20L 50 26C 54.9706 26 59 21.9706 59 17L 53 17ZM 50 3C 51.6569 3 53 4.34315 53 6L 59 6C 59 1.02944 54.9706 -3 50 -3L 50 3ZM 6 -3C 1.02944 -3 -3 1.02944 -3 6L 3 6C 3 4.34315 4.34315 3 6 3L 6 -3Z"/>
<path id="path4_stroke" d="M 34.3963 4.50747e-13L 34.3963 -1.5L 34.3963 4.50747e-13ZM 1.06064 21.8815C 2.6917 20.2505 3.45106 17.9269 3.90931 15.6607C 4.36217 13.4212 4.58828 10.7997 4.8966 8.66563C 5.22463 6.39516 5.6532 4.56371 6.43244 3.31066C 6.80417 2.7129 7.23715 2.27981 7.75635 1.98833C 8.27517 1.69706 8.96407 1.5 9.91879 1.5L 9.91879 -1.5C 8.5357 -1.5 7.32454 -1.20968 6.28775 -0.627627C 5.25135 -0.0457887 4.47317 0.780383 3.88488 1.72639C 2.74406 3.56088 2.25707 5.95501 1.92743 8.23666C 1.57809 10.6547 1.40443 12.9119 0.968823 15.0661C 0.538599 17.1937 -0.0792208 18.7788 -1.06064 19.7602L 1.06064 21.8815ZM 9.91879 1.5C 19.2693 1.5 27.7775 1.5 34.3963 1.5L 34.3963 -1.5C 27.7775 -1.5 19.2693 -1.5 9.91879 -1.5L 9.91879 1.5ZM 34.3963 1.5C 36.2379 1.5 37.1847 2.01025 37.7785 2.68075C 38.4434 3.43153 38.8799 4.61653 39.198 6.38568C 39.5197 8.17483 39.6659 10.1614 39.9711 12.5543C 40.267 14.8737 40.6995 17.4154 41.5821 19.9715L 44.4179 18.9923C 43.6335 16.7208 43.2326 14.4134 42.947 12.1747C 42.6708 10.0097 42.4877 7.72921 42.1506 5.85478C 41.81 3.96037 41.2584 2.08525 40.0244 0.69181C 38.7193 -0.781917 36.8565 -1.5 34.3963 -1.5L 34.3963 1.5Z"/>
<path id="path5_stroke" d="M 4 9.5C 7.03757 9.5 9.5 7.03757 9.5 4L 6.5 4C 6.5 5.38071 5.38071 6.5 4 6.5L 4 9.5ZM 9.5 4C 9.5 0.962434 7.03757 -1.5 4 -1.5L 4 1.5C 5.38071 1.5 6.5 2.61929 6.5 4L 9.5 4ZM 4 -1.5C 0.962434 -1.5 -1.5 0.962434 -1.5 4L 1.5 4C 1.5 2.61929 2.61929 1.5 4 1.5L 4 -1.5ZM -1.5 4C -1.5 7.03757 0.962434 9.5 4 9.5L 4 6.5C 2.61929 6.5 1.5 5.38071 1.5 4L -1.5 4Z"/>
<path id="path6_stroke" d="M 2.57849 0.213439C 2.69637 -0.606558 2.12719 -1.36686 1.30719 -1.48474C 0.487192 -1.60262 -0.273108 -1.03344 -0.390987 -0.213439L 2.57849 0.213439ZM -1.48474 7.39496C -1.60262 8.21496 -1.03344 8.97526 -0.213439 9.09313C 0.606558 9.21101 1.36686 8.64184 1.48474 7.82184L -1.48474 7.39496ZM -0.390987 -0.213439L -1.48474 7.39496L 1.48474 7.82184L 2.57849 0.213439L -0.390987 -0.213439Z"/>
</defs>
</svg>
