<svg width="100" height="100" viewBox="0 0 100 100" version="1.1" xmlns="http://www.w3.org/2000/svg" xmlns:xlink="http://www.w3.org/1999/xlink">
<title>icon-Regulated-ecosystem</title>
<desc>Created using Figma</desc>
<g id="Canvas" transform="translate(-7792 -7963)">
<g id="icon-Regulated-ecosystem">
<g id="Page 1">
<mask id="mask0_outline_ins">
<use xlink:href="#path0_fill" fill="white" transform="translate(7792 7967)"/>
</mask>
<g mask="url(#mask0_outline_ins)">
<use xlink:href="#path1_stroke_2x" transform="translate(7792 7967)" fill="#FFFFFF"/>
</g>
</g>
<g id="Group">
<g id="Rectangle 13">
<mask id="mask1_outline_ins">
<use xlink:href="#path2_fill" fill="white" transform="translate(7820 8022)"/>
</mask>
<g mask="url(#mask1_outline_ins)">
<use xlink:href="#path3_stroke_2x" transform="translate(7820 8022)" fill="#FFFFFF"/>
</g>
</g>
<g id="Rectangle 13 Copy">
<mask id="mask2_outline_ins">
<use xlink:href="#path4_fill" fill="white" transform="translate(7832.86 8013.12)"/>
</mask>
<g mask="url(#mask2_outline_ins)">
<use xlink:href="#path5_stroke_2x" transform="translate(7832.86 8013.12)" fill="#FFFFFF"/>
</g>
</g>
<g id="Path 14">
<use xlink:href="#path6_stroke" transform="translate(7833.66 7985)" fill="#FFFFFF"/>
</g>
</g>
</g>
</g>
<defs>
<path id="path0_fill" fill-rule="evenodd" d="M 96.5258 59.3437C 101.158 51.3741 101.158 41.5551 96.5258 33.5856C 92.774 27.1304 88.2431 19.3343 84.4913 12.879C 79.8591 4.9095 71.2988 0 62.0347 0L 37.9653 0C 28.7012 0 20.1406 4.9095 15.5087 12.879C 11.7569 19.3343 7.22572 27.1304 3.47417 33.5856C -1.15806 41.5551 -1.15806 51.3741 3.47417 59.3437C 7.22572 65.7989 11.7569 73.595 15.5087 80.0503C 20.1406 88.0198 28.7012 92.9293 37.9653 92.9293L 62.0347 92.9293C 71.2988 92.9293 79.8591 88.0198 84.4913 80.0503C 88.2431 73.595 92.774 65.7989 96.5258 59.3437Z"/>
<path id="path1_stroke_2x" d="M 96.5258 59.3437L 93.9321 57.8361L 93.9321 57.8362L 96.5258 59.3437ZM 96.5258 33.5856L 93.9321 35.0931L 93.9321 35.0932L 96.5258 33.5856ZM 84.4913 12.879L 87.085 11.3715L 87.085 11.3715L 84.4913 12.879ZM 15.5087 12.879L 18.1024 14.3865L 18.1025 14.3865L 15.5087 12.879ZM 3.47417 33.5856L 6.06786 35.0932L 6.06795 35.093L 3.47417 33.5856ZM 3.47417 59.3437L 6.06795 57.8363L 6.06786 57.8361L 3.47417 59.3437ZM 15.5087 80.0503L 18.1025 78.5428L 18.1024 78.5427L 15.5087 80.0503ZM 84.4913 80.0503L 87.085 81.5578L 87.085 81.5578L 84.4913 80.0503ZM 99.1195 60.8512C 104.293 51.9497 104.293 40.9796 99.1195 32.078L 93.9321 35.0932C 98.0226 42.1307 98.0226 50.7986 93.9321 57.8361L 99.1195 60.8512ZM 99.1196 32.0781C 97.2436 28.8505 95.173 25.2877 93.1023 21.7249C 91.0316 18.162 88.961 14.5992 87.085 11.3715L 81.8976 14.3865C 83.7735 17.6141 85.8441 21.1769 87.9148 24.7398C 89.9855 28.3026 92.0562 31.8655 93.9321 35.0931L 99.1196 32.0781ZM 87.085 11.3715C 81.9124 2.47231 72.3609 -3 62.0347 -3L 62.0347 3C 70.2368 3 77.8057 7.34668 81.8976 14.3866L 87.085 11.3715ZM 62.0347 -3L 37.9653 -3L 37.9653 3L 62.0347 3L 62.0347 -3ZM 37.9653 -3C 27.6391 -3 18.0873 2.47227 12.915 11.3715L 18.1025 14.3865C 22.194 7.34672 29.7632 3 37.9653 3L 37.9653 -3ZM 12.915 11.3715C 9.16312 17.8268 4.63197 25.6229 0.880387 32.0782L 6.06795 35.093C 9.81947 28.6378 14.3506 20.8418 18.1024 14.3865L 12.915 11.3715ZM 0.880474 32.078C -4.29349 40.9796 -4.29349 51.9497 0.880474 60.8512L 6.06786 57.8361C 1.97738 50.7986 1.97738 42.1307 6.06786 35.0932L 0.880474 32.078ZM 0.880387 60.8511C 4.63197 67.3064 9.16312 75.1025 12.915 81.5578L 18.1024 78.5427C 14.3506 72.0875 9.81947 64.2915 6.06795 57.8363L 0.880387 60.8511ZM 12.915 81.5577C 18.0873 90.457 27.6391 95.9293 37.9653 95.9293L 37.9653 89.9293C 29.7632 89.9293 22.194 85.5826 18.1025 78.5428L 12.915 81.5577ZM 37.9653 95.9293L 62.0347 95.9293L 62.0347 89.9293L 37.9653 89.9293L 37.9653 95.9293ZM 62.0347 95.9293C 72.3609 95.9293 81.9124 90.457 87.085 81.5578L 81.8976 78.5427C 77.8057 85.5826 70.2368 89.9293 62.0347 89.9293L 62.0347 95.9293ZM 87.085 81.5578C 88.961 78.3301 91.0316 74.7673 93.1023 71.2044C 95.173 67.6416 97.2436 64.0788 99.1196 60.8512L 93.9321 57.8362C 92.0562 61.0638 89.9855 64.6267 87.9148 68.1895C 85.8441 71.7524 83.7735 75.3152 81.8976 78.5427L 87.085 81.5578Z"/>
<path id="path2_fill" fill-rule="evenodd" d="M 0 6.4C 0 4.15979 0 3.03969 0.435974 2.18404C 0.819467 1.43139 1.43139 0.819467 2.18404 0.435974C 3.03969 0 4.15979 0 6.4 0L 38.6 0C 40.8402 0 41.9603 0 42.816 0.435974C 43.5686 0.819467 44.1805 1.43139 44.564 2.18404C 45 3.03969 45 4.15979 45 6.4L 45 12.0536L 0 12.0536L 0 6.4Z"/>
<path id="path3_stroke_2x" d="M 45 12.0536L 45 15.0536L 48 15.0536L 48 12.0536L 45 12.0536ZM 0 12.0536L -3 12.0536L -3 15.0536L 0 15.0536L 0 12.0536ZM 42.816 0.435974L 44.1779 -2.23705L 42.816 0.435974ZM 44.564 2.18404L 47.237 0.822066L 44.564 2.18404ZM 2.18404 0.435974L 0.822066 -2.23705L 2.18404 0.435974ZM 0.435974 2.18404L -2.23705 0.822066L 0.435974 2.18404ZM 6.4 3L 38.6 3L 38.6 -3L 6.4 -3L 6.4 3ZM 42 6.4L 42 12.0536L 48 12.0536L 48 6.4L 42 6.4ZM 45 9.05357L 0 9.05357L 0 15.0536L 45 15.0536L 45 9.05357ZM 3 12.0536L 3 6.4L -3 6.4L -3 12.0536L 3 12.0536ZM 38.6 3C 39.7696 3 40.4664 3.00233 40.9829 3.04453C 41.4644 3.08387 41.5196 3.14241 41.454 3.10899L 44.1779 -2.23705C 43.2567 -2.70643 42.324 -2.86589 41.4715 -2.93554C 40.654 -3.00233 39.6706 -3 38.6 -3L 38.6 3ZM 48 6.4C 48 5.3294 48.0023 4.34602 47.9355 3.52851C 47.8659 2.67598 47.7064 1.74329 47.237 0.822066L 41.891 3.54601C 41.8576 3.48043 41.9161 3.53562 41.9555 4.0171C 41.9977 4.53361 42 5.23039 42 6.4L 48 6.4ZM 41.454 3.10899C 41.6422 3.20487 41.7951 3.35785 41.891 3.54601L 47.237 0.822066C 46.5659 -0.495068 45.4951 -1.56593 44.1779 -2.23705L 41.454 3.10899ZM 6.4 -3C 5.3294 -3 4.34602 -3.00233 3.52851 -2.93554C 2.67598 -2.86589 1.74329 -2.70643 0.822066 -2.23705L 3.54601 3.10899C 3.48043 3.14241 3.53562 3.08387 4.0171 3.04453C 4.53361 3.00233 5.23039 3 6.4 3L 6.4 -3ZM 3 6.4C 3 5.23039 3.00233 4.53361 3.04453 4.0171C 3.08387 3.53562 3.14241 3.48043 3.10899 3.54601L -2.23705 0.822066C -2.70643 1.74329 -2.86589 2.67598 -2.93554 3.52851C -3.00233 4.34602 -3 5.3294 -3 6.4L 3 6.4ZM 0.822066 -2.23705C -0.495068 -1.56593 -1.56593 -0.495068 -2.23705 0.822066L 3.10899 3.54601C 3.20487 3.35785 3.35785 3.20487 3.54601 3.10899L 0.822066 -2.23705Z"/>
<path id="path4_fill" fill-rule="evenodd" d="M 0 0L 18.48 0L 18.48 11L 0 11L 0 0Z"/>
<path id="path5_stroke_2x" d="M 0 0L 0 -3L -3 -3L -3 0L 0 0ZM 18.48 0L 21.48 0L 21.48 -3L 18.48 -3L 18.48 0ZM 18.48 11L 18.48 14L 21.48 14L 21.48 11L 18.48 11ZM 0 11L -3 11L -3 14L 0 14L 0 11ZM 0 3L 18.48 3L 18.48 -3L 0 -3L 0 3ZM 15.48 0L 15.48 11L 21.48 11L 21.48 0L 15.48 0ZM 18.48 8L 0 8L 0 14L 18.48 14L 18.48 8ZM 3 11L 3 0L -3 0L -3 11L 3 11Z"/>
<path id="path6_stroke" d="M 4.32073 29.3358L 2.87338 28.9419L 2.35793 30.8358L 4.32073 30.8358L 4.32073 29.3358ZM 2.2965 16.1334L 3.60119 15.3933L 2.2965 16.1334ZM 13.9275 16.1334L 12.606 15.4238L 13.9275 16.1334ZM 12.4094 29.3358L 12.4094 30.8358L 14.4625 30.8358L 13.8385 28.8799L 12.4094 29.3358ZM 4.32073 29.3358C 5.76809 29.7298 5.76825 29.7292 5.76842 29.7286C 5.76848 29.7283 5.76866 29.7277 5.76879 29.7272C 5.76905 29.7262 5.76933 29.7252 5.76964 29.724C 5.77027 29.7217 5.77099 29.719 5.77182 29.7158C 5.77348 29.7096 5.77554 29.7018 5.77797 29.6923C 5.78284 29.6735 5.7892 29.6484 5.79684 29.6172C 5.8121 29.5547 5.83244 29.4678 5.85602 29.358C 5.90317 29.1384 5.96339 28.8268 6.02182 28.4356C 6.13855 27.6543 6.24902 26.5499 6.23206 25.2249C 6.19817 22.5773 5.65437 19.0126 3.60119 15.3933L 0.991815 16.8736C 2.73481 19.9461 3.20312 22.9826 3.23231 25.2633C 3.24688 26.4024 3.15163 27.3439 3.05475 27.9924C 3.00638 28.3162 2.95782 28.5654 2.92289 28.7281C 2.90544 28.8094 2.89142 28.8689 2.88258 28.905C 2.87816 28.9231 2.87504 28.9354 2.87343 28.9416C 2.87263 28.9447 2.8722 28.9463 2.87219 28.9464C 2.87218 28.9464 2.87227 28.946 2.87247 28.9453C 2.87257 28.9449 2.87269 28.9445 2.87284 28.9439C 2.87292 28.9436 2.87305 28.9431 2.87309 28.943C 2.87323 28.9425 2.87338 28.9419 4.32073 29.3358ZM 3.60119 15.3933C 1.92732 12.4426 1.09377 8.78928 1.6951 6.01502C 1.98786 4.66434 2.60514 3.57534 3.57811 2.81311C 4.55402 2.04856 6.0321 1.5 8.24934 1.5L 8.24934 -1.5C 5.53373 -1.5 3.35322 -0.8217 1.72801 0.45151C 0.0998482 1.72703 -0.826542 3.48666 -1.23682 5.37953C -2.04158 9.09235 -0.918691 13.5057 0.991815 16.8736L 3.60119 15.3933ZM 8.24934 1.5C 10.4706 1.5 11.9121 2.04588 12.8422 2.79231C 13.7682 3.5354 14.3446 4.60324 14.6009 5.95116C 15.1286 8.7263 14.2291 12.4009 12.606 15.4238L 15.249 16.843C 17.0563 13.4772 18.2506 9.0851 17.5481 5.39072C 17.1893 3.50387 16.3195 1.73625 14.7199 0.452558C 13.1244 -0.827793 10.961 -1.5 8.24934 -1.5L 8.24934 1.5ZM 12.606 15.4238C 10.6531 19.0606 10.2461 22.6377 10.3211 25.2874C 10.3587 26.614 10.5172 27.7188 10.6685 28.4997C 10.7443 28.8907 10.8186 29.202 10.8756 29.4212C 10.9042 29.5308 10.9285 29.6176 10.9466 29.6798C 10.9556 29.7109 10.9631 29.736 10.9689 29.7547C 10.9717 29.764 10.9741 29.7718 10.9761 29.778C 10.977 29.7811 10.9779 29.7838 10.9786 29.7861C 10.9789 29.7872 10.9793 29.7883 10.9796 29.7892C 10.9797 29.7897 10.9799 29.7903 10.98 29.7906C 10.9802 29.7912 10.9804 29.7918 12.4094 29.3358C 13.8385 28.8799 13.8386 28.8805 13.8388 28.881C 13.8388 28.8811 13.839 28.8816 13.8391 28.8819C 13.8392 28.8824 13.8394 28.8829 13.8395 28.8832C 13.8397 28.8839 13.8398 28.8843 13.8398 28.8842C 13.8398 28.8841 13.8393 28.8824 13.8383 28.8793C 13.8364 28.873 13.8326 28.8606 13.8274 28.8424C 13.8168 28.8061 13.8 28.7465 13.7788 28.6651C 13.7364 28.5021 13.6765 28.2528 13.6138 27.929C 13.4881 27.2804 13.3521 26.3398 13.3199 25.2025C 13.2554 22.9246 13.6073 19.9004 15.249 16.843L 12.606 15.4238ZM 12.4094 27.8358L 4.32073 27.8358L 4.32073 30.8358L 12.4094 30.8358L 12.4094 27.8358Z"/>
</defs>
</svg>
