<svg width="60" height="60" viewBox="0 0 60 60" version="1.1" xmlns="http://www.w3.org/2000/svg" xmlns:xlink="http://www.w3.org/1999/xlink">
<title>icon-secure-your-data</title>
<desc>Created using Figma</desc>
<g id="Canvas" transform="translate(-5948 -1130)">
<g id="icon-secure-your-data">
<g id="Group">
<g id="Rectangle">
<mask id="mask0_outline_ins">
<use xlink:href="#path0_fill" fill="white" transform="translate(5962.73 1133)"/>
</mask>
<g mask="url(#mask0_outline_ins)">
<use xlink:href="#path1_stroke_2x" transform="translate(5962.73 1133)" fill="#1C1A1A"/>
</g>
</g>
<g id="Page 1">
<use xlink:href="#path2_fill" transform="translate(5952 1148.1)" fill="#FFFFFF"/>
<mask id="mask1_outline_ins">
<use xlink:href="#path2_fill" fill="white" transform="translate(5952 1148.1)"/>
</mask>
<g mask="url(#mask1_outline_ins)">
<use xlink:href="#path3_stroke_2x" transform="translate(5952 1148.1)" fill="#1E1D1D"/>
</g>
</g>
<g id="Combined Shape">
<use xlink:href="#path4_stroke" transform="translate(5967.68 1159)" fill="#1C1A1A"/>
</g>
<g id="Oval 6">
<use xlink:href="#path5_fill" transform="translate(5981.71 1153.97)" fill="#FFFFFF"/>
<use xlink:href="#path6_stroke" transform="translate(5981.71 1153.97)" fill="#1C1A1A"/>
</g>
<g id="Fill 15">
<use xlink:href="#path7_fill" transform="translate(5986.6 1152.9)" fill="#1C1A1A"/>
</g>
</g>
</g>
</g>
<defs>
<path id="path0_fill" fill-rule="evenodd" d="M 0 10.3175C 0 4.61928 4.61928 0 10.3175 0C 16.0156 0 20.6349 4.61928 20.6349 10.3175L 20.6349 15.6825C 20.6349 21.3807 16.0156 26 10.3175 26C 4.61928 26 0 21.3807 0 15.6825L 0 10.3175Z"/>
<path id="path1_stroke_2x" d="M 17.6349 10.3175L 17.6349 15.6825L 23.6349 15.6825L 23.6349 10.3175L 17.6349 10.3175ZM 3 15.6825L 3 10.3175L -3 10.3175L -3 15.6825L 3 15.6825ZM 10.3175 23C 6.27614 23 3 19.7239 3 15.6825L -3 15.6825C -3 23.0376 2.96243 29 10.3175 29L 10.3175 23ZM 17.6349 15.6825C 17.6349 19.7239 14.3588 23 10.3175 23L 10.3175 29C 17.6725 29 23.6349 23.0376 23.6349 15.6825L 17.6349 15.6825ZM 10.3175 3C 14.3588 3 17.6349 6.27614 17.6349 10.3175L 23.6349 10.3175C 23.6349 2.96243 17.6725 -3 10.3175 -3L 10.3175 3ZM 10.3175 -3C 2.96243 -3 -3 2.96243 -3 10.3175L 3 10.3175C 3 6.27614 6.27614 3 10.3175 3L 10.3175 -3Z"/>
<path id="path2_fill" fill-rule="evenodd" d="M 40.001 25.1549C 41.9206 21.7767 41.9206 17.6146 40.001 14.2364C 38.4462 11.5002 36.5686 8.1955 35.0138 5.45923C 33.0941 2.08106 29.5467 0 25.7076 0L 15.7331 0C 11.894 0 8.34641 2.08106 6.42692 5.45923C 4.87212 8.1955 2.99439 11.5002 1.43972 14.2364C -0.479906 17.6146 -0.479906 21.7767 1.43972 25.1549C 2.99439 27.8911 4.87212 31.1958 6.42692 33.9321C 8.34641 37.3102 11.894 39.3913 15.7331 39.3913L 25.7076 39.3913C 29.5467 39.3913 33.0941 37.3102 35.0138 33.9321C 36.5686 31.1958 38.4462 27.8911 40.001 25.1549Z"/>
<path id="path3_stroke_2x" d="M 40.001 25.1549L 37.3927 23.6727L 37.3926 23.6728L 40.001 25.1549ZM 40.001 14.2364L 37.3926 15.7185L 37.3927 15.7186L 40.001 14.2364ZM 35.0138 5.45923L 37.6221 3.97713L 37.6221 3.97707L 35.0138 5.45923ZM 6.42692 5.45923L 9.03525 6.94132L 9.03526 6.9413L 6.42692 5.45923ZM 1.43972 14.2364L 4.04802 15.7186L 4.0481 15.7184L 1.43972 14.2364ZM 1.43972 25.1549L 4.0481 23.6729L 4.04802 23.6727L 1.43972 25.1549ZM 6.42692 33.9321L 9.03526 32.45L 9.03525 32.45L 6.42692 33.9321ZM 35.0138 33.9321L 37.6221 35.4142L 37.6221 35.4142L 35.0138 33.9321ZM 42.6093 26.637C 45.0512 22.3398 45.0512 17.0515 42.6093 12.7543L 37.3927 15.7186C 38.79 18.1777 38.79 21.2136 37.3927 23.6727L 42.6093 26.637ZM 42.6093 12.7543C 41.8319 11.3862 40.9738 9.87602 40.1157 8.36578C 39.2576 6.85555 38.3995 5.34529 37.6221 3.97713L 32.4054 6.94132C 33.1828 8.30943 34.0409 9.81963 34.899 11.3299C 35.7571 12.8401 36.6152 14.3504 37.3926 15.7185L 42.6093 12.7543ZM 37.6221 3.97707C 35.1773 -0.3252 30.642 -3 25.7076 -3L 25.7076 3C 28.4514 3 31.011 4.48732 32.4055 6.94138L 37.6221 3.97707ZM 25.7076 -3L 15.7331 -3L 15.7331 3L 25.7076 3L 25.7076 -3ZM 15.7331 -3C 10.7987 -3 6.26322 -0.325243 3.81858 3.97715L 9.03526 6.9413C 10.4296 4.48736 12.9892 3 15.7331 3L 15.7331 -3ZM 3.81859 3.97713C 2.26379 6.71341 0.386033 10.0181 -1.16866 12.7544L 4.0481 15.7184C 5.60274 12.9822 7.48045 9.67759 9.03525 6.94132L 3.81859 3.97713ZM -1.16858 12.7543C -3.61047 17.0515 -3.61047 22.3398 -1.16858 26.637L 4.04802 23.6727C 2.65066 21.2136 2.65066 18.1777 4.04802 15.7186L -1.16858 12.7543ZM -1.16866 26.6369C 0.386033 29.3732 2.26379 32.6779 3.81859 35.4142L 9.03525 32.45C 7.48045 29.7137 5.60274 26.4091 4.0481 23.6729L -1.16866 26.6369ZM 3.81858 35.4142C 6.26322 39.7165 10.7987 42.3913 15.7331 42.3913L 15.7331 36.3913C 12.9892 36.3913 10.4296 34.9039 9.03526 32.45L 3.81858 35.4142ZM 15.7331 42.3913L 25.7076 42.3913L 25.7076 36.3913L 15.7331 36.3913L 15.7331 42.3913ZM 25.7076 42.3913C 30.642 42.3913 35.1773 39.7165 37.6221 35.4142L 32.4055 32.4499C 31.011 34.904 28.4514 36.3913 25.7076 36.3913L 25.7076 42.3913ZM 37.6221 35.4142C 38.3995 34.046 39.2576 32.5357 40.1157 31.0255C 40.9738 29.5153 41.8319 28.0051 42.6093 26.637L 37.3926 23.6728C 36.6152 25.0409 35.7571 26.5512 34.899 28.0614C 34.0409 29.5717 33.1828 31.0819 32.4054 32.45L 37.6221 35.4142Z"/>
<path id="path4_stroke" d="M 8.04785 10.1737L 7.28769 8.88059L 6.54785 9.3155L 6.54785 10.1737L 8.04785 10.1737ZM 2.68262 10.174L 4.18262 10.174L 4.18262 9.31575L 3.44278 8.88083L 2.68262 10.174ZM 8.80801 11.4668C 10.8581 10.2617 12.23 8.01464 12.23 5.45166L 9.22998 5.45166C 9.22998 6.92408 8.44467 8.20046 7.28769 8.88059L 8.80801 11.4668ZM 12.23 5.45166C 12.23 1.63519 9.17919 -1.5 5.36523 -1.5L 5.36523 1.5C 7.47706 1.5 9.22998 3.2464 9.22998 5.45166L 12.23 5.45166ZM 5.36523 -1.5C 1.55088 -1.5 -1.5 1.6351 -1.5 5.45166L 1.5 5.45166C 1.5 3.24649 3.25283 1.5 5.36523 1.5L 5.36523 -1.5ZM -1.5 5.45166C -1.5 8.01496 -0.127423 10.262 1.92246 11.4671L 3.44278 8.88083C 2.28563 8.2006 1.5 6.92401 1.5 5.45166L -1.5 5.45166ZM 4.18262 15.0352L 4.18262 10.174L 1.18262 10.174L 1.18262 15.0352L 4.18262 15.0352ZM 5.36523 16.2178C 4.71217 16.2178 4.18262 15.6883 4.18262 15.0352L 1.18262 15.0352C 1.18262 17.3452 3.05541 19.2178 5.36523 19.2178L 5.36523 16.2178ZM 6.54785 15.0352C 6.54785 15.6883 6.0183 16.2178 5.36523 16.2178L 5.36523 19.2178C 7.67506 19.2178 9.54785 17.3452 9.54785 15.0352L 6.54785 15.0352ZM 6.54785 10.1737L 6.54785 15.0352L 9.54785 15.0352L 9.54785 10.1737L 6.54785 10.1737Z"/>
<path id="path5_fill" fill-rule="evenodd" d="M 11.1429 22.6452C 17.2969 22.6452 22.2857 17.5759 22.2857 11.3226C 22.2857 5.06929 17.2969 0 11.1429 0C 4.98883 0 0 5.06929 0 11.3226C 0 17.5759 4.98883 22.6452 11.1429 22.6452Z"/>
<path id="path6_stroke" d="M 11.1429 24.1452C 18.1479 24.1452 23.7857 18.3816 23.7857 11.3226L 20.7857 11.3226C 20.7857 16.7702 16.4459 21.1452 11.1429 21.1452L 11.1429 24.1452ZM 23.7857 11.3226C 23.7857 4.26358 18.1479 -1.5 11.1429 -1.5L 11.1429 1.5C 16.4459 1.5 20.7857 5.875 20.7857 11.3226L 23.7857 11.3226ZM 11.1429 -1.5C 4.13786 -1.5 -1.5 4.26358 -1.5 11.3226L 1.5 11.3226C 1.5 5.875 5.83979 1.5 11.1429 1.5L 11.1429 -1.5ZM -1.5 11.3226C -1.5 18.3816 4.13786 24.1452 11.1429 24.1452L 11.1429 21.1452C 5.83979 21.1452 1.5 16.7702 1.5 11.3226L -1.5 11.3226Z"/>
<path id="path7_fill" fill-rule="evenodd" d="M 5.46664 16.6432C 4.64516 16.6432 3.8475 16.3417 3.22165 15.7835L 0.492289 13.3519C -0.107578 12.8172 -0.167493 11.8908 0.358023 11.2812C 0.883538 10.6717 1.79597 10.6116 2.39584 11.1455L 5.1252 13.5778C 5.28256 13.7179 5.45292 13.7157 5.54315 13.7033C 5.63194 13.6908 5.79725 13.6417 5.90842 13.462L 13.763 0.689437C 14.1853 0.00287694 15.0768 -0.206172 15.7524 0.222928C 16.4288 0.652028 16.6338 1.55717 16.2115 2.24447L 8.3548 15.0206C 7.81991 15.884 6.9479 16.4605 5.95895 16.6072C 5.79508 16.6314 5.6305 16.6432 5.46664 16.6432Z"/>
</defs>
</svg>
