<svg width="60" height="60" viewBox="0 0 60 60" version="1.1" xmlns="http://www.w3.org/2000/svg" xmlns:xlink="http://www.w3.org/1999/xlink">
<title>icon-time</title>
<desc>Created using Figma</desc>
<g id="Canvas" transform="translate(-10025 -11980)">
<g id="icon-time">
<g id="Oval 10 Copy 2">
<use xlink:href="#path0_stroke" transform="translate(10033 11988)" fill="#1C1A1A"/>
</g>
<g id="Rectangle">
<use xlink:href="#path1_fill" transform="translate(10054 11994)" fill="#1C1A1A"/>
</g>
<g id="Rectangle Copy">
<use xlink:href="#path2_fill" transform="matrix(-1.83697e-16 1 -1 -1.83697e-16 10068 12009)" fill="#1C1A1A"/>
</g>
</g>
</g>
<defs>
<path id="path0_stroke" d="M 22 45.5C 34.9787 45.5 45.5 34.9787 45.5 22L 42.5 22C 42.5 33.3218 33.3218 42.5 22 42.5L 22 45.5ZM 45.5 22C 45.5 9.02131 34.9787 -1.5 22 -1.5L 22 1.5C 33.3218 1.5 42.5 10.6782 42.5 22L 45.5 22ZM 22 -1.5C 9.02131 -1.5 -1.5 9.02131 -1.5 22L 1.5 22C 1.5 10.6782 10.6782 1.5 22 1.5L 22 -1.5ZM -1.5 22C -1.5 34.9787 9.02131 45.5 22 45.5L 22 42.5C 10.6782 42.5 1.5 33.3218 1.5 22L -1.5 22Z"/>
<path id="path1_fill" fill-rule="evenodd" d="M 0 1.5C 0 0.671573 0.671573 0 1.5 0L 1.5 0C 2.32843 0 3 0.671573 3 1.5L 3 16.5C 3 17.3284 2.32843 18 1.5 18L 1.5 18C 0.671573 18 0 17.3284 0 16.5L 0 1.5Z"/>
<path id="path2_fill" fill-rule="evenodd" d="M 0 1.5C 0 0.671573 0.671573 0 1.5 0L 1.5 0C 2.32843 0 3 0.671573 3 1.5L 3 12.5C 3 13.3284 2.32843 14 1.5 14L 1.5 14C 0.671573 14 0 13.3284 0 12.5L 0 1.5Z"/>
</defs>
</svg>
