<?xml version="1.0" encoding="UTF-8" standalone="no"?>
<svg width="44px" height="40px" viewBox="0 0 44 40" version="1.1" xmlns="http://www.w3.org/2000/svg" xmlns:xlink="http://www.w3.org/1999/xlink">
    <!-- Generator: sketchtool 49.1 (51147) - http://www.bohemiancoding.com/sketch -->
    <title>0E9C9FF2-06A3-4C35-9F86-155E42AB91F9</title>
    <desc>Created with sketchtool.</desc>
    <defs></defs>
    <g id="1360" stroke="none" stroke-width="1" fill="none" fill-rule="evenodd">
        <g id="apla-case-template" transform="translate(-651.000000, -3204.000000)" fill="none" stroke="#1C1A1A" stroke-width="3">
            <path d="M691.610332,3228.98923 C693.463223,3225.9019 693.463223,3222.0981 691.610332,3219.01077 C690.109588,3216.51007 688.297259,3213.48993 686.796515,3210.98923 C684.943624,3207.9019 681.519536,3206 677.81388,3206 L668.18612,3206 C664.480464,3206 661.056252,3207.9019 659.203485,3210.98923 C657.702741,3213.48993 655.890288,3216.51007 654.389668,3219.01077 C652.536777,3222.0981 652.536777,3225.9019 654.389668,3228.98923 C655.890288,3231.48993 657.702741,3234.51007 659.203485,3237.01077 C661.056252,3240.0981 664.480464,3242 668.18612,3242 L677.81388,3242 C681.519536,3242 684.943624,3240.0981 686.796515,3237.01077 C688.297259,3234.51007 690.109588,3231.48993 691.610332,3228.98923 Z" id="Page-1-Copy-27"></path>
        </g>
    </g>
</svg>