<?xml version="1.0" encoding="UTF-8"?>
<svg width="42px" height="40px" viewBox="0 0 42 40" version="1.1" xmlns="http://www.w3.org/2000/svg" xmlns:xlink="http://www.w3.org/1999/xlink">
    <!-- Generator: Sketch 48.2 (47327) - http://www.bohemiancoding.com/sketch -->
    <title>icon-tw-hover</title>
    <desc>Created with Sketch.</desc>
    <defs></defs>
    <g id="Apla-StyleGuide-Exportable" stroke="none" stroke-width="1" fill="none" fill-rule="evenodd" transform="translate(-322.000000, -803.000000)">
        <g id="icon-tw-hover" transform="translate(323.000000, 804.000000)">
            <path d="M38.6104057,24.2662613 C40.4631981,21.0069493 40.4631981,16.9923905 38.6104057,13.7330785 C37.1093188,11.0936762 35.2974829,7.90566366 33.796396,5.26626129 C31.9436036,2.00760945 28.5195132,0 24.8139284,0 L15.185909,0 C11.4803242,0 8.05623387,2.00760945 6.20344148,5.26626129 C4.70300469,7.90566366 2.89051866,11.0936762 1.39008187,13.7330785 C-0.463360624,16.9923905 -0.463360624,21.0069493 1.39008187,24.2662613 C2.89051866,26.9063238 4.70300469,30.0936762 6.20344148,32.7337387 C8.05623387,35.9923905 11.4803242,38 15.185909,38 L24.8139284,38 C28.5195132,38 31.9436036,35.9923905 33.796396,32.7337387 C35.2974829,30.0936762 37.1093188,26.9063238 38.6104057,24.2662613 Z" id="coursor-copy-3" stroke="#3AC28B" stroke-width="2" fill="#3AC28B"></path>
            <g id="015-twitter" transform="translate(12.000000, 12.000000)" fill="#FFFFFF" fill-rule="nonzero">
                <path d="M18,1.77576956 C17.3379234,2.07681446 16.6257229,2.28042926 15.8788213,2.37136402 C16.6414211,1.9028523 17.2266593,1.16153629 17.5028918,0.276757978 C16.7893142,0.710816154 15.998623,1.02569896 15.1578078,1.19542502 C14.4841641,0.459757131 13.5243735,0 12.4615808,0 C10.4224731,0 8.76865877,1.69584863 8.76865877,3.78678339 C8.76865877,4.08359221 8.80143211,4.37249365 8.86477554,4.64981644 C5.79564858,4.49195143 3.07435968,2.98446766 1.25282291,0.692742163 C0.935004131,1.25190624 0.752685211,1.9028523 0.752685211,2.59672409 C0.752685211,3.91019486 1.40512256,5.06975431 2.39548334,5.74865857 C1.79041586,5.72917255 1.22060039,5.55888167 0.722941338,5.27449873 C0.722665932,5.29059588 0.722665932,5.30669302 0.722665932,5.32250777 C0.722665932,7.1573002 1.99614431,8.68765885 3.68521069,9.03530076 C3.37565409,9.12228184 3.0487469,9.16831404 2.7124759,9.16831404 C2.47397411,9.16831404 2.24290829,9.14487433 2.017626,9.10081898 C2.48746902,10.6049139 3.85100523,11.6998023 5.46736436,11.7305846 C4.20324979,12.7463993 2.61112641,13.3515956 0.880473699,13.3515956 C0.583034977,13.3515956 0.288350317,13.333804 0,13.2985032 C1.63343432,14.3733409 3.5750482,15 5.66042413,15 C12.4530432,15 16.1677224,9.22987857 16.1677224,4.22536007 C16.1677224,4.06128212 16.1641421,3.89776899 16.1569815,3.73566789 C16.8790967,3.20192036 17.505095,2.53515956 18,1.77576956 Z" id="Shape"></path>
            </g>
        </g>
    </g>
</svg>