<svg width="60" height="60" viewBox="0 0 60 60" version="1.1" xmlns="http://www.w3.org/2000/svg" xmlns:xlink="http://www.w3.org/1999/xlink">
<title>icon-transactions</title>
<desc>Created using Figma</desc>
<g id="Canvas" transform="translate(-4794 -4754)">
<g id="icon-transactions">
<g id="Group 3">
<g id="Oval 8">
<use xlink:href="#path0_stroke" transform="translate(4813.79 4772.86)" fill="#1C1A1A"/>
</g>
<g id="Group 2">
<g id="Path 16">
<use xlink:href="#path1_stroke" transform="translate(4804.14 4761.07)" fill="#1C1A1A"/>
</g>
<g id="Rectangle">
<use xlink:href="#path2_fill" transform="translate(4834.14 4770.71)" fill="#1C1A1A"/>
</g>
<g id="Rectangle Copy">
<use xlink:href="#path2_fill" transform="matrix(-1.83697e-16 1 -1 -1.83697e-16 4846.89 4759.89)" fill="#1C1A1A"/>
</g>
</g>
<g id="Group">
<g id="Path 16 Copy">
<use xlink:href="#path1_stroke" transform="matrix(-0.999848 -0.0174524 0.0174524 -0.999848 4844.87 4806.82)" fill="#1C1A1A"/>
</g>
<g id="Rectangle Copy 2">
<use xlink:href="#path2_fill" transform="matrix(-0.999848 -0.0174524 0.0174524 -0.999848 4815.04 4796.65)" fill="#1C1A1A"/>
</g>
<g id="Rectangle Copy 3">
<use xlink:href="#path2_fill" transform="matrix(0.0174524 -0.999848 0.999848 0.0174524 4802.11 4806.25)" fill="#1C1A1A"/>
</g>
</g>
</g>
</g>
</g>
<defs>
<path id="path0_stroke" d="M 10.7143 22.9286C 17.46 22.9286 22.9286 17.46 22.9286 10.7143L 19.9286 10.7143C 19.9286 15.8032 15.8032 19.9286 10.7143 19.9286L 10.7143 22.9286ZM 22.9286 10.7143C 22.9286 3.96852 17.46 -1.5 10.7143 -1.5L 10.7143 1.5C 15.8032 1.5 19.9286 5.62538 19.9286 10.7143L 22.9286 10.7143ZM 10.7143 -1.5C 3.96852 -1.5 -1.5 3.96852 -1.5 10.7143L 1.5 10.7143C 1.5 5.62538 5.62538 1.5 10.7143 1.5L 10.7143 -1.5ZM -1.5 10.7143C -1.5 17.46 3.96852 22.9286 10.7143 22.9286L 10.7143 19.9286C 5.62538 19.9286 1.5 15.8032 1.5 10.7143L -1.5 10.7143Z"/>
<path id="path1_stroke" d="M 0 10.1174C 1.22837 10.9782 1.22803 10.9787 1.22771 10.9792C 1.22764 10.9793 1.22735 10.9797 1.22722 10.9799C 1.22694 10.9803 1.22677 10.9805 1.2267 10.9806C 1.22657 10.9808 1.22687 10.9804 1.22759 10.9794C 1.22902 10.9773 1.23216 10.973 1.23698 10.9663C 1.24663 10.9529 1.26303 10.9304 1.28616 10.8993C 1.33242 10.8371 1.40553 10.7409 1.50522 10.6153C 1.70468 10.364 2.00995 9.99635 2.41887 9.55088C 3.23781 8.65874 4.4657 7.46203 6.08472 6.26471C 9.32203 3.8706 14.0843 1.5 20.2708 1.5L 20.2708 -1.5C 13.2771 -1.5 7.90395 1.18808 4.30092 3.85265C 2.49976 5.18467 1.13124 6.5173 0.208824 7.52216C -0.252944 8.0252 -0.604599 8.44794 -0.844382 8.74998C -0.964322 8.90105 -1.05642 9.02213 -1.12046 9.10817C -1.15248 9.15119 -1.1775 9.18548 -1.19549 9.2104C -1.20449 9.22287 -1.21173 9.23299 -1.21721 9.24069C -1.21995 9.24455 -1.22225 9.24779 -1.22411 9.25043C -1.22504 9.25175 -1.22586 9.25291 -1.22657 9.25392C -1.22692 9.25442 -1.22737 9.25506 -1.22755 9.25532C -1.22797 9.25592 -1.22837 9.25648 0 10.1174ZM 20.2708 1.5C 26.4573 1.5 31.2195 3.8706 34.4568 6.26471C 36.0758 7.46203 37.3037 8.65874 38.1227 9.55088C 38.5316 9.99635 38.8369 10.364 39.0363 10.6153C 39.136 10.7409 39.2091 10.8371 39.2554 10.8993C 39.2785 10.9304 39.2949 10.9529 39.3046 10.9663C 39.3094 10.973 39.3125 10.9773 39.3139 10.9794C 39.3147 10.9804 39.315 10.9808 39.3148 10.9806C 39.3148 10.9805 39.3146 10.9803 39.3143 10.9799C 39.3142 10.9797 39.3139 10.9793 39.3138 10.9792C 39.3135 10.9787 39.3132 10.9782 40.5415 10.1174C 41.7699 9.25648 41.7695 9.25592 41.7691 9.25532C 41.7689 9.25506 41.7685 9.25442 41.7681 9.25392C 41.7674 9.25291 41.7666 9.25175 41.7656 9.25043C 41.7638 9.24779 41.7615 9.24455 41.7587 9.24069C 41.7533 9.23299 41.746 9.22287 41.737 9.2104C 41.719 9.18548 41.694 9.15119 41.662 9.10817C 41.598 9.02213 41.5059 8.90105 41.3859 8.74998C 41.1461 8.44794 40.7945 8.0252 40.3327 7.52216C 39.4103 6.5173 38.0418 5.18467 36.2406 3.85265C 32.6376 1.18808 27.2644 -1.5 20.2708 -1.5L 20.2708 1.5Z"/>
<path id="path2_fill" fill-rule="evenodd" d="M 0 1.5C 0 1.5 0 1.5 4.44089e-16 1.5C 9.69537e-09 0.671573 0.671573 9.69537e-09 1.5 4.44089e-16C 1.5 0 1.5 0 1.5 0L 11.3571 0C 11.3571 0 11.3571 0 11.3571 4.44089e-16C 12.1856 9.69537e-09 12.8571 0.671573 12.8571 1.5C 12.8571 1.5 12.8571 1.5 12.8571 1.5L 12.8571 1.5C 12.8571 1.5 12.8571 1.5 12.8571 1.5C 12.8571 2.32843 12.1856 3 11.3571 3C 11.3571 3 11.3571 3 11.3571 3L 1.5 3C 1.5 3 1.5 3 1.5 3C 0.671573 3 9.69537e-09 2.32843 4.44089e-16 1.5C 0 1.5 0 1.5 0 1.5L 0 1.5Z"/>
</defs>
</svg>
