<svg width="60" height="60" viewBox="0 0 60 60" version="1.1" xmlns="http://www.w3.org/2000/svg" xmlns:xlink="http://www.w3.org/1999/xlink">
<title>icon-Land-registry</title>
<desc>Created using Figma</desc>
<g id="Canvas" transform="translate(-3553 -4125)">
<g id="icon-Land-registry">
<g id="Group 7">
<g id="Oval">
<use xlink:href="#path0_stroke" transform="translate(3562 4128)"/>
</g>
<g id="Oval 2">
<use xlink:href="#path1_stroke" transform="translate(3577 4142)" fill="#1C1A1A"/>
</g>
</g>
</g>
</g>
<defs>
<path id="path0_stroke" d="M 21.5 54L 20.4668 55.0874C 21.0457 55.6375 21.9543 55.6375 22.5332 55.0874L 21.5 54ZM 21.5 54C 22.5332 55.0874 22.5335 55.0872 22.5338 55.0869C 22.534 55.0866 22.5344 55.0863 22.5349 55.0859C 22.5357 55.085 22.5369 55.0839 22.5384 55.0825C 22.5414 55.0796 22.5458 55.0755 22.5513 55.0701C 22.5625 55.0595 22.5788 55.0439 22.6 55.0236C 22.6424 54.9829 22.7046 54.9231 22.7851 54.845C 22.9463 54.6889 23.1811 54.4599 23.4791 54.1649C 24.075 53.575 24.9241 52.721 25.942 51.6594C 27.9763 49.5381 30.6927 46.58 33.4131 43.2394C 36.129 39.9044 38.8749 36.1564 40.949 32.4572C 43.0009 28.7977 44.5 25.005 44.5 21.6264L 41.5 21.6264C 41.5 24.2197 40.3116 27.4598 38.3323 30.99C 36.3751 34.4806 33.746 38.0796 31.0869 41.345C 28.4323 44.6048 25.7737 47.5006 23.7767 49.583C 22.779 50.6234 21.9484 51.4588 21.3686 52.0328C 21.0787 52.3198 20.8516 52.5413 20.6978 52.6903C 20.6209 52.7648 20.5623 52.8212 20.5233 52.8585C 20.5039 52.8772 20.4893 52.8911 20.4798 52.9002C 20.4751 52.9047 20.4716 52.908 20.4694 52.9101C 20.4683 52.9111 20.4676 52.9119 20.4671 52.9123C 20.4669 52.9125 20.4668 52.9126 20.4667 52.9127C 20.4667 52.9127 20.4668 52.9126 21.5 54ZM 44.5 21.6264C 44.5 8.86234 34.2108 -1.5 21.5 -1.5L 21.5 1.5C 32.5374 1.5 41.5 10.5026 41.5 21.6264L 44.5 21.6264ZM 21.5 -1.5C 8.78917 -1.5 -1.5 8.86234 -1.5 21.6264L 1.5 21.6264C 1.5 10.5026 10.4626 1.5 21.5 1.5L 21.5 -1.5ZM -1.5 21.6264C -1.5 25.005 -0.000864153 28.7977 2.051 32.4572C 4.12512 36.1564 6.87104 39.9044 9.58688 43.2394C 12.3073 46.58 15.0237 49.5381 17.058 51.6594C 18.0759 52.721 18.925 53.575 19.5209 54.1649C 19.8189 54.4599 20.0537 54.6889 20.2149 54.845C 20.2954 54.9231 20.3576 54.9829 20.4 55.0236C 20.4212 55.0439 20.4375 55.0595 20.4487 55.0701C 20.4542 55.0755 20.4586 55.0796 20.4616 55.0825C 20.4631 55.0839 20.4643 55.085 20.4651 55.0859C 20.4656 55.0863 20.466 55.0866 20.4662 55.0869C 20.4665 55.0872 20.4668 55.0874 21.5 54C 22.5332 52.9126 22.5333 52.9127 22.5333 52.9127C 22.5332 52.9126 22.5331 52.9125 22.5329 52.9123C 22.5324 52.9119 22.5317 52.9111 22.5306 52.9101C 22.5284 52.908 22.5249 52.9047 22.5202 52.9002C 22.5107 52.8911 22.4961 52.8772 22.4767 52.8585C 22.4377 52.8212 22.3791 52.7648 22.3022 52.6903C 22.1484 52.5413 21.9213 52.3198 21.6314 52.0328C 21.0516 51.4588 20.221 50.6234 19.2233 49.583C 17.2263 47.5006 14.5677 44.6048 11.9131 41.345C 9.25396 38.0796 6.62488 34.4806 4.66775 30.99C 2.68836 27.4598 1.5 24.2197 1.5 21.6264L -1.5 21.6264Z"/>
<path id="path1_stroke" d="M 6.5 14.5C 10.9183 14.5 14.5 10.9183 14.5 6.5L 11.5 6.5C 11.5 9.26142 9.26142 11.5 6.5 11.5L 6.5 14.5ZM 14.5 6.5C 14.5 2.08172 10.9183 -1.5 6.5 -1.5L 6.5 1.5C 9.26142 1.5 11.5 3.73858 11.5 6.5L 14.5 6.5ZM 6.5 -1.5C 2.08172 -1.5 -1.5 2.08172 -1.5 6.5L 1.5 6.5C 1.5 3.73858 3.73858 1.5 6.5 1.5L 6.5 -1.5ZM -1.5 6.5C -1.5 10.9183 2.08172 14.5 6.5 14.5L 6.5 11.5C 3.73858 11.5 1.5 9.26142 1.5 6.5L -1.5 6.5Z"/>
</defs>
</svg>
