<svg width="54" height="64" viewBox="0 0 54 64" version="1.1" xmlns="http://www.w3.org/2000/svg" xmlns:xlink="http://www.w3.org/1999/xlink">
<title>face-recognition</title>
<desc>Created using Figma</desc>
<g id="Canvas" transform="translate(-10428 -7785)">
<g id="face-recognition">
<g id="Path 5">
<use xlink:href="#path0_stroke" transform="translate(10439.9 7787)" fill="#FFFFFF"/>
</g>
<g id="Path 6">
<use xlink:href="#path1_stroke" transform="translate(10440.6 7794.06)" fill="#FFFFFF"/>
</g>
<g id="Path 7">
<use xlink:href="#path2_stroke" transform="translate(10440.6 7804.65)" fill="#FFFFFF"/>
</g>
<g id="Path 8">
<use xlink:href="#path3_stroke" transform="translate(10442.7 7815.94)" fill="#FFFFFF"/>
</g>
<g id="Path 9">
<use xlink:href="#path4_stroke" transform="translate(10430.1 7825.12)" fill="#FFFFFF"/>
</g>
<g id="Path 9 Copy">
<use xlink:href="#path5_stroke" transform="matrix(-1 0 0 1 10479.8 7825.12)" fill="#FFFFFF"/>
</g>
<g id="Path 10">
<use xlink:href="#path6_stroke" transform="translate(10449.1 7787)" fill="#FFFFFF"/>
</g>
<g id="Path 10 Copy">
<use xlink:href="#path6_stroke" transform="matrix(-1 0 0 1 10461.8 7787)" fill="#FFFFFF"/>
</g>
<g id="Path 11">
<use xlink:href="#path7_stroke" transform="translate(10435.6 7804.65)" fill="#FFFFFF"/>
</g>
<g id="Path 11 Copy">
<use xlink:href="#path7_stroke" transform="matrix(-1 0 0 1 10474.5 7804.65)" fill="#FFFFFF"/>
</g>
</g>
</g>
<defs>
<path id="path0_stroke" d="M 0 14.4024L -1.5 14.4024L 0 14.4024ZM 15.5294 -1.5C 11.069 -1.5 6.82097 -0.135187 3.66319 2.5747C 0.478023 5.3081 -1.5 9.33039 -1.5 14.4024L 1.5 14.4024C 1.5 10.1726 3.12048 6.99366 5.61691 4.85132C 8.14074 2.68546 11.6574 1.5 15.5294 1.5L 15.5294 -1.5ZM -1.5 14.4024C -1.5 19.1949 -0.61108 25.5432 1.90534 30.7535C 4.43826 35.998 8.76628 40.3235 15.6209 40.3235L 15.6209 37.3235C 10.3305 37.3235 6.84804 34.0894 4.60677 29.4488C 2.34901 24.7741 1.5 18.9119 1.5 14.4024L -1.5 14.4024ZM 15.6209 40.3235C 22.6661 40.3235 26.8891 34.5443 29.2758 28.8989C 31.698 23.1698 32.5588 16.8652 32.5588 14.4024L 29.5588 14.4024C 29.5588 16.4777 28.7732 22.3837 26.5126 27.7306C 24.2167 33.1612 20.7207 37.3235 15.6209 37.3235L 15.6209 40.3235ZM 32.5588 14.4024C 32.5588 11.9185 31.8938 7.97215 29.3974 4.60595C 26.8418 1.15987 22.4954 -1.5 15.5294 -1.5L 15.5294 1.5C 21.6259 1.5 25.0442 3.77234 26.9877 6.39297C 28.9904 9.09348 29.5588 12.3483 29.5588 14.4024L 32.5588 14.4024Z"/>
<path id="path1_stroke" d="M 0 2.82353C 0.539781 4.22304 0.539369 4.2232 0.539013 4.22334C 0.538968 4.22336 0.538666 4.22347 0.538576 4.22351C 0.538396 4.22358 0.538436 4.22356 0.538697 4.22346C 0.539218 4.22326 0.54062 4.22273 0.542895 4.22186C 0.547444 4.22014 0.555487 4.2171 0.566969 4.21281C 0.589935 4.20424 0.626653 4.19068 0.676693 4.17265C 0.776784 4.13658 0.930114 4.08262 1.13326 4.01489C 1.53964 3.87938 2.14478 3.68889 2.92132 3.47607C 4.47547 3.05013 6.70986 2.53648 9.40675 2.19393C 14.811 1.50749 22.004 1.51653 29.2947 4.22936L 30.3409 1.4177C 22.4552 -1.51653 14.7393 -1.50749 9.02874 -0.782162C 6.16823 -0.41883 3.79374 0.126341 2.12837 0.582758C 1.29515 0.811113 0.637869 1.01768 0.184267 1.16894C -0.04258 1.24458 -0.218631 1.30644 -0.340424 1.35033C -0.401325 1.37228 -0.448675 1.38974 -0.482041 1.40219C -0.498725 1.40842 -0.511914 1.4134 -0.521555 1.41705C -0.526375 1.41888 -0.530309 1.42038 -0.533349 1.42155C -0.534869 1.42213 -0.536165 1.42263 -0.537237 1.42304C -0.537773 1.42324 -0.53841 1.42349 -0.538678 1.42359C -0.539257 1.42381 -0.539781 1.42402 0 2.82353Z"/>
<path id="path2_stroke" d="M 0 0.901654C 0.0202547 2.40152 0.0203551 2.40152 0.0205658 2.40151C 0.0207832 2.40151 0.021104 2.40151 0.0215379 2.4015C 0.0224057 2.40149 0.0237125 2.40147 0.0254548 2.40145C 0.0289393 2.4014 0.034166 2.40133 0.0411074 2.40124C 0.0549903 2.40105 0.0757322 2.40077 0.103114 2.40041C 0.157879 2.39968 0.239204 2.39861 0.34534 2.39723C 0.557613 2.39446 0.869128 2.39044 1.26589 2.38548C 2.05942 2.37554 3.19388 2.36179 4.55733 2.3465C 7.28442 2.31592 10.9266 2.27924 14.5886 2.25479C 18.2521 2.23033 21.9295 2.21815 24.7294 2.23644C 26.131 2.24559 27.3023 2.26233 28.1387 2.2885C 28.5594 2.30167 28.8787 2.31674 29.0942 2.33292C 29.2045 2.3412 29.2651 2.34816 29.2891 2.35165C 29.3023 2.35357 29.2829 2.35138 29.2446 2.34214C 29.2248 2.33739 29.1854 2.32729 29.1345 2.30961C 29.0912 2.29456 28.9924 2.25811 28.8758 2.18817L 30.4183 -0.384863C 30.2006 -0.515428 29.9941 -0.563123 29.9472 -0.574403C 29.8612 -0.595123 29.7808 -0.608416 29.72 -0.617241C 29.596 -0.635236 29.4567 -0.648302 29.3188 -0.658659C 29.0378 -0.679759 28.6672 -0.696426 28.2326 -0.710028C 27.3583 -0.737385 26.1574 -0.754297 24.749 -0.763496C 21.9288 -0.781916 18.2353 -0.769624 14.5686 -0.745141C 10.9005 -0.720649 7.25337 -0.683916 4.52369 -0.653312C 3.15875 -0.638009 2.02296 -0.624236 1.22833 -0.614287C 0.831012 -0.609313 0.518972 -0.605295 0.30621 -0.60252C 0.199829 -0.601132 0.118267 -0.600055 0.0632727 -0.599325C 0.0357758 -0.598959 0.0149209 -0.598681 0.000926744 -0.598493C -0.00607031 -0.5984 -0.0113522 -0.598329 -0.0148915 -0.598281C -0.0166612 -0.598257 -0.0179952 -0.598239 -0.0188902 -0.598227C -0.0193377 -0.598221 -0.0196789 -0.598217 -0.019903 -0.598214C -0.0201339 -0.59821 -0.0202547 -0.598209 0 0.901654Z"/>
<path id="path3_stroke" d="M 0 0C -0.298069 1.47009 -0.297765 1.47015 -0.297409 1.47022C -0.297219 1.47026 -0.296808 1.47034 -0.296429 1.47042C -0.295669 1.47057 -0.294697 1.47077 -0.293514 1.47101C -0.291147 1.47148 -0.287936 1.47213 -0.283886 1.47294C -0.275788 1.47456 -0.264339 1.47683 -0.249605 1.47974C -0.220137 1.48554 -0.177523 1.49385 -0.122277 1.5044C -0.0117927 1.52549 0.14925 1.55557 0.356726 1.59254C 0.771615 1.66648 1.37257 1.76806 2.12655 1.88062C 3.63362 2.1056 5.75692 2.37514 8.23117 2.55488C 13.1532 2.91245 19.5761 2.92376 25.3141 1.45303L 24.5692 -1.45303C 19.2913 -0.100232 13.2433 -0.0889168 8.44854 -0.437234C 6.06437 -0.610432 4.01775 -0.870303 2.56949 -1.0865C 1.84581 -1.19453 1.27275 -1.29148 0.883048 -1.36093C 0.688226 -1.39564 0.539326 -1.42347 0.440441 -1.44236C 0.391002 -1.4518 0.354075 -1.459 0.330173 -1.46371C 0.318223 -1.46606 0.309529 -1.46779 0.304157 -1.46887C 0.301471 -1.4694 0.299615 -1.46978 0.298598 -1.46998C 0.298089 -1.47008 0.29779 -1.47014 0.297702 -1.47016C 0.297657 -1.47017 0.297749 -1.47015 0.297727 -1.47016C 0.297872 -1.47013 0.298069 -1.47009 0 0Z"/>
<path id="path4_stroke" d="M 20.4486 0.0296815C 20.4649 -0.798583 19.8068 -1.48331 18.9785 -1.49971C 18.1503 -1.5161 17.4655 -0.857946 17.4491 -0.0296815L 20.4486 0.0296815ZM -1.5 21.511C -1.5 22.3394 -0.828427 23.011 0 23.011C 0.828427 23.011 1.5 22.3394 1.5 21.511L -1.5 21.511ZM 18.9488 0C 17.4491 -0.0296815 17.4492 -0.0300656 17.4492 -0.0304301C 17.4492 -0.0305258 17.4492 -0.0308722 17.4492 -0.0310643C 17.4492 -0.0314491 17.4492 -0.0317579 17.4492 -0.0319913C 17.4492 -0.0324581 17.4492 -0.0326234 17.4492 -0.0324917C 17.4492 -0.0322281 17.4492 -0.0307777 17.4491 -0.0281754C 17.4489 -0.0229688 17.4486 -0.0131678 17.4481 0.000948618C 17.447 0.0292029 17.445 0.0746012 17.4415 0.134922C 17.4344 0.255814 17.4212 0.435147 17.3973 0.655383C 17.3488 1.10038 17.2586 1.68995 17.0946 2.29252C 16.7284 3.63802 16.1686 4.43755 15.533 4.64527L 16.465 7.49683C 18.6776 6.77372 19.5927 4.53773 19.9893 3.08041C 20.2068 2.28157 20.32 1.5279 20.3796 0.980024C 20.4097 0.703821 20.4267 0.474302 20.4363 0.310452C 20.4412 0.228402 20.4441 0.162457 20.4459 0.11496C 20.4468 0.0912011 20.4474 0.0720249 20.4479 0.0577233C 20.4481 0.0505713 20.4482 0.0446348 20.4483 0.03995C 20.4484 0.0376075 20.4484 0.0355776 20.4485 0.0338648C 20.4485 0.0330084 20.4485 0.0322312 20.4485 0.0315338C 20.4485 0.0311854 20.4485 0.0307216 20.4485 0.0305476C 20.4485 0.0301048 20.4486 0.0296815 18.9488 0ZM 15.533 4.64527C 15.2886 4.72517 14.8761 4.81089 14.2163 4.9351C 13.5964 5.05182 12.8191 5.19247 11.9727 5.38033C 10.2775 5.75653 8.21886 6.33906 6.22716 7.39829C 4.2249 8.46313 2.27145 10.02 0.825926 12.342C -0.621624 14.6673 -1.5 17.664 -1.5 21.511L 1.5 21.511C 1.5 18.1347 2.26549 15.7061 3.37274 13.9275C 4.48203 12.1456 5.99431 10.92 7.6358 10.047C 9.28785 9.16842 11.051 8.65786 12.6226 8.30907C 13.4096 8.13443 14.127 8.00461 14.7714 7.88331C 15.3759 7.76949 15.9975 7.64964 16.465 7.49683L 15.533 4.64527Z"/>
<path id="path5_stroke" d="M 20.2169 -0.111738C 20.1551 -0.937863 19.4354 -1.55754 18.6093 -1.49583C 17.7832 -1.43412 17.1635 -0.714387 17.2252 0.111738L 20.2169 -0.111738ZM -1.49878 21.5867C -1.53222 22.4145 -0.88831 23.1126 -0.0605586 23.1461C 0.767193 23.1795 1.46533 22.5356 1.49878 21.7078L -1.49878 21.5867ZM 18.721 0C 17.2252 0.111738 17.2252 0.111253 17.2251 0.110786C 17.2251 0.110655 17.2251 0.110206 17.2251 0.109943C 17.225 0.109417 17.225 0.108963 17.225 0.108581C 17.2249 0.107816 17.2249 0.107336 17.2249 0.107139C 17.2248 0.106744 17.2249 0.107475 17.225 0.109299C 17.2252 0.112949 17.2257 0.120956 17.2263 0.133062C 17.2276 0.1573 17.2294 0.197791 17.2308 0.252488C 17.2337 0.362187 17.235 0.527194 17.2275 0.731436C 17.2125 1.145 17.1626 1.69348 17.0298 2.25848C 16.7505 3.44631 16.21 4.32945 15.2773 4.6547L 16.2651 7.4874C 18.6493 6.65599 19.5837 4.5036 19.9501 2.94507C 20.1402 2.13689 20.2058 1.38449 20.2256 0.840457C 20.2355 0.565902 20.2341 0.337936 20.2298 0.17436C 20.2277 0.0924211 20.2248 0.0261992 20.2223 -0.0221154C 20.2211 -0.0462859 20.2199 -0.0660159 20.219 -0.081033C 20.2185 -0.0885429 20.218 -0.0948787 20.2177 -0.100006C 20.2175 -0.10257 20.2174 -0.104833 20.2172 -0.106789C 20.2171 -0.107767 20.2171 -0.108669 20.217 -0.109494C 20.217 -0.109906 20.2169 -0.110468 20.2169 -0.110674C 20.2169 -0.111215 20.2169 -0.111738 18.721 0ZM 15.2773 4.6547C 14.945 4.77057 14.4714 4.89086 13.8107 5.05099C 13.1764 5.20472 12.4095 5.38629 11.5851 5.61479C 9.93368 6.07249 7.97846 6.73705 6.09025 7.84618C 2.21886 10.1202 -1.19929 14.1747 -1.49878 21.5867L 1.49878 21.7078C 1.75455 15.3776 4.56354 12.2223 7.6097 10.4329C 9.18027 9.51037 10.8564 8.92984 12.3863 8.5058C 13.1526 8.29342 13.8638 8.12495 14.5173 7.96658C 15.1444 7.81459 15.7682 7.6607 16.2651 7.4874L 15.2773 4.6547Z"/>
<path id="path6_stroke" d="M 3.69795 0C 2.31012 -0.569151 2.30988 -0.568577 2.30962 -0.567931C 2.30949 -0.567621 2.3092 -0.566903 2.30895 -0.566282C 2.30844 -0.56504 2.30781 -0.563512 2.30708 -0.561699C 2.3056 -0.558074 2.30367 -0.553311 2.3013 -0.547418C 2.29654 -0.535631 2.29001 -0.519325 2.28178 -0.498567C 2.26532 -0.457051 2.2421 -0.397722 2.21282 -0.321126C 2.15428 -0.167946 2.07152 0.0543576 1.97033 0.3414C 1.76799 0.915381 1.49175 1.74887 1.18804 2.80674C 0.580953 4.9213 -0.137872 7.93931 -0.594033 11.5783C -1.50534 18.8483 -1.37568 28.6609 2.85292 38.6999L 5.61767 37.5354C 1.65346 28.124 1.51445 18.8777 2.38267 11.9515C 2.81627 8.4924 3.49926 5.62796 4.07155 3.63459C 4.35753 2.63849 4.61536 1.86165 4.79968 1.33879C 4.89182 1.07741 4.96553 0.879669 5.01512 0.749907C 5.03992 0.685031 5.05868 0.637165 5.07069 0.606853C 5.0767 0.591698 5.08102 0.580933 5.08356 0.574626C 5.08484 0.571472 5.08566 0.569434 5.08604 0.568518C 5.08622 0.568061 5.08629 0.567884 5.08625 0.567989C 5.08623 0.568041 5.08611 0.568332 5.0861 0.568358C 5.08595 0.568719 5.08578 0.569151 3.69795 0Z"/>
<path id="path7_stroke" d="M 4.42156 0.021695C 4.5129 -1.47552 4.51238 -1.47555 4.51183 -1.47559C 4.51163 -1.4756 4.51107 -1.47563 4.51066 -1.47566C 4.50984 -1.47571 4.50896 -1.47576 4.508 -1.47581C 4.50609 -1.47592 4.5039 -1.47605 4.50144 -1.47619C 4.49651 -1.47646 4.4905 -1.47678 4.48342 -1.47713C 4.46927 -1.47784 4.45087 -1.47867 4.4285 -1.47951C 4.38378 -1.4812 4.32298 -1.48294 4.24834 -1.48378C 4.0995 -1.48544 3.8932 -1.48353 3.64794 -1.46998C 3.16592 -1.44334 2.49294 -1.36971 1.79594 -1.16913C 1.11015 -0.971769 0.296273 -0.621714 -0.361943 0.0268674C -1.06054 0.715243 -1.5 1.66075 -1.5 2.83634L 1.5 2.83634C 1.5 2.46972 1.61324 2.2923 1.74368 2.16377C 1.91451 1.99544 2.20602 1.83461 2.62562 1.71386C 3.03401 1.59633 3.46642 1.54463 3.81345 1.52545C 3.9827 1.5161 4.12183 1.51499 4.2148 1.51603C 4.26106 1.51655 4.29525 1.51759 4.31531 1.51835C 4.32532 1.51873 4.33175 1.51903 4.33433 1.51916C 4.33562 1.51923 4.33595 1.51925 4.33527 1.51921C 4.33494 1.51919 4.33435 1.51916 4.33351 1.51911C 4.33309 1.51908 4.3326 1.51905 4.33205 1.51902C 4.33178 1.51901 4.33132 1.51898 4.33118 1.51897C 4.33071 1.51894 4.33022 1.51891 4.42156 0.021695ZM -1.5 2.83634C -1.5 4.54737 -1.12938 6.33757 0.002303 7.62782C 1.21767 9.01348 3.03073 9.5173 5.19533 9.14516L 4.68702 6.18854C 3.27671 6.431 2.61918 6.06177 2.25768 5.64962C 1.81251 5.14206 1.5 4.2097 1.5 2.83634L -1.5 2.83634Z"/>
</defs>
</svg>
