<svg width="60" height="60" viewBox="0 0 60 60" version="1.1" xmlns="http://www.w3.org/2000/svg" xmlns:xlink="http://www.w3.org/1999/xlink">
<title>icon-goverment-trust</title>
<desc>Created using Figma</desc>
<g id="Canvas" transform="translate(-8284 -9838)">
<g id="icon-goverment-trust">
<g id="Path 20">
<use xlink:href="#path0_stroke" transform="translate(8291 9843)" fill="#1C1A1A"/>
</g>
<g id="Oval 10">
<use xlink:href="#path1_stroke" transform="translate(8302 9853)" fill="#1C1A1A"/>
</g>
<g id="Oval 10 Copy">
<use xlink:href="#path1_stroke" transform="translate(8302 9853)" fill="#1C1A1A"/>
</g>
<g id="Path 21">
<use xlink:href="#path2_stroke" transform="translate(8309 9853)" fill="#1C1A1A"/>
</g>
</g>
</g>
<defs>
<path id="path0_stroke" d="M 46 0L 47.5 0C 47.5 -0.828427 46.8284 -1.5 46 -1.5L 46 0ZM 0 0L 0 -1.5C -0.828427 -1.5 -1.5 -0.828427 -1.5 3.33067e-16L 0 0ZM 0 37.0461L -1.5 37.0461C -1.5 37.5549 -1.24204 38.0291 -0.814821 38.3055L 0 37.0461ZM 23.1128 52L 22.298 53.2594C 22.7959 53.5815 23.4368 53.5801 23.9333 53.2557L 23.1128 52ZM 46 37.0461L 46.8205 38.3018C 47.2444 38.0248 47.5 37.5526 47.5 37.0461L 46 37.0461ZM 46 -1.5L 0 -1.5L 0 1.5L 46 1.5L 46 -1.5ZM -1.5 0L -1.5 37.0461L 1.5 37.0461L 1.5 0L -1.5 0ZM -0.814821 38.3055L 22.298 53.2594L 23.9276 50.7406L 0.814821 35.7867L -0.814821 38.3055ZM 23.9333 53.2557L 46.8205 38.3018L 45.1795 35.7904L 22.2924 50.7443L 23.9333 53.2557ZM 47.5 37.0461L 47.5 0L 44.5 0L 44.5 37.0461L 47.5 37.0461Z"/>
<path id="path1_stroke" d="M 12 25.5C 19.4558 25.5 25.5 19.4558 25.5 12L 22.5 12C 22.5 17.799 17.799 22.5 12 22.5L 12 25.5ZM 25.5 12C 25.5 4.54416 19.4558 -1.5 12 -1.5L 12 1.5C 17.799 1.5 22.5 6.20101 22.5 12L 25.5 12ZM 12 -1.5C 4.54416 -1.5 -1.5 4.54416 -1.5 12L 1.5 12C 1.5 6.20101 6.20101 1.5 12 1.5L 12 -1.5ZM -1.5 12C -1.5 19.4558 4.54416 25.5 12 25.5L 12 22.5C 6.20101 22.5 1.5 17.799 1.5 12L -1.5 12Z"/>
<path id="path2_stroke" d="M 1.17656 8.61595C 0.662688 7.96615 -0.280645 7.85596 -0.930439 8.36983C -1.58023 8.8837 -1.69042 9.82703 -1.17656 10.4768L 1.17656 8.61595ZM 4.40625 15.1182L 3.22969 16.0486C 3.50555 16.3974 3.92196 16.6059 4.36652 16.6176C 4.81107 16.6294 5.23794 16.4433 5.53188 16.1096L 4.40625 15.1182ZM 18.8478 0.991443C 19.3954 0.369774 19.3353 -0.578071 18.7136 -1.12563C 18.0919 -1.67319 17.1441 -1.61311 16.5965 -0.991443L 18.8478 0.991443ZM -1.17656 10.4768L 3.22969 16.0486L 5.58281 14.1877L 1.17656 8.61595L -1.17656 10.4768ZM 5.53188 16.1096L 18.8478 0.991443L 16.5965 -0.991443L 3.28062 14.1267L 5.53188 16.1096Z"/>
</defs>
</svg>
