<svg width="60" height="60" viewBox="0 0 60 60" version="1.1" xmlns="http://www.w3.org/2000/svg" xmlns:xlink="http://www.w3.org/1999/xlink">
<title>icon-securitycode</title>
<desc>Created using Figma</desc>
<g id="Canvas" transform="translate(-9235 -6512)">
<g id="icon-securitycode">
<g id="package">
<g id="Shape">
<use xlink:href="#path0_fill" transform="translate(9239.09 6514)" fill="#FFFFFF"/>
</g>
</g>
<g id="***">
<use xlink:href="#path1_fill" transform="translate(9247.4 6542)" fill="#FFFFFF"/>
</g>
</g>
</g>
<defs>
<path id="path0_fill" fill-rule="evenodd" d="M 51.8809 13.2567C 51.8809 13.0428 51.833 12.8295 51.7383 12.6273C 51.5479 12.224 51.1787 11.951 50.7744 11.868L 26.5352 0.142456C 26.1426 -0.0474854 25.6787 -0.0474854 25.2861 0.142456L 0.80957 11.975C 0.333008 12.2001 0.0234375 12.6752 0 13.2089L 0 13.2211L 0 13.2684L 0 42.9623C 0 43.5082 0.30957 44.0067 0.80957 44.244L 25.2861 56.0765L 25.2969 56.0775C 25.2998 56.0785 25.3027 56.0814 25.3096 56.0883C 25.3457 56.1 25.3809 56.1122 25.417 56.1356C 25.4219 56.1356 25.4268 56.1376 25.4326 56.14C 25.4404 56.1434 25.4502 56.1478 25.4648 56.1478L 25.5713 56.183C 25.5781 56.183 25.584 56.1864 25.5898 56.1893C 25.5957 56.1923 25.6016 56.1952 25.6074 56.1952C 25.625 56.201 25.6455 56.204 25.667 56.2069C 25.6875 56.2098 25.709 56.2128 25.7266 56.2186L 25.7617 56.2186C 25.7861 56.2186 25.8125 56.2216 25.8389 56.2245C 25.8662 56.2279 25.8936 56.2308 25.917 56.2308C 25.9639 56.2308 26.0234 56.2308 26.0713 56.2186L 26.1074 56.2186C 26.1426 56.2186 26.1904 56.2069 26.2266 56.1952C 26.2324 56.1952 26.2383 56.1923 26.2441 56.1893C 26.25 56.1859 26.2559 56.183 26.2617 56.183L 26.3691 56.1478C 26.374 56.1478 26.3789 56.1459 26.3848 56.1434C 26.3926 56.14 26.4023 56.1356 26.416 56.1356C 26.4521 56.1239 26.4883 56.1122 26.5234 56.0883L 26.5342 56.0873L 26.5479 56.0765L 51.0957 44.2084C 51.584 43.9711 51.9053 43.4725 51.9053 42.9266L 51.9053 13.2919C 51.8809 13.2802 51.8809 13.2684 51.8809 13.2567ZM 25.9043 3.00232L 47.1328 13.2679L 39.3154 17.0541L 18.0869 6.78845L 25.9043 3.00232ZM 4.67676 13.2684L 25.9053 23.5345L 36.043 18.6327L 14.8154 8.36707L 4.67676 13.2684ZM 2.85547 15.559L 24.4766 26.0145L 24.4766 52.516L 2.85547 42.0604L 2.85547 15.559ZM 27.333 26.015L 27.333 52.516L 49.0254 42.0131L 49.0254 15.5116L 40.3389 19.7128L 40.3389 28.0326C 40.3389 28.8158 39.6963 29.4564 38.9111 29.4564C 38.126 29.4564 37.4834 28.8158 37.4834 28.0326L 37.4834 21.1014L 27.333 26.015Z"/>
<path id="path1_fill" fill-rule="evenodd" d="M 9.6 3.392L 9.6 6.208L 6.72 5.92L 8.48 8.128L 6.144 9.6L 4.8 6.88L 3.456 9.6L 1.12 8.128L 2.88 5.92L 0 6.208L 0 3.392L 2.88 3.68L 1.12 1.472L 3.456 0L 4.8 2.72L 6.144 0L 8.48 1.472L 6.72 3.68L 9.6 3.392Z"/>
</defs>
</svg>
