<svg width="60" height="60" viewBox="0 0 60 60" version="1.1" xmlns="http://www.w3.org/2000/svg" xmlns:xlink="http://www.w3.org/1999/xlink">
<title>icon-increase</title>
<desc>Created using Figma</desc>
<g id="Canvas" transform="translate(-9236 -12206)">
<g id="icon-increase">
<g id="Group">
<g id="Line">
<use xlink:href="#path0_stroke" transform="matrix(1 0 0 -1 9245 12244)" fill="#1C1A1A"/>
</g>
<g id="Rectangle">
<use xlink:href="#path1_fill" transform="matrix(1 0 0 -1 9264 12216)" fill="#1C1A1A"/>
</g>
<g id="Rectangle Copy">
<use xlink:href="#path1_fill" transform="matrix(-1.83697e-16 -1 -1 1.83697e-16 9276 12225)" fill="#1C1A1A"/>
</g>
</g>
<g id="Group 2">
<g id="Rectangle 18">
<use xlink:href="#path2_fill" transform="matrix(-1 0 0 1 9285 12219)" fill="#1C1A1A"/>
</g>
<g id="Rectangle 18 Copy">
<use xlink:href="#path3_fill" transform="matrix(-1 0 0 1 9276 12229)" fill="#1C1A1A"/>
</g>
<g id="Rectangle 18 Copy 2">
<use xlink:href="#path4_fill" transform="matrix(-1 0 0 1 9267 12243)" fill="#1C1A1A"/>
</g>
<g id="Rectangle 18 Copy 3">
<use xlink:href="#path5_fill" transform="matrix(-1 0 0 1 9258 12252)" fill="#1C1A1A"/>
</g>
<g id="Rectangle 18 Copy 4">
<use xlink:href="#path6_fill" transform="matrix(-1 0 0 1 9249 12257)" fill="#1C1A1A"/>
</g>
</g>
</g>
</g>
<defs>
<path id="path0_stroke" d="M 1.56066 -0.56066C 0.974874 -1.14645 0.0251263 -1.14645 -0.56066 -0.56066C -1.14645 0.0251263 -1.14645 0.974874 -0.56066 1.56066L 1.56066 -0.56066ZM 26.057 28.1783C 26.6428 28.7641 27.5925 28.7641 28.1783 28.1783C 28.7641 27.5925 28.7641 26.6428 28.1783 26.057L 26.057 28.1783ZM -0.56066 1.56066L 26.057 28.1783L 28.1783 26.057L 1.56066 -0.56066L -0.56066 1.56066Z"/>
<path id="path1_fill" fill-rule="evenodd" d="M 0 1.5C 0 1.5 0 1.5 4.44089e-16 1.5C 9.69537e-09 0.671573 0.671573 9.69537e-09 1.5 4.44089e-16C 1.5 0 1.5 0 1.5 0L 10.5 0C 10.5 0 10.5 0 10.5 4.44089e-16C 11.3284 9.69537e-09 12 0.671573 12 1.5C 12 1.5 12 1.5 12 1.5L 12 1.5C 12 1.5 12 1.5 12 1.5C 12 2.32843 11.3284 3 10.5 3C 10.5 3 10.5 3 10.5 3L 1.5 3C 1.5 3 1.5 3 1.5 3C 0.671573 3 9.69537e-09 2.32843 4.44089e-16 1.5C 0 1.5 0 1.5 0 1.5L 0 1.5Z"/>
<path id="path2_fill" fill-rule="evenodd" d="M 0 1.5C 0 1.5 0 1.5 4.44089e-16 1.5C 9.69537e-09 0.671573 0.671573 9.69537e-09 1.5 4.44089e-16C 1.5 0 1.5 0 1.5 0L 1.5 0C 1.5 0 1.5 0 1.5 4.44089e-16C 2.32843 9.69537e-09 3 0.671573 3 1.5C 3 1.5 3 1.5 3 1.5L 3 39.5C 3 39.5 3 39.5 3 39.5C 3 40.3284 2.32843 41 1.5 41C 1.5 41 1.5 41 1.5 41L 1.5 41C 1.5 41 1.5 41 1.5 41C 0.671573 41 9.69537e-09 40.3284 4.44089e-16 39.5C 0 39.5 0 39.5 0 39.5L 0 1.5Z"/>
<path id="path3_fill" fill-rule="evenodd" d="M 0 1.5C 0 1.5 0 1.5 4.44089e-16 1.5C 9.69537e-09 0.671573 0.671573 9.69537e-09 1.5 4.44089e-16C 1.5 0 1.5 0 1.5 0L 1.5 0C 1.5 0 1.5 0 1.5 4.44089e-16C 2.32843 9.69537e-09 3 0.671573 3 1.5C 3 1.5 3 1.5 3 1.5L 3 29.5C 3 29.5 3 29.5 3 29.5C 3 30.3284 2.32843 31 1.5 31C 1.5 31 1.5 31 1.5 31L 1.5 31C 1.5 31 1.5 31 1.5 31C 0.671573 31 9.69537e-09 30.3284 4.44089e-16 29.5C 0 29.5 0 29.5 0 29.5L 0 1.5Z"/>
<path id="path4_fill" fill-rule="evenodd" d="M 0 1.5C 0 1.5 0 1.5 4.44089e-16 1.5C 9.69537e-09 0.671573 0.671573 9.69537e-09 1.5 4.44089e-16C 1.5 0 1.5 0 1.5 0L 1.5 0C 1.5 0 1.5 0 1.5 4.44089e-16C 2.32843 9.69537e-09 3 0.671573 3 1.5C 3 1.5 3 1.5 3 1.5L 3 15.5C 3 15.5 3 15.5 3 15.5C 3 16.3284 2.32843 17 1.5 17C 1.5 17 1.5 17 1.5 17L 1.5 17C 1.5 17 1.5 17 1.5 17C 0.671573 17 9.69537e-09 16.3284 4.44089e-16 15.5C 0 15.5 0 15.5 0 15.5L 0 1.5Z"/>
<path id="path5_fill" fill-rule="evenodd" d="M 0 1.5C 0 1.5 0 1.5 4.44089e-16 1.5C 9.69537e-09 0.671573 0.671573 9.69537e-09 1.5 4.44089e-16C 1.5 0 1.5 0 1.5 0L 1.5 0C 1.5 0 1.5 0 1.5 4.44089e-16C 2.32843 9.69537e-09 3 0.671573 3 1.5C 3 1.5 3 1.5 3 1.5L 3 7.5C 3 7.5 3 7.5 3 7.5C 3 8.32843 2.32843 9 1.5 9C 1.5 9 1.5 9 1.5 9L 1.5 9C 1.5 9 1.5 9 1.5 9C 0.671573 9 9.69537e-09 8.32843 4.44089e-16 7.5C 0 7.5 0 7.5 0 7.5L 0 1.5Z"/>
<path id="path6_fill" fill-rule="evenodd" d="M 0 1.5C 0 1.5 0 1.5 4.44089e-16 1.5C 9.69537e-09 0.671573 0.671573 9.69537e-09 1.5 4.44089e-16C 1.5 0 1.5 0 1.5 0L 1.5 0C 1.5 0 1.5 0 1.5 4.44089e-16C 2.32843 9.69537e-09 3 0.671573 3 1.5C 3 1.5 3 1.5 3 1.5L 3 1.5C 3 1.5 3 1.5 3 1.5C 3 2.32843 2.32843 3 1.5 3C 1.5 3 1.5 3 1.5 3L 1.5 3C 1.5 3 1.5 3 1.5 3C 0.671573 3 9.69537e-09 2.32843 4.44089e-16 1.5C 0 1.5 0 1.5 0 1.5L 0 1.5Z"/>
</defs>
</svg>
