<svg width="60" height="60" viewBox="0 0 60 60" version="1.1" xmlns="http://www.w3.org/2000/svg" xmlns:xlink="http://www.w3.org/1999/xlink">
<title>icon-Contracts-management</title>
<desc>Created using Figma</desc>
<g id="Canvas" transform="translate(-2961 -4444)">
<g id="icon-Contracts-management">
<g id="Rectangle 5 Copy">
<mask id="mask0_outline_ins">
<use xlink:href="#path0_fill" fill="white" transform="translate(2964 4447)"/>
</mask>
<g mask="url(#mask0_outline_ins)">
<use xlink:href="#path1_stroke_2x" transform="translate(2964 4447)" fill="#1C1A1A"/>
</g>
</g>
<g id="Rectangle 2 Copy">
<use xlink:href="#path2_fill" transform="translate(2972 4455)" fill="#1C1A1A"/>
</g>
<g id="Rectangle 2 Copy 2">
<use xlink:href="#path3_fill" transform="translate(2972 4461)" fill="#1C1A1A"/>
</g>
<g id="Rectangle 2 Copy 3">
<use xlink:href="#path4_fill" transform="translate(2972 4467)" fill="#1C1A1A"/>
</g>
<g id="Rectangle 2 Copy 4">
<use xlink:href="#path5_fill" transform="translate(2972 4473)" fill="#1C1A1A"/>
</g>
<g id="Path 5">
<use xlink:href="#path6_stroke" transform="translate(2988 4483)" fill="#1C1A1A"/>
</g>
</g>
</g>
<defs>
<path id="path0_fill" fill-rule="evenodd" d="M 0 4C 0 1.79086 1.79086 0 4 0L 50 0C 52.2091 0 54 1.79086 54 4L 54 50C 54 52.2091 52.2091 54 50 54L 4 54C 1.79086 54 0 52.2091 0 50L 0 4Z"/>
<path id="path1_stroke_2x" d="M 4 3L 50 3L 50 -3L 4 -3L 4 3ZM 51 4L 51 50L 57 50L 57 4L 51 4ZM 50 51L 4 51L 4 57L 50 57L 50 51ZM 3 50L 3 4L -3 4L -3 50L 3 50ZM 4 51C 3.44772 51 3 50.5523 3 50L -3 50C -3 53.866 0.134007 57 4 57L 4 51ZM 51 50C 51 50.5523 50.5523 51 50 51L 50 57C 53.866 57 57 53.866 57 50L 51 50ZM 50 3C 50.5523 3 51 3.44772 51 4L 57 4C 57 0.134007 53.866 -3 50 -3L 50 3ZM 4 -3C 0.134007 -3 -3 0.134007 -3 4L 3 4C 3 3.44772 3.44772 3 4 3L 4 -3Z"/>
<path id="path2_fill" fill-rule="evenodd" d="M 0 1.5C 0 0.671573 0.671573 0 1.5 0L 35.5 0C 36.3284 0 37 0.671573 37 1.5C 37 2.32843 36.3284 3 35.5 3L 1.5 3C 0.671573 3 0 2.32843 0 1.5Z"/>
<path id="path3_fill" fill-rule="evenodd" d="M 0 1.5C 0 0.671573 0.671573 0 1.5 0L 27.5 0C 28.3284 0 29 0.671573 29 1.5C 29 2.32843 28.3284 3 27.5 3L 1.5 3C 0.671573 3 0 2.32843 0 1.5Z"/>
<path id="path4_fill" fill-rule="evenodd" d="M 0 1.5C 0 0.671573 0.671573 0 1.5 0L 31.5 0C 32.3284 0 33 0.671573 33 1.5C 33 2.32843 32.3284 3 31.5 3L 1.5 3C 0.671573 3 0 2.32843 0 1.5Z"/>
<path id="path5_fill" fill-rule="evenodd" d="M 0 1.5C 0 0.671573 0.671573 0 1.5 0L 19.5 0C 20.3284 0 21 0.671573 21 1.5C 21 2.32843 20.3284 3 19.5 3L 1.5 3C 0.671573 3 0 2.32843 0 1.5Z"/>
<path id="path6_stroke" d="M -1.05806 6.93675C -1.64528 7.5211 -1.6476 8.47085 -1.06325 9.05806C -0.478896 9.64528 0.470849 9.6476 1.05806 9.06325L -1.05806 6.93675ZM 5.43176 2.59472L 6.50565 1.54746C 6.22606 1.26076 5.84345 1.09777 5.443 1.09477C 5.04256 1.09176 4.65755 1.24901 4.37369 1.53148L 5.43176 2.59472ZM 10.703 8L 9.62916 9.04727C 9.94308 9.36917 10.3848 9.53327 10.8328 9.49438C 11.2807 9.45549 11.6876 9.21771 11.9413 8.84653L 10.703 8ZM 16.172 0L 17.4562 -0.775048C 17.1925 -1.21204 16.7247 -1.48494 16.2145 -1.4994C 15.7043 -1.51385 15.2217 -1.26788 14.9337 -0.846526L 16.172 0ZM 19.7157 8.77505C 20.1438 9.48432 21.0658 9.7123 21.775 9.28425C 22.4843 8.8562 22.7123 7.93422 22.2843 7.22495L 19.7157 8.77505ZM 1.05806 9.06325L 6.48982 3.65797L 4.37369 1.53148L -1.05806 6.93675L 1.05806 9.06325ZM 4.35787 3.64199L 9.62916 9.04727L 11.7769 6.95273L 6.50565 1.54746L 4.35787 3.64199ZM 11.9413 8.84653L 17.4103 0.846526L 14.9337 -0.846526L 9.46474 7.15347L 11.9413 8.84653ZM 14.8877 0.775048L 19.7157 8.77505L 22.2843 7.22495L 17.4562 -0.775048L 14.8877 0.775048Z"/>
</defs>
</svg>
