<svg width="100" height="100" viewBox="0 0 100 100" version="1.1" xmlns="http://www.w3.org/2000/svg" xmlns:xlink="http://www.w3.org/1999/xlink">
<title>icon-Interface-editor</title>
<desc>Created using Figma</desc>
<g id="Canvas" transform="translate(-7792 -8461)">
<g id="icon-Interface-editor">
<g id="Page 1">
<mask id="mask0_outline_ins">
<use xlink:href="#path0_fill" fill="white" transform="translate(7792 8465)"/>
</mask>
<g mask="url(#mask0_outline_ins)">
<use xlink:href="#path1_stroke_2x" transform="translate(7792 8465)" fill="#FFFFFF"/>
</g>
</g>
<g id="Rectangle 16">
<mask id="mask1_outline_ins">
<use xlink:href="#path2_fill" fill="white" transform="translate(7815 8486)"/>
</mask>
<g mask="url(#mask1_outline_ins)">
<use xlink:href="#path3_stroke_2x" transform="translate(7815 8486)" fill="#FFFFFF"/>
</g>
</g>
<g id="Path 15">
<use xlink:href="#path4_fill" transform="matrix(0.866025 -0.5 0.5 0.866025 7836 8518.91)" fill="#1C1A1A"/>
<use xlink:href="#path5_stroke" transform="matrix(0.866025 -0.5 0.5 0.866025 7836 8518.91)" fill="#FFFFFF"/>
</g>
<g id="Rectangle 17">
<use xlink:href="#path6_fill" transform="translate(7836 8494)" fill="#FFFFFF"/>
</g>
<g id="Rectangle 17 Copy 2">
<use xlink:href="#path7_fill" transform="translate(7836 8500)" fill="#FFFFFF"/>
</g>
<g id="Rectangle 17 Copy">
<use xlink:href="#path8_fill" transform="matrix(-1.83697e-16 1 -1 -1.83697e-16 7832 8487)" fill="#FFFFFF"/>
</g>
</g>
</g>
<defs>
<path id="path0_fill" fill-rule="evenodd" d="M 96.5258 59.3437C 101.158 51.3741 101.158 41.5551 96.5258 33.5856C 92.774 27.1304 88.2431 19.3343 84.4913 12.879C 79.8591 4.9095 71.2988 0 62.0347 0L 37.9653 0C 28.7012 0 20.1406 4.9095 15.5087 12.879C 11.7569 19.3343 7.22572 27.1304 3.47417 33.5856C -1.15806 41.5551 -1.15806 51.3741 3.47417 59.3437C 7.22572 65.7989 11.7569 73.595 15.5087 80.0503C 20.1406 88.0198 28.7012 92.9293 37.9653 92.9293L 62.0347 92.9293C 71.2988 92.9293 79.8591 88.0198 84.4913 80.0503C 88.2431 73.595 92.774 65.7989 96.5258 59.3437Z"/>
<path id="path1_stroke_2x" d="M 96.5258 59.3437L 93.9321 57.8361L 93.9321 57.8362L 96.5258 59.3437ZM 96.5258 33.5856L 93.9321 35.0931L 93.9321 35.0932L 96.5258 33.5856ZM 84.4913 12.879L 87.085 11.3715L 87.085 11.3715L 84.4913 12.879ZM 15.5087 12.879L 18.1024 14.3865L 18.1025 14.3865L 15.5087 12.879ZM 3.47417 33.5856L 6.06786 35.0932L 6.06795 35.093L 3.47417 33.5856ZM 3.47417 59.3437L 6.06795 57.8363L 6.06786 57.8361L 3.47417 59.3437ZM 15.5087 80.0503L 18.1025 78.5428L 18.1024 78.5427L 15.5087 80.0503ZM 84.4913 80.0503L 87.085 81.5578L 87.085 81.5578L 84.4913 80.0503ZM 99.1195 60.8512C 104.293 51.9497 104.293 40.9796 99.1195 32.078L 93.9321 35.0932C 98.0226 42.1307 98.0226 50.7986 93.9321 57.8361L 99.1195 60.8512ZM 99.1196 32.0781C 97.2436 28.8505 95.173 25.2877 93.1023 21.7249C 91.0316 18.162 88.961 14.5992 87.085 11.3715L 81.8976 14.3865C 83.7735 17.6141 85.8441 21.1769 87.9148 24.7398C 89.9855 28.3026 92.0562 31.8655 93.9321 35.0931L 99.1196 32.0781ZM 87.085 11.3715C 81.9124 2.47231 72.3609 -3 62.0347 -3L 62.0347 3C 70.2368 3 77.8057 7.34668 81.8976 14.3866L 87.085 11.3715ZM 62.0347 -3L 37.9653 -3L 37.9653 3L 62.0347 3L 62.0347 -3ZM 37.9653 -3C 27.6391 -3 18.0873 2.47227 12.915 11.3715L 18.1025 14.3865C 22.194 7.34672 29.7632 3 37.9653 3L 37.9653 -3ZM 12.915 11.3715C 9.16312 17.8268 4.63197 25.6229 0.880387 32.0782L 6.06795 35.093C 9.81947 28.6378 14.3506 20.8418 18.1024 14.3865L 12.915 11.3715ZM 0.880474 32.078C -4.29349 40.9796 -4.29349 51.9497 0.880474 60.8512L 6.06786 57.8361C 1.97738 50.7986 1.97738 42.1307 6.06786 35.0932L 0.880474 32.078ZM 0.880387 60.8511C 4.63197 67.3064 9.16312 75.1025 12.915 81.5578L 18.1024 78.5427C 14.3506 72.0875 9.81947 64.2915 6.06795 57.8363L 0.880387 60.8511ZM 12.915 81.5577C 18.0873 90.457 27.6391 95.9293 37.9653 95.9293L 37.9653 89.9293C 29.7632 89.9293 22.194 85.5826 18.1025 78.5428L 12.915 81.5577ZM 37.9653 95.9293L 62.0347 95.9293L 62.0347 89.9293L 37.9653 89.9293L 37.9653 95.9293ZM 62.0347 95.9293C 72.3609 95.9293 81.9124 90.457 87.085 81.5578L 81.8976 78.5427C 77.8057 85.5826 70.2368 89.9293 62.0347 89.9293L 62.0347 95.9293ZM 87.085 81.5578C 88.961 78.3301 91.0316 74.7673 93.1023 71.2044C 95.173 67.6416 97.2436 64.0788 99.1196 60.8512L 93.9321 57.8362C 92.0562 61.0638 89.9855 64.6267 87.9148 68.1895C 85.8441 71.7524 83.7735 75.3152 81.8976 78.5427L 87.085 81.5578Z"/>
<path id="path2_fill" fill-rule="evenodd" d="M 0 6.4C 0 4.15979 0 3.03969 0.435974 2.18404C 0.819467 1.43139 1.43139 0.819467 2.18404 0.435974C 3.03969 0 4.15979 0 6.4 0L 47.6 0C 49.8402 0 50.9603 0 51.816 0.435974C 52.5686 0.819467 53.1805 1.43139 53.564 2.18404C 54 3.03969 54 4.15979 54 6.4L 54 37.6C 54 39.8402 54 40.9603 53.564 41.816C 53.1805 42.5686 52.5686 43.1805 51.816 43.564C 50.9603 44 49.8402 44 47.6 44L 6.4 44C 4.15979 44 3.03969 44 2.18404 43.564C 1.43139 43.1805 0.819467 42.5686 0.435974 41.816C 0 40.9603 0 39.8402 0 37.6L 0 6.4Z"/>
<path id="path3_stroke_2x" d="M 2.18404 43.564L 3.54601 40.891L 2.18404 43.564ZM 0.435974 41.816L -2.23705 43.1779L 0.435974 41.816ZM 53.564 41.816L 50.891 40.454L 53.564 41.816ZM 51.816 43.564L 53.1779 46.237L 51.816 43.564ZM 51.816 0.435974L 53.1779 -2.23705L 51.816 0.435974ZM 53.564 2.18404L 50.891 3.54601L 53.564 2.18404ZM 2.18404 0.435974L 0.822066 -2.23705L 2.18404 0.435974ZM 0.435974 2.18404L -2.23705 0.822066L 0.435974 2.18404ZM 6.4 3L 47.6 3L 47.6 -3L 6.4 -3L 6.4 3ZM 51 6.4L 51 37.6L 57 37.6L 57 6.4L 51 6.4ZM 47.6 41L 6.4 41L 6.4 47L 47.6 47L 47.6 41ZM 3 37.6L 3 6.4L -3 6.4L -3 37.6L 3 37.6ZM 6.4 41C 5.23039 41 4.53361 40.9977 4.0171 40.9555C 3.53562 40.9161 3.48043 40.8576 3.54601 40.891L 0.822066 46.237C 1.74329 46.7064 2.67598 46.8659 3.52851 46.9355C 4.34602 47.0023 5.3294 47 6.4 47L 6.4 41ZM -3 37.6C -3 38.6706 -3.00233 39.654 -2.93554 40.4715C -2.86589 41.324 -2.70643 42.2567 -2.23705 43.1779L 3.10899 40.454C 3.14241 40.5196 3.08387 40.4644 3.04453 39.9829C 3.00233 39.4664 3 38.7696 3 37.6L -3 37.6ZM 3.54601 40.891C 3.35785 40.7951 3.20487 40.6422 3.10899 40.454L -2.23705 43.1779C -1.56593 44.4951 -0.495068 45.5659 0.822066 46.237L 3.54601 40.891ZM 51 37.6C 51 38.7696 50.9977 39.4664 50.9555 39.9829C 50.9161 40.4644 50.8576 40.5196 50.891 40.454L 56.237 43.1779C 56.7064 42.2567 56.8659 41.324 56.9355 40.4715C 57.0023 39.654 57 38.6706 57 37.6L 51 37.6ZM 47.6 47C 48.6706 47 49.654 47.0023 50.4715 46.9355C 51.324 46.8659 52.2567 46.7064 53.1779 46.237L 50.454 40.891C 50.5196 40.8576 50.4644 40.9161 49.9829 40.9555C 49.4664 40.9977 48.7696 41 47.6 41L 47.6 47ZM 50.891 40.454C 50.7951 40.6422 50.6422 40.7951 50.454 40.891L 53.1779 46.237C 54.4951 45.5659 55.5659 44.4951 56.237 43.1779L 50.891 40.454ZM 47.6 3C 48.7696 3 49.4664 3.00233 49.9829 3.04453C 50.4644 3.08387 50.5196 3.14241 50.454 3.10899L 53.1779 -2.23705C 52.2567 -2.70643 51.324 -2.86589 50.4715 -2.93554C 49.654 -3.00233 48.6706 -3 47.6 -3L 47.6 3ZM 57 6.4C 57 5.3294 57.0023 4.34602 56.9355 3.52851C 56.8659 2.67598 56.7064 1.74329 56.237 0.822066L 50.891 3.54601C 50.8576 3.48043 50.9161 3.53562 50.9555 4.0171C 50.9977 4.53361 51 5.23039 51 6.4L 57 6.4ZM 50.454 3.10899C 50.6422 3.20487 50.7951 3.35785 50.891 3.54601L 56.237 0.822066C 55.5659 -0.495068 54.4951 -1.56593 53.1779 -2.23705L 50.454 3.10899ZM 6.4 -3C 5.3294 -3 4.34602 -3.00233 3.52851 -2.93554C 2.67598 -2.86589 1.74329 -2.70643 0.822066 -2.23705L 3.54601 3.10899C 3.48043 3.14241 3.53562 3.08387 4.0171 3.04453C 4.53361 3.00233 5.23039 3 6.4 3L 6.4 -3ZM 3 6.4C 3 5.23039 3.00233 4.53361 3.04453 4.0171C 3.08387 3.53562 3.14241 3.48043 3.10899 3.54601L -2.23705 0.822066C -2.70643 1.74329 -2.86589 2.67598 -2.93554 3.52851C -3.00233 4.34602 -3 5.3294 -3 6.4L 3 6.4ZM 0.822066 -2.23705C -0.495068 -1.56593 -1.56593 -0.495068 -2.23705 0.822066L 3.10899 3.54601C 3.20487 3.35785 3.35785 3.20487 3.54601 3.10899L 0.822066 -2.23705Z"/>
<path id="path4_fill" fill-rule="evenodd" d="M 12.0461 0L 0 23.9868L 8.23242 23.9868L 8.23242 31.8315L 15.3062 31.8315L 15.3062 23.9868L 23.8101 23.9868L 12.0461 0Z"/>
<path id="path5_stroke" d="M 12.0461 0L 13.3929 -0.660493C 13.142 -1.17204 12.623 -1.49729 12.0532 -1.49998C 11.4835 -1.50267 10.9614 -1.18234 10.7057 -0.673177L 12.0461 0ZM 0 23.9868L -1.34046 23.3136C -1.57398 23.7786 -1.54984 24.3314 -1.27667 24.7743C -1.0035 25.2172 -0.520335 25.4868 2.97642e-16 25.4868L 0 23.9868ZM 8.23242 23.9868L 9.73242 23.9868C 9.73242 23.1584 9.06085 22.4868 8.23242 22.4868L 8.23242 23.9868ZM 8.23242 31.8315L 6.73242 31.8315C 6.73242 32.66 7.40399 33.3315 8.23242 33.3315L 8.23242 31.8315ZM 15.3062 31.8315L 15.3062 33.3315C 16.1346 33.3315 16.8062 32.66 16.8062 31.8315L 15.3062 31.8315ZM 15.3062 23.9868L 15.3062 22.4868C 14.4777 22.4868 13.8062 23.1584 13.8062 23.9868L 15.3062 23.9868ZM 23.8101 23.9868L 23.8101 25.4868C 24.3279 25.4868 24.8091 25.2197 25.083 24.7803C 25.3569 24.3409 25.3848 23.7912 25.1568 23.3263L 23.8101 23.9868ZM 10.7057 -0.673177L -1.34046 23.3136L 1.34046 24.66L 13.3866 0.673177L 10.7057 -0.673177ZM 0 25.4868L 8.23242 25.4868L 8.23242 22.4868L 0 22.4868L 0 25.4868ZM 6.73242 23.9868L 6.73242 31.8315L 9.73242 31.8315L 9.73242 23.9868L 6.73242 23.9868ZM 8.23242 33.3315L 15.3062 33.3315L 15.3062 30.3315L 8.23242 30.3315L 8.23242 33.3315ZM 16.8062 31.8315L 16.8062 23.9868L 13.8062 23.9868L 13.8062 31.8315L 16.8062 31.8315ZM 15.3062 25.4868L 23.8101 25.4868L 23.8101 22.4868L 15.3062 22.4868L 15.3062 25.4868ZM 25.1568 23.3263L 13.3929 -0.660493L 10.6994 0.660493L 22.4633 24.6473L 25.1568 23.3263Z"/>
<path id="path6_fill" fill-rule="evenodd" d="M 0 1.5C 0 1.5 0 1.5 4.44089e-16 1.5C 9.69537e-09 0.671573 0.671573 9.69537e-09 1.5 4.44089e-16C 1.5 0 1.5 0 1.5 0L 21.5 0C 21.5 0 21.5 0 21.5 4.44089e-16C 22.3284 9.69537e-09 23 0.671573 23 1.5C 23 1.5 23 1.5 23 1.5C 23 1.5 23 1.5 23 1.5C 23 2.32843 22.3284 3 21.5 3L 1.5 3C 0.671573 3 9.69537e-09 2.32843 4.44089e-16 1.5C 0 1.5 0 1.5 0 1.5Z"/>
<path id="path7_fill" fill-rule="evenodd" d="M 0 1.5C 0 1.5 0 1.5 4.44089e-16 1.5C 9.69537e-09 0.671573 0.671573 9.69537e-09 1.5 4.44089e-16C 1.5 0 1.5 0 1.5 0L 10.5 0C 10.5 0 10.5 0 10.5 4.44089e-16C 11.3284 9.69537e-09 12 0.671573 12 1.5C 12 1.5 12 1.5 12 1.5C 12 1.5 12 1.5 12 1.5C 12 2.32843 11.3284 3 10.5 3L 1.5 3C 0.671573 3 9.69537e-09 2.32843 4.44089e-16 1.5C 0 1.5 0 1.5 0 1.5Z"/>
<path id="path8_fill" fill-rule="evenodd" d="M 0 1.5C 0 1.5 0 1.5 4.44089e-16 1.5C 9.69537e-09 0.671573 0.671573 9.69537e-09 1.5 4.44089e-16C 1.5 0 1.5 0 1.5 0L 40.5 0C 40.5 0 40.5 0 40.5 4.44089e-16C 41.3284 9.69537e-09 42 0.671573 42 1.5C 42 1.5 42 1.5 42 1.5C 42 1.5 42 1.5 42 1.5C 42 2.32843 41.3284 3 40.5 3L 1.5 3C 0.671573 3 9.69537e-09 2.32843 4.44089e-16 1.5C 0 1.5 0 1.5 0 1.5Z"/>
</defs>
</svg>
