<svg width="66" height="62" viewBox="0 0 66 62" version="1.1" xmlns="http://www.w3.org/2000/svg" xmlns:xlink="http://www.w3.org/1999/xlink">
<title>car-recognition</title>
<desc>Created using Figma</desc>
<g id="Canvas" transform="translate(-11022 -7785)">
<g id="car-recognition">
<g id="Group 15">
<g id="Group 8">
<g id="Rectangle 8">
<mask id="mask0_outline_ins">
<use xlink:href="#path0_fill" fill="white" transform="translate(11039.8 7816.06)"/>
</mask>
<g mask="url(#mask0_outline_ins)">
<use xlink:href="#path1_stroke_2x" transform="translate(11039.8 7816.06)" fill="#FFFFFF"/>
</g>
</g>
<g id="Rectangle 8 Copy">
<mask id="mask1_outline_ins">
<use xlink:href="#path0_fill" fill="white" transform="translate(11072.6 7816.06)"/>
</mask>
<g mask="url(#mask1_outline_ins)">
<use xlink:href="#path1_stroke_2x" transform="translate(11072.6 7816.06)" fill="#FFFFFF"/>
</g>
</g>
<g id="Rectangle 7">
<use xlink:href="#path2_fill" transform="translate(11035.1 7804.81)" fill="#1C1A1A"/>
<mask id="mask2_outline_ins">
<use xlink:href="#path2_fill" fill="white" transform="translate(11035.1 7804.81)"/>
</mask>
<g mask="url(#mask2_outline_ins)">
<use xlink:href="#path3_stroke_2x" transform="translate(11035.1 7804.81)" fill="#FFFFFF"/>
</g>
</g>
<g id="Path 4">
<use xlink:href="#path4_stroke" transform="translate(11040.8 7787)" fill="#FFFFFF"/>
</g>
<g id="Oval 3">
<use xlink:href="#path5_stroke" transform="translate(11042.6 7811.38)" fill="#FFFFFF"/>
</g>
<g id="Oval 3 Copy">
<use xlink:href="#path5_stroke" transform="translate(11072.6 7811.38)" fill="#FFFFFF"/>
</g>
</g>
</g>
<g id="Group Copy">
<g id="Rectangle 16">
<use xlink:href="#path6_fill" transform="translate(11022 7794.5)" fill="#1C1A1A"/>
<mask id="mask3_outline_ins">
<use xlink:href="#path6_fill" fill="white" transform="translate(11022 7794.5)"/>
</mask>
<g mask="url(#mask3_outline_ins)">
<use xlink:href="#path7_stroke_2x" transform="translate(11022 7794.5)" fill="#FFFFFF"/>
</g>
</g>
<g id="Rectangle">
<use xlink:href="#path8_fill" transform="translate(11023.9 7832.94)" fill="#FFFFFF"/>
</g>
<g id="Rectangle Copy">
<use xlink:href="#path8_fill" transform="translate(11023.9 7802)" fill="#FFFFFF"/>
</g>
<g id="Oval">
<use xlink:href="#path9_fill" transform="translate(11036.1 7837.62)" fill="#FFFFFF"/>
</g>
</g>
</g>
</g>
<defs>
<path id="path0_fill" fill-rule="evenodd" d="M 0 5.15625C 0 2.30853 2.30853 0 5.15625 0L 5.15625 0C 8.00397 0 10.3125 2.30853 10.3125 5.15625L 10.3125 14.5312C 10.3125 17.379 8.00397 19.6875 5.15625 19.6875L 5.15625 19.6875C 2.30853 19.6875 0 17.379 0 14.5312L 0 5.15625Z"/>
<path id="path1_stroke_2x" d="M 7.3125 5.15625L 7.3125 14.5312L 13.3125 14.5312L 13.3125 5.15625L 7.3125 5.15625ZM 3 14.5312L 3 5.15625L -3 5.15625L -3 14.5312L 3 14.5312ZM 5.15625 16.6875C 3.96539 16.6875 3 15.7221 3 14.5312L -3 14.5312C -3 19.0358 0.651678 22.6875 5.15625 22.6875L 5.15625 16.6875ZM 7.3125 14.5312C 7.3125 15.7221 6.34711 16.6875 5.15625 16.6875L 5.15625 22.6875C 9.66082 22.6875 13.3125 19.0358 13.3125 14.5312L 7.3125 14.5312ZM 5.15625 3C 6.34711 3 7.3125 3.96539 7.3125 5.15625L 13.3125 5.15625C 13.3125 0.651678 9.66082 -3 5.15625 -3L 5.15625 3ZM 5.15625 -3C 0.651678 -3 -3 0.651678 -3 5.15625L 3 5.15625C 3 3.96539 3.96539 3 5.15625 3L 5.15625 -3Z"/>
<path id="path2_fill" fill-rule="evenodd" d="M 0 6C 0 2.68629 2.68629 0 6 0L 46.5 0C 49.8137 0 52.5 2.68629 52.5 6L 52.5 15.5625C 52.5 18.8762 49.8137 21.5625 46.5 21.5625L 6 21.5625C 2.68629 21.5625 0 18.8762 0 15.5625L 0 6Z"/>
<path id="path3_stroke_2x" d="M 6 3L 46.5 3L 46.5 -3L 6 -3L 6 3ZM 49.5 6L 49.5 15.5625L 55.5 15.5625L 55.5 6L 49.5 6ZM 46.5 18.5625L 6 18.5625L 6 24.5625L 46.5 24.5625L 46.5 18.5625ZM 3 15.5625L 3 6L -3 6L -3 15.5625L 3 15.5625ZM 6 18.5625C 4.34315 18.5625 3 17.2194 3 15.5625L -3 15.5625C -3 20.5331 1.02944 24.5625 6 24.5625L 6 18.5625ZM 49.5 15.5625C 49.5 17.2194 48.1569 18.5625 46.5 18.5625L 46.5 24.5625C 51.4706 24.5625 55.5 20.5331 55.5 15.5625L 49.5 15.5625ZM 46.5 3C 48.1569 3 49.5 4.34315 49.5 6L 55.5 6C 55.5 1.02944 51.4706 -3 46.5 -3L 46.5 3ZM 6 -3C 1.02944 -3 -3 1.02944 -3 6L 3 6C 3 4.34315 4.34315 3 6 3L 6 -3Z"/>
<path id="path4_stroke" d="M 32.2465 4.22575e-13L 32.2465 -1.5L 32.2465 4.22575e-13ZM 1.06064 20.5802C 2.61006 19.0309 3.32638 16.8293 3.75687 14.7005C 4.18197 12.5982 4.39558 10.1293 4.68335 8.13743C 4.99083 6.00922 5.39079 4.30982 6.11003 3.15325C 6.45176 2.60373 6.84689 2.20999 7.31748 1.9458C 7.78768 1.68183 8.4172 1.5 9.29887 1.5L 9.29887 -1.5C 7.98883 -1.5 6.83705 -1.22491 5.84887 -0.670148C 4.86109 -0.115602 4.12076 0.671218 3.56246 1.56899C 2.48164 3.30699 2.02327 5.56906 1.71418 7.70846C 1.38539 9.9842 1.22422 12.089 0.816382 14.1059C 0.413923 16.0962 -0.160861 17.5591 -1.06064 18.4589L 1.06064 20.5802ZM 9.29887 1.5C 18.0661 1.5 26.0403 1.5 32.2465 1.5L 32.2465 -1.5C 26.0403 -1.5 18.0661 -1.5 9.29887 -1.5L 9.29887 1.5ZM 32.2465 1.5C 33.9537 1.5 34.8127 1.97186 35.3472 2.57535C 35.9527 3.25913 36.3583 4.3485 36.6558 6.00317C 36.957 7.67783 37.0929 9.53105 37.3799 11.7816C 37.6576 13.9585 38.0641 16.3486 38.8946 18.7539L 41.7304 17.7747C 40.9981 15.654 40.6232 13.4982 40.3558 11.402C 40.0978 9.37931 39.9249 7.23221 39.6085 5.47227C 39.2885 3.69234 38.7677 1.91285 37.5931 0.586418C 36.3473 -0.820303 34.5723 -1.5 32.2465 -1.5L 32.2465 1.5Z"/>
<path id="path5_stroke" d="M 3.75 9C 6.64949 9 9 6.64949 9 3.75L 6 3.75C 6 4.99264 4.99264 6 3.75 6L 3.75 9ZM 9 3.75C 9 0.850505 6.64949 -1.5 3.75 -1.5L 3.75 1.5C 4.99264 1.5 6 2.50736 6 3.75L 9 3.75ZM 3.75 -1.5C 0.850505 -1.5 -1.5 0.850505 -1.5 3.75L 1.5 3.75C 1.5 2.50736 2.50736 1.5 3.75 1.5L 3.75 -1.5ZM -1.5 3.75C -1.5 6.64949 0.850505 9 3.75 9L 3.75 6C 2.50736 6 1.5 4.99264 1.5 3.75L -1.5 3.75Z"/>
<path id="path6_fill" fill-rule="evenodd" d="M 0 6.4C 0 4.15979 0 3.03968 0.435974 2.18404C 0.819467 1.43139 1.43139 0.819467 2.18404 0.435974C 3.03968 0 4.15979 0 6.4 0L 26.4125 0C 28.6527 0 29.7728 0 30.6285 0.435974C 31.3811 0.819467 31.993 1.43139 32.3765 2.18404C 32.8125 3.03968 32.8125 4.15979 32.8125 6.4L 32.8125 46.1C 32.8125 48.3402 32.8125 49.4603 32.3765 50.316C 31.993 51.0686 31.3811 51.6805 30.6285 52.064C 29.7728 52.5 28.6527 52.5 26.4125 52.5L 6.4 52.5C 4.15979 52.5 3.03968 52.5 2.18404 52.064C 1.43139 51.6805 0.819467 51.0686 0.435974 50.316C 0 49.4603 0 48.3402 0 46.1L 0 6.4Z"/>
<path id="path7_stroke_2x" d="M 2.18404 52.064L 0.822066 54.737L 2.18404 52.064ZM 0.435974 50.316L 3.10899 48.954L 0.435974 50.316ZM 32.3765 50.316L 29.7035 48.954L 32.3765 50.316ZM 30.6285 52.064L 29.2665 49.391L 30.6285 52.064ZM 30.6285 0.435974L 31.9904 -2.23705L 30.6285 0.435974ZM 32.3765 2.18404L 35.0495 0.822066L 32.3765 2.18404ZM 2.18404 0.435974L 0.822066 -2.23705L 2.18404 0.435974ZM 0.435974 2.18404L -2.23705 0.822066L 0.435974 2.18404ZM 6.4 3L 26.4125 3L 26.4125 -3L 6.4 -3L 6.4 3ZM 29.8125 6.4L 29.8125 46.1L 35.8125 46.1L 35.8125 6.4L 29.8125 6.4ZM 26.4125 49.5L 6.4 49.5L 6.4 55.5L 26.4125 55.5L 26.4125 49.5ZM 3 46.1L 3 6.4L -3 6.4L -3 46.1L 3 46.1ZM 6.4 49.5C 5.23039 49.5 4.53361 49.4977 4.0171 49.4555C 3.53562 49.4161 3.48043 49.3576 3.54601 49.391L 0.822066 54.737C 1.74329 55.2064 2.67598 55.3659 3.52851 55.4355C 4.34602 55.5023 5.3294 55.5 6.4 55.5L 6.4 49.5ZM -3 46.1C -3 47.1706 -3.00233 48.154 -2.93554 48.9715C -2.86589 49.824 -2.70643 50.7567 -2.23705 51.6779L 3.10899 48.954C 3.14241 49.0196 3.08387 48.9644 3.04453 48.4829C 3.00233 47.9664 3 47.2696 3 46.1L -3 46.1ZM 3.54601 49.391C 3.35785 49.2951 3.20487 49.1422 3.10899 48.954L -2.23705 51.6779C -1.56593 52.9951 -0.495068 54.0659 0.822066 54.737L 3.54601 49.391ZM 29.8125 46.1C 29.8125 47.2696 29.8102 47.9664 29.768 48.4829C 29.7286 48.9644 29.6701 49.0196 29.7035 48.954L 35.0495 51.6779C 35.5189 50.7567 35.6784 49.824 35.748 48.9715C 35.8148 48.154 35.8125 47.1706 35.8125 46.1L 29.8125 46.1ZM 26.4125 55.5C 27.4831 55.5 28.4665 55.5023 29.284 55.4355C 30.1365 55.3659 31.0692 55.2064 31.9904 54.737L 29.2665 49.391C 29.3321 49.3576 29.2769 49.4161 28.7954 49.4555C 28.2789 49.4977 27.5821 49.5 26.4125 49.5L 26.4125 55.5ZM 29.7035 48.954C 29.6076 49.1422 29.4547 49.2951 29.2665 49.391L 31.9904 54.737C 33.3076 54.0659 34.3784 52.9951 35.0495 51.6779L 29.7035 48.954ZM 26.4125 3C 27.5821 3 28.2789 3.00233 28.7954 3.04453C 29.2769 3.08387 29.3321 3.14241 29.2665 3.10899L 31.9904 -2.23705C 31.0692 -2.70643 30.1365 -2.86589 29.284 -2.93554C 28.4665 -3.00233 27.4831 -3 26.4125 -3L 26.4125 3ZM 35.8125 6.4C 35.8125 5.3294 35.8148 4.34602 35.748 3.52851C 35.6784 2.67598 35.5189 1.74329 35.0495 0.822066L 29.7035 3.54601C 29.6701 3.48043 29.7286 3.53562 29.768 4.0171C 29.8102 4.53361 29.8125 5.23039 29.8125 6.4L 35.8125 6.4ZM 29.2665 3.10899C 29.4547 3.20487 29.6076 3.35785 29.7035 3.54601L 35.0495 0.822066C 34.3784 -0.495068 33.3076 -1.56593 31.9904 -2.23705L 29.2665 3.10899ZM 6.4 -3C 5.3294 -3 4.34602 -3.00233 3.52851 -2.93554C 2.67598 -2.86589 1.74329 -2.70643 0.822066 -2.23705L 3.54601 3.10899C 3.48043 3.14241 3.53562 3.08387 4.0171 3.04453C 4.53361 3.00233 5.23039 3 6.4 3L 6.4 -3ZM 3 6.4C 3 5.23039 3.00233 4.53361 3.04453 4.0171C 3.08387 3.53562 3.14241 3.48043 3.10899 3.54601L -2.23705 0.822066C -2.70643 1.74329 -2.86589 2.67598 -2.93554 3.52851C -3.00233 4.34602 -3 5.3294 -3 6.4L 3 6.4ZM 0.822066 -2.23705C -0.495068 -1.56593 -1.56593 -0.495068 -2.23705 0.822066L 3.10899 3.54601C 3.20487 3.35785 3.35785 3.20487 3.54601 3.10899L 0.822066 -2.23705Z"/>
<path id="path8_fill" fill-rule="evenodd" d="M 0 1.40625C 0 0.6296 0.6296 0 1.40625 0L 29.5312 0C 30.3079 0 30.9375 0.6296 30.9375 1.40625L 30.9375 1.40625C 30.9375 2.1829 30.3079 2.8125 29.5312 2.8125L 1.40625 2.8125C 0.6296 2.8125 0 2.1829 0 1.40625L 0 1.40625Z"/>
<path id="path9_fill" fill-rule="evenodd" d="M 1.875 3.75C 2.91053 3.75 3.75 2.91053 3.75 1.875C 3.75 0.839466 2.91053 0 1.875 0C 0.839466 0 0 0.839466 0 1.875C 0 2.91053 0.839466 3.75 1.875 3.75Z"/>
</defs>
</svg>
