<svg width="77" height="72" viewBox="0 0 77 72" version="1.1" xmlns="http://www.w3.org/2000/svg" xmlns:xlink="http://www.w3.org/1999/xlink">
<title>Group Copy 7</title>
<desc>Created using Figma</desc>
<g id="Canvas" transform="translate(-7938 -11321)">
<g id="Group Copy 7">
<g id="Page 1">
<use xlink:href="#path0_stroke" transform="translate(7940 11323)" fill="#FFFFFF"/>
</g>
<g id="Triangle 2">
<use xlink:href="#path1_stroke" transform="translate(7972 11347)" fill="#FFFFFF"/>
</g>
</g>
</g>
<defs>
<path id="path0_stroke" d="M 70.4639 43.4241L 69.1662 42.6717L 69.1662 42.6717L 70.4639 43.4241ZM 70.4639 24.5759L 69.1662 25.3283L 69.1662 25.3283L 70.4639 24.5759ZM 61.6786 9.4241L 62.9763 8.67168L 62.9763 8.67165L 61.6786 9.4241ZM 11.3214 9.4241L 12.619 10.1765L 12.619 10.1765L 11.3214 9.4241ZM 2.53614 24.5759L 3.83377 25.3283L 3.83381 25.3283L 2.53614 24.5759ZM 2.53614 43.4241L 3.83381 42.6717L 3.83377 42.6717L 2.53614 43.4241ZM 11.3214 58.5759L 12.619 57.8235L 12.619 57.8235L 11.3214 58.5759ZM 61.6786 58.5759L 62.9763 59.3283L 62.9763 59.3283L 61.6786 58.5759ZM 71.7615 44.1765C 75.4128 37.8796 75.4128 30.1204 71.7615 23.8235L 69.1662 25.3283C 72.2779 30.6946 72.2779 37.3054 69.1662 42.6717L 71.7615 44.1765ZM 71.7615 23.8235C 70.3921 21.4617 68.8805 18.8547 67.3689 16.2476C 65.8573 13.6405 64.3457 11.0335 62.9763 8.67168L 60.381 10.1765C 61.7504 12.5383 63.262 15.1453 64.7736 17.7524C 66.2852 20.3595 67.7968 22.9665 69.1662 25.3283L 71.7615 23.8235ZM 62.9763 8.67165C 59.3254 2.37548 52.5809 -1.5 45.2853 -1.5L 45.2853 1.5C 51.5154 1.5 57.2689 4.80946 60.381 10.1765L 62.9763 8.67165ZM 45.2853 -1.5L 27.7147 -1.5L 27.7147 1.5L 45.2853 1.5L 45.2853 -1.5ZM 27.7147 -1.5C 20.4191 -1.5 13.6744 2.37546 10.0237 8.67169L 12.619 10.1765C 15.7309 4.80948 21.4846 1.5 27.7147 1.5L 27.7147 -1.5ZM 10.0237 8.67168C 7.28486 13.3952 3.97712 19.1 1.23847 23.8235L 3.83381 25.3283C 6.57243 20.6048 9.88015 14.9 12.619 10.1765L 10.0237 8.67168ZM 1.23852 23.8235C -2.41284 30.1204 -2.41284 37.8796 1.23852 44.1765L 3.83377 42.6717C 0.722077 37.3054 0.722077 30.6946 3.83377 25.3283L 1.23852 23.8235ZM 1.23847 44.1765C 3.97712 48.9 7.28486 54.6048 10.0237 59.3283L 12.619 57.8235C 9.88015 53.1 6.57243 47.3952 3.83381 42.6717L 1.23847 44.1765ZM 10.0237 59.3283C 13.6744 65.6245 20.4191 69.5 27.7147 69.5L 27.7147 66.5C 21.4846 66.5 15.7309 63.1905 12.619 57.8235L 10.0237 59.3283ZM 27.7147 69.5L 45.2853 69.5L 45.2853 66.5L 27.7147 66.5L 27.7147 69.5ZM 45.2853 69.5C 52.5809 69.5 59.3254 65.6245 62.9763 59.3283L 60.381 57.8235C 57.2689 63.1905 51.5154 66.5 45.2853 66.5L 45.2853 69.5ZM 62.9763 59.3283C 64.3457 56.9665 65.8573 54.3595 67.3689 51.7524C 68.8805 49.1453 70.3921 46.5383 71.7615 44.1765L 69.1662 42.6717C 67.7968 45.0335 66.2852 47.6405 64.7736 50.2476C 63.262 52.8547 61.7504 55.4617 60.381 57.8235L 62.9763 59.3283Z"/>
<path id="path1_stroke" d="M 15.5498 10.1114L 16.3675 11.3689C 16.7931 11.0922 17.0498 10.619 17.0498 10.1114C 17.0498 9.60377 16.7931 9.1306 16.3675 8.85387L 15.5498 10.1114ZM 0 20.2228L -1.5 20.2228C -1.5 20.7729 -1.19887 21.2789 -0.715344 21.5412C -0.231816 21.8036 0.356526 21.7802 0.817711 21.4803L 0 20.2228ZM 2.47744e-15 0L 0.817711 -1.25752C 0.356526 -1.55741 -0.231816 -1.58079 -0.715344 -1.31844C -1.19887 -1.05609 -1.5 -0.550114 -1.5 -7.42211e-16L 2.47744e-15 0ZM 14.7321 8.85387L -0.817711 18.9653L 0.817711 21.4803L 16.3675 11.3689L 14.7321 8.85387ZM 1.5 20.2228L 1.5 1.83761e-16L -1.5 -1.83761e-16L -1.5 20.2228L 1.5 20.2228ZM -0.817711 1.25752L 14.7321 11.3689L 16.3675 8.85387L 0.817711 -1.25752L -0.817711 1.25752Z"/>
</defs>
</svg>
