<svg width="60" height="60" viewBox="0 0 60 60" version="1.1" xmlns="http://www.w3.org/2000/svg" xmlns:xlink="http://www.w3.org/1999/xlink">
<title>icon-Wallets-for-financial-transactions</title>
<desc>Created using Figma</desc>
<g id="Canvas" transform="translate(-3257 -4754)">
<g id="icon-Wallets-for-financial-transactions">
<g id="Group">
<g id="Combined Shape">
<use xlink:href="#path0_fill" transform="translate(3262 4770)" fill="#FFFFFF"/>
<mask id="mask0_outline_ins">
<use xlink:href="#path0_fill" fill="white" transform="translate(3262 4770)"/>
</mask>
<g mask="url(#mask0_outline_ins)">
<use xlink:href="#path1_stroke_2x" transform="translate(3262 4770)" fill="#1C1A1A"/>
</g>
</g>
<g id="Rectangle">
<use xlink:href="#path2_fill" transform="translate(3270 4776)" fill="#1C1A1A"/>
</g>
<g id="Rectangle 12">
<use xlink:href="#path3_fill" transform="translate(3294 4786)" fill="#FFFFFF"/>
<mask id="mask1_outline_ins">
<use xlink:href="#path3_fill" fill="white" transform="translate(3294 4786)"/>
</mask>
<g mask="url(#mask1_outline_ins)">
<use xlink:href="#path4_stroke_2x" transform="translate(3294 4786)" fill="#1C1A1A"/>
</g>
</g>
<g id="Oval 5">
<use xlink:href="#path5_fill" transform="translate(3277 4767)" fill="#FFFFFF"/>
<use xlink:href="#path6_stroke" transform="translate(3277 4767)" fill="#1C1A1A"/>
</g>
<g id="Oval">
<use xlink:href="#path7_fill" transform="translate(3294 4758)" fill="#FFFFFF"/>
<use xlink:href="#path8_stroke" transform="translate(3294 4758)" fill="#1C1A1A"/>
</g>
<g id="Path 10">
<use xlink:href="#path9_stroke" transform="translate(3297 4786)" fill="#FFFFFF"/>
</g>
<g id="Path 10 Copy">
<use xlink:href="#path10_stroke" transform="translate(3291.08 4788.7)" fill="#FFFFFF"/>
</g>
<g id="Rectangle 12 Copy">
<mask id="mask2_outline_ins">
<use xlink:href="#path3_fill" fill="white" transform="translate(3284 4786)"/>
</mask>
<g mask="url(#mask2_outline_ins)">
<use xlink:href="#path4_stroke_2x" transform="translate(3284 4786)" fill="#1C1A1A"/>
</g>
</g>
<g id="Path 11">
<use xlink:href="#path11_stroke" transform="translate(3298.33 4791.74)" fill="#FFFFFF"/>
</g>
<g id="Path 12">
<use xlink:href="#path12_stroke" transform="translate(3293.42 4794.4)" fill="#FFFFFF"/>
</g>
</g>
</g>
</g>
<defs>
<path id="path0_fill" fill-rule="evenodd" d="M 4 0C 1.79077 0 0 1.79102 0 4L 0 10L 0 31L 0 37C 0 39.209 1.79077 41 4 41L 44 41C 46.2092 41 48 39.209 48 37L 48 10C 48 7.79102 46.2092 6 44 6L 41 6L 41 4C 41 1.79102 39.2092 0 37 0L 4 0Z"/>
<path id="path1_stroke_2x" d="M 41 6L 38 6L 38 9L 41 9L 41 6ZM 3 4C 3 3.44775 3.44775 3 4 3L 4 -3C 0.133798 -3 -3 0.134281 -3 4L 3 4ZM 3 10L 3 4L -3 4L -3 10L 3 10ZM 3 31L 3 10L -3 10L -3 31L 3 31ZM 3 37L 3 31L -3 31L -3 37L 3 37ZM 4 38C 3.44775 38 3 37.5522 3 37L -3 37C -3 40.8657 0.133798 44 4 44L 4 38ZM 44 38L 4 38L 4 44L 44 44L 44 38ZM 45 37C 45 37.5522 44.5523 38 44 38L 44 44C 47.8662 44 51 40.8657 51 37L 45 37ZM 45 10L 45 37L 51 37L 51 10L 45 10ZM 44 9C 44.5523 9 45 9.44775 45 10L 51 10C 51 6.13428 47.8662 3 44 3L 44 9ZM 41 9L 44 9L 44 3L 41 3L 41 9ZM 38 4L 38 6L 44 6L 44 4L 38 4ZM 37 3C 37.5523 3 38 3.44775 38 4L 44 4C 44 0.134281 40.8662 -3 37 -3L 37 3ZM 4 3L 37 3L 37 -3L 4 -3L 4 3Z"/>
<path id="path2_fill" fill-rule="evenodd" d="M 0 1.5C 0 0.671573 0.671573 0 1.5 0L 30.5 0C 31.3284 0 32 0.671573 32 1.5C 32 2.32843 31.3284 3 30.5 3L 1.5 3C 0.671573 3 0 2.32843 0 1.5Z"/>
<path id="path3_fill" fill-rule="evenodd" d="M 0 6C 0 2.68629 2.68629 0 6 0L 13 0C 16.3137 0 19 2.68629 19 6C 19 9.31371 16.3137 12 13 12L 6 12C 2.68629 12 0 9.31371 0 6Z"/>
<path id="path4_stroke_2x" d="M 6 3L 13 3L 13 -3L 6 -3L 6 3ZM 13 9L 6 9L 6 15L 13 15L 13 9ZM 6 9C 4.34315 9 3 7.65685 3 6L -3 6C -3 10.9706 1.02944 15 6 15L 6 9ZM 16 6C 16 7.65685 14.6569 9 13 9L 13 15C 17.9706 15 22 10.9706 22 6L 16 6ZM 13 3C 14.6569 3 16 4.34315 16 6L 22 6C 22 1.02944 17.9706 -3 13 -3L 13 3ZM 6 -3C 1.02944 -3 -3 1.02944 -3 6L 3 6C 3 4.34315 4.34315 3 6 3L 6 -3Z"/>
<path id="path5_fill" fill-rule="evenodd" d="M 20 10C 20 4.47715 15.5228 0 10 0C 4.47715 0 0 4.47715 0 10C 6.47994 10 13.8343 10 20 10Z"/>
<path id="path6_stroke" d="M 20 10L 20 11.5L 21.5 11.5L 21.5 10L 20 10ZM 0 10L -1.5 10L -1.5 11.5L -8.22396e-16 11.5L 0 10ZM 21.5 10C 21.5 3.64873 16.3513 -1.5 10 -1.5L 10 1.5C 14.6944 1.5 18.5 5.30558 18.5 10L 21.5 10ZM 10 -1.5C 3.64873 -1.5 -1.5 3.64873 -1.5 10L 1.5 10C 1.5 5.30558 5.30558 1.5 10 1.5L 10 -1.5ZM 0 11.5C 0.0126561 11.5 0.0253156 11.5 0.0379784 11.5C 0.0506411 11.5 0.0633072 11.5 0.0759767 11.5C 0.0886461 11.5 0.101319 11.5 0.113995 11.5C 0.126671 11.5 0.13935 11.5 0.152033 11.5C 0.164715 11.5 0.177401 11.5 0.19009 11.5C 0.202779 11.5 0.215472 11.5 0.228167 11.5C 0.240863 11.5 0.253562 11.5 0.266264 11.5C 0.278966 11.5 0.291671 11.5 0.30438 11.5C 0.317088 11.5 0.3298 11.5 0.342515 11.5C 0.35523 11.5 0.367948 11.5 0.380669 11.5C 0.39339 11.5 0.406115 11.5 0.418843 11.5C 0.43157 11.5 0.444301 11.5 0.457035 11.5C 0.469769 11.5 0.482506 11.5 0.495246 11.5C 0.507987 11.5 0.52073 11.5 0.533477 11.5C 0.546223 11.5 0.558973 11.5 0.571725 11.5C 0.584478 11.5 0.597234 11.5 0.609993 11.5C 0.622752 11.5 0.635514 11.5 0.648279 11.5C 0.661044 11.5 0.673812 11.5 0.686584 11.5C 0.699355 11.5 0.712129 11.5 0.724906 11.5C 0.737684 11.5 0.750464 11.5 0.763248 11.5C 0.776031 11.5 0.788817 11.5 0.801607 11.5C 0.814396 11.5 0.827189 11.5 0.839984 11.5C 0.85278 11.5 0.865578 11.5 0.87838 11.5C 0.891181 11.5 0.903985 11.5 0.916793 11.5C 0.9296 11.5 0.942411 11.5 0.955224 11.5C 0.968037 11.5 0.980853 11.5 0.993673 11.5C 1.00649 11.5 1.01931 11.5 1.03214 11.5C 1.04496 11.5 1.05779 11.5 1.07062 11.5C 1.08345 11.5 1.09629 11.5 1.10912 11.5C 1.12196 11.5 1.1348 11.5 1.14764 11.5C 1.16049 11.5 1.17333 11.5 1.18618 11.5C 1.19903 11.5 1.21188 11.5 1.22473 11.5C 1.23759 11.5 1.25044 11.5 1.2633 11.5C 1.27616 11.5 1.28902 11.5 1.30189 11.5C 1.31475 11.5 1.32762 11.5 1.34049 11.5C 1.35336 11.5 1.36624 11.5 1.37911 11.5C 1.39199 11.5 1.40487 11.5 1.41775 11.5C 1.43063 11.5 1.44352 11.5 1.45641 11.5C 1.46929 11.5 1.48218 11.5 1.49508 11.5C 1.50797 11.5 1.52086 11.5 1.53376 11.5C 1.54666 11.5 1.55956 11.5 1.57247 11.5C 1.58537 11.5 1.59828 11.5 1.61119 11.5C 1.6241 11.5 1.63701 11.5 1.64992 11.5C 1.66284 11.5 1.67575 11.5 1.68867 11.5C 1.70159 11.5 1.71452 11.5 1.72744 11.5C 1.74037 11.5 1.75329 11.5 1.76622 11.5C 1.77916 11.5 1.79209 11.5 1.80502 11.5C 1.81796 11.5 1.8309 11.5 1.84384 11.5C 1.85678 11.5 1.86972 11.5 1.88267 11.5C 1.89562 11.5 1.90856 11.5 1.92152 11.5C 1.93447 11.5 1.94742 11.5 1.96038 11.5C 1.97333 11.5 1.98629 11.5 1.99925 11.5C 2.01222 11.5 2.02518 11.5 2.03815 11.5C 2.05111 11.5 2.06408 11.5 2.07705 11.5C 2.09003 11.5 2.103 11.5 2.11598 11.5C 2.12895 11.5 2.14193 11.5 2.15491 11.5C 2.16789 11.5 2.18088 11.5 2.19386 11.5C 2.20685 11.5 2.21984 11.5 2.23283 11.5C 2.24582 11.5 2.25882 11.5 2.27181 11.5C 2.28481 11.5 2.29781 11.5 2.31081 11.5C 2.32381 11.5 2.33681 11.5 2.34982 11.5C 2.36283 11.5 2.37583 11.5 2.38884 11.5C 2.40186 11.5 2.41487 11.5 2.42788 11.5C 2.4409 11.5 2.45392 11.5 2.46694 11.5C 2.47996 11.5 2.49298 11.5 2.506 11.5C 2.51903 11.5 2.53206 11.5 2.54509 11.5C 2.55812 11.5 2.57115 11.5 2.58418 11.5C 2.59722 11.5 2.61025 11.5 2.62329 11.5C 2.63633 11.5 2.64937 11.5 2.66241 11.5C 2.67546 11.5 2.6885 11.5 2.70155 11.5C 2.7146 11.5 2.72765 11.5 2.7407 11.5C 2.75375 11.5 2.76681 11.5 2.77986 11.5C 2.79292 11.5 2.80598 11.5 2.81904 11.5C 2.8321 11.5 2.84517 11.5 2.85823 11.5C 2.8713 11.5 2.88437 11.5 2.89744 11.5C 2.91051 11.5 2.92358 11.5 2.93665 11.5C 2.94973 11.5 2.9628 11.5 2.97588 11.5C 2.98896 11.5 3.00204 11.5 3.01512 11.5C 3.02821 11.5 3.04129 11.5 3.05438 11.5C 3.06747 11.5 3.08056 11.5 3.09365 11.5C 3.10674 11.5 3.11983 11.5 3.13293 11.5C 3.14602 11.5 3.15912 11.5 3.17222 11.5C 3.18532 11.5 3.19842 11.5 3.21153 11.5C 3.22463 11.5 3.23774 11.5 3.25085 11.5C 3.26395 11.5 3.27706 11.5 3.29018 11.5C 3.30329 11.5 3.3164 11.5 3.32952 11.5C 3.34263 11.5 3.35575 11.5 3.36887 11.5C 3.38199 11.5 3.39512 11.5 3.40824 11.5C 3.42136 11.5 3.43449 11.5 3.44762 11.5C 3.46075 11.5 3.47388 11.5 3.48701 11.5C 3.50014 11.5 3.51327 11.5 3.52641 11.5C 3.53955 11.5 3.55268 11.5 3.56582 11.5C 3.57896 11.5 3.59211 11.5 3.60525 11.5C 3.61839 11.5 3.63154 11.5 3.64469 11.5C 3.65783 11.5 3.67098 11.5 3.68413 11.5C 3.69728 11.5 3.71044 11.5 3.72359 11.5C 3.73675 11.5 3.7499 11.5 3.76306 11.5C 3.77622 11.5 3.78938 11.5 3.80254 11.5C 3.81571 11.5 3.82887 11.5 3.84204 11.5C 3.8552 11.5 3.86837 11.5 3.88154 11.5C 3.89471 11.5 3.90788 11.5 3.92105 11.5C 3.93423 11.5 3.9474 11.5 3.96058 11.5C 3.97376 11.5 3.98693 11.5 4.00011 11.5C 4.01329 11.5 4.02648 11.5 4.03966 11.5C 4.05284 11.5 4.06603 11.5 4.07922 11.5C 4.0924 11.5 4.10559 11.5 4.11878 11.5C 4.13197 11.5 4.14517 11.5 4.15836 11.5C 4.17155 11.5 4.18475 11.5 4.19795 11.5C 4.21114 11.5 4.22434 11.5 4.23754 11.5C 4.25075 11.5 4.26395 11.5 4.27715 11.5C 4.29036 11.5 4.30356 11.5 4.31677 11.5C 4.32998 11.5 4.34318 11.5 4.3564 11.5C 4.36961 11.5 4.38282 11.5 4.39603 11.5C 4.40925 11.5 4.42246 11.5 4.43568 11.5C 4.44889 11.5 4.46211 11.5 4.47533 11.5C 4.48855 11.5 4.50177 11.5 4.515 11.5C 4.52822 11.5 4.54145 11.5 4.55467 11.5C 4.5679 11.5 4.58113 11.5 4.59436 11.5C 4.60758 11.5 4.62082 11.5 4.63405 11.5C 4.64728 11.5 4.66051 11.5 4.67375 11.5C 4.68699 11.5 4.70022 11.5 4.71346 11.5C 4.7267 11.5 4.73994 11.5 4.75318 11.5C 4.76642 11.5 4.77966 11.5 4.79291 11.5C 4.80615 11.5 4.8194 11.5 4.83264 11.5C 4.84589 11.5 4.85914 11.5 4.87239 11.5C 4.88564 11.5 4.89889 11.5 4.91214 11.5C 4.9254 11.5 4.93865 11.5 4.95191 11.5C 4.96516 11.5 4.97842 11.5 4.99168 11.5C 5.00494 11.5 5.01819 11.5 5.03146 11.5C 5.04472 11.5 5.05798 11.5 5.07124 11.5C 5.08451 11.5 5.09777 11.5 5.11104 11.5C 5.1243 11.5 5.13757 11.5 5.15084 11.5C 5.16411 11.5 5.17738 11.5 5.19065 11.5C 5.20392 11.5 5.2172 11.5 5.23047 11.5C 5.24374 11.5 5.25702 11.5 5.2703 11.5C 5.28357 11.5 5.29685 11.5 5.31013 11.5C 5.32341 11.5 5.33669 11.5 5.34997 11.5C 5.36325 11.5 5.37654 11.5 5.38982 11.5C 5.4031 11.5 5.41639 11.5 5.42968 11.5C 5.44296 11.5 5.45625 11.5 5.46954 11.5C 5.48283 11.5 5.49612 11.5 5.50941 11.5C 5.5227 11.5 5.53599 11.5 5.54929 11.5C 5.56258 11.5 5.57587 11.5 5.58917 11.5C 5.60247 11.5 5.61576 11.5 5.62906 11.5C 5.64236 11.5 5.65566 11.5 5.66896 11.5C 5.68226 11.5 5.69556 11.5 5.70886 11.5C 5.72216 11.5 5.73547 11.5 5.74877 11.5C 5.76208 11.5 5.77538 11.5 5.78869 11.5C 5.802 11.5 5.81531 11.5 5.82861 11.5C 5.84192 11.5 5.85523 11.5 5.86854 11.5C 5.88186 11.5 5.89517 11.5 5.90848 11.5C 5.92179 11.5 5.93511 11.5 5.94842 11.5C 5.96174 11.5 5.97505 11.5 5.98837 11.5C 6.00169 11.5 6.01501 11.5 6.02832 11.5C 6.04164 11.5 6.05496 11.5 6.06828 11.5C 6.0816 11.5 6.09493 11.5 6.10825 11.5C 6.12157 11.5 6.1349 11.5 6.14822 11.5C 6.16155 11.5 6.17487 11.5 6.1882 11.5C 6.20152 11.5 6.21485 11.5 6.22818 11.5C 6.24151 11.5 6.25484 11.5 6.26817 11.5C 6.2815 11.5 6.29483 11.5 6.30816 11.5C 6.32149 11.5 6.33483 11.5 6.34816 11.5C 6.36149 11.5 6.37483 11.5 6.38816 11.5C 6.4015 11.5 6.41483 11.5 6.42817 11.5C 6.44151 11.5 6.45484 11.5 6.46818 11.5C 6.48152 11.5 6.49486 11.5 6.5082 11.5C 6.52154 11.5 6.53488 11.5 6.54822 11.5C 6.56156 11.5 6.57491 11.5 6.58825 11.5C 6.60159 11.5 6.61494 11.5 6.62828 11.5C 6.64163 11.5 6.65497 11.5 6.66832 11.5C 6.68166 11.5 6.69501 11.5 6.70836 11.5C 6.7217 11.5 6.73505 11.5 6.7484 11.5C 6.76175 11.5 6.7751 11.5 6.78845 11.5C 6.8018 11.5 6.81515 11.5 6.8285 11.5C 6.84186 11.5 6.85521 11.5 6.86856 11.5C 6.88191 11.5 6.89527 11.5 6.90862 11.5C 6.92197 11.5 6.93533 11.5 6.94869 11.5C 6.96204 11.5 6.9754 11.5 6.98875 11.5C 7.00211 11.5 7.01547 11.5 7.02882 11.5C 7.04218 11.5 7.05554 11.5 7.0689 11.5C 7.08226 11.5 7.09562 11.5 7.10898 11.5C 7.12234 11.5 7.1357 11.5 7.14906 11.5C 7.16242 11.5 7.17578 11.5 7.18915 11.5C 7.20251 11.5 7.21587 11.5 7.22923 11.5C 7.2426 11.5 7.25596 11.5 7.26933 11.5C 7.28269 11.5 7.29605 11.5 7.30942 11.5C 7.32278 11.5 7.33615 11.5 7.34952 11.5C 7.36288 11.5 7.37625 11.5 7.38962 11.5C 7.40298 11.5 7.41635 11.5 7.42972 11.5C 7.44309 11.5 7.45646 11.5 7.46982 11.5C 7.48319 11.5 7.49656 11.5 7.50993 11.5C 7.5233 11.5 7.53667 11.5 7.55004 11.5C 7.56341 11.5 7.57678 11.5 7.59015 11.5C 7.60353 11.5 7.6169 11.5 7.63027 11.5C 7.64364 11.5 7.65701 11.5 7.67039 11.5C 7.68376 11.5 7.69713 11.5 7.7105 11.5C 7.72388 11.5 7.73725 11.5 7.75063 11.5C 7.764 11.5 7.77737 11.5 7.79075 11.5C 7.80412 11.5 7.8175 11.5 7.83087 11.5C 7.84425 11.5 7.85762 11.5 7.871 11.5C 7.88437 11.5 7.89775 11.5 7.91113 11.5C 7.9245 11.5 7.93788 11.5 7.95125 11.5C 7.96463 11.5 7.97801 11.5 7.99138 11.5C 8.00476 11.5 8.01814 11.5 8.03152 11.5C 8.04489 11.5 8.05827 11.5 8.07165 11.5C 8.08503 11.5 8.0984 11.5 8.11178 11.5C 8.12516 11.5 8.13854 11.5 8.15192 11.5C 8.1653 11.5 8.17867 11.5 8.19205 11.5C 8.20543 11.5 8.21881 11.5 8.23219 11.5C 8.24557 11.5 8.25895 11.5 8.27233 11.5C 8.28571 11.5 8.29909 11.5 8.31247 11.5C 8.32585 11.5 8.33922 11.5 8.3526 11.5C 8.36598 11.5 8.37936 11.5 8.39274 11.5C 8.40612 11.5 8.4195 11.5 8.43288 11.5C 8.44626 11.5 8.45964 11.5 8.47302 11.5C 8.4864 11.5 8.49978 11.5 8.51316 11.5C 8.52654 11.5 8.53992 11.5 8.5533 11.5C 8.56668 11.5 8.58006 11.5 8.59344 11.5C 8.60682 11.5 8.6202 11.5 8.63358 11.5C 8.64696 11.5 8.66034 11.5 8.67372 11.5C 8.6871 11.5 8.70048 11.5 8.71386 11.5C 8.72724 11.5 8.74062 11.5 8.754 11.5C 8.76738 11.5 8.78076 11.5 8.79414 11.5C 8.80752 11.5 8.8209 11.5 8.83428 11.5C 8.84766 11.5 8.86104 11.5 8.87442 11.5C 8.88779 11.5 8.90117 11.5 8.91455 11.5C 8.92793 11.5 8.94131 11.5 8.95469 11.5C 8.96807 11.5 8.98145 11.5 8.99482 11.5C 9.0082 11.5 9.02158 11.5 9.03496 11.5C 9.04834 11.5 9.06171 11.5 9.07509 11.5C 9.08847 11.5 9.10184 11.5 9.11522 11.5C 9.1286 11.5 9.14198 11.5 9.15535 11.5C 9.16873 11.5 9.18211 11.5 9.19548 11.5C 9.20886 11.5 9.22223 11.5 9.23561 11.5C 9.24898 11.5 9.26236 11.5 9.27573 11.5C 9.28911 11.5 9.30248 11.5 9.31586 11.5C 9.32923 11.5 9.34261 11.5 9.35598 11.5C 9.36936 11.5 9.38273 11.5 9.3961 11.5C 9.40948 11.5 9.42285 11.5 9.43622 11.5C 9.44959 11.5 9.46297 11.5 9.47634 11.5C 9.48971 11.5 9.50308 11.5 9.51645 11.5C 9.52982 11.5 9.54319 11.5 9.55656 11.5C 9.56993 11.5 9.5833 11.5 9.59667 11.5C 9.61004 11.5 9.62341 11.5 9.63678 11.5C 9.65015 11.5 9.66352 11.5 9.67689 11.5C 9.69026 11.5 9.70362 11.5 9.71699 11.5C 9.73036 11.5 9.74372 11.5 9.75709 11.5C 9.77046 11.5 9.78382 11.5 9.79719 11.5C 9.81055 11.5 9.82392 11.5 9.83728 11.5C 9.85065 11.5 9.86401 11.5 9.87737 11.5C 9.89074 11.5 9.9041 11.5 9.91746 11.5C 9.93082 11.5 9.94418 11.5 9.95755 11.5C 9.97091 11.5 9.98427 11.5 9.99763 11.5C 10.011 11.5 10.0243 11.5 10.0377 11.5C 10.0511 11.5 10.0644 11.5 10.0778 11.5C 10.0911 11.5 10.1045 11.5 10.1179 11.5C 10.1312 11.5 10.1446 11.5 10.1579 11.5C 10.1713 11.5 10.1846 11.5 10.198 11.5C 10.2113 11.5 10.2247 11.5 10.238 11.5C 10.2514 11.5 10.2648 11.5 10.2781 11.5C 10.2915 11.5 10.3048 11.5 10.3182 11.5C 10.3315 11.5 10.3449 11.5 10.3582 11.5C 10.3716 11.5 10.3849 11.5 10.3982 11.5C 10.4116 11.5 10.4249 11.5 10.4383 11.5C 10.4516 11.5 10.465 11.5 10.4783 11.5C 10.4917 11.5 10.505 11.5 10.5184 11.5C 10.5317 11.5 10.545 11.5 10.5584 11.5C 10.5717 11.5 10.5851 11.5 10.5984 11.5C 10.6117 11.5 10.6251 11.5 10.6384 11.5C 10.6518 11.5 10.6651 11.5 10.6784 11.5C 10.6918 11.5 10.7051 11.5 10.7184 11.5C 10.7318 11.5 10.7451 11.5 10.7584 11.5C 10.7718 11.5 10.7851 11.5 10.7984 11.5C 10.8118 11.5 10.8251 11.5 10.8384 11.5C 10.8518 11.5 10.8651 11.5 10.8784 11.5C 10.8918 11.5 10.9051 11.5 10.9184 11.5C 10.9317 11.5 10.9451 11.5 10.9584 11.5C 10.9717 11.5 10.985 11.5 10.9984 11.5C 11.0117 11.5 11.025 11.5 11.0383 11.5C 11.0516 11.5 11.065 11.5 11.0783 11.5C 11.0916 11.5 11.1049 11.5 11.1182 11.5C 11.1316 11.5 11.1449 11.5 11.1582 11.5C 11.1715 11.5 11.1848 11.5 11.1981 11.5C 11.2114 11.5 11.2248 11.5 11.2381 11.5C 11.2514 11.5 11.2647 11.5 11.278 11.5C 11.2913 11.5 11.3046 11.5 11.3179 11.5C 11.3312 11.5 11.3445 11.5 11.3578 11.5C 11.3711 11.5 11.3844 11.5 11.3977 11.5C 11.411 11.5 11.4243 11.5 11.4377 11.5C 11.451 11.5 11.4642 11.5 11.4775 11.5C 11.4908 11.5 11.5041 11.5 11.5174 11.5C 11.5307 11.5 11.544 11.5 11.5573 11.5C 11.5706 11.5 11.5839 11.5 11.5972 11.5C 11.6105 11.5 11.6238 11.5 11.6371 11.5C 11.6504 11.5 11.6636 11.5 11.6769 11.5C 11.6902 11.5 11.7035 11.5 11.7168 11.5C 11.7301 11.5 11.7434 11.5 11.7566 11.5C 11.7699 11.5 11.7832 11.5 11.7965 11.5C 11.8098 11.5 11.823 11.5 11.8363 11.5C 11.8496 11.5 11.8629 11.5 11.8761 11.5C 11.8894 11.5 11.9027 11.5 11.916 11.5C 11.9292 11.5 11.9425 11.5 11.9558 11.5C 11.969 11.5 11.9823 11.5 11.9956 11.5C 12.0088 11.5 12.0221 11.5 12.0354 11.5C 12.0486 11.5 12.0619 11.5 12.0752 11.5C 12.0884 11.5 12.1017 11.5 12.1149 11.5C 12.1282 11.5 12.1414 11.5 12.1547 11.5C 12.168 11.5 12.1812 11.5 12.1945 11.5C 12.2077 11.5 12.221 11.5 12.2342 11.5C 12.2475 11.5 12.2607 11.5 12.274 11.5C 12.2872 11.5 12.3005 11.5 12.3137 11.5C 12.3269 11.5 12.3402 11.5 12.3534 11.5C 12.3667 11.5 12.3799 11.5 12.3931 11.5C 12.4064 11.5 12.4196 11.5 12.4329 11.5C 12.4461 11.5 12.4593 11.5 12.4726 11.5C 12.4858 11.5 12.499 11.5 12.5123 11.5C 12.5255 11.5 12.5387 11.5 12.5519 11.5C 12.5652 11.5 12.5784 11.5 12.5916 11.5C 12.6048 11.5 12.6181 11.5 12.6313 11.5C 12.6445 11.5 12.6577 11.5 12.6709 11.5C 12.6841 11.5 12.6974 11.5 12.7106 11.5C 12.7238 11.5 12.737 11.5 12.7502 11.5C 12.7634 11.5 12.7766 11.5 12.7898 11.5C 12.8031 11.5 12.8163 11.5 12.8295 11.5C 12.8427 11.5 12.8559 11.5 12.8691 11.5C 12.8823 11.5 12.8955 11.5 12.9087 11.5C 12.9219 11.5 12.9351 11.5 12.9483 11.5C 12.9614 11.5 12.9746 11.5 12.9878 11.5C 13.001 11.5 13.0142 11.5 13.0274 11.5C 13.0406 11.5 13.0538 11.5 13.067 11.5C 13.0801 11.5 13.0933 11.5 13.1065 11.5C 13.1197 11.5 13.1329 11.5 13.146 11.5C 13.1592 11.5 13.1724 11.5 13.1856 11.5C 13.1987 11.5 13.2119 11.5 13.2251 11.5C 13.2382 11.5 13.2514 11.5 13.2646 11.5C 13.2777 11.5 13.2909 11.5 13.3041 11.5C 13.3172 11.5 13.3304 11.5 13.3435 11.5C 13.3567 11.5 13.3699 11.5 13.383 11.5C 13.3962 11.5 13.4093 11.5 13.4225 11.5C 13.4356 11.5 13.4488 11.5 13.4619 11.5C 13.4751 11.5 13.4882 11.5 13.5014 11.5C 13.5145 11.5 13.5276 11.5 13.5408 11.5C 13.5539 11.5 13.5671 11.5 13.5802 11.5C 13.5933 11.5 13.6065 11.5 13.6196 11.5C 13.6327 11.5 13.6459 11.5 13.659 11.5C 13.6721 11.5 13.6853 11.5 13.6984 11.5C 13.7115 11.5 13.7246 11.5 13.7377 11.5C 13.7509 11.5 13.764 11.5 13.7771 11.5C 13.7902 11.5 13.8033 11.5 13.8164 11.5C 13.8296 11.5 13.8427 11.5 13.8558 11.5C 13.8689 11.5 13.882 11.5 13.8951 11.5C 13.9082 11.5 13.9213 11.5 13.9344 11.5C 13.9475 11.5 13.9606 11.5 13.9737 11.5C 13.9868 11.5 13.9999 11.5 14.013 11.5C 14.0261 11.5 14.0391 11.5 14.0522 11.5C 14.0653 11.5 14.0784 11.5 14.0915 11.5C 14.1046 11.5 14.1177 11.5 14.1307 11.5C 14.1438 11.5 14.1569 11.5 14.17 11.5C 14.183 11.5 14.1961 11.5 14.2092 11.5C 14.2222 11.5 14.2353 11.5 14.2484 11.5C 14.2614 11.5 14.2745 11.5 14.2876 11.5C 14.3006 11.5 14.3137 11.5 14.3268 11.5C 14.3398 11.5 14.3529 11.5 14.3659 11.5C 14.379 11.5 14.392 11.5 14.4051 11.5C 14.4181 11.5 14.4312 11.5 14.4442 11.5C 14.4572 11.5 14.4703 11.5 14.4833 11.5C 14.4964 11.5 14.5094 11.5 14.5224 11.5C 14.5355 11.5 14.5485 11.5 14.5615 11.5C 14.5746 11.5 14.5876 11.5 14.6006 11.5C 14.6136 11.5 14.6267 11.5 14.6397 11.5C 14.6527 11.5 14.6657 11.5 14.6787 11.5C 14.6917 11.5 14.7048 11.5 14.7178 11.5C 14.7308 11.5 14.7438 11.5 14.7568 11.5C 14.7698 11.5 14.7828 11.5 14.7958 11.5C 14.8088 11.5 14.8218 11.5 14.8348 11.5C 14.8478 11.5 14.8608 11.5 14.8738 11.5C 14.8868 11.5 14.8998 11.5 14.9128 11.5C 14.9257 11.5 14.9387 11.5 14.9517 11.5C 14.9647 11.5 14.9777 11.5 14.9906 11.5C 15.0036 11.5 15.0166 11.5 15.0296 11.5C 15.0425 11.5 15.0555 11.5 15.0685 11.5C 15.0814 11.5 15.0944 11.5 15.1074 11.5C 15.1203 11.5 15.1333 11.5 15.1462 11.5C 15.1592 11.5 15.1722 11.5 15.1851 11.5C 15.1981 11.5 15.211 11.5 15.2239 11.5C 15.2369 11.5 15.2498 11.5 15.2628 11.5C 15.2757 11.5 15.2887 11.5 15.3016 11.5C 15.3145 11.5 15.3275 11.5 15.3404 11.5C 15.3533 11.5 15.3663 11.5 15.3792 11.5C 15.3921 11.5 15.405 11.5 15.4179 11.5C 15.4309 11.5 15.4438 11.5 15.4567 11.5C 15.4696 11.5 15.4825 11.5 15.4954 11.5C 15.5083 11.5 15.5212 11.5 15.5342 11.5C 15.5471 11.5 15.56 11.5 15.5729 11.5C 15.5858 11.5 15.5987 11.5 15.6115 11.5C 15.6244 11.5 15.6373 11.5 15.6502 11.5C 15.6631 11.5 15.676 11.5 15.6889 11.5C 15.7018 11.5 15.7146 11.5 15.7275 11.5C 15.7404 11.5 15.7533 11.5 15.7661 11.5C 15.779 11.5 15.7919 11.5 15.8047 11.5C 15.8176 11.5 15.8305 11.5 15.8433 11.5C 15.8562 11.5 15.869 11.5 15.8819 11.5C 15.8947 11.5 15.9076 11.5 15.9204 11.5C 15.9333 11.5 15.9461 11.5 15.959 11.5C 15.9718 11.5 15.9847 11.5 15.9975 11.5C 16.0103 11.5 16.0232 11.5 16.036 11.5C 16.0488 11.5 16.0617 11.5 16.0745 11.5C 16.0873 11.5 16.1001 11.5 16.113 11.5C 16.1258 11.5 16.1386 11.5 16.1514 11.5C 16.1642 11.5 16.177 11.5 16.1898 11.5C 16.2026 11.5 16.2154 11.5 16.2282 11.5C 16.241 11.5 16.2538 11.5 16.2666 11.5C 16.2794 11.5 16.2922 11.5 16.305 11.5C 16.3178 11.5 16.3306 11.5 16.3434 11.5C 16.3562 11.5 16.3689 11.5 16.3817 11.5C 16.3945 11.5 16.4073 11.5 16.42 11.5C 16.4328 11.5 16.4456 11.5 16.4583 11.5C 16.4711 11.5 16.4839 11.5 16.4966 11.5C 16.5094 11.5 16.5221 11.5 16.5349 11.5C 16.5477 11.5 16.5604 11.5 16.5731 11.5C 16.5859 11.5 16.5986 11.5 16.6114 11.5C 16.6241 11.5 16.6369 11.5 16.6496 11.5C 16.6623 11.5 16.6751 11.5 16.6878 11.5C 16.7005 11.5 16.7132 11.5 16.726 11.5C 16.7387 11.5 16.7514 11.5 16.7641 11.5C 16.7768 11.5 16.7895 11.5 16.8022 11.5C 16.815 11.5 16.8277 11.5 16.8404 11.5C 16.8531 11.5 16.8658 11.5 16.8785 11.5C 16.8912 11.5 16.9038 11.5 16.9165 11.5C 16.9292 11.5 16.9419 11.5 16.9546 11.5C 16.9673 11.5 16.98 11.5 16.9926 11.5C 17.0053 11.5 17.018 11.5 17.0307 11.5C 17.0433 11.5 17.056 11.5 17.0686 11.5C 17.0813 11.5 17.094 11.5 17.1066 11.5C 17.1193 11.5 17.1319 11.5 17.1446 11.5C 17.1572 11.5 17.1699 11.5 17.1825 11.5C 17.1952 11.5 17.2078 11.5 17.2204 11.5C 17.2331 11.5 17.2457 11.5 17.2583 11.5C 17.271 11.5 17.2836 11.5 17.2962 11.5C 17.3088 11.5 17.3215 11.5 17.3341 11.5C 17.3467 11.5 17.3593 11.5 17.3719 11.5C 17.3845 11.5 17.3971 11.5 17.4097 11.5C 17.4223 11.5 17.4349 11.5 17.4475 11.5C 17.4601 11.5 17.4727 11.5 17.4853 11.5C 17.4979 11.5 17.5105 11.5 17.5231 11.5C 17.5356 11.5 17.5482 11.5 17.5608 11.5C 17.5734 11.5 17.5859 11.5 17.5985 11.5C 17.6111 11.5 17.6236 11.5 17.6362 11.5C 17.6487 11.5 17.6613 11.5 17.6739 11.5C 17.6864 11.5 17.699 11.5 17.7115 11.5C 17.724 11.5 17.7366 11.5 17.7491 11.5C 17.7617 11.5 17.7742 11.5 17.7867 11.5C 17.7993 11.5 17.8118 11.5 17.8243 11.5C 17.8368 11.5 17.8494 11.5 17.8619 11.5C 17.8744 11.5 17.8869 11.5 17.8994 11.5C 17.9119 11.5 17.9244 11.5 17.9369 11.5C 17.9494 11.5 17.9619 11.5 17.9744 11.5C 17.9869 11.5 17.9994 11.5 18.0119 11.5C 18.0244 11.5 18.0369 11.5 18.0493 11.5C 18.0618 11.5 18.0743 11.5 18.0868 11.5C 18.0992 11.5 18.1117 11.5 18.1242 11.5C 18.1366 11.5 18.1491 11.5 18.1616 11.5C 18.174 11.5 18.1865 11.5 18.1989 11.5C 18.2114 11.5 18.2238 11.5 18.2363 11.5C 18.2487 11.5 18.2611 11.5 18.2736 11.5C 18.286 11.5 18.2984 11.5 18.3109 11.5C 18.3233 11.5 18.3357 11.5 18.3481 11.5C 18.3606 11.5 18.373 11.5 18.3854 11.5C 18.3978 11.5 18.4102 11.5 18.4226 11.5C 18.435 11.5 18.4474 11.5 18.4598 11.5C 18.4722 11.5 18.4846 11.5 18.497 11.5C 18.5094 11.5 18.5218 11.5 18.5341 11.5C 18.5465 11.5 18.5589 11.5 18.5713 11.5C 18.5836 11.5 18.596 11.5 18.6084 11.5C 18.6207 11.5 18.6331 11.5 18.6455 11.5C 18.6578 11.5 18.6702 11.5 18.6825 11.5C 18.6949 11.5 18.7072 11.5 18.7196 11.5C 18.7319 11.5 18.7442 11.5 18.7566 11.5C 18.7689 11.5 18.7812 11.5 18.7935 11.5C 18.8059 11.5 18.8182 11.5 18.8305 11.5C 18.8428 11.5 18.8551 11.5 18.8675 11.5C 18.8798 11.5 18.8921 11.5 18.9044 11.5C 18.9167 11.5 18.929 11.5 18.9413 11.5C 18.9535 11.5 18.9658 11.5 18.9781 11.5C 18.9904 11.5 19.0027 11.5 19.015 11.5C 19.0272 11.5 19.0395 11.5 19.0518 11.5C 19.064 11.5 19.0763 11.5 19.0886 11.5C 19.1008 11.5 19.1131 11.5 19.1253 11.5C 19.1376 11.5 19.1498 11.5 19.1621 11.5C 19.1743 11.5 19.1866 11.5 19.1988 11.5C 19.211 11.5 19.2233 11.5 19.2355 11.5C 19.2477 11.5 19.2599 11.5 19.2721 11.5C 19.2844 11.5 19.2966 11.5 19.3088 11.5C 19.321 11.5 19.3332 11.5 19.3454 11.5C 19.3576 11.5 19.3698 11.5 19.382 11.5C 19.3942 11.5 19.4064 11.5 19.4186 11.5C 19.4307 11.5 19.4429 11.5 19.4551 11.5C 19.4673 11.5 19.4794 11.5 19.4916 11.5C 19.5038 11.5 19.5159 11.5 19.5281 11.5C 19.5402 11.5 19.5524 11.5 19.5645 11.5C 19.5767 11.5 19.5888 11.5 19.601 11.5C 19.6131 11.5 19.6253 11.5 19.6374 11.5C 19.6495 11.5 19.6616 11.5 19.6738 11.5C 19.6859 11.5 19.698 11.5 19.7101 11.5C 19.7222 11.5 19.7343 11.5 19.7465 11.5C 19.7586 11.5 19.7707 11.5 19.7828 11.5C 19.7948 11.5 19.8069 11.5 19.819 11.5C 19.8311 11.5 19.8432 11.5 19.8553 11.5C 19.8674 11.5 19.8794 11.5 19.8915 11.5C 19.9036 11.5 19.9156 11.5 19.9277 11.5C 19.9398 11.5 19.9518 11.5 19.9639 11.5C 19.9759 11.5 19.988 11.5 20 11.5L 20 8.5C 19.988 8.5 19.9759 8.5 19.9639 8.5C 19.9518 8.5 19.9398 8.5 19.9277 8.5C 19.9156 8.5 19.9036 8.5 19.8915 8.5C 19.8794 8.5 19.8674 8.5 19.8553 8.5C 19.8432 8.5 19.8311 8.5 19.819 8.5C 19.8069 8.5 19.7948 8.5 19.7828 8.5C 19.7707 8.5 19.7586 8.5 19.7465 8.5C 19.7343 8.5 19.7222 8.5 19.7101 8.5C 19.698 8.5 19.6859 8.5 19.6738 8.5C 19.6616 8.5 19.6495 8.5 19.6374 8.5C 19.6253 8.5 19.6131 8.5 19.601 8.5C 19.5888 8.5 19.5767 8.5 19.5645 8.5C 19.5524 8.5 19.5402 8.5 19.5281 8.5C 19.5159 8.5 19.5038 8.5 19.4916 8.5C 19.4794 8.5 19.4673 8.5 19.4551 8.5C 19.4429 8.5 19.4307 8.5 19.4186 8.5C 19.4064 8.5 19.3942 8.5 19.382 8.5C 19.3698 8.5 19.3576 8.5 19.3454 8.5C 19.3332 8.5 19.321 8.5 19.3088 8.5C 19.2966 8.5 19.2844 8.5 19.2721 8.5C 19.2599 8.5 19.2477 8.5 19.2355 8.5C 19.2233 8.5 19.211 8.5 19.1988 8.5C 19.1866 8.5 19.1743 8.5 19.1621 8.5C 19.1498 8.5 19.1376 8.5 19.1253 8.5C 19.1131 8.5 19.1008 8.5 19.0886 8.5C 19.0763 8.5 19.064 8.5 19.0518 8.5C 19.0395 8.5 19.0272 8.5 19.015 8.5C 19.0027 8.5 18.9904 8.5 18.9781 8.5C 18.9658 8.5 18.9535 8.5 18.9413 8.5C 18.929 8.5 18.9167 8.5 18.9044 8.5C 18.8921 8.5 18.8798 8.5 18.8675 8.5C 18.8551 8.5 18.8428 8.5 18.8305 8.5C 18.8182 8.5 18.8059 8.5 18.7935 8.5C 18.7812 8.5 18.7689 8.5 18.7566 8.5C 18.7442 8.5 18.7319 8.5 18.7196 8.5C 18.7072 8.5 18.6949 8.5 18.6825 8.5C 18.6702 8.5 18.6578 8.5 18.6455 8.5C 18.6331 8.5 18.6207 8.5 18.6084 8.5C 18.596 8.5 18.5836 8.5 18.5713 8.5C 18.5589 8.5 18.5465 8.5 18.5341 8.5C 18.5218 8.5 18.5094 8.5 18.497 8.5C 18.4846 8.5 18.4722 8.5 18.4598 8.5C 18.4474 8.5 18.435 8.5 18.4226 8.5C 18.4102 8.5 18.3978 8.5 18.3854 8.5C 18.373 8.5 18.3606 8.5 18.3481 8.5C 18.3357 8.5 18.3233 8.5 18.3109 8.5C 18.2984 8.5 18.286 8.5 18.2736 8.5C 18.2611 8.5 18.2487 8.5 18.2363 8.5C 18.2238 8.5 18.2114 8.5 18.1989 8.5C 18.1865 8.5 18.174 8.5 18.1616 8.5C 18.1491 8.5 18.1366 8.5 18.1242 8.5C 18.1117 8.5 18.0992 8.5 18.0868 8.5C 18.0743 8.5 18.0618 8.5 18.0493 8.5C 18.0369 8.5 18.0244 8.5 18.0119 8.5C 17.9994 8.5 17.9869 8.5 17.9744 8.5C 17.9619 8.5 17.9494 8.5 17.9369 8.5C 17.9244 8.5 17.9119 8.5 17.8994 8.5C 17.8869 8.5 17.8744 8.5 17.8619 8.5C 17.8494 8.5 17.8368 8.5 17.8243 8.5C 17.8118 8.5 17.7993 8.5 17.7867 8.5C 17.7742 8.5 17.7617 8.5 17.7491 8.5C 17.7366 8.5 17.724 8.5 17.7115 8.5C 17.699 8.5 17.6864 8.5 17.6739 8.5C 17.6613 8.5 17.6487 8.5 17.6362 8.5C 17.6236 8.5 17.6111 8.5 17.5985 8.5C 17.5859 8.5 17.5734 8.5 17.5608 8.5C 17.5482 8.5 17.5356 8.5 17.5231 8.5C 17.5105 8.5 17.4979 8.5 17.4853 8.5C 17.4727 8.5 17.4601 8.5 17.4475 8.5C 17.4349 8.5 17.4223 8.5 17.4097 8.5C 17.3971 8.5 17.3845 8.5 17.3719 8.5C 17.3593 8.5 17.3467 8.5 17.3341 8.5C 17.3215 8.5 17.3088 8.5 17.2962 8.5C 17.2836 8.5 17.271 8.5 17.2583 8.5C 17.2457 8.5 17.2331 8.5 17.2204 8.5C 17.2078 8.5 17.1952 8.5 17.1825 8.5C 17.1699 8.5 17.1572 8.5 17.1446 8.5C 17.1319 8.5 17.1193 8.5 17.1066 8.5C 17.094 8.5 17.0813 8.5 17.0686 8.5C 17.056 8.5 17.0433 8.5 17.0307 8.5C 17.018 8.5 17.0053 8.5 16.9926 8.5C 16.98 8.5 16.9673 8.5 16.9546 8.5C 16.9419 8.5 16.9292 8.5 16.9165 8.5C 16.9038 8.5 16.8912 8.5 16.8785 8.5C 16.8658 8.5 16.8531 8.5 16.8404 8.5C 16.8277 8.5 16.815 8.5 16.8022 8.5C 16.7895 8.5 16.7768 8.5 16.7641 8.5C 16.7514 8.5 16.7387 8.5 16.726 8.5C 16.7132 8.5 16.7005 8.5 16.6878 8.5C 16.6751 8.5 16.6623 8.5 16.6496 8.5C 16.6369 8.5 16.6241 8.5 16.6114 8.5C 16.5986 8.5 16.5859 8.5 16.5731 8.5C 16.5604 8.5 16.5477 8.5 16.5349 8.5C 16.5221 8.5 16.5094 8.5 16.4966 8.5C 16.4839 8.5 16.4711 8.5 16.4583 8.5C 16.4456 8.5 16.4328 8.5 16.42 8.5C 16.4073 8.5 16.3945 8.5 16.3817 8.5C 16.3689 8.5 16.3562 8.5 16.3434 8.5C 16.3306 8.5 16.3178 8.5 16.305 8.5C 16.2922 8.5 16.2794 8.5 16.2666 8.5C 16.2538 8.5 16.241 8.5 16.2282 8.5C 16.2154 8.5 16.2026 8.5 16.1898 8.5C 16.177 8.5 16.1642 8.5 16.1514 8.5C 16.1386 8.5 16.1258 8.5 16.113 8.5C 16.1001 8.5 16.0873 8.5 16.0745 8.5C 16.0617 8.5 16.0488 8.5 16.036 8.5C 16.0232 8.5 16.0103 8.5 15.9975 8.5C 15.9847 8.5 15.9718 8.5 15.959 8.5C 15.9461 8.5 15.9333 8.5 15.9204 8.5C 15.9076 8.5 15.8947 8.5 15.8819 8.5C 15.869 8.5 15.8562 8.5 15.8433 8.5C 15.8305 8.5 15.8176 8.5 15.8047 8.5C 15.7919 8.5 15.779 8.5 15.7661 8.5C 15.7533 8.5 15.7404 8.5 15.7275 8.5C 15.7146 8.5 15.7018 8.5 15.6889 8.5C 15.676 8.5 15.6631 8.5 15.6502 8.5C 15.6373 8.5 15.6244 8.5 15.6115 8.5C 15.5987 8.5 15.5858 8.5 15.5729 8.5C 15.56 8.5 15.5471 8.5 15.5342 8.5C 15.5212 8.5 15.5083 8.5 15.4954 8.5C 15.4825 8.5 15.4696 8.5 15.4567 8.5C 15.4438 8.5 15.4309 8.5 15.4179 8.5C 15.405 8.5 15.3921 8.5 15.3792 8.5C 15.3663 8.5 15.3533 8.5 15.3404 8.5C 15.3275 8.5 15.3145 8.5 15.3016 8.5C 15.2887 8.5 15.2757 8.5 15.2628 8.5C 15.2498 8.5 15.2369 8.5 15.2239 8.5C 15.211 8.5 15.1981 8.5 15.1851 8.5C 15.1722 8.5 15.1592 8.5 15.1462 8.5C 15.1333 8.5 15.1203 8.5 15.1074 8.5C 15.0944 8.5 15.0814 8.5 15.0685 8.5C 15.0555 8.5 15.0425 8.5 15.0296 8.5C 15.0166 8.5 15.0036 8.5 14.9906 8.5C 14.9777 8.5 14.9647 8.5 14.9517 8.5C 14.9387 8.5 14.9257 8.5 14.9128 8.5C 14.8998 8.5 14.8868 8.5 14.8738 8.5C 14.8608 8.5 14.8478 8.5 14.8348 8.5C 14.8218 8.5 14.8088 8.5 14.7958 8.5C 14.7828 8.5 14.7698 8.5 14.7568 8.5C 14.7438 8.5 14.7308 8.5 14.7178 8.5C 14.7048 8.5 14.6917 8.5 14.6787 8.5C 14.6657 8.5 14.6527 8.5 14.6397 8.5C 14.6267 8.5 14.6136 8.5 14.6006 8.5C 14.5876 8.5 14.5746 8.5 14.5615 8.5C 14.5485 8.5 14.5355 8.5 14.5224 8.5C 14.5094 8.5 14.4964 8.5 14.4833 8.5C 14.4703 8.5 14.4572 8.5 14.4442 8.5C 14.4312 8.5 14.4181 8.5 14.4051 8.5C 14.392 8.5 14.379 8.5 14.3659 8.5C 14.3529 8.5 14.3398 8.5 14.3268 8.5C 14.3137 8.5 14.3006 8.5 14.2876 8.5C 14.2745 8.5 14.2614 8.5 14.2484 8.5C 14.2353 8.5 14.2222 8.5 14.2092 8.5C 14.1961 8.5 14.183 8.5 14.17 8.5C 14.1569 8.5 14.1438 8.5 14.1307 8.5C 14.1177 8.5 14.1046 8.5 14.0915 8.5C 14.0784 8.5 14.0653 8.5 14.0522 8.5C 14.0391 8.5 14.0261 8.5 14.013 8.5C 13.9999 8.5 13.9868 8.5 13.9737 8.5C 13.9606 8.5 13.9475 8.5 13.9344 8.5C 13.9213 8.5 13.9082 8.5 13.8951 8.5C 13.882 8.5 13.8689 8.5 13.8558 8.5C 13.8427 8.5 13.8296 8.5 13.8164 8.5C 13.8033 8.5 13.7902 8.5 13.7771 8.5C 13.764 8.5 13.7509 8.5 13.7377 8.5C 13.7246 8.5 13.7115 8.5 13.6984 8.5C 13.6853 8.5 13.6721 8.5 13.659 8.5C 13.6459 8.5 13.6327 8.5 13.6196 8.5C 13.6065 8.5 13.5933 8.5 13.5802 8.5C 13.5671 8.5 13.5539 8.5 13.5408 8.5C 13.5276 8.5 13.5145 8.5 13.5014 8.5C 13.4882 8.5 13.4751 8.5 13.4619 8.5C 13.4488 8.5 13.4356 8.5 13.4225 8.5C 13.4093 8.5 13.3962 8.5 13.383 8.5C 13.3699 8.5 13.3567 8.5 13.3435 8.5C 13.3304 8.5 13.3172 8.5 13.3041 8.5C 13.2909 8.5 13.2777 8.5 13.2646 8.5C 13.2514 8.5 13.2382 8.5 13.2251 8.5C 13.2119 8.5 13.1987 8.5 13.1856 8.5C 13.1724 8.5 13.1592 8.5 13.146 8.5C 13.1329 8.5 13.1197 8.5 13.1065 8.5C 13.0933 8.5 13.0801 8.5 13.067 8.5C 13.0538 8.5 13.0406 8.5 13.0274 8.5C 13.0142 8.5 13.001 8.5 12.9878 8.5C 12.9746 8.5 12.9614 8.5 12.9483 8.5C 12.9351 8.5 12.9219 8.5 12.9087 8.5C 12.8955 8.5 12.8823 8.5 12.8691 8.5C 12.8559 8.5 12.8427 8.5 12.8295 8.5C 12.8163 8.5 12.8031 8.5 12.7898 8.5C 12.7766 8.5 12.7634 8.5 12.7502 8.5C 12.737 8.5 12.7238 8.5 12.7106 8.5C 12.6974 8.5 12.6841 8.5 12.6709 8.5C 12.6577 8.5 12.6445 8.5 12.6313 8.5C 12.6181 8.5 12.6048 8.5 12.5916 8.5C 12.5784 8.5 12.5652 8.5 12.5519 8.5C 12.5387 8.5 12.5255 8.5 12.5123 8.5C 12.499 8.5 12.4858 8.5 12.4726 8.5C 12.4593 8.5 12.4461 8.5 12.4329 8.5C 12.4196 8.5 12.4064 8.5 12.3931 8.5C 12.3799 8.5 12.3667 8.5 12.3534 8.5C 12.3402 8.5 12.3269 8.5 12.3137 8.5C 12.3005 8.5 12.2872 8.5 12.274 8.5C 12.2607 8.5 12.2475 8.5 12.2342 8.5C 12.221 8.5 12.2077 8.5 12.1945 8.5C 12.1812 8.5 12.168 8.5 12.1547 8.5C 12.1414 8.5 12.1282 8.5 12.1149 8.5C 12.1017 8.5 12.0884 8.5 12.0752 8.5C 12.0619 8.5 12.0486 8.5 12.0354 8.5C 12.0221 8.5 12.0088 8.5 11.9956 8.5C 11.9823 8.5 11.969 8.5 11.9558 8.5C 11.9425 8.5 11.9292 8.5 11.916 8.5C 11.9027 8.5 11.8894 8.5 11.8761 8.5C 11.8629 8.5 11.8496 8.5 11.8363 8.5C 11.823 8.5 11.8098 8.5 11.7965 8.5C 11.7832 8.5 11.7699 8.5 11.7566 8.5C 11.7434 8.5 11.7301 8.5 11.7168 8.5C 11.7035 8.5 11.6902 8.5 11.6769 8.5C 11.6636 8.5 11.6504 8.5 11.6371 8.5C 11.6238 8.5 11.6105 8.5 11.5972 8.5C 11.5839 8.5 11.5706 8.5 11.5573 8.5C 11.544 8.5 11.5307 8.5 11.5174 8.5C 11.5041 8.5 11.4908 8.5 11.4775 8.5C 11.4642 8.5 11.451 8.5 11.4377 8.5C 11.4243 8.5 11.411 8.5 11.3977 8.5C 11.3844 8.5 11.3711 8.5 11.3578 8.5C 11.3445 8.5 11.3312 8.5 11.3179 8.5C 11.3046 8.5 11.2913 8.5 11.278 8.5C 11.2647 8.5 11.2514 8.5 11.2381 8.5C 11.2248 8.5 11.2114 8.5 11.1981 8.5C 11.1848 8.5 11.1715 8.5 11.1582 8.5C 11.1449 8.5 11.1316 8.5 11.1182 8.5C 11.1049 8.5 11.0916 8.5 11.0783 8.5C 11.065 8.5 11.0516 8.5 11.0383 8.5C 11.025 8.5 11.0117 8.5 10.9984 8.5C 10.985 8.5 10.9717 8.5 10.9584 8.5C 10.9451 8.5 10.9317 8.5 10.9184 8.5C 10.9051 8.5 10.8918 8.5 10.8784 8.5C 10.8651 8.5 10.8518 8.5 10.8384 8.5C 10.8251 8.5 10.8118 8.5 10.7984 8.5C 10.7851 8.5 10.7718 8.5 10.7584 8.5C 10.7451 8.5 10.7318 8.5 10.7184 8.5C 10.7051 8.5 10.6918 8.5 10.6784 8.5C 10.6651 8.5 10.6518 8.5 10.6384 8.5C 10.6251 8.5 10.6117 8.5 10.5984 8.5C 10.5851 8.5 10.5717 8.5 10.5584 8.5C 10.545 8.5 10.5317 8.5 10.5184 8.5C 10.505 8.5 10.4917 8.5 10.4783 8.5C 10.465 8.5 10.4516 8.5 10.4383 8.5C 10.4249 8.5 10.4116 8.5 10.3982 8.5C 10.3849 8.5 10.3716 8.5 10.3582 8.5C 10.3449 8.5 10.3315 8.5 10.3182 8.5C 10.3048 8.5 10.2915 8.5 10.2781 8.5C 10.2648 8.5 10.2514 8.5 10.238 8.5C 10.2247 8.5 10.2113 8.5 10.198 8.5C 10.1846 8.5 10.1713 8.5 10.1579 8.5C 10.1446 8.5 10.1312 8.5 10.1179 8.5C 10.1045 8.5 10.0911 8.5 10.0778 8.5C 10.0644 8.5 10.0511 8.5 10.0377 8.5C 10.0243 8.5 10.011 8.5 9.99763 8.5C 9.98427 8.5 9.97091 8.5 9.95755 8.5C 9.94418 8.5 9.93082 8.5 9.91746 8.5C 9.9041 8.5 9.89074 8.5 9.87737 8.5C 9.86401 8.5 9.85065 8.5 9.83728 8.5C 9.82392 8.5 9.81055 8.5 9.79719 8.5C 9.78382 8.5 9.77046 8.5 9.75709 8.5C 9.74372 8.5 9.73036 8.5 9.71699 8.5C 9.70362 8.5 9.69026 8.5 9.67689 8.5C 9.66352 8.5 9.65015 8.5 9.63678 8.5C 9.62341 8.5 9.61004 8.5 9.59667 8.5C 9.5833 8.5 9.56993 8.5 9.55656 8.5C 9.54319 8.5 9.52982 8.5 9.51645 8.5C 9.50308 8.5 9.48971 8.5 9.47634 8.5C 9.46297 8.5 9.44959 8.5 9.43622 8.5C 9.42285 8.5 9.40948 8.5 9.3961 8.5C 9.38273 8.5 9.36936 8.5 9.35598 8.5C 9.34261 8.5 9.32923 8.5 9.31586 8.5C 9.30248 8.5 9.28911 8.5 9.27573 8.5C 9.26236 8.5 9.24898 8.5 9.23561 8.5C 9.22223 8.5 9.20886 8.5 9.19548 8.5C 9.18211 8.5 9.16873 8.5 9.15535 8.5C 9.14198 8.5 9.1286 8.5 9.11522 8.5C 9.10184 8.5 9.08847 8.5 9.07509 8.5C 9.06171 8.5 9.04834 8.5 9.03496 8.5C 9.02158 8.5 9.0082 8.5 8.99482 8.5C 8.98145 8.5 8.96807 8.5 8.95469 8.5C 8.94131 8.5 8.92793 8.5 8.91455 8.5C 8.90117 8.5 8.88779 8.5 8.87442 8.5C 8.86104 8.5 8.84766 8.5 8.83428 8.5C 8.8209 8.5 8.80752 8.5 8.79414 8.5C 8.78076 8.5 8.76738 8.5 8.754 8.5C 8.74062 8.5 8.72724 8.5 8.71386 8.5C 8.70048 8.5 8.6871 8.5 8.67372 8.5C 8.66034 8.5 8.64696 8.5 8.63358 8.5C 8.6202 8.5 8.60682 8.5 8.59344 8.5C 8.58006 8.5 8.56668 8.5 8.5533 8.5C 8.53992 8.5 8.52654 8.5 8.51316 8.5C 8.49978 8.5 8.4864 8.5 8.47302 8.5C 8.45964 8.5 8.44626 8.5 8.43288 8.5C 8.4195 8.5 8.40612 8.5 8.39274 8.5C 8.37936 8.5 8.36598 8.5 8.3526 8.5C 8.33922 8.5 8.32585 8.5 8.31247 8.5C 8.29909 8.5 8.28571 8.5 8.27233 8.5C 8.25895 8.5 8.24557 8.5 8.23219 8.5C 8.21881 8.5 8.20543 8.5 8.19205 8.5C 8.17867 8.5 8.1653 8.5 8.15192 8.5C 8.13854 8.5 8.12516 8.5 8.11178 8.5C 8.0984 8.5 8.08503 8.5 8.07165 8.5C 8.05827 8.5 8.04489 8.5 8.03152 8.5C 8.01814 8.5 8.00476 8.5 7.99138 8.5C 7.97801 8.5 7.96463 8.5 7.95125 8.5C 7.93788 8.5 7.9245 8.5 7.91113 8.5C 7.89775 8.5 7.88437 8.5 7.871 8.5C 7.85762 8.5 7.84425 8.5 7.83087 8.5C 7.8175 8.5 7.80412 8.5 7.79075 8.5C 7.77737 8.5 7.764 8.5 7.75063 8.5C 7.73725 8.5 7.72388 8.5 7.7105 8.5C 7.69713 8.5 7.68376 8.5 7.67039 8.5C 7.65701 8.5 7.64364 8.5 7.63027 8.5C 7.6169 8.5 7.60353 8.5 7.59015 8.5C 7.57678 8.5 7.56341 8.5 7.55004 8.5C 7.53667 8.5 7.5233 8.5 7.50993 8.5C 7.49656 8.5 7.48319 8.5 7.46982 8.5C 7.45646 8.5 7.44309 8.5 7.42972 8.5C 7.41635 8.5 7.40298 8.5 7.38962 8.5C 7.37625 8.5 7.36288 8.5 7.34952 8.5C 7.33615 8.5 7.32278 8.5 7.30942 8.5C 7.29605 8.5 7.28269 8.5 7.26933 8.5C 7.25596 8.5 7.2426 8.5 7.22923 8.5C 7.21587 8.5 7.20251 8.5 7.18915 8.5C 7.17578 8.5 7.16242 8.5 7.14906 8.5C 7.1357 8.5 7.12234 8.5 7.10898 8.5C 7.09562 8.5 7.08226 8.5 7.0689 8.5C 7.05554 8.5 7.04218 8.5 7.02882 8.5C 7.01547 8.5 7.00211 8.5 6.98875 8.5C 6.9754 8.5 6.96204 8.5 6.94869 8.5C 6.93533 8.5 6.92197 8.5 6.90862 8.5C 6.89527 8.5 6.88191 8.5 6.86856 8.5C 6.85521 8.5 6.84186 8.5 6.8285 8.5C 6.81515 8.5 6.8018 8.5 6.78845 8.5C 6.7751 8.5 6.76175 8.5 6.7484 8.5C 6.73505 8.5 6.7217 8.5 6.70836 8.5C 6.69501 8.5 6.68166 8.5 6.66832 8.5C 6.65497 8.5 6.64163 8.5 6.62828 8.5C 6.61494 8.5 6.60159 8.5 6.58825 8.5C 6.57491 8.5 6.56156 8.5 6.54822 8.5C 6.53488 8.5 6.52154 8.5 6.5082 8.5C 6.49486 8.5 6.48152 8.5 6.46818 8.5C 6.45484 8.5 6.44151 8.5 6.42817 8.5C 6.41483 8.5 6.4015 8.5 6.38816 8.5C 6.37483 8.5 6.36149 8.5 6.34816 8.5C 6.33483 8.5 6.32149 8.5 6.30816 8.5C 6.29483 8.5 6.2815 8.5 6.26817 8.5C 6.25484 8.5 6.24151 8.5 6.22818 8.5C 6.21485 8.5 6.20152 8.5 6.1882 8.5C 6.17487 8.5 6.16155 8.5 6.14822 8.5C 6.1349 8.5 6.12157 8.5 6.10825 8.5C 6.09493 8.5 6.0816 8.5 6.06828 8.5C 6.05496 8.5 6.04164 8.5 6.02832 8.5C 6.01501 8.5 6.00169 8.5 5.98837 8.5C 5.97505 8.5 5.96174 8.5 5.94842 8.5C 5.93511 8.5 5.92179 8.5 5.90848 8.5C 5.89517 8.5 5.88186 8.5 5.86854 8.5C 5.85523 8.5 5.84192 8.5 5.82861 8.5C 5.81531 8.5 5.802 8.5 5.78869 8.5C 5.77538 8.5 5.76208 8.5 5.74877 8.5C 5.73547 8.5 5.72216 8.5 5.70886 8.5C 5.69556 8.5 5.68226 8.5 5.66896 8.5C 5.65566 8.5 5.64236 8.5 5.62906 8.5C 5.61576 8.5 5.60247 8.5 5.58917 8.5C 5.57587 8.5 5.56258 8.5 5.54929 8.5C 5.53599 8.5 5.5227 8.5 5.50941 8.5C 5.49612 8.5 5.48283 8.5 5.46954 8.5C 5.45625 8.5 5.44296 8.5 5.42968 8.5C 5.41639 8.5 5.4031 8.5 5.38982 8.5C 5.37654 8.5 5.36325 8.5 5.34997 8.5C 5.33669 8.5 5.32341 8.5 5.31013 8.5C 5.29685 8.5 5.28357 8.5 5.2703 8.5C 5.25702 8.5 5.24374 8.5 5.23047 8.5C 5.2172 8.5 5.20392 8.5 5.19065 8.5C 5.17738 8.5 5.16411 8.5 5.15084 8.5C 5.13757 8.5 5.1243 8.5 5.11104 8.5C 5.09777 8.5 5.08451 8.5 5.07124 8.5C 5.05798 8.5 5.04472 8.5 5.03146 8.5C 5.01819 8.5 5.00494 8.5 4.99168 8.5C 4.97842 8.5 4.96516 8.5 4.95191 8.5C 4.93865 8.5 4.9254 8.5 4.91214 8.5C 4.89889 8.5 4.88564 8.5 4.87239 8.5C 4.85914 8.5 4.84589 8.5 4.83264 8.5C 4.8194 8.5 4.80615 8.5 4.79291 8.5C 4.77966 8.5 4.76642 8.5 4.75318 8.5C 4.73994 8.5 4.7267 8.5 4.71346 8.5C 4.70022 8.5 4.68699 8.5 4.67375 8.5C 4.66051 8.5 4.64728 8.5 4.63405 8.5C 4.62082 8.5 4.60758 8.5 4.59436 8.5C 4.58113 8.5 4.5679 8.5 4.55467 8.5C 4.54145 8.5 4.52822 8.5 4.515 8.5C 4.50177 8.5 4.48855 8.5 4.47533 8.5C 4.46211 8.5 4.44889 8.5 4.43568 8.5C 4.42246 8.5 4.40925 8.5 4.39603 8.5C 4.38282 8.5 4.36961 8.5 4.3564 8.5C 4.34318 8.5 4.32998 8.5 4.31677 8.5C 4.30356 8.5 4.29036 8.5 4.27715 8.5C 4.26395 8.5 4.25075 8.5 4.23754 8.5C 4.22434 8.5 4.21114 8.5 4.19795 8.5C 4.18475 8.5 4.17155 8.5 4.15836 8.5C 4.14517 8.5 4.13197 8.5 4.11878 8.5C 4.10559 8.5 4.0924 8.5 4.07922 8.5C 4.06603 8.5 4.05284 8.5 4.03966 8.5C 4.02648 8.5 4.01329 8.5 4.00011 8.5C 3.98693 8.5 3.97376 8.5 3.96058 8.5C 3.9474 8.5 3.93423 8.5 3.92105 8.5C 3.90788 8.5 3.89471 8.5 3.88154 8.5C 3.86837 8.5 3.8552 8.5 3.84204 8.5C 3.82887 8.5 3.81571 8.5 3.80254 8.5C 3.78938 8.5 3.77622 8.5 3.76306 8.5C 3.7499 8.5 3.73675 8.5 3.72359 8.5C 3.71044 8.5 3.69728 8.5 3.68413 8.5C 3.67098 8.5 3.65783 8.5 3.64469 8.5C 3.63154 8.5 3.61839 8.5 3.60525 8.5C 3.59211 8.5 3.57896 8.5 3.56582 8.5C 3.55268 8.5 3.53955 8.5 3.52641 8.5C 3.51327 8.5 3.50014 8.5 3.48701 8.5C 3.47388 8.5 3.46075 8.5 3.44762 8.5C 3.43449 8.5 3.42136 8.5 3.40824 8.5C 3.39512 8.5 3.38199 8.5 3.36887 8.5C 3.35575 8.5 3.34263 8.5 3.32952 8.5C 3.3164 8.5 3.30329 8.5 3.29018 8.5C 3.27706 8.5 3.26395 8.5 3.25085 8.5C 3.23774 8.5 3.22463 8.5 3.21153 8.5C 3.19842 8.5 3.18532 8.5 3.17222 8.5C 3.15912 8.5 3.14602 8.5 3.13293 8.5C 3.11983 8.5 3.10674 8.5 3.09365 8.5C 3.08056 8.5 3.06747 8.5 3.05438 8.5C 3.04129 8.5 3.02821 8.5 3.01512 8.5C 3.00204 8.5 2.98896 8.5 2.97588 8.5C 2.9628 8.5 2.94973 8.5 2.93665 8.5C 2.92358 8.5 2.91051 8.5 2.89744 8.5C 2.88437 8.5 2.8713 8.5 2.85823 8.5C 2.84517 8.5 2.8321 8.5 2.81904 8.5C 2.80598 8.5 2.79292 8.5 2.77986 8.5C 2.76681 8.5 2.75375 8.5 2.7407 8.5C 2.72765 8.5 2.7146 8.5 2.70155 8.5C 2.6885 8.5 2.67546 8.5 2.66241 8.5C 2.64937 8.5 2.63633 8.5 2.62329 8.5C 2.61025 8.5 2.59722 8.5 2.58418 8.5C 2.57115 8.5 2.55812 8.5 2.54509 8.5C 2.53206 8.5 2.51903 8.5 2.506 8.5C 2.49298 8.5 2.47996 8.5 2.46694 8.5C 2.45392 8.5 2.4409 8.5 2.42788 8.5C 2.41487 8.5 2.40186 8.5 2.38884 8.5C 2.37583 8.5 2.36283 8.5 2.34982 8.5C 2.33681 8.5 2.32381 8.5 2.31081 8.5C 2.29781 8.5 2.28481 8.5 2.27181 8.5C 2.25882 8.5 2.24582 8.5 2.23283 8.5C 2.21984 8.5 2.20685 8.5 2.19386 8.5C 2.18088 8.5 2.16789 8.5 2.15491 8.5C 2.14193 8.5 2.12895 8.5 2.11598 8.5C 2.103 8.5 2.09003 8.5 2.07705 8.5C 2.06408 8.5 2.05111 8.5 2.03815 8.5C 2.02518 8.5 2.01222 8.5 1.99925 8.5C 1.98629 8.5 1.97333 8.5 1.96038 8.5C 1.94742 8.5 1.93447 8.5 1.92152 8.5C 1.90856 8.5 1.89562 8.5 1.88267 8.5C 1.86972 8.5 1.85678 8.5 1.84384 8.5C 1.8309 8.5 1.81796 8.5 1.80502 8.5C 1.79209 8.5 1.77916 8.5 1.76622 8.5C 1.75329 8.5 1.74037 8.5 1.72744 8.5C 1.71452 8.5 1.70159 8.5 1.68867 8.5C 1.67575 8.5 1.66284 8.5 1.64992 8.5C 1.63701 8.5 1.6241 8.5 1.61119 8.5C 1.59828 8.5 1.58537 8.5 1.57247 8.5C 1.55956 8.5 1.54666 8.5 1.53376 8.5C 1.52086 8.5 1.50797 8.5 1.49508 8.5C 1.48218 8.5 1.46929 8.5 1.45641 8.5C 1.44352 8.5 1.43063 8.5 1.41775 8.5C 1.40487 8.5 1.39199 8.5 1.37911 8.5C 1.36624 8.5 1.35336 8.5 1.34049 8.5C 1.32762 8.5 1.31475 8.5 1.30189 8.5C 1.28902 8.5 1.27616 8.5 1.2633 8.5C 1.25044 8.5 1.23759 8.5 1.22473 8.5C 1.21188 8.5 1.19903 8.5 1.18618 8.5C 1.17333 8.5 1.16049 8.5 1.14764 8.5C 1.1348 8.5 1.12196 8.5 1.10912 8.5C 1.09629 8.5 1.08345 8.5 1.07062 8.5C 1.05779 8.5 1.04496 8.5 1.03214 8.5C 1.01931 8.5 1.00649 8.5 0.993673 8.5C 0.980853 8.5 0.968037 8.5 0.955224 8.5C 0.942411 8.5 0.9296 8.5 0.916793 8.5C 0.903985 8.5 0.891181 8.5 0.87838 8.5C 0.865578 8.5 0.85278 8.5 0.839984 8.5C 0.827189 8.5 0.814396 8.5 0.801607 8.5C 0.788817 8.5 0.776031 8.5 0.763248 8.5C 0.750464 8.5 0.737684 8.5 0.724906 8.5C 0.712129 8.5 0.699355 8.5 0.686584 8.5C 0.673812 8.5 0.661044 8.5 0.648279 8.5C 0.635514 8.5 0.622752 8.5 0.609993 8.5C 0.597234 8.5 0.584478 8.5 0.571725 8.5C 0.558973 8.5 0.546223 8.5 0.533477 8.5C 0.52073 8.5 0.507987 8.5 0.495246 8.5C 0.482506 8.5 0.469769 8.5 0.457035 8.5C 0.444301 8.5 0.43157 8.5 0.418843 8.5C 0.406115 8.5 0.39339 8.5 0.380669 8.5C 0.367948 8.5 0.35523 8.5 0.342515 8.5C 0.3298 8.5 0.317088 8.5 0.30438 8.5C 0.291671 8.5 0.278966 8.5 0.266264 8.5C 0.253562 8.5 0.240863 8.5 0.228167 8.5C 0.215472 8.5 0.202779 8.5 0.19009 8.5C 0.177401 8.5 0.164715 8.5 0.152033 8.5C 0.13935 8.5 0.126671 8.5 0.113995 8.5C 0.101319 8.5 0.0886461 8.5 0.0759767 8.5C 0.0633072 8.5 0.0506411 8.5 0.0379784 8.5C 0.0253156 8.5 0.0126561 8.5 0 8.5L 0 11.5Z"/>
<path id="path7_fill" fill-rule="evenodd" d="M 4.5 9C 6.98528 9 9 6.98528 9 4.5C 9 2.01472 6.98528 0 4.5 0C 2.01472 0 0 2.01472 0 4.5C 0 6.98528 2.01472 9 4.5 9Z"/>
<path id="path8_stroke" d="M 4.5 10.5C 7.81371 10.5 10.5 7.81371 10.5 4.5L 7.5 4.5C 7.5 6.15685 6.15685 7.5 4.5 7.5L 4.5 10.5ZM 10.5 4.5C 10.5 1.18629 7.81371 -1.5 4.5 -1.5L 4.5 1.5C 6.15685 1.5 7.5 2.84315 7.5 4.5L 10.5 4.5ZM 4.5 -1.5C 1.18629 -1.5 -1.5 1.18629 -1.5 4.5L 1.5 4.5C 1.5 2.84315 2.84315 1.5 4.5 1.5L 4.5 -1.5ZM -1.5 4.5C -1.5 7.81371 1.18629 10.5 4.5 10.5L 4.5 7.5C 2.84315 7.5 1.5 6.15685 1.5 4.5L -1.5 4.5Z"/>
<path id="path9_stroke" d="M 0.19366 -1.48745C -0.627834 -1.5944 -1.38049 -1.01515 -1.48745 -0.19366C -1.5944 0.627834 -1.01515 1.38049 -0.19366 1.48745L 0.19366 -1.48745ZM 4.41313 6.10628C 4.49516 6.93064 5.22992 7.53242 6.05428 7.45039C 6.87864 7.36837 7.48042 6.6336 7.39839 5.80925L 4.41313 6.10628ZM 0 0C -0.19366 1.48745 -0.194329 1.48736 -0.194978 1.48727C -0.195167 1.48725 -0.195797 1.48717 -0.196177 1.48712C -0.196938 1.48702 -0.19762 1.48692 -0.198224 1.48684C -0.199432 1.48668 -0.20033 1.48656 -0.200921 1.48648C -0.202104 1.48631 -0.202064 1.48632 -0.200839 1.48649C -0.198385 1.48685 -0.191212 1.48792 -0.17962 1.4898C -0.156404 1.49356 -0.115687 1.50056 -0.059853 1.51165C 0.0521529 1.53389 0.222876 1.57216 0.433692 1.63294C 0.85959 1.75572 1.42495 1.96347 1.99464 2.29951C 3.10444 2.95413 4.21036 4.06837 4.41313 6.10628L 7.39839 5.80925C 7.07809 2.5902 5.23114 0.725562 3.51882 -0.284462C 2.67745 -0.780747 1.86445 -1.07676 1.26474 -1.24966C 0.96276 -1.33672 0.708874 -1.39427 0.524471 -1.43089C 0.432101 -1.44923 0.356663 -1.46242 0.300776 -1.47149C 0.272816 -1.47603 0.2497 -1.47954 0.231753 -1.48215C 0.222777 -1.48346 0.215089 -1.48454 0.208728 -1.48542C 0.205548 -1.48586 0.202698 -1.48625 0.200185 -1.48658C 0.198929 -1.48675 0.197756 -1.48691 0.196669 -1.48705C 0.196125 -1.48712 0.195372 -1.48722 0.195101 -1.48726C 0.19437 -1.48735 0.19366 -1.48745 0 0Z"/>
<path id="path10_stroke" d="M -1.5 0.320951C -1.5 1.14938 -0.828427 1.82095 0 1.82095C 0.828427 1.82095 1.5 1.14938 1.5 0.320951L -1.5 0.320951ZM 7.46106 3.27798C 7.46106 4.10641 8.13263 4.77798 8.96106 4.77798C 9.78949 4.77798 10.4611 4.10641 10.4611 3.27798L 7.46106 3.27798ZM 0 0.320951C 0.288855 1.79288 0.288524 1.79294 0.288227 1.793C 0.288174 1.79301 0.287909 1.79306 0.287801 1.79308C 0.287584 1.79313 0.2875 1.79314 0.287549 1.79313C 0.287647 1.79311 0.288274 1.79299 0.289423 1.79277C 0.291722 1.79233 0.296104 1.79149 0.302503 1.79029C 0.315303 1.78789 0.336152 1.78403 0.36451 1.77896C 0.421254 1.76882 0.507882 1.75387 0.620088 1.73607C 0.844863 1.70041 1.17021 1.65363 1.56202 1.6111C 2.35399 1.52514 3.37947 1.46085 4.38045 1.52778C 5.41287 1.59682 6.25513 1.7961 6.7957 2.11671C 7.23774 2.37889 7.46106 2.69227 7.46106 3.27798L 10.4611 3.27798C 10.4611 1.50591 9.56424 0.270768 8.32608 -0.463586C 7.18646 -1.1395 5.78845 -1.38476 4.58061 -1.46553C 3.34133 -1.5484 2.12654 -1.46779 1.23831 -1.37138C 0.790018 -1.32273 0.415286 -1.26896 0.150003 -1.22687C 0.0171797 -1.2058 -0.0887149 -1.18757 -0.163236 -1.17425C -0.200511 -1.16759 -0.22998 -1.16215 -0.25109 -1.15819C -0.261647 -1.15621 -0.270118 -1.15459 -0.276434 -1.15338C -0.279592 -1.15277 -0.282212 -1.15227 -0.284285 -1.15187C -0.285321 -1.15166 -0.286221 -1.15149 -0.286983 -1.15134C -0.287364 -1.15127 -0.287832 -1.15117 -0.288023 -1.15114C -0.288456 -1.15105 -0.288855 -1.15097 0 0.320951Z"/>
<path id="path11_stroke" d="M 0.27681 0C -0.612011 -0.458255 -0.612414 -0.457472 -0.612822 -0.456677C -0.612967 -0.456396 -0.613383 -0.455585 -0.613671 -0.45502C -0.614249 -0.453889 -0.614852 -0.452705 -0.615479 -0.451469C -0.616732 -0.448996 -0.618081 -0.446312 -0.61952 -0.443421C -0.622397 -0.43764 -0.62564 -0.43102 -0.629201 -0.42359C -0.636316 -0.408743 -0.644743 -0.390578 -0.6541 -0.369322C -0.672752 -0.32695 -0.695465 -0.27147 -0.718977 -0.204767C -0.765384 -0.0731189 -0.818375 0.112023 -0.846179 0.333246C -0.902206 0.779029 -0.858216 1.41993 -0.401753 2.01688C 0.0459885 2.60243 0.77597 2.9946 1.77299 3.20038C 2.76907 3.40597 4.12133 3.44592 5.95619 3.25371L 5.74782 1.2646C 4.02031 1.44556 2.89447 1.3897 2.17726 1.24167C 1.46099 1.09383 1.24246 0.874563 1.187 0.80203C 1.14026 0.740902 1.12634 0.677071 1.13821 0.582647C 1.14435 0.533767 1.15676 0.489936 1.16726 0.460136C 1.17221 0.446115 1.17583 0.437753 1.17639 0.436463C 1.17665 0.435889 1.17605 0.437269 1.17437 0.440788C 1.17352 0.442554 1.17239 0.444874 1.17095 0.447772C 1.17023 0.449221 1.16943 0.450817 1.16854 0.452563C 1.1681 0.453436 1.16764 0.454346 1.16715 0.455295C 1.16691 0.455768 1.16653 0.45651 1.16641 0.456746C 1.16602 0.457495 1.16563 0.458255 0.27681 0Z"/>
<path id="path12_stroke" d="M 0.939614 -0.342237C 0.750601 -0.861171 0.176697 -1.12863 -0.342237 -0.939614C -0.861171 -0.750601 -1.12863 -0.176697 -0.939614 0.342237L 0.939614 -0.342237ZM 6.84757 5.56303C 7.39664 5.62254 7.88999 5.22567 7.9495 4.6766C 8.00901 4.12753 7.61214 3.63418 7.06307 3.57467L 6.84757 5.56303ZM 0 0C -0.939614 0.342237 -0.939411 0.342792 -0.939203 0.343363C -0.939126 0.343573 -0.938911 0.34416 -0.938756 0.344582C -0.938447 0.345425 -0.938114 0.346331 -0.937756 0.347298C -0.937042 0.349232 -0.936231 0.351412 -0.935324 0.353834C -0.933508 0.358677 -0.931304 0.364491 -0.928699 0.371245C -0.923489 0.384753 -0.916676 0.402031 -0.908174 0.422849C -0.891174 0.464472 -0.86739 0.520319 -0.83613 0.588517C -0.773655 0.724813 -0.68102 0.911095 -0.552604 1.13218C -0.29611 1.57378 0.105799 2.15879 0.699041 2.76183C 1.89707 3.97963 3.84458 5.23755 6.84757 5.56303L 7.06307 3.57467C 4.5574 3.3031 3.02724 2.27659 2.12478 1.35924C 1.66778 0.894687 1.36373 0.44944 1.17683 0.127663C 1.08355 -0.0329341 1.02013 -0.161614 0.98197 -0.244858C 0.962914 -0.28643 0.950239 -0.316498 0.943357 -0.333347C 0.939919 -0.341766 0.937936 -0.346862 0.937335 -0.348421C 0.937034 -0.3492 0.93708 -0.349093 0.937463 -0.348072C 0.937654 -0.347561 0.93793 -0.346822 0.938289 -0.34585C 0.938468 -0.345365 0.938668 -0.344821 0.938889 -0.344219C 0.938999 -0.343918 0.939181 -0.343422 0.939236 -0.343272C 0.939422 -0.342762 0.939614 -0.342237 0 0Z"/>
</defs>
</svg>
