<svg width="60" height="60" viewBox="0 0 60 60" version="1.1" xmlns="http://www.w3.org/2000/svg" xmlns:xlink="http://www.w3.org/1999/xlink">
<title>icon-digital-voting</title>
<desc>Created using Figma</desc>
<g id="Canvas" transform="translate(-3848 -4444)">
<g id="icon-digital-voting">
<g id="Rectangle 5 Copy">
<mask id="mask0_outline_ins">
<use xlink:href="#path0_fill" fill="white" transform="translate(3851 4447)"/>
</mask>
<g mask="url(#mask0_outline_ins)">
<use xlink:href="#path1_stroke_2x" transform="translate(3851 4447)" fill="#1C1A1A"/>
</g>
</g>
<g id="Rectangle 2 Copy">
<use xlink:href="#path2_fill" transform="translate(3873 4457)" fill="#1C1A1A"/>
</g>
<g id="Rectangle 2 Copy 2">
<use xlink:href="#path2_fill" transform="translate(3873 4472)" fill="#1C1A1A"/>
</g>
<g id="Rectangle 2 Copy 3">
<use xlink:href="#path2_fill" transform="translate(3873 4487)" fill="#1C1A1A"/>
</g>
<g id="Rectangle 4 Copy">
<use xlink:href="#path3_fill" transform="translate(3857 4452)" fill="#FFFFFF"/>
<mask id="mask1_outline_ins">
<use xlink:href="#path3_fill" fill="white" transform="translate(3857 4452)"/>
</mask>
<g mask="url(#mask1_outline_ins)">
<use xlink:href="#path4_stroke_2x" transform="translate(3857 4452)" fill="#1C1A1A"/>
</g>
</g>
<g id="Rectangle 4 Copy 2">
<use xlink:href="#path3_fill" transform="translate(3857 4467)" fill="#FFFFFF"/>
<mask id="mask2_outline_ins">
<use xlink:href="#path3_fill" fill="white" transform="translate(3857 4467)"/>
</mask>
<g mask="url(#mask2_outline_ins)">
<use xlink:href="#path4_stroke_2x" transform="translate(3857 4467)" fill="#1C1A1A"/>
</g>
</g>
<g id="Rectangle 4 Copy 3">
<use xlink:href="#path3_fill" transform="translate(3857 4482)" fill="#FFFFFF"/>
<mask id="mask3_outline_ins">
<use xlink:href="#path3_fill" fill="white" transform="translate(3857 4482)"/>
</mask>
<g mask="url(#mask3_outline_ins)">
<use xlink:href="#path4_stroke_2x" transform="translate(3857 4482)" fill="#1C1A1A"/>
</g>
</g>
</g>
</g>
<defs>
<path id="path0_fill" fill-rule="evenodd" d="M 0 4C 0 1.79086 1.79086 0 4 0L 50 0C 52.2091 0 54 1.79086 54 4L 54 50C 54 52.2091 52.2091 54 50 54L 4 54C 1.79086 54 0 52.2091 0 50L 0 4Z"/>
<path id="path1_stroke_2x" d="M 4 3L 50 3L 50 -3L 4 -3L 4 3ZM 51 4L 51 50L 57 50L 57 4L 51 4ZM 50 51L 4 51L 4 57L 50 57L 50 51ZM 3 50L 3 4L -3 4L -3 50L 3 50ZM 4 51C 3.44772 51 3 50.5523 3 50L -3 50C -3 53.866 0.134007 57 4 57L 4 51ZM 51 50C 51 50.5523 50.5523 51 50 51L 50 57C 53.866 57 57 53.866 57 50L 51 50ZM 50 3C 50.5523 3 51 3.44772 51 4L 57 4C 57 0.134007 53.866 -3 50 -3L 50 3ZM 4 -3C 0.134007 -3 -3 0.134007 -3 4L 3 4C 3 3.44772 3.44772 3 4 3L 4 -3Z"/>
<path id="path2_fill" fill-rule="evenodd" d="M 0 1.5C 0 0.671573 0.671573 0 1.5 0L 22.5 0C 23.3284 0 24 0.671573 24 1.5C 24 2.32843 23.3284 3 22.5 3L 1.5 3C 0.671573 3 0 2.32843 0 1.5Z"/>
<path id="path3_fill" fill-rule="evenodd" d="M 0 0L 13 0L 13 13L 0 13L 0 0Z"/>
<path id="path4_stroke_2x" d="M 0 0L 0 -3L -3 -3L -3 0L 0 0ZM 13 0L 16 0L 16 -3L 13 -3L 13 0ZM 13 13L 13 16L 16 16L 16 13L 13 13ZM 0 13L -3 13L -3 16L 0 16L 0 13ZM 0 3L 13 3L 13 -3L 0 -3L 0 3ZM 10 0L 10 13L 16 13L 16 0L 10 0ZM 13 10L 0 10L 0 16L 13 16L 13 10ZM 3 13L 3 0L -3 0L -3 13L 3 13Z"/>
</defs>
</svg>
