<svg width="42" height="40" viewBox="0 0 42 40" version="1.1" xmlns="http://www.w3.org/2000/svg" xmlns:xlink="http://www.w3.org/1999/xlink">
<title>coursor copy 3</title>
<desc>Created using Figma</desc>
<g id="Canvas" transform="translate(-6044 -12065)">
<g id="coursor copy 3">
<use xlink:href="#path0_stroke" transform="translate(6045 12066)" fill="#1C1A1A"/>
</g>
</g>
<defs>
<path id="path0_stroke" d="M 38.6104 24.2663L 39.4797 24.7605L 39.4798 24.7605L 38.6104 24.2663ZM 38.6104 13.7331L 39.4798 13.2389L 39.4797 13.2387L 38.6104 13.7331ZM 33.7964 5.26626L 32.9271 5.76053L 32.9271 5.76063L 33.7964 5.26626ZM 6.20344 5.26626L 5.33413 4.77199L 5.33409 4.77206L 6.20344 5.26626ZM 1.39008 13.7331L 2.25936 14.2274L 2.25943 14.2273L 1.39008 13.7331ZM 1.39008 24.2663L 2.25948 23.7722L 2.25936 23.7719L 1.39008 24.2663ZM 6.20344 32.7337L 5.33404 33.2278L 5.33413 33.228L 6.20344 32.7337ZM 33.7964 32.7337L 32.9271 32.2395L 32.9271 32.2395L 33.7964 32.7337ZM 39.4798 24.7605C 41.5067 21.1947 41.5067 16.8046 39.4798 13.2389L 37.7411 14.2273C 39.4196 17.1801 39.4196 20.8192 37.7411 23.7721L 39.4798 24.7605ZM 39.4797 13.2387C 38.7292 11.9191 37.901 10.4623 37.0727 9.00545C 36.2445 7.54861 35.4162 6.09168 34.6656 4.7719L 32.9271 5.76063C 33.6776 7.08024 34.5058 8.53702 35.3341 9.99389C 36.1623 11.4507 36.9906 12.9077 37.7412 14.2274L 39.4797 13.2387ZM 34.6657 4.77199C 32.6377 1.20526 28.8843 -1 24.8139 -1L 24.8139 1C 28.1547 1 31.2495 2.80996 32.9271 5.76053L 34.6657 4.77199ZM 24.8139 -1L 15.1859 -1L 15.1859 1L 24.8139 1L 24.8139 -1ZM 15.1859 -1C 11.1155 -1 7.36209 1.20526 5.33413 4.77199L 7.07275 5.76053C 8.75037 2.80996 11.8451 1 15.1859 1L 15.1859 -1ZM 5.33409 4.77206C 4.58388 6.09175 3.75566 7.54859 2.92743 9.00545C 2.0992 10.4623 1.27096 11.9192 0.520735 13.2389L 2.25943 14.2273C 3.00964 12.9076 3.83786 11.4507 4.6661 9.99389C 5.49433 8.53704 6.32256 7.08018 7.07279 5.76046L 5.33409 4.77206ZM 0.520804 13.2388C -1.50693 16.8046 -1.50693 21.1948 0.520804 24.7606L 2.25936 23.7719C 0.580213 20.8191 0.580213 17.1802 2.25936 14.2274L 0.520804 13.2388ZM 0.520682 24.7604C 1.27094 26.0805 2.0992 27.5374 2.92743 28.9942C 3.75566 30.4511 4.58386 31.9079 5.33404 33.2278L 7.07284 32.2396C 6.32258 30.9195 5.49432 29.4626 4.6661 28.0058C 3.83786 26.5489 3.00966 25.0921 2.25948 23.7722L 0.520682 24.7604ZM 5.33413 33.228C 7.36209 36.7947 11.1155 39 15.1859 39L 15.1859 37C 11.8451 37 8.75037 35.19 7.07275 32.2395L 5.33413 33.228ZM 15.1859 39L 24.8139 39L 24.8139 37L 15.1859 37L 15.1859 39ZM 24.8139 39C 28.8843 39 32.6377 36.7947 34.6657 33.228L 32.9271 32.2395C 31.2495 35.19 28.1547 37 24.8139 37L 24.8139 39ZM 34.6657 33.228C 35.4163 31.9079 36.2445 30.4511 37.0727 28.9942C 37.901 27.5374 38.7292 26.0805 39.4797 24.7605L 37.7411 23.772C 36.9905 25.0921 36.1623 26.5489 35.3341 28.0058C 34.5058 29.4626 33.6776 30.9195 32.9271 32.2395L 34.6657 33.228Z"/>
</defs>
</svg>
