<?xml version="1.0" encoding="UTF-8"?>
<svg width="15px" height="14px" viewBox="0 0 15 14" version="1.1" xmlns="http://www.w3.org/2000/svg" xmlns:xlink="http://www.w3.org/1999/xlink">
    <!-- Generator: Sketch 48.2 (47327) - http://www.bohemiancoding.com/sketch -->
    <title>small-arrow-left</title>
    <desc>Created with Sketch.</desc>
    <defs></defs>
    <g id="Apla-StyleGuide-Exportable" stroke="none" stroke-width="1" fill="none" fill-rule="evenodd" transform="translate(-168.000000, -408.000000)">
        <g id="small-arrow-left" transform="translate(168.000000, 408.000000)" fill="#FFFFFF">
            <path d="M8.47137807,13.8840547 C8.30290542,14.198646 7.97106585,14.4126352 7.58924644,14.4126352 C7.16914129,14.4126352 6.80954165,14.1535803 6.66147761,13.7865006 C6.64928882,13.7768539 6.63726259,13.7668794 6.62541005,13.7565761 L1.34395602,9.16547819 C0.927141426,8.80314679 0.88297407,8.17152417 1.24530547,7.75470958 C1.60763686,7.33789499 2.23925948,7.29372763 2.65607408,7.65605903 L6.58924644,11.0751136 L6.58924644,1 C6.58924644,0.44771525 7.03696169,1.01453063e-16 7.58924644,0 C8.14153119,-1.01453063e-16 8.58924644,0.44771525 8.58924644,1 L8.58924644,11.1646425 L12.6254101,7.65605903 C13.0422246,7.29372763 13.6738473,7.33789499 14.0361787,7.75470958 C14.3985101,8.17152417 14.3543427,8.80314679 13.9375281,9.16547819 L8.65607408,13.7565761 C8.59821611,13.8068713 8.53621918,13.849334 8.47137807,13.8840547 Z" id="Combined-Shape-Copy" transform="translate(7.640742, 7.206318) rotate(-270.000000) translate(-7.640742, -7.206318) "></path>
        </g>
    </g>
</svg>