<?xml version="1.0" encoding="UTF-8"?>
<svg width="14px" height="15px" viewBox="0 0 14 15" version="1.1" xmlns="http://www.w3.org/2000/svg" xmlns:xlink="http://www.w3.org/1999/xlink">
    <!-- Generator: Sketch 48.2 (47327) - http://www.bohemiancoding.com/sketch -->
    <title>small-arrow-down</title>
    <desc>Created with Sketch.</desc>
    <defs></defs>
    <g id="Apla-StyleGuide-Exportable" stroke="none" stroke-width="1" fill="none" fill-rule="evenodd" transform="translate(-276.000000, -408.000000)">
        <g id="small-arrow-down" transform="translate(276.000000, 408.000000)" fill="#FFFFFF">
            <path d="M7.47137807,13.8840547 C7.30290542,14.198646 6.97106585,14.4126352 6.58924644,14.4126352 C6.16914129,14.4126352 5.80954165,14.1535803 5.66147761,13.7865006 C5.64928882,13.7768539 5.63726259,13.7668794 5.62541005,13.7565761 L0.343956018,9.16547819 C-0.0728585741,8.80314679 -0.11702593,8.17152417 0.245305466,7.75470958 C0.607636863,7.33789499 1.23925948,7.29372763 1.65607408,7.65605903 L5.58924644,11.0751136 L5.58924644,1 C5.58924644,0.44771525 6.03696169,1.01453063e-16 6.58924644,0 C7.14153119,-1.01453063e-16 7.58924644,0.44771525 7.58924644,1 L7.58924644,11.1646425 L11.6254101,7.65605903 C12.0422246,7.29372763 12.6738473,7.33789499 13.0361787,7.75470958 C13.3985101,8.17152417 13.3543427,8.80314679 12.9375281,9.16547819 L7.65607408,13.7565761 C7.59821611,13.8068713 7.53621918,13.849334 7.47137807,13.8840547 Z" id="Combined-Shape-Copy"></path>
        </g>
    </g>
</svg>