<?xml version="1.0" encoding="UTF-8"?>
<svg width="35px" height="34px" viewBox="0 0 35 34" version="1.1" xmlns="http://www.w3.org/2000/svg" xmlns:xlink="http://www.w3.org/1999/xlink">
    <!-- Generator: Sketch 48.2 (47327) - http://www.bohemiancoding.com/sketch -->
    <title>small-arrow-down-pressed</title>
    <desc>Created with Sketch.</desc>
    <defs></defs>
    <g id="Apla-StyleGuide-Exportable" stroke="none" stroke-width="1" fill="none" fill-rule="evenodd" transform="translate(-1053.000000, -398.000000)">
        <g id="small-arrow-down-pressed" transform="translate(1054.000000, 399.000000)">
            <path d="M31.8535847,20.4347464 C33.3821384,17.6900625 33.3821384,14.3093815 31.8535847,11.5646977 C30.615188,9.34204309 29.1204234,6.65740097 27.8820267,4.43474635 C26.353473,1.69061849 23.5285984,0 20.471491,0 L12.5283749,0 C9.4712675,0 6.64639295,1.69061849 5.11783922,4.43474635 C3.87997887,6.65740097 2.38467789,9.34204309 1.14681754,11.5646977 C-0.382272515,14.3093815 -0.382272515,17.6900625 1.14681754,20.4347464 C2.38467789,22.6579569 3.87997887,25.3420431 5.11783922,27.5652536 C6.64639295,30.3093815 9.4712675,32 12.5283749,32 L20.471491,32 C23.5285984,32 26.353473,30.3093815 27.8820267,27.5652536 C29.1204234,25.3420431 30.615188,22.6579569 31.8535847,20.4347464 Z" id="coursor-copy-2" stroke="#3AC28B" stroke-width="2" fill="#3AC28B"></path>
            <path d="M17.4713781,22.8840547 C17.3029054,23.198646 16.9710659,23.4126352 16.5892464,23.4126352 C16.1691413,23.4126352 15.8095416,23.1535803 15.6614776,22.7865006 C15.6492888,22.7768539 15.6372626,22.7668794 15.6254101,22.7565761 L10.343956,18.1654782 C9.92714143,17.8031468 9.88297407,17.1715242 10.2453055,16.7547096 C10.6076369,16.337895 11.2392595,16.2937276 11.6560741,16.656059 L15.5892464,20.0751136 L15.5892464,10 C15.5892464,9.44771525 16.0369617,9 16.5892464,9 C17.1415312,9 17.5892464,9.44771525 17.5892464,10 L17.5892464,20.1646425 L21.6254101,16.656059 C22.0422246,16.2937276 22.6738473,16.337895 23.0361787,16.7547096 C23.3985101,17.1715242 23.3543427,17.8031468 22.9375281,18.1654782 L17.6560741,22.7565761 C17.5982161,22.8068713 17.5362192,22.849334 17.4713781,22.8840547 Z" id="Combined-Shape-Copy" fill="#FFFFFF"></path>
        </g>
    </g>
</svg>