<svg width="25" height="26" viewBox="0 0 25 26" version="1.1" xmlns="http://www.w3.org/2000/svg" xmlns:xlink="http://www.w3.org/1999/xlink">
<title>Page 1</title>
<desc>Created using Figma</desc>
<g id="Canvas" transform="translate(-13414 -1453)">
<g id="Page 1" opacity="0.394881">
<use xlink:href="#path0_stroke" transform="translate(13415.4 1454.37)"/>
</g>
</g>
<defs>
<path id="path0_stroke" d="M 19.8689 21.225L 19.2463 20.4424L 19.2462 20.4425L 19.8689 21.225ZM 3.75584 21.5391L 4.36937 20.7494L 4.36931 20.7494L 3.75584 21.5391ZM 5.38841 13.6564L 5.38841 2.14194L 3.38841 2.14194L 3.38841 13.6564L 5.38841 13.6564ZM 5.38841 2.14194C 5.38841 1.51142 5.89983 1 6.53035 1L 6.53035 -1C 4.79526 -1 3.38841 0.40685 3.38841 2.14194L 5.38841 2.14194ZM 6.53035 1L 6.7394 1L 6.7394 -1L 6.53035 -1L 6.53035 1ZM 6.7394 1C 7.36921 1 7.8808 1.51125 7.8808 2.14194L 9.8808 2.14194C 9.8808 0.407015 8.47411 -1 6.7394 -1L 6.7394 1ZM 7.8808 2.14194L 7.8808 6.06026L 9.8808 6.06026L 9.8808 2.14194L 7.8808 2.14194ZM 9.8808 6.06026L 9.8808 2.14194L 7.8808 2.14194L 7.8808 6.06026L 9.8808 6.06026ZM 9.8808 2.14194C 9.8808 1.51142 10.3922 1 11.0227 1L 11.0227 -1C 9.28765 -1 7.8808 0.40685 7.8808 2.14194L 9.8808 2.14194ZM 11.0227 1C 11.6536 1 12.1647 1.51125 12.1647 2.14194L 14.1647 2.14194C 14.1647 0.407015 12.7585 -1 11.0227 -1L 11.0227 1ZM 12.1647 2.14194L 12.1647 6.06026L 14.1647 6.06026L 14.1647 2.14194L 12.1647 2.14194ZM 14.1647 6.06026L 14.1647 2.14194L 12.1647 2.14194L 12.1647 6.06026L 14.1647 6.06026ZM 14.1647 2.14194C 14.1647 1.51142 14.6761 1 15.3066 1L 15.3066 -1C 13.5715 -1 12.1647 0.40685 12.1647 2.14194L 14.1647 2.14194ZM 15.3066 1L 15.5157 1L 15.5157 -1L 15.3066 -1L 15.3066 1ZM 15.5157 1C 16.1462 1 16.6576 1.51142 16.6576 2.14194L 18.6576 2.14194C 18.6576 0.40685 17.2508 -1 15.5157 -1L 15.5157 1ZM 16.6576 2.14194L 16.6576 6.06026L 18.6576 6.06026L 18.6576 2.14194L 16.6576 2.14194ZM 18.6576 6.06026L 18.6576 3.81379L 16.6576 3.81379L 16.6576 6.06026L 18.6576 6.06026ZM 18.6576 3.81379C 18.6576 3.18311 19.1687 2.67185 19.7996 2.67185L 19.7996 0.671851C 18.0638 0.671851 16.6576 2.07887 16.6576 3.81379L 18.6576 3.81379ZM 19.7996 2.67185L 20.0086 2.67185L 20.0086 0.671851L 19.7996 0.671851L 19.7996 2.67185ZM 20.0086 2.67185C 20.6384 2.67185 21.15 3.18311 21.15 3.81379L 23.15 3.81379C 23.15 2.07887 21.7433 0.671851 20.0086 0.671851L 20.0086 2.67185ZM 21.15 3.81379L 21.15 15.3283L 23.15 15.3283L 23.15 3.81379L 21.15 3.81379ZM 21.15 15.3283C 21.15 17.6758 20.2394 19.6523 19.2463 20.4424L 20.4915 22.0075C 22.1163 20.7148 23.15 18.0554 23.15 15.3283L 21.15 15.3283ZM 19.2462 20.4425C 18.3811 21.1309 17.7914 21.4353 17.3246 21.5829C 16.8604 21.7297 16.448 21.7463 15.8374 21.7463L 15.8374 23.7463C 16.467 23.7463 17.1474 23.7366 17.9276 23.4899C 18.705 23.244 19.5109 22.7878 20.4916 22.0075L 19.2462 20.4425ZM 15.8374 21.7463L 7.28856 21.7463L 7.28856 23.7463L 15.8374 23.7463L 15.8374 21.7463ZM 7.28856 21.7463C 6.22999 21.7463 5.2023 21.3966 4.36937 20.7494L 3.14231 22.3288C 4.32947 23.2511 5.78979 23.7463 7.28856 23.7463L 7.28856 21.7463ZM 4.36931 20.7494C 2.77899 19.514 1 17.7803 1 14.9443L -1 14.9443C -1 18.7621 1.45181 21.0155 3.14237 22.3288L 4.36931 20.7494ZM 1 14.9443L 1 9.64009L -1 9.64009L -1 14.9443L 1 14.9443ZM 1 9.64009C 1 8.98086 1.53471 8.44616 2.19393 8.44616L 2.19393 6.44616C 0.430137 6.44616 -1 7.87629 -1 9.64009L 1 9.64009ZM 2.19393 8.44616C 2.85386 8.44616 3.38841 8.98102 3.38841 9.64009L 5.38841 9.64009C 5.38841 7.87613 3.95811 6.44616 2.19393 6.44616L 2.19393 8.44616ZM 3.38841 9.64009L 3.38841 13.6564L 5.38841 13.6564L 5.38841 9.64009L 3.38841 9.64009Z"/>
</defs>
</svg>
